<?xml version="1.0" encoding="utf-8"?>
<!-- Generator: Adobe Illustrator 26.2.1, SVG Export Plug-In . SVG Version: 6.00 Build 0)  -->
<svg version="1.1" id="Layer_1" xmlns="http://www.w3.org/2000/svg" xmlns:xlink="http://www.w3.org/1999/xlink" x="0px" y="0px"
	 viewBox="0 0 280 280" style="enable-background:new 0 0 280 280;" xml:space="preserve">
<style type="text/css">
	.st0{fill-rule:evenodd;clip-rule:evenodd;fill:#0082CA;}
	.st1{fill:#FFFFFF;}
</style>
<g>
	<path class="st0" d="M140,0c77.32,0,140,62.68,140,140s-62.68,140-140,140C62.68,280,0,217.32,0,140S62.68,0,140,0L140,0z"/>
	<path class="st1" d="M50.85,209.55c-1.11,0-2.8-0.21-5.09-0.62c-2.29-0.42-4.67-1.52-7.17-3.32c-2.49-1.8-4.88-4.43-7.17-7.89
		c-2.29-3.46-4.05-8.24-5.3-14.33c-2.08-10.66-0.45-23.72,4.88-39.16c5.33-15.44,14.3-32.93,26.9-52.46
		c3.32-5.12,7.24-10.53,11.74-16.2c4.5-5.68,9.31-11.29,14.44-16.83c5.12-5.54,10.46-10.87,16-16c5.54-5.12,11.05-9.63,16.52-13.5
		c5.47-3.88,10.73-7.03,15.79-9.45c5.06-2.42,9.66-3.77,13.82-4.05h1.25c3.74,0,6.23,0.83,7.48,2.49c1.25,1.66,2.01,3.46,2.29,5.4
		c0,0.14,0,0.38,0,0.73c0,0.35-0.14,1.32-0.42,2.91c-0.28,1.59-0.66,3.98-1.14,7.17c-0.48,3.19-1.25,7.58-2.28,13.19
		c-1.04,5.61-2.32,12.71-3.84,21.29c-1.52,8.59-3.39,19.11-5.61,31.58c4.99-2.35,8.9-4.5,11.74-6.44c2.84-1.94,4.4-3.12,4.67-3.53
		c0.14,0,0.24-0.03,0.31-0.1c0.07-0.07,0.17-0.1,0.31-0.1c0.28,0,0.48,0.07,0.62,0.21c0,0,0.03,0.17,0.1,0.52s0.03,1.07-0.1,2.18
		c-0.14,1.11-0.45,2.87-0.94,5.3c-0.48,2.42-1.21,5.71-2.18,9.87c-0.14,0.28-0.21,0.42-0.21,0.42c-0.14,0-1.87,0.83-5.19,2.49
		c-3.32,1.66-7.34,3.46-12.05,5.4c-1.11,6.92-2.35,13.99-3.74,21.19c-1.11,6.23-2.35,13.09-3.74,20.57
		c-1.38,7.48-2.7,14.75-3.95,21.81c0,0.28-0.21,0.48-0.62,0.62l-31.37,2.91c-0.14,0-0.28-0.07-0.42-0.21
		c-0.14-0.14-0.21-0.35-0.21-0.62l10.39-55.68c-3.32,0.97-7.06,2.15-11.22,3.53c-4.15,1.39-8.34,2.91-12.57,4.57
		c-4.22,1.66-8.28,3.36-12.15,5.09c-3.88,1.73-7.27,3.36-10.18,4.88c-2.35,7.89-3.98,14.92-4.88,21.09
		c-0.9,6.16-1.45,11.53-1.66,16.1c-0.21,4.57-0.14,8.48,0.21,11.74c0.35,3.25,0.66,5.92,0.93,8c0.28,1.94,0.45,3.5,0.52,4.67
		c0.07,1.18-0.45,1.9-1.56,2.18C53.69,209.41,52.37,209.55,50.85,209.55L50.85,209.55z M123.77,37.53c-1.8,1.25-4.81,4.02-9.04,8.31
		c-4.22,4.29-9.04,10.21-14.44,17.76c-5.4,7.55-11.08,16.76-17.04,27.63c-5.96,10.87-11.5,23.51-16.62,37.91
		c4.43-2.22,10.08-4.81,16.93-7.79c6.86-2.98,14.16-6.13,21.92-9.45l4.99-2.08L123.77,37.53L123.77,37.53z"/>
	<path class="st1" d="M196.52,242.91c-13.42,0-24.46-5.23-33.1-15.68c-6.45-7.61-10.81-16.94-13.07-27.97
		c-2.26-11.03-2.29-22.94-0.1-35.72c2.32-12.78,5.52-23.62,9.58-32.52c4.07-8.9,8.49-16.29,13.26-22.17
		c4.78-5.87,9.71-10.45,14.81-13.74c5.1-3.29,9.84-5.74,14.23-7.36c4.39-1.61,8.16-2.58,11.33-2.9c3.16-0.32,5.19-0.48,6.1-0.48
		c6.84,0,12.94,0.97,18.29,2.9c5.36,1.94,9.52,4.71,12.49,8.32c4.13,4.9,5.61,10.71,4.45,17.42c-0.65,4.26-1.68,7.71-3.1,10.36
		c-1.42,2.65-3,4.71-4.74,6.19c-1.74,1.48-3.58,2.52-5.52,3.1c-1.94,0.58-3.74,0.87-5.42,0.87c-2.19,0-4.13-0.26-5.81-0.77
		c-1.68-0.52-2.77-0.9-3.29-1.16c-0.13-0.13-0.19-0.26-0.19-0.39v-0.39c0,0,0.61-1,1.84-3c1.23-2,2.45-4.39,3.68-7.16
		c1.23-2.77,2.16-5.71,2.81-8.81c0.64-3.1,0.39-5.74-0.77-7.94c-2.06-3.48-6.19-5.16-12.39-5.03c-5.29,0-10.2,2.29-14.71,6.87
		c-4.52,4.58-8.52,10.36-12,17.33c-3.48,6.97-6.36,14.52-8.61,22.65c-2.26,8.13-3.77,15.74-4.55,22.84
		c-0.65,6.07-0.81,12.13-0.48,18.2c0.32,6.07,1.29,11.62,2.9,16.65c1.61,5.03,3.94,9.29,6.97,12.78c3.03,3.48,7,5.61,11.91,6.39
		c1.94,0.39,3.87,0.58,5.81,0.58c5.03,0,9.78-0.9,14.23-2.71c4.45-1.81,8.32-3.78,11.62-5.9c3.29-2.13,5.9-4.13,7.84-6
		c1.94-1.87,3.03-2.94,3.29-3.19c0.39-0.39,0.71-0.58,0.97-0.58c0.13,0,0.32,0.06,0.58,0.19c0.26,0.13,0.39,0.52,0.39,1.16
		c0,1.55-0.87,4.32-2.61,8.32c-1.74,4-4.61,8.07-8.61,12.2c-1.81,1.94-3.97,3.87-6.49,5.81c-2.52,1.94-5.42,3.68-8.71,5.23
		c-3.29,1.55-7,2.81-11.13,3.77C206.33,242.42,201.68,242.91,196.52,242.91L196.52,242.91z"/>
</g>
</svg>
