<?xml version="1.0" encoding="utf-8"?>
<!-- Generator: Adobe Illustrator 26.1.0, SVG Export Plug-In . SVG Version: 6.00 Build 0)  -->
<svg version="1.1" id="Layer_1" xmlns="http://www.w3.org/2000/svg" xmlns:xlink="http://www.w3.org/1999/xlink" x="0px" y="0px"
	 viewBox="0 0 280 280" style="enable-background:new 0 0 280 280;" xml:space="preserve">
<style type="text/css">
	.st0{fill-rule:evenodd;clip-rule:evenodd;fill:#ED1B24;}
</style>
<g>
	<g>
		<path class="st0" d="M273.56,160.24c-0.67,0-6.05-5.48-7.61-7.75c-8.4-12.24-3.91-26.88,10.86-35.41
			c3.22-1.86,3.43-2.15,3.03-4.33c-0.18-0.98-0.5-2.82-0.73-4.08c-0.22-1.26-0.64-2.99-0.94-3.83c-0.29-0.84-1.15-3.49-1.89-5.87
			c-0.75-2.39-1.68-4.85-2.07-5.47c-0.4-0.62-0.72-1.44-0.72-1.81c0-0.84-7.55-15.9-9.02-18c-0.59-0.84-1.96-2.91-3.04-4.6
			c-4.2-6.56-4.28-6.6-9.25-4.85c-6.81,2.39-17.77,1.16-23.37-2.63c-3.34-2.26-8.43-8.15-8.43-9.76c0-0.38-0.26-0.94-0.57-1.25
			c-2.8-2.8-2.98-15.42-0.3-21.01c1.31-2.73-18.61-12.95-34.89-17.89c-2.95-0.9-6.4-1.97-7.66-2.38c-1.26-0.42-2.94-0.75-3.73-0.75
			c-0.79,0-2.12-0.36-2.97-0.79c-2.67-1.38-4.54-0.82-5.91,1.79c-0.66,1.25-1.54,2.64-1.95,3.1c-0.42,0.46-0.76,1.08-0.76,1.39
			c0,0.3-1.67,2.1-3.7,4c-13.38,12.45-31.71,9.34-41.5-7.05c-2.68-4.48-2.75-4.51-8.68-3.09c-1.68,0.4-3.98,0.96-5.11,1.24
			c-1.12,0.28-3.33,0.8-4.9,1.16c-1.57,0.36-3.12,0.82-3.44,1.02c-0.32,0.2-1.68,0.67-3.02,1.05c-3.11,0.88-6.41,2.1-9.33,3.42
			C64.29,23.86,58.8,27.8,60.59,31.15c10.14,18.94-15.46,43.36-34.67,33.07c-2.67-1.43-5.75-0.2-5.75,2.31
			c0,0.17-1.39,2.72-3.1,5.67C12.54,80.07,4.87,96.7,4.86,98.7c0,0.28-0.34,1.15-0.75,1.94c-0.41,0.78-0.9,2.28-1.09,3.32
			c-0.19,1.04-0.58,2.35-0.87,2.91c-1.02,1.95-1.81,6.84-1.18,7.32c0.31,0.25,2.48,1.39,4.82,2.55c5.6,2.77,12.34,9.89,12.36,13.05
			c0,0.31,0.37,1.26,0.83,2.11c2.42,4.48,1.16,15.29-2.38,20.43c-1.83,2.67-7.36,7.92-8.33,7.92c-0.42,0-0.84,0.19-0.93,0.42
			c-0.09,0.23-1.84,1.19-3.89,2.13c-2.88,1.32-3.65,1.89-3.39,2.51c0.19,0.44,0.63,2.3,0.98,4.13c0.35,1.82,0.89,4.01,1.18,4.85
			c0.3,0.84,1.03,3.26,1.64,5.36c0.98,3.43,1.59,5.12,3.8,10.47c2.46,5.97,9,17.89,11.76,21.43c0.43,0.55,0.78,1.24,0.79,1.53
			c0.03,1.52,2.49,2.92,4.19,2.36c9.67-3.17,17.73-2.1,26.14,3.47c4.81,3.19,7.19,6.31,10.23,13.42c1.33,3.11,1.08,10.71-0.47,14.48
			c-1.73,4.2-1.64,4.86,0.9,6.46c4.14,2.59,11.03,6.57,11.39,6.57c0.31,0,4.05,1.68,6.97,3.13c2.38,1.18,17.99,6.38,20.56,6.85
			c1.12,0.2,2.44,0.57,2.92,0.82c0.74,0.38,3.6,1.06,9.6,2.28c1.11,0.23,1.47-0.09,2.78-2.45c2.41-4.33,8.02-9.55,12.8-11.88
			c6.13-3,11.08-3.78,16.92-2.68c7.04,1.33,13.5,6,18.18,13.16c2.38,3.64,3.12,4.26,4.32,3.62c0.51-0.27,2.3-0.65,3.99-0.84
			c1.68-0.19,4.1-0.66,5.36-1.04c1.26-0.38,3.31-0.85,4.55-1.04c2.4-0.37,13.58-3.87,16.14-5.04c8.74-4.03,11.78-5.68,17.76-9.67
			c5.73-3.83,5.89-4.13,4.41-8.43c-1.48-4.28-1.63-11.66-0.29-14.22c0.47-0.9,0.85-1.98,0.85-2.4c0-2.01,5.74-8.64,9.9-11.44
			c8.02-5.4,19.34-6.7,25.2-2.88c2.06,1.34,4.5-0.43,6.71-4.88c0.35-0.7,1.2-2.2,1.89-3.32c2.12-3.46,8.27-16.14,9.66-19.92
			c2.37-6.43,3.25-9.16,3.62-11.23c0.2-1.12,0.58-2.47,0.85-2.99c0.27-0.52,0.69-2.38,0.94-4.14c0.25-1.76,0.59-3.55,0.76-3.99
			C280.18,164.49,274.76,160.24,273.56,160.24z M246.28,152.58c-0.48,1.83-1.09,4.55-1.37,6.04c-0.63,3.39-1.88,4.48-5.63,4.93
			c-15.63,1.88-22.27,17.74-12.97,30.98l1.76,2.5l-1.23,1.81c-3.23,4.76-15.04,16.88-19.98,20.52c-0.28,0.21-1.82,1.35-3.43,2.55
			c-1.6,1.19-3.05,2.17-3.21,2.17c-0.16,0-0.97,0.5-1.79,1.1l-1.49,1.1l-1.81-1.23c-0.99-0.68-1.81-1.38-1.81-1.56
			c-0.02-1.44-8.64-4.52-12.63-4.51c-7.35,0.02-17.65,6.1-18.85,11.13c-0.18,0.76-0.57,1.68-0.86,2.05
			c-0.29,0.37-0.7,1.95-0.92,3.51c-0.49,3.63-0.31,3.49-6.33,4.55c-7.35,1.29-20.86,1.19-29.54-0.22c-7.49-1.22-8-1.49-8-4.31
			c0-2.69-1.84-8.82-3.24-10.76c-1.63-2.27-5.56-5.96-6.35-5.96c-0.21,0-1.3-0.51-2.42-1.14c-5.35-3-16.54-1.46-22.1,3.04
			c-2.56,2.08-3.53,2.01-6.34-0.48c-2.35-2.08-5.25-4.51-7.57-6.36c-0.97-0.77-4.18-4.01-7.13-7.2c-2.95-3.19-5.72-6.19-6.16-6.66
			c-5.12-5.53-5.34-6.49-2.24-9.59c4.21-4.21,6.84-14.18,4.52-17.11c-0.31-0.39-0.73-1.38-0.92-2.2
			c-1.36-5.66-7.36-10.32-15.39-11.95c-5.76-1.17-5.33-0.84-6.22-4.82c-1.98-8.89-1.99-18.8-0.05-29.49
			c1.44-7.91,1.46-7.94,6.4-8.32c5.14-0.4,8.96-2.12,12.53-5.63c7.72-7.61,7.89-16.59,0.49-25.76l-1.75-2.18l1.47-2.16
			c4.25-6.25,22.27-22.51,27.95-25.22c1.77-0.85,1.79-0.84,3.81,0.76c1.12,0.88,2.26,1.61,2.53,1.61c0.28,0,0.79,0.35,1.14,0.77
			c0.35,0.42,1.13,0.77,1.72,0.77c0.6,0,1.72,0.33,2.49,0.74c1.93,1.01,7.86,1.5,10.34,0.87c3.52-0.91,6.89-2.22,6.89-2.69
			c0-0.25,0.3-0.45,0.66-0.45c2.8,0,7.28-8.14,8.39-15.23c0.33-2.1,2.86-3.09,9.85-3.87c5.33-0.59,26.44,0.15,30.08,1.06
			c4.25,1.06,4.2,0.99,5.44,6.43c1.45,6.3,4.78,10.77,10.29,13.77c3.03,1.65,12.9,1.92,16.24,0.44c1.33-0.59,2.65-1.07,2.93-1.07
			c0.27,0,1.37-0.69,2.43-1.53c2.23-1.76,3.07-1.87,5-0.65c8.19,5.19,18.5,14.77,25.09,23.32c3.67,4.76,3.68,4.82,1.12,7.6
			c-3.65,3.97-4.4,6.03-4.38,12.12c0.03,11.08,6.87,18.65,17.95,19.86l2.87,0.31l1.24,4.34
			C247.42,130.73,247.71,147.08,246.28,152.58z"/>
		<path class="st0" d="M206.75,129.6c1.79,0,3.73-2.9,3.11-4.63c-0.35-0.97-0.65-2.22-0.68-2.78c-0.08-2.02-5.33-13.76-6.98-15.62
			c-0.39-0.44-0.72-1.02-0.73-1.28c-0.01-0.26-0.67-1.26-1.47-2.23l-1.46-1.76l-3.58,0.86c-9.51,2.3-16.4-3.83-15.78-14.04l0.3-4.95
			l-3.29-1.6c-1.81-0.88-3.41-1.8-3.56-2.04c-0.15-0.24-1.01-0.59-1.92-0.78c-0.91-0.2-2.23-0.64-2.93-1
			c-3.29-1.66-14.52-4.89-14.98-4.3c-0.09,0.12-0.71,1.13-1.37,2.26c-5.36,9.08-17.06,9.15-22.74,0.15
			c-1.64-2.6-2.36-2.82-5.86-1.84c-8.01,2.26-11.04,3.31-14.81,5.15c-4.41,2.15-4.89,2.45-6.73,4.12c-0.76,0.7-0.95,1.3-0.7,2.3
			c2.75,11.09-7.08,20.78-16.91,16.68c-2.41-1.01-2.66-0.98-3.26,0.38c-0.28,0.63-1.06,2.07-1.75,3.19
			c-2,3.27-5.89,11.51-5.89,12.47c0,0.33-0.36,1.31-0.81,2.16c-1.66,3.22-1.79,6.57-0.27,7.22c10.45,4.44,11.11,19.42,1.01,22.94
			c-2.07,0.72-2.45,2.04-1.69,5.74c0.93,4.48,5.06,14.5,6.98,16.88c0.22,0.28,0.93,1.32,1.57,2.3l1.16,1.79l4.92-0.18
			c10.46-0.39,17.86,7.79,14.44,15.95c-0.79,1.9-0.79,2.02,0.24,3.12c2.54,2.71,14.89,7.79,22.89,9.42
			c3.77,0.77,3.78,0.77,5.21-1.33c2.93-4.31,6.82-6.43,11.78-6.43c4.6,0,7.34,1.57,11.59,6.67l1.39,1.67l4.38-0.72
			c4.52-0.74,8.4-1.87,12-3.48c1.14-0.51,2.35-0.93,2.68-0.93c0.33,0,0.61-0.23,0.61-0.51c0-0.28,0.26-0.51,0.59-0.51
			c0.75,0,5.66-3.25,6.57-4.35c0.59-0.71,0.55-1.25-0.23-3.54c-2.88-8.46,9.7-18.8,17.67-14.53c1.88,1,8.27-8.61,9.88-14.86
			c0.18-0.7,0.63-1.97,1-2.81c1.26-2.88,1.51-7.71,0.44-8.64c-0.52-0.45-1.91-1.64-3.1-2.65c-5.9-5.01-6.15-11.59-0.69-17.7
			C205.71,130.23,206.49,129.6,206.75,129.6z M173.98,150.03c-6.74,16.79-21.38,25.37-39.4,23.08
			c-15.1-1.92-28.17-14.92-29.55-29.39c-1-10.5,2.29-19.54,9.76-26.8c3.85-3.74,7.12-6.21,8.23-6.21c0.35,0,0.9-0.26,1.22-0.58
			c3.29-3.29,20.52-4.54,27.21-1.97c8.44,3.24,13.19,6.79,18.81,14.04C174.83,128.11,176.82,142.94,173.98,150.03z"/>
	</g>
</g>
</svg>
