<?xml version="1.0" encoding="utf-8"?>
<!-- Generator: Adobe Illustrator 26.0.3, SVG Export Plug-In . SVG Version: 6.00 Build 0)  -->
<svg version="1.1" id="Layer_1" xmlns="http://www.w3.org/2000/svg" xmlns:xlink="http://www.w3.org/1999/xlink" x="0px" y="0px"
	 viewBox="0 0 280 280" style="enable-background:new 0 0 280 280;" xml:space="preserve">
<style type="text/css">
	.st0{fill:#E81D27;}
	.st1{fill:#FFFFFF;}
	.st2{fill:#E71D27;}
	.st3{fill:#E71E28;}
	.st4{fill:#E9262F;}
	.st5{fill:#E41C26;}
</style>
<g>
	<path class="st0" d="M176.9,231.4c-2.3,1-4.7,1.9-7,2.9c-2.7-2.8-5.5-5.6-8.3-8.5c3.5-3.7,7-7.4,10.6-11.2c-1.6,0-2.9,0-4.2,0
		c-0.4,0-0.8,0.2-1.1,0.5c-1.5,1.5-3,3.2-4.5,4.7c-1.6,1.6-3.4,3.1-4.9,4.4c0-2.9,0-6.2,0-9.5c-1.4,0-2.7,0-4,0c0,7.5,0,15,0,22.5
		c0,0.6,0.4,0.6,0.8,0.7c-2.5,0.3-5,0.6-7.6,0.8c-3.9,0.2-7.8,0-11.6-1.1c0-3.1,0-6.1,0-9.2c1.2-0.2,2-0.1,2.8,1
		c1.8,2.7,3.7,5.2,5.7,7.8c0.2,0.3,0.5,0.7,0.8,0.7c1.4,0.1,2.8,0,4.5,0c-2.6-3.5-5-6.8-7.4-10.1c0.7-0.4,1.3-0.6,1.9-1
		c4.1-2.5,4.2-8.3,0-10.7c-1.3-0.7-2.9-1.1-4.4-1.3c-2.6-0.2-5.2-0.1-7.8-0.1c0,7.7,0,15.4,0,23.2c1.1,0,2.1,0,3.1,0
		c-2.5,2.3-5.6,3.8-8.7,5.2c-8.5,3.6-17.3,5.5-26.5,6.2c-0.3,0-0.5,0.1-0.7,0.2c-2.7,0-5.3,0-8,0c-0.3-0.1-0.6-0.2-1-0.2
		c-6.6-0.5-13.1-1.8-19.1-4.8c-10.5-5.2-20.7-11.2-30.2-18.1c-9.7-7-18.5-14.9-25.7-24.6c-8.1-11.1-12.9-23.4-14.1-37.2
		c-0.1-0.8-0.2-1.6-0.4-2.4c0-2.2,0-4.3,0-6.5c0.3-1,0.6-2,0.8-3c2-8,5-15.5,9.5-22.5c0.2-0.3,0.4-0.6,0.6-0.8c0.7,4,1.4,8,2.1,12.1
		c1.3,7.2,2.7,14.4,4,21.6c0.8,4.2,1.5,8.3,2.3,12.5c0.7,3.7,1.3,7.3,1.9,11c0.3,1.9,0.7,3.8,1.1,5.7c3.6-0.7,7.1-1.3,10.6-2
		c-0.9-7-1.7-13.8-2.5-20.7c3-0.2,5.9-0.3,8.7-0.4c3-0.1,5.9-0.2,8.9-0.2c3.8,0,7.6,0.2,11.4,0.3c2.9,0.1,5.9,0.3,8.8,0.6
		c3.1,0.3,6.2,0.9,9,2.3c2.6,1.4,3.1,3.4,1.2,5.7c-1.2,1.4-2.5,2.6-4,3.7c-4.5,3.3-9.4,5.9-14.5,8.1c-7.8,3.4-15.7,6.7-23.6,10
		c-0.7,0.3-0.9,0.5-0.7,1.4c0.4,1.4,0.5,2.8,0.7,4.2c0.4,2,0.7,4.1,1.1,6.2c3.1-0.4,6.2-0.8,9.2-1.3c8-1.2,16-2.8,23.7-5.3
		c7.4-2.3,14.6-5.2,21.1-9.5c3.7-2.4,7.1-5.2,9.3-9.2c2.8-5,2.2-11-2.4-15c-3.1-2.7-6.7-4.4-10.5-5.8c-7-2.6-14.4-3.4-21.8-3.7
		c-4.9-0.2-9.9,0-14.9,0.2c-2,0.1-4,0.4-6,0.6c-1.8,0.2-3.5,0.3-5.5,0.5c0.3-0.2,0.4-0.3,0.5-0.4c4.4-2.7,8.8-5.3,13.2-8
		c6.5-4,12.8-8.5,18.1-14c3.8-4,6.8-8.4,7.8-13.9c0.3-1.9,0.4-3.9,0.2-5.8c-0.4-2.8-2.5-4.4-5.1-5.5c-3.7-1.6-7.6-1.9-11.5-2
		c-3.7-0.1-7.4,0.1-11.1,0.4c-4,0.3-7.9,0.7-11.9,1.2c-4.4,0.6-8.8,1.3-13.2,2c-2.3,0.4-4.5,0.8-6.8,1.1c5.3-5.2,11.4-9.3,18.1-12.6
		c8.7-4.2,18-6.6,27.6-7.8c9.1-1.1,18.3-1.1,27.4-0.2c0.3,0,0.6,0,1,0c-0.1-0.2-0.1-0.4-0.2-0.5c-5.8-9.4-9.7-19.6-11.4-30.6
		c-1.7-11.1-0.9-21.9,3.6-32.3c0.4-0.8,0.7-1,1.5-0.7c6.5,1.7,12.9,3.3,19.5,4.9c-3.8,4.6-6.2,9.8-7.5,15.5
		c-1.3,5.7-1.6,11.5-1.2,17.5c0.2-0.3,0.3-0.5,0.4-0.7c2.4-6.4,6.1-11.9,10.9-16.7c11.2-11.5,24.8-18.7,40.5-22
		c6.2-1.3,12.4-1.6,18.7-0.9c0.2,0,0.5,0.1,0.7,0.1c0.1,0,0.2,0.1,0.3,0.1c0.2,5.1-0.5,10.1-2.2,15c-3.1,9.1-8.9,16.2-16.7,21.8
		c-8.1,5.9-17.2,9.6-26.9,12c-7.4,1.9-14.9,2.9-22.6,3.3c-0.4,0-0.7,0.1-1.2,0.1c1.3,5,3.1,9.7,5.7,14.1
		c16.1-10.3,33.2-17.9,52.6-19.6c-0.4,3.6,0.8,6.5,3.4,8.8c2.6,2.3,5.6,3.1,8.7,2.2c-0.5,2.3-1.2,4.5-1.3,6.9
		c-0.1,1.9,0.1,4,0.7,5.9c1.7,5.5,6.4,7.6,11.8,5.7c1.1-0.4,2.2-1,3.3-1.5c1.1,4.9,3.6,8.8,8.8,9.7c4.7,0.9,7.7-2,10.2-5.7
		c0.7,0.4,1.3,0.9,2,1.3c2.1,1.3,4.2,2.4,6.6,2.8c3.4,0.7,6.1-0.3,8.2-3.1c0.7-1,1.3-2.1,2-3.3c2.2,4.2,3.8,8.6,5.1,13.1
		c-0.1,0-0.2,0.1-0.3,0.1c-8,1.3-16,2.5-24,3.8c-8.5,1.4-17,2.7-25.5,4.1c-7.2,1.2-14.4,2.3-21.6,3.5c-4.5,0.7-8.9,1.4-13.5,2.2
		c0,0.2,0.1,0.3,0.1,0.4c1.3,3.1,2.7,6.1,4,9.2c0.2,0.5,0.6,0.6,1.1,0.6c3-0.3,6-0.6,9.1-0.9c4.8-0.5,9.7-0.9,14.5-1.4
		c3.4-0.3,6.7-0.6,10.1-0.9c0.6-0.1,0.9,0.1,1,0.7c0.2,1.9,0.4,3.8,0.6,5.7c0.9,7.7,1.7,15.5,2.6,23.2c1,8.6,1.9,17.1,2.9,25.7
		c0.2,1.8,0.4,3.5,0.6,5.3c6.4-0.9,12.6-1.7,18.8-2.6c-3.4,4.8-6.8,9.6-10.2,14.4c-0.2,0.3-0.4,0.6-0.6,0.8c-1.3,0-2.7,0-4.1,0
		c0,1.3,0,2.4,0,3.5c0.4,0,0.7,0.1,1.1,0.1c-2,1.9-4.1,3.8-6.1,5.7c-2.7,0-5.4,0-8.1,0c0-2,0-3.8,0-5.7c3.2,0,6.3,0,9.3,0
		c0-1.3,0-2.4,0-3.5c-4.5,0-9,0-13.5,0c0,0.5,0,0.9,0,1.3C176.9,221.2,176.9,226.3,176.9,231.4z M128.9,180.8
		c2.8-24.4,5.7-48.6,8.5-72.9c-4.5-0.4-8.8-0.8-13.2-1.3c-4.3-0.4-8.7-0.8-13.1-1.2c0,0.3,0,0.5,0,0.7c0.8,8,1.6,15.9,2.4,23.9
		c0.8,8.1,1.6,16.3,2.4,24.4c0.7,7.3,1.4,14.7,2.2,22c0,0.4,0.5,0.8,0.8,1c2,0.7,3.9,1.4,5.9,2.1
		C126.2,179.9,127.5,180.3,128.9,180.8z M123.8,208.8c3,0,5.8-0.8,8.2-2.6c4.2-3.3,5.4-9.4,0.9-13.6c-4.3-4.1-12.1-5.5-17.5-3
		c-6.9,3.2-8,10.9-2.2,15.6C116.3,207.5,119.8,208.7,123.8,208.8z M82.1,225c0.3,0.5,0.4,0.6,0.5,0.9c2,4,3.9,8,5.9,12
		c0.1,0.2,0.4,0.4,0.6,0.6c0.2-0.2,0.5-0.4,0.6-0.6c1-2,1.9-4,2.8-6c1.1-2.2,2.1-4.5,3.3-6.9c0.1,0.6,0.2,1,0.3,1.4
		c0.7,3.6,1.4,7.2,2.1,10.8c0,0.2,0.4,0.6,0.6,0.6c1.2,0.1,2.3,0,3.6,0c-1.6-8.1-3.2-16-4.7-23.9c-0.1,0-0.2,0-0.3,0
		c-2.7,5.5-5.4,11.1-8.3,16.9c-2.8-5.8-5.5-11.3-8.3-16.9c-0.1,0-0.2,0-0.3,0.1c-1.6,7.9-3.2,15.9-4.8,23.9c1.1,0,2.1,0.1,3.1,0
		c0.3,0,0.7-0.4,0.8-0.7c0.2-0.3,0.2-0.8,0.2-1.2C80.7,232.4,81.4,228.8,82.1,225z M116.2,213.9c-0.1,0-0.2,0-0.4,0
		c-3.8,7.9-7.6,15.9-11.4,23.9c1.3,0,2.5,0,3.6,0c0.3,0,0.7-0.3,0.8-0.6c0.5-0.9,0.8-1.9,1.3-2.8c0.2-0.3,0.6-0.7,1-0.7
		c3-0.1,6.1,0,9.1,0c0.3,0,0.8,0.3,0.9,0.6c0.5,0.9,0.9,1.9,1.3,2.8c0.1,0.3,0.4,0.6,0.7,0.6c1.3,0.1,2.5,0,4,0
		C123.5,229.8,119.8,221.9,116.2,213.9z"/>
	<path class="st1" d="M20.2,118.2c2.3-0.4,4.5-0.8,6.8-1.1c4.4-0.7,8.8-1.4,13.2-2c3.9-0.5,7.9-1,11.9-1.2c3.7-0.3,7.4-0.5,11.1-0.4
		c3.9,0.1,7.8,0.4,11.5,2c2.5,1.1,4.6,2.6,5.1,5.5c0.3,1.9,0.2,3.9-0.2,5.8c-1,5.5-4,9.9-7.8,13.9c-5.4,5.6-11.6,10-18.1,14
		c-4.4,2.7-8.8,5.4-13.2,8c-0.1,0.1-0.3,0.2-0.5,0.4c2-0.2,3.7-0.3,5.5-0.5c2-0.2,4-0.5,6-0.6c5-0.1,9.9-0.4,14.9-0.2
		c7.4,0.3,14.7,1.1,21.8,3.7c3.8,1.4,7.4,3.1,10.5,5.8c4.6,4,5.1,10,2.4,15c-2.2,4-5.6,6.7-9.3,9.2c-6.5,4.3-13.7,7.2-21.1,9.5
		c-7.8,2.4-15.7,4.1-23.7,5.3c-3,0.4-6,0.8-9.2,1.3c-0.4-2.1-0.7-4.1-1.1-6.2c-0.2-1.4-0.4-2.8-0.7-4.2c-0.2-0.8,0-1.1,0.7-1.4
		c7.9-3.3,15.8-6.5,23.6-10c5.1-2.2,10-4.8,14.5-8.1c1.4-1.1,2.8-2.3,4-3.7c1.9-2.3,1.4-4.3-1.2-5.7c-2.8-1.5-5.9-2-9-2.3
		c-2.9-0.3-5.9-0.5-8.8-0.6c-3.8-0.2-7.6-0.3-11.4-0.3c-3,0-5.9,0.1-8.9,0.2c-2.8,0.1-5.7,0.3-8.7,0.4c0.8,6.8,1.7,13.7,2.5,20.7
		c-3.6,0.7-7,1.3-10.6,2c-0.4-2-0.8-3.8-1.1-5.7c-0.7-3.7-1.3-7.3-1.9-11c-0.7-4.2-1.5-8.3-2.3-12.5c-1.3-7.2-2.7-14.4-4-21.6
		c-0.7-4-1.4-8-2.1-12.1c-0.5-3-1.1-6-1.6-9.1c2.6-0.5,5.2-1,7.9-1.5C18.2,118.6,19.2,118.4,20.2,118.2z M28.5,154.5
		c1.8-1.5,3.3-2.8,4.7-4.1c2.4-2.1,4.9-4.2,7.3-6.4c1.7-1.6,3.1-3.4,4.6-5.1c2.3-2.5,4.1-5.2,5-8.5c0.4-1.6,0.4-3.3-1-4.6
		c-2-1.8-4.4-2.2-6.8-2.2c-3.9-0.1-7.8-0.1-11.6,0.6c-2,0.4-3.9,0.6-6,0.9C26,134.9,27.2,144.6,28.5,154.5z"/>
	<path class="st1" d="M209.1,199.4c-6.2,0.9-12.4,1.7-18.8,2.6c-0.2-1.8-0.4-3.5-0.6-5.3c-1-8.6-1.9-17.1-2.9-25.7
		c-0.9-7.7-1.7-15.5-2.6-23.2c-0.2-1.9-0.5-3.8-0.6-5.7c-0.1-0.7-0.4-0.8-1-0.7c-3.4,0.3-6.7,0.6-10.1,0.9
		c-4.8,0.5-9.7,0.9-14.5,1.4c-3,0.3-6,0.6-9.1,0.9c-0.5,0-0.8,0-1.1-0.6c-1.3-3.1-2.7-6.1-4-9.2c-0.1-0.1-0.1-0.3-0.1-0.4
		c4.5-0.7,9-1.5,13.5-2.2c7.2-1.2,14.4-2.3,21.6-3.5c8.5-1.4,17-2.7,25.5-4.1c8-1.3,16-2.5,24-3.8c0.1,0,0.2-0.1,0.3-0.1
		c0.8-0.1,1.6-0.1,2.4-0.3c0.7-0.2,1,0,1.3,0.7c0.8,2.1,1.8,4.2,2.7,6.4c-1.5,0.5-3.1,1-4.6,1.5c-0.2,0-0.3,0-0.5,0.1
		c-7.5,2.3-14.9,4.6-22.4,6.9c-1.8,0.6-3.6,1.1-5.5,1.7c0,0.3,0.1,0.4,0.1,0.5c3.4,13.7,6.8,27.4,10.3,41.1
		c0.9,3.4,1.8,6.9,2.7,10.3c0.6,2.4,1.2,4.9,1.7,7.3c0.1,0.4,0.2,0.7,0.3,1.2C214.4,198.6,211.7,199,209.1,199.4z"/>
	<path class="st1" d="M247.3,142.4c0.4,3.8,0.8,7.5,1.3,11.3c7.6-0.6,15.1-1.1,22.7-1.7c1,7,2,14,3.1,21c-8.1,0.7-16.2,1.3-24.3,2
		c0.7,4.1,1.4,8.1,2.1,12.3c9.3-1.1,18.5-2.3,27.9-3.4c-1.9,5.2-3.7,10.3-5.6,15.5c-9-0.2-18-0.4-27.1-0.6
		c-3.2-22.4-6.4-44.7-9.6-67.2c12.2-1.6,24.4-3.2,36.7-4.8c0,4.3,0,8.4,0,12.7C265.3,140.3,256.4,141.4,247.3,142.4z"/>
	<path class="st2" d="M215,189.8c-0.9-3.4-1.8-6.9-2.7-10.3c-3.4-13.7-6.9-27.4-10.3-41.1c0-0.1,0-0.3-0.1-0.5
		c1.8-0.6,3.6-1.1,5.5-1.7c7.5-2.3,14.9-4.6,22.4-6.9c0.2-0.1,0.3-0.1,0.5-0.1c1.3,8.4,0.9,16.7-0.8,25
		c-2.6,12.8-7.9,24.4-14.4,35.6C215.1,189.7,215.1,189.7,215,189.8z"/>
	<path class="st1" d="M272.2,228.9c-1.9,0-3.7,0-5.6,0c0-1.2,0-2.4,0-3.6c3.1,0,6.3,0,9.6,0c0,1,0,2,0,3c0,2.4,0,4.9,0,7.3
		c0,0.3-0.1,0.7-0.4,0.8c-4.2,2.2-8.6,3-13.1,1.3c-4.6-1.8-7-5.4-7.4-10.2c-0.5-5.6,2.1-10.4,6.8-12.5c4.2-1.9,8.4-1.5,12.4,0.5
		c0.2,0.1,0.5,0.4,0.5,0.6c-0.1,1.5-0.2,2.9-0.3,4.3c-1.3-0.7-2.5-1.6-3.8-2.1c-4.3-1.8-9,0.1-10.7,4.2c-1.9,4.4-0.1,9.7,3.9,11.5
		c2.6,1.2,5.2,0.9,7.7-0.1c0.2-0.1,0.4-0.5,0.4-0.7C272.3,231.8,272.2,230.5,272.2,228.9z"/>
	<path class="st1" d="M234.2,237.8c-1.3,0-2.6,0-3.9,0c0-7.9,0-15.8,0-24c0.4,0.3,0.8,0.5,1.1,0.8c4.6,4.7,9.2,9.5,13.8,14.2
		c0.1,0.1,0.2,0.2,0.4,0.4c0-4.9,0-9.7,0-14.5c1.4,0,2.7,0,4,0c0,7.9,0,15.9,0,23.8c-0.1,0.1-0.1,0.1-0.2,0.2
		c-5.1-5-10-10.3-15.2-15.5C234.2,228.3,234.2,233,234.2,237.8z"/>
	<path class="st1" d="M134.3,237.9c-1,0-2,0-3.1,0c0-7.8,0-15.4,0-23.2c2.6,0,5.2-0.1,7.8,0.1c1.5,0.1,3.1,0.5,4.4,1.3
		c4.2,2.4,4.2,8.2,0,10.7c-0.6,0.3-1.2,0.6-1.9,1c2.4,3.3,4.8,6.6,7.4,10.1c-1.7,0-3.1,0-4.5,0c-0.3,0-0.6-0.4-0.8-0.7
		c-1.9-2.6-3.9-5.1-5.7-7.8c-0.7-1.1-1.6-1.3-2.8-1c0,3.1,0,6.1,0,9.2C134.8,237.7,134.6,237.8,134.3,237.9z M135.1,225.2
		c2,0,3.9,0.1,5.6-0.8c1.2-0.6,1.7-1.7,1.7-2.9c0-1.2-0.5-2.2-1.6-2.7c-1.8-0.9-3.7-0.8-5.6-0.7
		C135.1,220.5,135.1,222.8,135.1,225.2z"/>
	<path class="st1" d="M154.3,237.9c-0.4-0.1-0.8-0.1-0.8-0.7c0-7.5,0-14.9,0-22.5c1.3,0,2.6,0,4,0c0,3.3,0,6.7,0,9.5
		c1.5-1.4,3.3-2.8,4.9-4.4c1.6-1.5,3-3.1,4.5-4.7c0.3-0.3,0.7-0.5,1.1-0.5c1.3-0.1,2.6,0,4.2,0c-3.6,3.8-7.1,7.5-10.6,11.2
		c2.8,2.9,5.5,5.7,8.3,8.5c1.1,1.1,2.1,2.2,3.4,3.6c-1.9,0-3.5,0-5.1,0c-0.3,0-0.6-0.5-0.9-0.7c-0.5-0.5-1-1-1.6-1.5
		c-1-1.1-2.1-2.3-3.2-3.3c-1.6-1.6-3.3-3.1-4.9-4.6c0,3.1,0,6.4,0,9.8c-0.2,0.1-0.4,0.4-0.7,0.4C156,237.9,155.2,237.9,154.3,237.9z
		"/>
	<path class="st1" d="M176.9,231.4c0-5.1,0-10.3,0-15.4c0-0.4,0-0.8,0-1.3c4.6,0,9,0,13.5,0c0,1.1,0,2.3,0,3.5c-3.1,0-6.2,0-9.3,0
		c0,1.9,0,3.7,0,5.7c2.7,0,5.4,0,8.1,0c0,1.1,0,2.3,0,3.6c-1.8,0-3.6,0-5.3,0c-0.9,0-1.8,0-2.8,0c0,0.6,0,1.1,0,1.7
		c0,1.6,0,3.2,0,4.9c3.2,0,6.4,0,9.6,0c0,1.3,0,2.4,0,3.6c-4.5,0-9,0-13.8,0C176.9,235.7,176.9,233.6,176.9,231.4z"/>
	<path class="st1" d="M195.3,218.3c-0.3,0-0.7-0.1-1.1-0.1c0-1.2,0-2.3,0-3.5c1.4,0,2.8,0,4.1,0c4.8,0,9.5,0,14.3,0
		c0.4,0,0.8,0,1.3,0c0,1.2,0,2.3,0,3.5c-2.5,0-5.1,0-7.7,0c0,6.6,0,13,0,19.6c-1.4,0-2.7,0-4.1,0c0-6.5,0-12.9,0-19.5
		C199.7,218.3,197.5,218.3,195.3,218.3z"/>
	<path class="st1" d="M222.7,237.8c-1.4,0-2.7,0-4,0c0-7.7,0-15.4,0-23.1c1.3,0,2.7,0,4,0C222.7,222.4,222.7,230.1,222.7,237.8z"/>
	<path class="st3" d="M157.6,237.5c0-3.4,0-6.7,0-9.8c1.6,1.4,3.3,3,4.9,4.6c1.1,1.1,2.1,2.2,3.2,3.3
		C162.9,236.2,160.3,236.8,157.6,237.5z"/>
	<path class="st4" d="M181,229.3c0-0.5,0-1.1,0-1.7c1,0,1.9,0,2.8,0C182.9,228.2,182,228.7,181,229.3z"/>
	<path class="st1" d="M128.9,180.8c-1.4-0.5-2.7-0.9-4-1.4c-2-0.7-4-1.3-5.9-2.1c-0.4-0.1-0.8-0.6-0.8-1c-0.8-7.3-1.5-14.7-2.2-22
		c-0.8-8.1-1.6-16.3-2.4-24.4c-0.8-8-1.6-15.9-2.4-23.9c0-0.2,0-0.4,0-0.7c4.4,0.4,8.7,0.8,13.1,1.2c4.3,0.4,8.7,0.8,13.2,1.3
		C134.6,132.2,131.8,156.4,128.9,180.8z"/>
	<path class="st1" d="M123.8,208.8c-4,0-7.5-1.3-10.5-3.7c-5.8-4.7-4.7-12.4,2.2-15.6c5.4-2.5,13.2-1.1,17.5,3
		c4.5,4.3,3.3,10.4-0.9,13.6C129.6,208,126.8,208.7,123.8,208.8z"/>
	<path class="st1" d="M82.1,225c-0.7,3.8-1.4,7.4-2.1,11c-0.1,0.4-0.1,0.9-0.2,1.2c-0.2,0.3-0.5,0.6-0.8,0.7c-1,0.1-2,0-3.1,0
		c1.6-8,3.2-15.9,4.8-23.9c0.1,0,0.2,0,0.3-0.1c2.7,5.6,5.4,11.1,8.3,16.9c2.8-5.8,5.6-11.3,8.3-16.9c0.1,0,0.2,0,0.3,0
		c1.6,7.9,3.1,15.8,4.7,23.9c-1.2,0-2.4,0-3.6,0c-0.2,0-0.5-0.4-0.6-0.6c-0.7-3.6-1.4-7.2-2.1-10.8c-0.1-0.4-0.2-0.8-0.3-1.4
		c-1.1,2.4-2.2,4.6-3.3,6.9c-1,2-1.9,4-2.8,6c-0.1,0.3-0.4,0.4-0.6,0.6c-0.2-0.2-0.4-0.4-0.6-0.6c-2-4-3.9-8-5.9-12
		C82.5,225.7,82.4,225.5,82.1,225z"/>
	<path class="st1" d="M116.2,213.9c3.6,7.9,7.3,15.9,11,23.9c-1.4,0-2.7,0-4,0c-0.2,0-0.5-0.4-0.7-0.6c-0.5-0.9-0.8-1.9-1.3-2.8
		c-0.2-0.3-0.6-0.6-0.9-0.6c-3,0-6.1,0-9.1,0c-0.3,0-0.8,0.3-1,0.7c-0.5,0.9-0.9,1.9-1.3,2.8c-0.1,0.3-0.5,0.6-0.8,0.6
		c-1.1,0.1-2.3,0-3.6,0c3.8-8.1,7.6-16,11.4-23.9C115.9,213.9,116,213.9,116.2,213.9z M112.1,230.3c2.6,0,4.9,0,7.4,0
		c-1.2-2.8-2.4-5.5-3.7-8.4C114.5,224.8,113.3,227.5,112.1,230.3z"/>
	<path class="st0" d="M28.5,154.5c-1.3-9.9-2.5-19.6-3.8-29.4c2-0.3,4-0.5,6-0.9c3.9-0.7,7.7-0.7,11.6-0.6c2.5,0.1,4.9,0.5,6.8,2.2
		c1.5,1.3,1.5,3,1,4.6c-0.9,3.3-2.8,6-5,8.5c-1.5,1.7-3,3.5-4.6,5.1c-2.3,2.2-4.8,4.3-7.3,6.4C31.8,151.7,30.3,153,28.5,154.5z"/>
	<path class="st5" d="M135.1,225.2c0-2.5,0-4.7,0-7.2c1.9-0.1,3.8-0.2,5.6,0.7c1.1,0.5,1.6,1.5,1.6,2.7c0,1.3-0.5,2.3-1.7,2.9
		C139,225.3,137.1,225.3,135.1,225.2z"/>
	<path class="st5" d="M112.1,230.3c1.2-2.8,2.4-5.5,3.7-8.4c1.3,2.9,2.5,5.6,3.7,8.4C117,230.3,114.6,230.3,112.1,230.3z"/>
</g>
</svg>
