<?xml version="1.0" encoding="utf-8"?>
<!-- Generator: Adobe Illustrator 26.0.3, SVG Export Plug-In . SVG Version: 6.00 Build 0)  -->
<svg version="1.1" id="Layer_1" xmlns="http://www.w3.org/2000/svg" xmlns:xlink="http://www.w3.org/1999/xlink" x="0px" y="0px"
	 viewBox="0 0 280 280" style="enable-background:new 0 0 280 280;" xml:space="preserve">
<style type="text/css">
	.st0{fill:#F89E2D;}
</style>
<path class="st0" d="M279.2,165.6c-12.3-33.4-26-66.2-44.7-96.7c-7.2-11.7-15.4-22.7-24.1-33.4c-11.6-14.2-26-24.7-44-29.8
	c-6.3,0-12.6,0-18.9,0c-27.7,7.9-45.5,27.8-60.7,50.5c-8.7,13-16.7,26.6-23.8,40.6c-23,45-39.6,92.6-53.8,141
	C5.8,249.4,3,261.1,0,272.8c0.1,0.5,0.1,1,0.2,1.4c0.3-0.6,0.7-1.2,1-1.8c2-4.7,3.9-9.5,6-14.1c21.6-48.1,45.8-94.8,78.1-136.7
	c15.1-19.6,31.8-37.8,53.3-50.8c20.8-12.7,42.6-17.1,65.7-5.9c12,5.8,21.7,14.6,30.2,24.6c20.2,23.8,33.2,51.6,44.6,80.3
	c0.3,0.1,0.7,0.1,1,0.1C279.7,168.4,279.7,166.9,279.2,165.6z"/>
</svg>
