<?xml version="1.0" encoding="utf-8"?>
<!-- Generator: Adobe Illustrator 26.5.1, SVG Export Plug-In . SVG Version: 6.00 Build 0)  -->
<svg version="1.1" id="Layer_1" xmlns="http://www.w3.org/2000/svg" xmlns:xlink="http://www.w3.org/1999/xlink" x="0px" y="0px"
	 viewBox="0 0 280 280" style="enable-background:new 0 0 280 280;" xml:space="preserve">
<style type="text/css">
	.st0{fill:#FFFFFF;}
</style>
<g>
	<path class="st0" d="M21.2,101.5c2.2-11.8,4.3-23.1,6.5-34.7c84.1,0,167.8,0,252.2,0c-2.2,11.8-4.3,23.1-6.5,34.7
		C189.4,101.5,105.7,101.5,21.2,101.5z"/>
	<path class="st0" d="M10.9,157.2c2.2-11.8,4.3-23.1,6.5-34.7c84.1,0,167.8,0,252.2,0c-2.2,11.8-4.3,23.1-6.5,34.7
		C179,157.2,95.3,157.2,10.9,157.2z"/>
	<path class="st0" d="M0,213.2c2.2-11.8,4.3-23.1,6.5-34.7c84.1,0,167.8,0,252.2,0c-2.2,11.8-4.3,23.1-6.5,34.7
		C168.2,213.2,84.4,213.2,0,213.2z"/>
</g>
</svg>
