<?xml version="1.0" encoding="utf-8"?>
<!-- Generator: Adobe Illustrator 26.0.3, SVG Export Plug-In . SVG Version: 6.00 Build 0)  -->
<svg version="1.1" id="Layer_1" xmlns="http://www.w3.org/2000/svg" xmlns:xlink="http://www.w3.org/1999/xlink" x="0px" y="0px"
	 viewBox="0 0 280 280" style="enable-background:new 0 0 280 280;" xml:space="preserve">
<style type="text/css">
	.st0{fill:#FFFFFF;}
</style>
<g>
	<path class="st0" d="M148.34,276.1c-2.67,0.51-5.33,1.13-8.02,1.49c-5.38,0.74-10.78,1.77-16.18,1.88
		c-5.63,0.12-11.31-0.45-16.9-1.19c-4.86-0.64-9.67-1.79-14.42-3.02c-3.81-0.98-7.78-1.92-11.21-3.77
		c-8.25-4.44-16.55-8.93-24.18-14.31c-5.59-3.94-10.53-9.01-15.09-14.17c-8.04-9.1-14.56-19.3-18.92-30.7
		c-3.49-9.11-6.83-18.29-7.01-28.27c-0.12-6.58-1.21-13.22-0.65-19.73c0.67-7.68,2.21-15.36,4.18-22.83
		c2.92-11.09,7.93-21.42,13.78-31.25c2.53-4.24,6.42-7.65,9.26-11.73c4.12-5.92,10.1-9.79,15.16-14.66
		c5.76-5.55,12.67-9.27,19.7-12.58c7.64-3.59,15.39-6.9,23.95-8.4c9.8-1.72,19.56-2.32,29.39-1.69c5.06,0.33,10.06,1.55,15.14,2.9
		c-2.83,0.47-5.66,0.96-8.5,1.4c-3,0.47-6.16,0.45-8.99,1.4c-6.86,2.32-13.64,4.92-20.32,7.72c-3.47,1.46-6.9,3.27-9.93,5.49
		c-6.8,5.01-13.99,9.58-19.3,16.4c-3.56,4.57-7.71,8.72-11.08,13.42c-3.25,4.54-6.31,9.33-8.61,14.4
		c-2.69,5.92-4.63,12.21-6.59,18.43c-1.13,3.6-1.17,7.58-2.57,11.04c-2.44,6.05-1.61,12.37-2.18,18.54
		c-0.41,4.43-0.04,9.11,0.98,13.44c1.89,7.99,4.3,15.88,6.94,23.66c1.51,4.46,3.52,8.87,6,12.87c3.57,5.76,7.72,11.16,11.71,16.65
		c4.39,6.05,10.39,10.41,16.06,15.12c7.58,6.3,16.43,10.15,25.42,13.96c6.54,2.77,13.29,4.39,20.14,5.79
		c2.61,0.53,5.37,0.25,8.05,0.5c1.65,0.15,3.28,0.62,4.91,0.94C148.42,275.53,148.38,275.81,148.34,276.1z"/>
	<path class="st0" d="M276.7,130.5c0.82,6.01,1.76,12,2.41,18.03c0.49,4.55,1.16,9.19,0.78,13.71c-0.58,6.89-1.95,13.71-3.07,20.54
		c-1.38,8.42-4.28,16.41-8.41,23.78c-3.64,6.5-7.8,12.8-12.48,18.59c-4.15,5.14-9.01,9.85-14.14,14.04
		c-5.61,4.59-11.57,8.95-17.94,12.37c-7.56,4.07-15.43,7.53-23.98,9.6c-13.03,3.14-26.14,4.06-39.32,2.78
		c-7.85-0.76-15.78-2.04-23.2-5.21c-4.49-1.92-9.2-3.41-13.51-5.68c-6.53-3.43-12.95-7.13-19.09-11.2
		c-3.55-2.35-6.27-5.95-9.73-8.48c-6.48-4.74-10.47-11.54-15.26-17.66c-5.84-7.47-9.76-15.96-12.44-25.03
		c-0.8-2.7-1.32-5.5-2.34-8.12c-3.51-9.04-4.04-18.49-3.64-27.96c0.27-6.45,1.47-12.86,2.28-19.29c0.04-0.3,0.39-0.57,1-1.39
		c0.61,1.96,1.23,3.4,1.48,4.9c0.53,3.19,0.57,6.48,1.35,9.59c1.51,6,3.17,11.99,5.2,17.83c1.3,3.74,2.96,7.49,5.2,10.72
		c4.85,6.99,8.71,14.72,15.63,20.21c4.33,3.43,7.85,7.88,12.13,11.39c9.16,7.51,19.72,12.61,30.74,16.78
		c8.21,3.11,16.63,5.3,25.47,5.6c5.54,0.19,11.15,1.22,16.59,0.63c8.26-0.89,16.76-1.87,24.52-4.63c9.47-3.37,18.82-7.79,27.2-13.31
		c7.31-4.82,14.6-10.22,19.82-17.71c2.84-4.08,6.39-7.67,9.13-11.81c2.54-3.85,4.31-8.19,6.62-12.21
		c4.17-7.24,6.31-15.12,7.59-23.28c0.85-5.44,1.4-10.93,2.1-16.39c0.08-0.61,0.25-1.21,0.38-1.81
		C276.08,130.47,276.39,130.49,276.7,130.5z"/>
	<path class="st0" d="M214.53,145.94c-0.07-0.92-0.18-1.83-0.19-2.75c-0.06-8.55-1.67-16.95-4.96-24.68
		c-3.77-8.88-8.65-17.32-13.51-25.68c-1.91-3.28-5.3-5.66-7.63-8.74c-4.7-6.22-11.33-10.14-17.1-15.1
		c-5.7-4.89-12.47-7.78-18.96-11.17c-3.43-1.8-7.34-2.72-11.08-3.86c-5.61-1.7-11.26-3.27-16.92-4.82c-1.09-0.3-2.29-0.22-3.44-0.32
		c-3.7-0.34-7.42-1.09-11.1-0.92c-6.27,0.28-12.53,0.98-18.75,1.81c-3.73,0.5-7.46,1.34-11.05,2.46c-4.3,1.34-8.56,2.92-12.65,4.8
		c-6.02,2.77-12.12,5.5-17.71,9.02c-4.39,2.77-7.94,6.85-12.06,10.1c-6.49,5.1-10.84,11.95-15.68,18.42
		c-5.77,7.71-9.42,16.4-12.16,25.53c-0.84,2.8-1.27,5.74-2.29,8.47c-2.57,6.83-2.73,13.98-2.96,21.14
		c-0.24,0.02-0.48,0.04-0.72,0.06c-0.81-3.4-2.08-6.77-2.33-10.21c-0.67-8.98-1.79-18.07-1.04-26.97C1,103.64,3.32,94.79,5.89,86.2
		c1.72-5.75,4.97-11.07,7.74-16.48c1.6-3.12,3.27-6.3,5.49-8.98c4.81-5.79,9.78-11.49,15.1-16.8c3.68-3.67,7.86-6.94,12.2-9.81
		c5-3.31,10.3-6.24,15.71-8.84c5.11-2.45,10.44-4.58,15.85-6.23c4.42-1.35,9.08-2.14,13.7-2.57c7.14-0.66,14.35-1.33,21.48-0.98
		c6.77,0.33,13.54,1.69,20.2,3.13c5.78,1.25,11.52,2.9,17.04,5.02c4.44,1.7,8.56,4.29,12.75,6.6c3.08,1.7,6.34,3.24,9.02,5.46
		c6.2,5.14,12.32,10.42,18.05,16.07c3.82,3.77,7.17,8.11,10.27,12.51c2.7,3.84,4.63,8.21,7.14,12.19c3.72,5.91,5.72,12.53,7.5,19.1
		c2.72,10.01,3.36,20.35,2.76,30.72c-0.31,5.34-0.86,10.67-1.45,15.98c-0.14,1.29-0.89,2.52-1.37,3.77
		C214.89,146.02,214.71,145.98,214.53,145.94z"/>
	<path class="st0" d="M133.15,215.38c1.19-0.06,2.38-0.04,3.56-0.2c5.46-0.77,11.18-0.8,16.29-2.58c8.83-3.08,17.47-6.9,25.83-11.12
		c4.65-2.35,8.49-6.28,12.85-9.26c8.55-5.83,14.7-13.95,20.49-22.19c4.12-5.86,6.51-12.9,10.32-19.01
		c4.04-6.47,4.86-13.86,7.13-20.84c0.76-2.33,0.98-4.87,1.22-7.33c0.46-4.75,1.33-9.56,0.99-14.28c-0.56-7.75-0.5-15.61-2.92-23.17
		c-1.81-5.64-2.94-11.54-5.13-17.02c-1.96-4.89-4.7-9.53-7.56-13.97c-2.88-4.47-6.19-8.69-9.6-12.78
		c-3.26-3.91-6.59-7.87-10.43-11.17c-9.09-7.83-19.13-14.28-30.45-18.46c-7.57-2.8-15.26-5.38-23.33-6.23
		c-3.98-0.42-8.04-0.07-12.07-0.07c-0.06-0.29-0.12-0.57-0.17-0.86c1.09-0.53,2.13-1.32,3.27-1.54c11.71-2.23,23.54-3.62,35.41-2.24
		c8.14,0.95,16.21,2.44,24.07,5.25c10.21,3.64,19.6,8.68,28.2,15.07c5.25,3.9,9.85,8.71,14.62,13.24
		c6.5,6.17,10.77,13.93,15.53,21.41c4.56,7.16,7,15.03,9.49,22.9c1.56,4.93,2.06,10.24,2.66,15.43c0.6,5.23,1.01,10.51,1.03,15.76
		c0.04,9.66-1.32,19.16-4.38,28.35c-2.22,6.65-4.01,13.57-7.26,19.7c-4.04,7.62-9.03,14.82-14.29,21.67
		c-3.91,5.09-8.64,9.65-13.47,13.92c-8.37,7.41-18.01,12.88-28.25,17.42c-7.62,3.37-15.43,5.84-23.69,6.41
		c-8.88,0.61-17.81,0.92-26.7,0.75c-4.43-0.08-8.84-1.52-13.26-2.35C133.15,215.78,133.15,215.58,133.15,215.38z"/>
</g>
</svg>
