<?xml version="1.0" encoding="utf-8"?>
<!-- Generator: Adobe Illustrator 26.0.3, SVG Export Plug-In . SVG Version: 6.00 Build 0)  -->
<svg version="1.1" id="Layer_1" xmlns="http://www.w3.org/2000/svg" xmlns:xlink="http://www.w3.org/1999/xlink" x="0px" y="0px"
	 viewBox="0 0 280 280" style="enable-background:new 0 0 280 280;" xml:space="preserve">
<style type="text/css">
	.st0{fill:#0D4C96;}
</style>
<g>
	<path class="st0" d="M280,161.1c-40.3-1.7-80.7-3.4-121.2-5.1c-0.4,2.3-0.8,4.5-1.2,6.7c0,0.3-0.1,0.5-0.1,0.8
		c-0.1,0.4-0.2,0.8-0.3,1.2l0,0c0,0.2-0.1,0.4-0.1,0.6c0,0.3-0.1,0.6-0.1,0.8c0,0,0,0,0,0c0,0,0,0,0,0c-0.1,0.2-0.1,0.4-0.2,0.6
		c-0.1,0.3-0.1,0.6-0.2,0.8c0,0,0,0,0,0c0,0.1,0,0.3,0,0.4c-0.1,0.5-0.2,1-0.3,1.4c-3.4,16.6-6.8,33.3-10.2,49.9
		c-0.2,0.3-0.3,0.6-0.7,1.3c-2.3-5.2-4.5-10-6.6-14.8c-5.7-12.9-11.4-25.7-17.1-38.6c-0.7-1.8-1.5-3.5-2.1-5.3
		c-0.5-1.4-1.3-1.7-2.6-1.5c-19.4,2.2-38.7,4.5-58.1,6.7c-1.7,0.2-3.4,0.3-5.1,0.4c-0.2-0.3-0.3-0.5-0.5-0.8c0,0,0,0,0,0
		c0.5-0.3,1.1-0.5,1.6-0.9c5.2-4.6,10.4-9.3,15.6-13.9c5.3-4.8,10.6-9.6,16-14.4c2-1.7,4.1-3.5,6.1-5.2c3.3-2.9,6.5-5.8,9.8-8.8
		c-3.6-7.8-7.1-15.5-10.6-23.2c-1.7-3.8-3.6-7.5-5.3-11.3c0,0,0,0,0,0l0,0c0,0,0,0,0,0c-0.3-0.9-0.6-1.7-0.9-2.6
		c-3.2-7.3-6.5-14.5-9.7-21.8c0.2-0.2,0.4-0.4,0.7-0.7c0.5,0.2,1.1,0.4,1.6,0.6c0.5,0.4,1,0.8,1.5,1.1C88.6,71,97.8,76.4,107,81.7
		c4.3,2.5,8.6,4.9,12.8,7.3c0,0,0,0,0,0c3.8,2.3,7.6,4.6,11.5,6.9c0.4,0.2,1.2,0.2,1.4-0.1c1.7-1.6,3.4-3.3,5-5c0,0,0.1,0,0.1,0
		l0-0.1c0.7-0.5,1.3-1.1,2-1.6c0,0,0,0,0,0c0.2-0.2,0.4-0.3,0.6-0.5c6.6-6.1,13.2-12.1,19.8-18.2l0,0c1.4-1.3,2.8-2.5,4.2-3.8
		c0,0,0,0,0,0c0.1-0.1,0.1-0.3,0.2-0.4c-0.1,0.1-0.1,0.3-0.2,0.4c5.3-4.7,10.6-9.4,15.9-14.1c0.2,0.2,0.4,0.3,0.6,0.5
		c-3,13.8-6,27.7-9,41.8c5.4-0.3,10.5-0.6,15.7-0.7c1.8,0,2.5-0.7,2.8-2.4c6-27.7,12.1-55.4,18.1-83.1c0.5-2.1,0.8-4.3,1.2-6.4
		c-0.2-0.1-0.3-0.2-0.5-0.3c-1.2,1.3-2.5,2.7-3.7,4c0,0,0,0,0,0c-0.6,0.6-1.2,1.1-1.8,1.7c0.6-0.3,1.2-0.6,1.8-0.9v0
		c0.8-0.5,1.5-0.9,2.3-1.4l0,0l0,0l0,0c-0.8,0.5-1.5,0.9-2.3,1.4c-0.6,0.3-1.2,0.6-1.8,0.9c-0.2,0.2-0.4,0.3-0.5,0.5
		c-5.3,4.8-10.5,9.6-15.8,14.4c-0.2,0.1-0.3,0.3-0.5,0.4c-3.7,3.4-7.5,6.8-11.2,10.3c0,0,0,0,0,0c-5.2,4.7-10.5,9.3-15.6,14.1
		c-4.2,3.8-8.2,7.7-12.3,11.5c-0.2,0.1-0.4,0.3-0.6,0.4c0,0,0.1,0,0.1,0c-0.7,0.7-1.5,1.4-2.2,2.1c0,0.1,0,0.2,0,0.3
		c-0.3,0.2-0.5,0.3-0.8,0.5c-0.3,0.3-0.7,0.6-1,0.9c-0.5,0.5-1,0.9-1.5,1.4c0.2,0,0.4,0,0.6,0c0,0,0,0,0,0c-0.2,0-0.4,0-0.6,0
		c-0.2,0.1-0.2,0.2-0.1,0.3c-0.1,0-0.3,0.1-0.4,0.1c-0.3,0.3-0.6,0.5-0.9,0.8c-0.2,0.2-0.4,0.4-0.6,0.5c-2.8,2.5-5.6,4.9-8.3,7.4
		c-1,1-1.8,1.1-3,0.4c-7.2-4.3-14.5-8.6-21.8-12.8c-5.5-3.2-11-6.3-16.5-9.4c0,0,0,0,0,0c-0.4-0.3-0.8-0.7-1.3-0.9
		c-9.6-5.6-19.2-11.2-28.8-16.8c-4.9-2.8-9.7-5.6-14.6-8.3c-0.3-0.1-0.5-0.3-0.8-0.4l0.1-0.2c0,0-0.1,0.2-0.1,0.2c0,0-0.1,0-0.1,0
		c-2.6-1.6-5.2-3.3-7.8-4.9c1.3,3.8,2.8,7.3,4.4,10.7c2.6,5.7,5.3,11.3,8,17c0,0,0,0,0,0c3.3,7.4,6.7,14.9,10,22.3
		c0.1,0.2,0.2,0.4,0.3,0.6c0.1,0.3,0.3,0.7,0.4,1c0,0,0,0,0,0c0.1,0.1,0.2,0.3,0.3,0.4c0,0,0,0,0,0c0,0,0,0,0,0c0,0.1,0,0.2,0.1,0.3
		c0.2,0.5,0.4,0.9,0.6,1.4c0.1,0.4,0.3,0.8,0.4,1.2c0,0,0-0.1,0-0.1c0.2,0.3,0.3,0.5,0.5,0.8c0.3,0.7,0.6,1.4,1,2.1
		c0,0,0.1,0.2,0.1,0.2c0.1,0.2,0.2,0.5,0.4,0.7c0.2,0.6,0.5,1.1,0.7,1.7c0.1,0.2,0.1,0.4,0.2,0.7c0.1,0.1,0.2,0.3,0.3,0.4
		c-0.1-0.2-0.1-0.4-0.2-0.6c0,0,0-0.1,0-0.1c0,0,0,0.1,0,0.1c0.1,0.2,0.1,0.4,0.2,0.6c0,0,0,0,0,0c0,0,0,0,0,0c0,0.1,0,0.2,0.1,0.3
		c1.1,2.3,2.2,4.7,3.3,7c0,0,0,0,0,0l0,0l0,0c0.1,0.4,0.2,0.9,0.4,1.3c3.6,7.9,7.2,15.8,10.8,23.7c0.4,0.9,0.7,1.9,1.2,2.7
		c0.9,1.5,0.6,2.6-0.7,3.7c-1.9,1.6-3.7,3.3-5.5,4.9c-4.6,4.2-9.2,8.3-13.8,12.5c-1.2,1.1-2.4,2.1-3.5,3.2c0,0,0,0,0,0
		c-7.3,6.5-14.6,12.9-22,19.4c-0.1,0.1-0.2,0.2-0.3,0.3c0,0.1,0,0.2,0,0.2c0-0.1,0-0.2,0-0.2c-0.9,0.9-1.9,1.7-2.8,2.6c0,0,0,0,0,0
		c-2.8,2.5-5.6,5-8.4,7.5c-0.3,0.1-0.6,0.3-0.8,0.5c-6.4,5.7-12.8,11.4-19.2,17.1c-0.9,0.8-1.7,1.6-3,2.8c2.7-0.3,4.6-0.6,6.6-0.8
		c-0.9-0.1-1.8-0.3-2.7-0.4l0,0c0.9,0.1,1.8,0.3,2.7,0.4c10-1.1,20-2.1,29.9-3.2c3-0.3,5.9-0.9,8.8-1.3c0,0,0,0,0,0
		c0.2,0,0.3,0,0.5,0c0.3,0,0.6-0.1,0.9-0.1c0.1,0,0.3,0,0.4,0c0.3,0,0.6-0.1,0.9-0.1c0,0,0,0,0,0c0.3,0,0.6-0.1,0.9-0.1l0,0
		c0.9-0.1,1.8-0.2,2.8-0.2c0.9-0.1,1.9-0.2,2.8-0.4c0.6-0.1,1.2-0.2,1.8-0.3c0.7,0,1.3-0.1,2-0.1c0.2-0.2,0.5-0.3,0.7-0.5
		c-0.2,0.2-0.5,0.3-0.7,0.5c3.7-0.4,7.5-0.9,11.2-1.3c0.3,0,0.6-0.1,0.8-0.1c0,0,0,0,0,0l0,0h0c0,0,0,0,0,0c0,0,0,0,0,0c0,0,0,0,0,0
		c1.6-0.2,3.1-0.3,4.7-0.5c0.2,0,0.4,0,0.7,0c0,0,0,0,0-0.1c1.3-0.1,2.7-0.3,4-0.4c0.9-0.1,1.8-0.1,2.8-0.2c7.7-0.8,15.3-1.5,23-2.6
		c2.3-0.3,2.9,0.7,3.6,2.4c2.3,5.1,4.6,10.2,7,15.3c0.1,0.4,0.2,0.9,0.3,1.3c3.1,7.1,6.2,14.3,9.4,21.4c7.3,16.7,14.6,33.3,21.9,50
		c1.2,2.7,2.4,5.3,3.9,8.4c1.3-6.2,2.5-11.8,3.6-17.5c1.8-8.8,3.5-17.6,5.3-26.4c0.1-0.3,0.1-0.6,0.2-1c1.8-8.5,3.5-17,5.3-25.6
		c-0.3,0-0.7,0-1,0c0.3,0,0.7,0,1,0c0.1-0.5,0.2-1,0.2-1.5c0.2-1.1,0.4-2.1,0.6-3.2c0.1-0.3,0.1-0.6,0.2-0.9c-0.2,0-0.4,0-0.6-0.1
		c0.4-1.8,0.8-3.5,1.2-5.3c-0.4,1.8-0.8,3.5-1.2,5.3c0.2,0,0.4,0,0.6,0.1c0.4-2,0.8-4.1,1.2-6.1c0-0.2,0.1-0.3,0.1-0.5
		c0,0,0-0.1,0-0.1c0.5-2.1,0.9-4.2,1.4-6.4c0.1-0.3,0.1-0.7,0.2-1c0.5-2.6,1-5.2,1.6-7.8c0.5-2.7,1.1-5.3,1.6-8
		c0.2-0.1,0.2-0.2,0.2-0.3c3.9-0.4,7.8-0.8,11.7-1.2c0.4-0.1,0.7-0.1,1.1-0.2c8.9-0.9,17.9-1.7,26.8-2.6c4.3-0.5,8.7-0.9,13-1.4
		c-0.8-0.1-1.5-0.2-2.3-0.4c-2.2,0.2-4.3,0.3-6.5,0.5c-0.2,0.1-0.3,0.3-0.5,0.4c-0.4,0-0.8,0-1.2,0c0.4,0,0.8,0,1.2,0
		c0.2-0.1,0.3-0.3,0.5-0.4c2.2-0.2,4.3-0.3,6.5-0.5c2.6-0.3,5.3-0.6,7.9-0.9c0.6,0,1.2,0,1.8,0c0.6-0.1,1.3-0.3,1.9-0.4
		c-0.6,0.1-1.3,0.3-1.9,0.4c-0.6,0-1.2,0-1.8,0c-2.6,0.3-5.3,0.6-7.9,0.9c0.8,0.1,1.5,0.2,2.3,0.4c0.7-0.1,1.3-0.2,2-0.3
		c0.9-0.1,1.8-0.1,2.7-0.2c0.3,0,0.6-0.1,1-0.1c2.8-0.3,5.6-0.6,8.3-0.9c0.7-0.1,1.4-0.1,2.1-0.2c0,0,0,0,0,0
		c1.1-0.1,2.1-0.2,3.2-0.3c1.1-0.1,2.1-0.2,3.2-0.3c0-0.1,0-0.3,0-0.4c0.6-0.1,1.2-0.3,1.9-0.4c0.1,0,0.3,0,0.4-0.1
		c-0.1,0-0.3,0-0.4,0.1c-0.6,0.1-1.2,0.3-1.9,0.4c0,0.1,0,0.3,0,0.4c3.1-0.3,6.2-0.6,9.3-0.9c1-0.1,1.9-0.2,2.9-0.3
		c6.5-0.6,13-1.2,19.5-1.8C280,161.3,280,161.2,280,161.1z M157.9,163.5c0,0,0.1,0,0.1,0.1C158,163.5,158,163.5,157.9,163.5
		L157.9,163.5z M120.3,165.8c0,0.3,0,0.6,0,0.9C120.3,166.4,120.3,166.1,120.3,165.8c-0.2-0.5-0.3-0.9-0.5-1.4
		C120,164.9,120.1,165.4,120.3,165.8z M86.3,137.4C86.3,137.4,86.3,137.4,86.3,137.4c0.1-0.1,0.1-0.2,0.2-0.3
		C86.4,137.2,86.4,137.3,86.3,137.4z M84.9,87.3c0.5,0.6,0.9,1.2,1.4,1.8v0C85.9,88.4,85.4,87.8,84.9,87.3c-0.3-0.4-0.6-0.8-0.9-1.2
		C84.3,86.5,84.6,86.9,84.9,87.3z M136.6,90.9C136.6,90.9,136.6,90.9,136.6,90.9c0.1,0,0.3,0,0.4,0
		C136.9,90.9,136.7,90.9,136.6,90.9z M148.2,59.2c0.9-0.8,1.8-1.5,2.7-2.3C150,57.7,149.1,58.5,148.2,59.2c-1.1,0.8-2.1,1.6-3.2,2.4
		C146.1,60.8,147.1,60,148.2,59.2z M68.1,89.4c-0.2-0.1-0.3-0.2-0.5-0.4v0C67.8,89.2,68,89.3,68.1,89.4c0.2,0.1,0.3,0.2,0.5,0.4
		C68.4,89.7,68.3,89.6,68.1,89.4z M58.1,140.7c1.1-0.5,1.9-1.2,2.1-2.7c1.3-0.4,2.5-0.9,3.5-2c-1,1.1-2.2,1.6-3.5,2
		C60,139.4,59.2,140.2,58.1,140.7c-0.2,0.1-0.4,0.2-0.6,0.2C57.7,140.8,57.9,140.8,58.1,140.7z M31.4,163.5
		C31.3,163.5,31.3,163.5,31.4,163.5C31.3,163.5,31.3,163.5,31.4,163.5L31.4,163.5z M23,170.9C23,170.9,23,170.9,23,170.9
		c-0.2,0.4-0.4,0.9-0.6,1.3C22.6,171.8,22.8,171.4,23,170.9z M45.3,185.4L45.3,185.4c0,0.1,0,0.1,0,0.2
		C45.3,185.5,45.3,185.4,45.3,185.4z M55.8,183.7c1.3-0.1,2.7-0.1,4-0.2c0,0,0,0,0,0C58.4,183.6,57.1,183.7,55.8,183.7z
		 M165.9,204.9C165.9,204.9,165.9,204.9,165.9,204.9L165.9,204.9C165.9,204.9,165.9,204.9,165.9,204.9z M169.6,185.9
		C169.6,185.9,169.6,185.8,169.6,185.9C169.6,185.8,169.6,185.8,169.6,185.9C169.6,185.8,169.6,185.9,169.6,185.9L169.6,185.9z
		 M170.1,184.9c0.2-0.9,0.3-1.9,0.5-2.8c0.1-0.8,0.3-1.5,0.4-2.3c-0.1,0.8-0.3,1.5-0.4,2.3C170.4,183,170.2,184,170.1,184.9z
		 M260.7,162.6c0.2,0,0.4,0,0.6,0c0,0,0,0,0,0C261.1,162.6,260.9,162.6,260.7,162.6z"/>
	<path class="st0" d="M144.1,62c0.3-0.2,0.5-0.3,0.8-0.5c0-0.1,0-0.2,0-0.3C144.7,61.5,144.4,61.8,144.1,62z"/>
</g>
</svg>
