<?xml version="1.0" encoding="utf-8"?>
<!-- Generator: Adobe Illustrator 26.2.1, SVG Export Plug-In . SVG Version: 6.00 Build 0)  -->
<svg version="1.1" id="Layer_1" xmlns="http://www.w3.org/2000/svg" xmlns:xlink="http://www.w3.org/1999/xlink" x="0px" y="0px"
	 viewBox="0 0 280 280" style="enable-background:new 0 0 280 280;" xml:space="preserve">
<style type="text/css">
	.st0{fill:#00B0E7;}
</style>
<g>
	<path class="st0" d="M39.15,194.54c2.81-11.03,13.96-20.49,25.4-21.58c1.18-0.11,2.23-0.16,3.22-0.16c5.04,0,9.13,1.41,13.28,4.53
		c5.2,4.49,7.88,9.46,7.79,14.45c-0.28,7.34-3.61,12.3-10.49,15.62c-2.75,1.16-5.46,1.73-8.13,1.73c-2.82,0-5.6-0.63-8.25-1.89
		c-5.5-2.62-6.2-6.26-6.25-7.7l-0.01-0.14l0.02-0.13c0.68-4.04,3.45-5.86,5.9-5.86c0.96,0,1.84,0.28,2.54,0.79
		c1.81,1.32,3.28,2.25,3.83,2.6c1.47,0.89,2.85,1.33,4.19,1.33c0.92,0,1.82-0.2,2.8-0.59c2.08-0.86,3.32-3.27,3.21-6.31
		c-0.05-1.39-2.11-4.25-4.16-5.78c-2.52-1.52-4.58-2.18-6.99-2.18c-0.93,0-1.96,0.1-3.15,0.3c-2.67,0.44-9.28,2.3-13.12,10.01
		c-4.13,8.51-0.19,16.95,5.55,21.53c4.65,3.43,9.27,4.93,15.85,5.16c0.31,0.01,0.63,0.02,0.95,0.02c3.73,0,16.57-0.87,25.22-11.98
		c8.11-10.43,9.4-21.77,8.79-35.57c-0.14-0.11-0.44-0.28-0.65-0.41c-0.28-0.16-0.56-0.32-0.84-0.51c-2.45-1.84-6.99-6.54-8.83-12.72
		c-1.04-3.46-1.55-6.08-2.04-8.63c-0.39-2.04-0.76-3.97-1.39-6.13c-0.26-0.78-0.47-0.99-0.69-1.16c-0.33-0.18-0.76-0.27-1.29-0.27
		c-1.62,0-3.9,0.83-6.3,1.7l-1.25,0.45c-0.8,0.29-1.75,0.6-2.77,0.93c-3.74,1.21-9.4,3.06-10.9,4.85c-0.82,1.01-1.78,2.63-2.79,4.32
		c-2.34,3.94-4.35,7.33-6.8,7.33c-0.5,0-1.23-0.14-1.92-0.84l-0.05-0.05l-0.05-0.06c-0.96-1.2-0.71-2.75-0.45-4.25
		c0.12-0.74,0.25-1.51,0.23-2.2c-0.06-1.05-0.17-1.38-0.24-1.5c-0.01,0.01-0.07,0-0.11,0c-0.1,0-0.21,0.01-0.32,0.04
		c-1.37,0.48-2.58,0.93-4.47,1.94c-1.9,0.89-4.57,1.92-6.91,1.92c-2.24,0-3.88-0.98-4.61-2.75c-1.18-2.84-0.47-5.14,2.11-6.85
		c1.41-0.92,2.91-1.7,4.23-2.39c1.5-0.78,2.91-1.52,3.52-2.12c0.45-0.44,0.67-1.21,0.63-1.52c-1.17-0.42-2.15-0.61-3.09-0.79
		c-1.3-0.25-2.52-0.48-3.77-1.26c-2.02-1.27-2.91-3.45-2.39-5.82c0.46-2.26,2.25-3.89,4.9-4.44c1.04-0.13,1.72-0.17,2.35-0.17
		c2.19,0,3.63,0.57,6.65,1.99c3.73,1.76,5.83,2.84,8.97,6.26c1.06,1.15,1.67,1.54,2.44,1.54c0.18,0,0.36-0.02,0.56-0.06
		c3.39-1.09,6.62-2.46,9.73-3.78c5.83-2.48,11.34-4.8,17.89-5.57l0.08-0.01h0.2c3.08,0,5.43,2.55,6.44,7
		c0.26,1.47,0.54,2.74,0.82,4.01c0.28,1.28,0.55,2.55,0.81,3.96c0.07,0.32,0.16,0.71,0.25,1.1c0.23,1.08,0.6,2.82,0.97,3.46
		c0.71-0.57,1.08-1.41,1.69-2.88c0.6-1.44,1.34-3.24,2.84-5.37c3.86-5.38,10.29-10.44,18.11-14.25l0.13-0.07
		c0.96-0.47,2.24-1.11,3.45-1.71l2.21-1.11c-0.58-0.64-1.36-1.15-2.18-1.69c-1.7-1.1-3.82-2.48-4.04-5.46
		c-0.19-3.51,0.67-6.53,1.57-9.72c0.53-1.84,1.06-3.76,1.45-5.9c0.09-0.5,0.2-1.01,0.3-1.53c0.8-3.95,1.15-6.63-1.01-7.89
		c-1.88-1.2-3.03-1.7-4.36-2.28c-1.31-0.57-2.79-1.22-5.09-2.59l-0.07-0.04l-0.07-0.05c-1.57-1.22-2.31-3.15-1.97-5.17
		c0.33-1.96,1.65-3.56,3.45-4.17c0.53-0.17,1.14-0.26,1.86-0.26c1.31,0,2.69,0.3,3.34,0.44c0.69,0.11,1.37,0.29,1.96,0.44
		c0.67,0.17,1.24,0.32,1.66,0.32c0.26,0,0.59,0,1.11-0.77c0.59-1.01,0.63-2.29,0.69-3.79c0.07-1.8,0.14-3.85,1.39-5.77
		c1.1-1.44,2.3-2.12,3.64-2.12c0.61,0,1.23,0.14,1.91,0.43l0.15,0.07l0.13,0.1c2.3,1.69,2.57,5.31,2.78,8.2
		c0.07,0.98,0.15,2.08,0.3,2.45c0.06,0.1,0.28,0.53,1.68,0.53c0.72,0,1.57-0.11,2.39-0.22c0.84-0.12,1.73-0.23,2.53-0.23
		c0.93,0,1.67,0.16,2.26,0.51c1.2,0.69,1.93,1.79,2.06,3.1c0.17,1.6-0.56,3.36-1.9,4.61l-0.06,0.05l-0.07,0.05
		c-2.56,1.87-4.54,3.06-7.67,3.95c-0.64,0.19-1.09,1.02-1.26,1.76l-0.02,0.1l-0.03,0.09c-1.9,5.26-2.58,17.85-2.09,19.82
		c0.18,0.54,1.84,2.73,14.7,4.37c0.64,0.11,1.25,0.16,1.82,0.16c0.69,0,2.95-0.1,3.37-1.36c2.58-6.36,7.3-10.38,11.14-13.18
		c4.58-3.36,10.2-5.54,14.33-5.58c2.76,0,4.82,0.76,6.65,1.43c1.48,0.54,2.75,1.02,4.13,1.02c0.66-0.08,0.78-0.09,2.15-0.7
		c1.65-0.74,6.08-2.33,7.78-2.8c1.4-0.45,5.32-1.14,8.63-1.14c0.32,0,0.63,0.01,0.93,0.02c2.8,0.06,4.56,1.19,6.11,2.18
		c1.15,0.74,2.14,1.38,3.48,1.5c1.81-0.17,5.79-3.18,9-5.59c2.15-1.62,4.37-3.3,6.29-4.47c1.77-1.07,3.32-1.79,4.89-2.26
		c-26.31-32.21-58.04-59.77-93.93-81.3c-7.77-4.66-17.48-4.66-25.25,0C76.54,34.02,34,76.55,3.49,127.38
		c-4.66,7.77-4.66,17.47,0,25.24c10.25,17.08,21.89,33.2,34.72,48.27C38.28,198.96,38.59,196.94,39.15,194.54"/>
	<path class="st0" d="M184.32,104.77c-0.6,0-1.21,0.07-1.84,0.19c-3.92,0.78-6.41,3.91-7.13,5.83c-0.33,0.87-0.19,1.57,0.08,2.59
		c1.08,2.36,3.36,3.71,6.26,3.71c2.71,0,5.45-1.2,7.14-3.12c1.75-2.17,2.11-3.72,1.25-5.48
		C189.13,106.09,187.04,104.77,184.32,104.77"/>
	<path class="st0" d="M276.51,127.38c-6.47-10.77-13.51-21.14-21.02-31.14c-0.11,0.26-0.22,0.51-0.37,0.78
		c-1.19,2.05-3.34,2.92-4.93,3.3c-0.47,0.09-0.95,0.13-1.5,0.13c-0.9,0-1.86-0.1-2.88-0.21c-0.98-0.11-1.99-0.22-2.88-0.22
		c-0.31,0-0.61,0.01-0.9,0.05c-1.56,0.1-3.59,0.88-5.81,2.2l-0.86,0.51c-1.7,1.02-4.04,2.42-6.36,3.27c-1.63,0.59-3,1.05-4.67,1.05
		c-0.68,0-1.39-0.07-2.18-0.23c-1.93-0.39-3.56-1.08-5.14-1.74c-2-0.83-3.73-1.55-5.64-1.55c-0.38,0-0.77,0.03-1.14,0.09
		c-2.14,0.25-4.08,0.81-5.83,1.66c-1.29,0.65-1.68,0.98-2.23,1.54c-0.45,0.48-0.53,1.04-0.66,2.56c-0.04,0.47-0.08,0.99-0.16,1.58
		c-0.35,2.78-1.97,5.11-3.67,7.21c-1.74,2.17-6.98,7.39-17.88,8.79c-0.54,0.07-1.11,0.1-1.7,0.1c-2.14,0-4.41-0.39-6.6-0.77
		c-1.04-0.18-2.05-0.35-3-0.48c-1.32-0.27-2.63-0.4-3.77-0.4c-1.88,0-3.31,0.36-3.83,0.99c-0.93,1.32-0.57,10.64,3.43,14.91
		c0.76,0.78,2.08,1.44,3.05,1.73c0.81,0.26,2.49,0.35,3.97,0.44l0.99,0.06c1.26,0.08,2.4,0.11,3.5,0.11c2.51,0,4.62-0.2,6.48-0.62
		c2.11-0.31,4.77-1.34,7.11-2.26c2.64-1.03,4.91-1.91,6.49-1.91c0.91,0,1.6,0.29,2.07,0.84c0.48,0.57,0.64,1.34,0.47,2.28
		c-0.05,0.41-0.16,1.01-0.28,1.65c-0.2,1.14-0.44,2.54-0.45,3.31c0.04,0.81,0.57,1.12,2.39,1.75l0.65,0.23
		c0.71,0.21,1.6,0.35,2.56,0.5c2.27,0.36,4.85,0.76,6.17,2.77c0.92,1.39,0.77,2.59,0.48,3.35c-0.97,2.57-4.98,3.97-8.77,4.99
		c-2.23,0.39-2.61,0.88-2.66,0.98c-0.13,0.22,0.13,0.97,0.33,1.51c0.29,0.8,0.62,1.72,0.54,2.7c-0.18,1.21-0.44,2.9-2.56,4.02
		c-1.32,0.55-2.39,0.8-3.37,0.8c-1.31,0-2.46-0.46-3.32-1.33c-1.61-1.72-2.41-3.54-3.25-5.47l-0.2-0.46
		c-1.27-3.02-2.4-4.98-4.79-6.71c-0.82-0.65-3.85-2.25-8.3-2.25c-0.7,0-1.42,0.04-2.13,0.11c-1.68,0.2-3.13,0.29-4.45,0.29
		c-3.92,0-6.75-0.86-8.64-2.61c-3.13-2.89-4.58-5.26-6.16-8.64l-1.16-2.52c-0.97-2.11-1.75-3.79-2.85-5.97
		c-1.54-2.96-2.75-4.18-4.18-4.18c-0.53,0-1.92,0.24-6.07,2.42l-0.13,0.07c-5.57,2.79-9.06,5.1-12.72,10.03
		c-2.84,4.06-3.79,7.5-2.64,9.66c0.08,0.13,0.29,0.17,0.29,0.17c4.53,0.68,7.6,0.93,11.4,0.93c1.41,0,3.02-0.04,5.06-0.11
		c2.62,0.04,5.07,0.5,5.73,3.61c0.2,1.54,0.41,2.94,0.63,4.42c0.37,2.46,0.79,5.25,1.16,8.75c0.26,2.55,0.42,4.35,0.56,6.04
		c0.13,1.55,0.25,3.01,0.44,4.88c0.1,0.69,0.59,1.48,0.85,1.63c1.2,0.57,2.18,0.9,3.53,1.35c0.72,0.25,1.54,0.52,2.55,0.89
		c3,1.11,5.23,2.25,7.02,4.5c1.09,1.38,1.31,3.39,0.58,5.27c-0.74,1.91-2.28,3.23-4.12,3.52c-0.78,0.13-1.34,0.19-1.93,0.19
		c-1.15,0-2.26-0.28-4.43-0.84c-2.4-0.8-3.36-1.12-3.79-1.12c-0.12,0-0.26,0.02-0.52,0.08c0,0.01-0.01,0.01-0.01,0.01l-0.05,0.2
		c-1.02,3.89-1.07,4.11-1.82,7.04c-0.49,2.2-2.34,6.41-5.73,6.41c-0.09,0-0.18-0.01-0.28-0.01c-0.67-0.05-1.27-0.36-1.73-0.91
		c-1.48-1.76-1.14-5.53-1.12-5.69c0.29-2.75,0.43-3.49,0.51-3.94c0.08-0.44,0.08-0.44,0.2-3.31l0.01-0.18
		c-0.53,0.02-1.3,0.16-2.17,0.31l-1.02,0.17c-1.87,0.3-2.79,0.4-4.34,0.57l-0.77,0.09c-0.41,0.02-0.7,0.02-0.97,0.02
		c-1.54,0-3.09-0.17-3.9-1.37c-0.65-0.98-0.86-1.97-0.64-2.94c0.42-1.88,2.27-3.02,3.62-3.85l0.28-0.17
		c4.11-2.55,5.96-3.42,9.31-4.99l1.18-0.56c-0.01-0.01-0.01-0.01-0.01-0.02c-1.7-6.99-1.7-6.99-2.46-11.65l-0.33-2.03l-0.05-0.47
		c-0.09-0.83-0.25-2.33-0.68-2.57c-0.12,0-0.25,0-0.37,0c-3.63,0-6.53,1.01-10.19,2.28c-1.81,0.63-2.35,1.14-3.16,2.43
		c-0.5,0.79-0.59,2.85-0.67,4.67c-0.05,0.96-0.08,1.94-0.18,2.88c-0.25,2.75-0.66,7.38-1.85,11.44l-0.24,0.78
		c-1.64,5.37-4.69,15.34-12.18,24.26c-7.66,8.29-16.3,13-27.23,14.86c-2.4,0.38-4.74,0.56-6.97,0.56c-1.45,0-2.87-0.11-4.27-0.27
		c18.35,17.06,38.46,32.24,60.1,45.22c7.77,4.66,17.48,4.66,25.25,0c50.84-30.5,93.38-73.03,123.88-123.85
		C281.16,144.85,281.16,135.15,276.51,127.38"/>
</g>
</svg>
