<?xml version="1.0" encoding="utf-8"?>
<!-- Generator: Adobe Illustrator 26.3.1, SVG Export Plug-In . SVG Version: 6.00 Build 0)  -->
<svg version="1.1" id="Layer_1" xmlns="http://www.w3.org/2000/svg" xmlns:xlink="http://www.w3.org/1999/xlink" x="0px" y="0px"
	 viewBox="0 0 280 280" style="enable-background:new 0 0 280 280;" xml:space="preserve">
<style type="text/css">
	.st0{fill:#FFFFFF;}
</style>
<path class="st0" d="M28.5,174.6c31.4,10.5,65.8,11.1,98.4-0.6c-15.7,8.7-27.4,21.5-34.9,37.3c-2.3,4.7-5.2,10.5-8.1,13.4
	c2.9-2.3,8.7-5.8,13.4-8.1c16.9-8.7,30.9-21.5,39.6-39L134.5,280h11.6l-2.3-102.5c8.1,17.5,22.1,30.9,39.6,39
	c4.7,2.3,10.5,5.2,13.4,8.1c-2.3-2.9-5.8-8.7-8.1-13.4c-7.6-15.7-19.8-28.5-34.9-37.3c4.7,1.7,9.9,3.5,15.7,4.7
	c27.4,7,55.9,5.2,82.7-4.1c8.7-2.9,19.2-6.4,26.2-6.4c-7-0.6-17.5-3.5-26.2-6.4c-26.8-9.3-55.3-11.1-82.7-4.1
	c-3.5,1.2-7,1.7-10.5,2.9c3.5-1.7,7.6-4.1,11.6-6.4c26.2-15.7,47.2-39.6,61.1-67.5c4.1-8.7,10.5-19.8,15.1-25.6
	c-5.8,4.7-16.9,11.1-25.6,15.1c-31.4,15.7-56.5,39.6-72.8,71c12.8-37.8,12.2-77.4-0.6-115.3c-3.5-10.5-7.6-23.3-8.1-32
	c-0.6,8.1-4.7,21.5-8.1,32c-12.8,37.8-13.4,77.4-0.6,115.3c-15.7-31.4-40.7-55.3-72.2-71C50.1,72.2,39,65.8,33.2,61.1
	c4.7,5.8,11.1,16.9,15.1,25.6c13.4,27.9,34.3,51.2,61.1,67.5c4.1,2.3,8.1,4.7,11.6,6.4c-2.9-1.2-6.4-1.7-10.5-2.9
	c-27.4-7-55.9-5.2-82.7,4.1c-8.7,2.9-19.2,6.4-26.2,6.4C9.3,168.8,19.8,171.7,28.5,174.6L28.5,174.6z"/>
</svg>
