<?xml version="1.0" encoding="utf-8"?>
<!-- Generator: Adobe Illustrator 26.5.1, SVG Export Plug-In . SVG Version: 6.00 Build 0)  -->
<svg version="1.1" id="Layer_1" xmlns="http://www.w3.org/2000/svg" xmlns:xlink="http://www.w3.org/1999/xlink" x="0px" y="0px"
	 viewBox="0 0 280 280" style="enable-background:new 0 0 280 280;" xml:space="preserve">
<style type="text/css">
	.st0{fill:#FFFFFF;}
	.st1{fill:#E3232B;}
	.st2{fill:#3D3560;}
	.st3{fill:none;}
</style>
<g>
	<g>
		<path class="st0" d="M153.3,215.9L121.5,63.6c0,0-0.5-0.8-2-0.4c-1.5,0.4-1.3,1.2-1.3,1.2l31.1,152c0,0.3,0.7,0.6,2.4,0.4
			C152.8,216.6,153.3,216.3,153.3,215.9C153.3,216,153.3,216,153.3,215.9"/>
	</g>
	<g>
		<polygon class="st1" points="29.3,85.2 43.1,149.5 14.5,155.7 14.4,155.4 8.1,126 8.1,126 0.6,91.3 		"/>
	</g>
	<g>
		<polyline class="st1" points="93.8,71.3 122.4,65.2 136.2,129.5 107.6,135.7 		"/>
	</g>
	<g>
		<polyline class="st0" points="107.6,135.7 43.1,149.5 29.3,85.2 49.3,80.9 93.8,71.3 		"/>
	</g>
	<g>
		<path class="st1" d="M62.7,83.5l-2.5,9.1c-0.3,1-1.2,1.1-2.1,0.8l-3.4-1l5,12.1c1,2.2-0.6,2.5-1.5,1.7l-6.7-5.1l-0.2,3.3
			c0,0.4-0.4,1-1,1l-7.1,0l3.2,6.3c0.7,1.4,1.1,2,0.2,2.6l-2.1,1.7l13.7,7.3c0.5,0.3,0.9,0.9,0.9,1.5l-0.3,3.7
			c3.9-1.3,7.4-2.6,11.3-3.9c0.4-0.1,1,0.1,1.1,0.5l2.2,12.8l2-0.4l-3-12.6c-0.1-0.4,0.4-0.9,0.7-1c4.1-0.4,7.8-0.7,11.9-1.1
			l-1.8-3.3c-0.3-0.6-0.2-1.3,0.2-1.8l9.5-12.3l-2.7-0.7c-1.1-0.2-1-0.9-0.9-2.4l0.3-7.1L83,98.5c-0.6,0.3-1.2-0.1-1.4-0.5l-1.5-3
			l-4,7.4c-0.5,1.2-2.1,1.5-2.1-0.9l-0.4-13.1l-2.7,2.3c-0.8,0.7-1.6,1-2.3,0.2L62.7,83.5z"/>
	</g>
	<g>
		<path class="st0" d="M14,156.3L0,90.9l29.7-6.4l14,65.4L14,156.3z M8.5,125.5l0.1,0.4l6.3,29.1l27.6-5.9L28.9,85.8L1.3,91.7
			L8.5,125.5z"/>
	</g>
	<g>
		<path class="st0" d="M107.2,136.3l-14-65.4l29.7-6.4l14,65.4L107.2,136.3z M94.4,71.7l13.6,63.3l27.6-5.9L122,65.8L94.4,71.7z"/>
	</g>
	<g>
		<path class="st0" d="M42.7,150.2l-14-65.4l65.5-14.1l14,65.4L42.7,150.2z M29.9,85.6l13.6,63.3l63.4-13.6L93.4,72L29.9,85.6z"/>
	</g>
	<g>
		<path class="st0" d="M127.1,216l31.5-152.4c0,0,0.5-0.8,2-0.4c1.5,0.4,1.3,1.2,1.3,1.2l-30.8,152.1c0,0.3-0.7,0.6-2.4,0.4
			C127.6,216.7,127.1,216.3,127.1,216C127.1,216,127.1,216,127.1,216"/>
	</g>
	<g>
		
			<rect x="179.1" y="48.2" transform="matrix(0.2028 -0.9792 0.9792 0.2028 60.6151 295.3652)" class="st0" width="65.3" height="124.5"/>
	</g>
	<g>
		<polygon class="st1" points="279.4,90.9 278.3,95.9 156.4,70.7 157.4,65.6 		"/>
	</g>
	<g>
		
			<rect x="213.2" y="28.4" transform="matrix(0.2028 -0.9792 0.9792 0.2028 83.2771 283.6046)" class="st1" width="5.2" height="124.5"/>
	</g>
	<g>
		
			<rect x="211.2" y="38.3" transform="matrix(0.203 -0.9792 0.9792 0.203 71.9178 289.4643)" class="st1" width="5.2" height="124.5"/>
	</g>
	<g>
		
			<rect x="209.1" y="48.2" transform="matrix(0.203 -0.9792 0.9792 0.203 60.5922 295.3455)" class="st1" width="5.2" height="124.5"/>
	</g>
	<g>
		
			<rect x="207.1" y="58.1" transform="matrix(0.2028 -0.9792 0.9792 0.2028 49.2962 301.2547)" class="st1" width="5.2" height="124.5"/>
	</g>
	<g>
		<rect x="205" y="68" transform="matrix(0.203 -0.9792 0.9792 0.203 37.9393 307.1058)" class="st1" width="5.2" height="124.5"/>
	</g>
	<g>
		
			<rect x="203" y="77.9" transform="matrix(0.2028 -0.9792 0.9792 0.2028 26.641 313.019)" class="st1" width="5.2" height="124.5"/>
	</g>
	<g>
		<path class="st0" d="M266.4,155.9l-0.5-0.1l-122.5-25.4l0.2-0.8L157,65l123,25.5L266.4,155.9z M144.7,129.6l120.9,25l12.2-58.9
			l0.5,0.1l-0.5-0.1l0.9-4.5l-120.9-25L144.7,129.6z"/>
	</g>
	<g>
		
			<rect x="160.4" y="63.1" transform="matrix(0.2029 -0.9792 0.9792 0.2029 55.8376 244.6391)" class="st2" width="35.5" height="49.8"/>
	</g>
	<g>
		<polygon class="st0" points="161.3,67.8 161.5,69.3 162.9,69.6 161.5,70.2 161.7,71.7 160.7,70.6 159.3,71.3 160.1,69.9 
			159.1,68.8 160.5,69.1 		"/>
	</g>
	<g>
		<polygon class="st0" points="164.6,72.2 164.7,73.7 166.2,74 164.8,74.6 165,76.1 164,75 162.6,75.7 163.4,74.3 162.3,73.2 
			163.8,73.5 		"/>
	</g>
	<g>
		<polygon class="st0" points="163.1,79.2 163.3,80.7 164.8,81 163.4,81.6 163.6,83.1 162.5,82 161.2,82.6 161.9,81.3 160.9,80.2 
			162.4,80.5 		"/>
	</g>
	<g>
		<polygon class="st0" points="161.7,86.1 161.8,87.6 163.3,87.9 161.9,88.6 162.1,90.1 161.1,89 159.7,89.6 160.5,88.3 159.4,87.1 
			160.9,87.4 		"/>
	</g>
	<g>
		<polygon class="st0" points="160.2,93.1 160.4,94.6 161.9,94.9 160.5,95.5 160.7,97 159.6,95.9 158.3,96.6 159,95.2 158,94.1 
			159.5,94.4 		"/>
	</g>
	<g>
		<polygon class="st0" points="172.7,73.9 172.9,75.4 174.3,75.7 173,76.3 173.1,77.8 172.1,76.7 170.7,77.3 171.5,76 170.5,74.9 
			172,75.2 		"/>
	</g>
	<g>
		<polygon class="st0" points="171.3,80.8 171.4,82.4 172.9,82.7 171.5,83.3 171.7,84.8 170.7,83.7 169.3,84.3 170,83 169,81.9 
			170.5,82.2 		"/>
	</g>
	<g>
		<polygon class="st0" points="169.8,87.8 170,89.3 171.5,89.6 170.1,90.3 170.2,91.8 169.2,90.6 167.9,91.3 168.6,89.9 167.6,88.8 
			169.1,89.1 		"/>
	</g>
	<g>
		<polygon class="st0" points="168.4,94.8 168.5,96.3 170,96.6 168.6,97.2 168.8,98.7 167.8,97.6 166.4,98.2 167.2,96.9 166.2,95.8 
			167.6,96.1 		"/>
	</g>
	<g>
		<polygon class="st0" points="180.9,75.6 181,77.1 182.5,77.4 181.1,78 181.3,79.5 180.3,78.4 178.9,79 179.6,77.7 178.6,76.6 
			180.1,76.9 		"/>
	</g>
	<g>
		<polygon class="st0" points="179.4,82.5 179.6,84 181,84.3 179.7,85 179.8,86.5 178.8,85.4 177.4,86 178.2,84.7 177.2,83.5 
			178.7,83.9 		"/>
	</g>
	<g>
		<polygon class="st0" points="178,89.5 178.1,91 179.6,91.3 178.2,91.9 178.4,93.5 177.4,92.3 176,93 176.8,91.6 175.7,90.5 
			177.2,90.8 		"/>
	</g>
	<g>
		<polygon class="st0" points="176.5,96.5 176.7,98 178.2,98.3 176.8,98.9 176.9,100.4 175.9,99.3 174.6,99.9 175.3,98.6 
			174.3,97.5 175.8,97.8 		"/>
	</g>
	<g>
		<polygon class="st0" points="189,77.2 189.2,78.8 190.6,79.1 189.3,79.7 189.4,81.2 188.4,80.1 187,80.7 187.8,79.4 186.8,78.3 
			188.2,78.6 		"/>
	</g>
	<g>
		<polygon class="st0" points="187.6,84.2 187.7,85.7 189.2,86 187.8,86.7 188,88.2 187,87 185.6,87.7 186.3,86.4 185.3,85.2 
			186.8,85.5 		"/>
	</g>
	<g>
		<polygon class="st0" points="186.1,91.2 186.3,92.7 187.7,93 186.4,93.6 186.5,95.1 185.5,94 184.1,94.6 184.9,93.3 183.9,92.2 
			185.4,92.5 		"/>
	</g>
	<g>
		<polygon class="st0" points="184.7,98.1 184.8,99.7 186.3,100 184.9,100.6 185.1,102.1 184.1,101 182.7,101.6 183.4,100.3 
			182.4,99.2 183.9,99.5 		"/>
	</g>
	<g>
		<polygon class="st0" points="197.1,78.9 197.3,80.4 198.8,80.7 197.4,81.4 197.6,82.9 196.5,81.8 195.2,82.4 195.9,81.1 
			194.9,79.9 196.4,80.3 		"/>
	</g>
	<g>
		<polygon class="st0" points="195.7,85.9 195.9,87.4 197.3,87.7 196,88.3 196.1,89.9 195.1,88.7 193.7,89.4 194.5,88 193.5,86.9 
			194.9,87.2 		"/>
	</g>
	<g>
		<polygon class="st0" points="194.3,92.9 194.4,94.4 195.9,94.7 194.5,95.3 194.7,96.8 193.7,95.7 192.3,96.3 193,95 192,93.9 
			193.5,94.2 		"/>
	</g>
	<g>
		<polygon class="st0" points="192.8,99.8 193,101.3 194.4,101.7 193.1,102.3 193.2,103.8 192.2,102.7 190.8,103.3 191.6,102 
			190.6,100.9 192.1,101.2 		"/>
	</g>
	<g>
		<polygon class="st0" points="159.8,74.8 160,76.3 161.5,76.6 160.1,77.2 160.3,78.7 159.3,77.6 157.9,78.2 158.6,76.9 157.6,75.8 
			159.1,76.1 		"/>
	</g>
	<g>
		<polygon class="st0" points="158.4,81.7 158.6,83.2 160,83.5 158.7,84.2 158.8,85.7 157.8,84.6 156.4,85.2 157.2,83.9 156.2,82.7 
			157.6,83 		"/>
	</g>
	<g>
		<polygon class="st0" points="157,88.7 157.1,90.2 158.6,90.5 157.2,91.1 157.4,92.6 156.4,91.5 155,92.2 155.7,90.8 154.7,89.7 
			156.2,90 		"/>
	</g>
	<g>
		<polygon class="st0" points="155.5,95.7 155.7,97.2 157.2,97.5 155.8,98.1 155.9,99.6 154.9,98.5 153.6,99.1 154.3,97.8 
			153.3,96.7 154.8,97 		"/>
	</g>
	<g>
		<polygon class="st0" points="169.3,69.4 169.5,71 171,71.3 169.6,71.9 169.7,73.4 168.7,72.3 167.4,72.9 168.1,71.6 167.1,70.5 
			168.6,70.8 		"/>
	</g>
	<g>
		<polygon class="st0" points="167.9,76.4 168,77.9 169.5,78.2 168.1,78.9 168.3,80.4 167.3,79.3 165.9,79.9 166.7,78.6 165.6,77.4 
			167.1,77.7 		"/>
	</g>
	<g>
		<polygon class="st0" points="166.4,83.4 166.6,84.9 168.1,85.2 166.7,85.8 166.9,87.3 165.8,86.2 164.5,86.9 165.2,85.5 
			164.2,84.4 165.7,84.7 		"/>
	</g>
	<g>
		<polygon class="st0" points="165,90.4 165.2,91.9 166.6,92.2 165.3,92.8 165.4,94.3 164.4,93.2 163,93.8 163.8,92.5 162.8,91.4 
			164.2,91.7 		"/>
	</g>
	<g>
		<polygon class="st0" points="163.5,97.3 163.7,98.8 165.2,99.1 163.8,99.8 164,101.3 163,100.2 161.6,100.8 162.3,99.5 
			161.3,98.3 162.8,98.6 		"/>
	</g>
	<g>
		<polygon class="st0" points="177.6,71.2 177.7,72.7 179.2,73 177.8,73.6 178,75.1 177,74 175.6,74.6 176.4,73.3 175.3,72.2 
			176.8,72.5 		"/>
	</g>
	<g>
		<polygon class="st0" points="176.1,78.1 176.3,79.6 177.8,79.9 176.4,80.6 176.6,82.1 175.5,81 174.2,81.6 174.9,80.3 173.9,79.1 
			175.4,79.4 		"/>
	</g>
	<g>
		<polygon class="st0" points="174.7,85.1 174.8,86.6 176.3,86.9 174.9,87.5 175.1,89.1 174.1,87.9 172.7,88.6 173.5,87.2 
			172.5,86.1 173.9,86.4 		"/>
	</g>
	<g>
		<polygon class="st0" points="173.2,92.1 173.4,93.6 174.9,93.9 173.5,94.5 173.7,96 172.7,94.9 171.3,95.5 172,94.2 171,93.1 
			172.5,93.4 		"/>
	</g>
	<g>
		<polygon class="st0" points="171.8,99 172,100.5 173.4,100.8 172.1,101.5 172.2,103 171.2,101.9 169.8,102.5 170.6,101.2 
			169.6,100 171.1,100.4 		"/>
	</g>
	<g>
		<polygon class="st0" points="185.7,72.8 185.8,74.4 187.3,74.7 185.9,75.3 186.1,76.8 185.1,75.7 183.7,76.3 184.4,75 183.4,73.9 
			184.9,74.2 		"/>
	</g>
	<g>
		<polygon class="st0" points="184.2,79.8 184.4,81.3 185.9,81.6 184.5,82.2 184.6,83.8 183.6,82.6 182.3,83.3 183,81.9 182,80.8 
			183.5,81.1 		"/>
	</g>
	<g>
		<polygon class="st0" points="182.8,86.8 182.9,88.3 184.4,88.6 183,89.2 183.2,90.7 182.2,89.6 180.8,90.2 181.6,88.9 180.5,87.8 
			182,88.1 		"/>
	</g>
	<g>
		<polygon class="st0" points="181.3,93.7 181.5,95.3 183,95.6 181.6,96.2 181.8,97.7 180.7,96.6 179.4,97.2 180.1,95.9 179.1,94.8 
			180.6,95.1 		"/>
	</g>
	<g>
		<polygon class="st0" points="179.9,100.7 180,102.2 181.5,102.5 180.2,103.2 180.3,104.7 179.3,103.5 177.9,104.2 178.7,102.8 
			177.7,101.7 179.1,102 		"/>
	</g>
	<g>
		<polygon class="st0" points="193.8,74.5 193.9,76 195.4,76.3 194,77 194.2,78.5 193.2,77.3 191.8,78 192.5,76.7 191.5,75.5 
			193,75.8 		"/>
	</g>
	<g>
		<polygon class="st0" points="192.3,81.5 192.5,83 193.9,83.3 192.6,83.9 192.7,85.4 191.7,84.3 190.3,84.9 191.1,83.6 190.1,82.5 
			191.6,82.8 		"/>
	</g>
	<g>
		<polygon class="st0" points="190.9,88.4 191,90 192.5,90.3 191.1,90.9 191.3,92.4 190.3,91.3 188.9,91.9 189.7,90.6 188.6,89.5 
			190.1,89.8 		"/>
	</g>
	<g>
		<polygon class="st0" points="189.4,95.4 189.6,96.9 191.1,97.2 189.7,97.9 189.8,99.4 188.8,98.2 187.5,98.9 188.2,97.6 
			187.2,96.4 188.7,96.7 		"/>
	</g>
	<g>
		<polygon class="st0" points="188,102.4 188.1,103.9 189.6,104.2 188.2,104.8 188.4,106.3 187.4,105.2 186,105.8 186.8,104.5 
			185.7,103.4 187.2,103.7 		"/>
	</g>
	<g>
		<polygon class="st0" points="202,76.2 202.2,77.7 203.6,78 202.3,78.7 202.4,80.2 201.4,79.1 200,79.7 200.8,78.4 199.8,77.2 
			201.3,77.5 		"/>
	</g>
	<g>
		<polygon class="st0" points="200.6,83.2 200.7,84.7 202.2,85 200.8,85.6 201,87.1 200,86 198.6,86.7 199.3,85.3 198.3,84.2 
			199.8,84.5 		"/>
	</g>
	<g>
		<polygon class="st0" points="199.1,90.2 199.3,91.7 200.8,92 199.4,92.6 199.5,94.1 198.5,93 197.2,93.6 197.9,92.3 196.9,91.2 
			198.4,91.5 		"/>
	</g>
	<g>
		<polygon class="st0" points="197.7,97.1 197.8,98.6 199.3,98.9 197.9,99.6 198.1,101.1 197.1,100 195.7,100.6 196.5,99.3 
			195.4,98.1 196.9,98.4 		"/>
	</g>
	<g>
		<polygon class="st0" points="196.2,104.1 196.4,105.6 197.9,105.9 196.5,106.5 196.7,108.1 195.6,106.9 194.3,107.6 195,106.2 
			194,105.1 195.5,105.4 		"/>
	</g>
</g>
<rect class="st3" width="280" height="280"/>
</svg>
