<?xml version="1.0" encoding="utf-8"?>
<!-- Generator: Adobe Illustrator 26.2.1, SVG Export Plug-In . SVG Version: 6.00 Build 0)  -->
<svg version="1.1" id="Layer_1" xmlns="http://www.w3.org/2000/svg" xmlns:xlink="http://www.w3.org/1999/xlink" x="0px" y="0px"
	 viewBox="0 0 280 280" style="enable-background:new 0 0 280 280;" xml:space="preserve">
<style type="text/css">
	.st0{fill:#36464C;}
	.st1{fill:#231715;}
	.st2{fill:#FFFFFF;}
</style>
<circle class="st0" cx="140" cy="140" r="140"/>
<g>
	<g>
		<path class="st1" d="M110.82,78.38c-1.07-6.04-3.62-11.74-7.35-16.59c0.34-1.03-0.14-2.42-1.56-2.6c-2.5-0.32-4.78,0.48-7.21,0.97
			c-2.5,0.5-5.04,0.64-7.58,0.69c-3.16,0.07-6.27,0.2-9.38,0.46c-0.3-0.12-0.65-0.15-1.06-0.05c-0.33,0.08-0.66,0.16-0.99,0.24
			c-1.18,0.12-2.36,0.26-3.55,0.42c-4.92,0.68-9.99,0.19-14.82,1.39c-5.15,1.28-10.29,2.22-15.6,2.54
			c-2.26,0.14-1.74,3.42,0.33,3.65c0.2,0.6,0.71,1.06,1.57,1.04c0.02,0,0.04,0,0.06,0c-1.35,4.82-1.44,9.91-1.59,14.92
			c-0.09,3.23-0.23,6.45-0.78,9.64c-0.55,3.21-1.24,6.33-1.32,9.6c-0.16,6.33,1.19,12.65,3.7,18.45
			c2.27,5.26,5.61,11.36,10.83,14.17c11.29,6.09,26.79,2.31,36.96-4.42c11.31-7.48,14.14-22.57,17.65-34.75
			C111.05,91.59,112.03,85.18,110.82,78.38z M59.47,135.34c-5.78-1.78-8.95-6.66-11.5-11.86c-2.55-5.2-4.12-10.95-4.24-16.76
			c0-0.18,0-0.37,0-0.55c1.17,5.21,3.32,10.16,6.25,14.62c3.18,4.84,7.41,9.35,12.43,12.29c3.14,1.84,6.5,2.83,9.97,3.09
			C68.07,136.8,63.71,136.65,59.47,135.34z M106.53,93.77c-1.58,5.93-3.29,11.87-5.28,17.67c-1.37,3.98-2.86,8.21-5.2,11.8
			c-0.66-0.15-1.41-0.01-1.96,0.61c-4.48,5-11.04,7.93-17.66,8.6c-7.7,0.77-14.02-2.89-19.13-8.36c-4.43-4.75-7.74-10.57-9.46-16.84
			c-0.43-1.59-0.8-3.21-1.02-4.84c-0.26-1.97,0.64-3.55,0.61-5.48c-0.02-1.44-0.82-2.64-0.97-4.04c-0.22-2,0.1-4.16,0.18-6.17
			c0.03-0.73-0.3-1.27-0.78-1.59c0.14-5,0.25-10.03,1.81-14.78c9.66-0.69,19.11-2.84,28.52-5.12c3.55-0.36,7.08-0.57,10.69-0.64
			c2.34-0.05,4.69-0.15,7.01-0.49c1.9-0.28,3.79-0.97,5.71-1.17c0.02,0.02,0.04,0.05,0.06,0.07
			C106.75,71.47,109.38,83.07,106.53,93.77z"/>
		<g>
			<path class="st2" d="M49.98,120.79c-2.93-4.46-5.08-9.41-6.25-14.62c0,0.18,0,0.37,0,0.55c0.13,5.81,1.7,11.56,4.24,16.76
				c2.54,5.2,5.71,10.08,11.5,11.86c4.23,1.31,8.6,1.46,12.9,0.83c-3.46-0.27-6.83-1.25-9.97-3.09
				C57.38,130.14,53.15,125.62,49.98,120.79z"/>
			<path class="st2" d="M99.59,62.91c-1.92,0.21-3.81,0.89-5.71,1.17c-2.32,0.34-4.67,0.44-7.01,0.49
				c-3.61,0.08-7.14,0.29-10.69,0.64c-9.41,2.28-18.86,4.44-28.52,5.12c-1.57,4.75-1.67,9.78-1.81,14.78
				c0.47,0.32,0.81,0.85,0.78,1.59c-0.08,2.01-0.4,4.17-0.18,6.17c0.15,1.4,0.95,2.6,0.97,4.04c0.03,1.93-0.87,3.51-0.61,5.48
				c0.22,1.63,0.58,3.25,1.02,4.84c1.71,6.27,5.02,12.09,9.46,16.84c5.11,5.48,11.43,9.14,19.13,8.36c6.62-0.66,13.18-3.6,17.66-8.6
				c0.56-0.62,1.3-0.76,1.96-0.61c2.34-3.59,3.84-7.82,5.2-11.8c1.99-5.8,3.71-11.74,5.28-17.67c2.85-10.7,0.22-22.3-6.88-30.78
				C99.63,62.96,99.61,62.94,99.59,62.91z"/>
		</g>
		<path class="st1" d="M215.63,57.02c1.15-0.09,2.3-0.22,3.45-0.39c2.38-0.36,1.67-4.03-0.7-3.67c-1.45,0.22-2.9,0.36-4.36,0.45
			c-1.5-0.01-2.97,0.01-4.43,0.09c-7.71-0.1-15.43-1.39-23.15-1.4c-5.09-0.01-10.19,0.3-15.21,1.11c-2.56,0.41-5.09,0.96-7.59,1.63
			c-2.69,0.73-5.3,1.49-8.1,0.98c-2.36-0.43-2.6,3.3-0.25,3.72c0.03,0.01,0.06,0.01,0.08,0.01c-6.63,8.71-6.46,20.36-4.25,30.8
			c1.25,5.93,2.4,12.68,5.45,18c1.58,2.74,3.72,5.11,5.75,7.52c2.14,2.54,4.2,5.2,6.51,7.6c8.43,8.79,22.73,7.39,31.59-0.12
			c0.98-0.83,1.87-1.83,3-2.46c1.28-0.71,2.59-0.78,3.57-1.98c1.86-2.28,3.1-5.43,4.51-8.01c3.11-5.7,5.94-11.49,7.25-17.9
			c1.43-6.97,1.69-14.32,1.46-21.43C220.03,66.34,218.95,61,215.63,57.02z M215.68,88.92c-0.81,5.87-2.79,11.31-5.5,16.56
			c-1.15,2.24-2.38,4.44-3.6,6.64c-0.67,1.21-1.32,2.43-2,3.63c-0.72,1.28-1.77,1.21-2.99,1.9c-1.83,1.03-3.22,2.69-4.91,3.92
			c-2.26,1.65-4.9,2.85-7.61,3.53c-5.33,1.35-11.26,1.08-15.71-2.46c-2.04-1.63-3.65-3.79-5.33-5.77c-1.95-2.31-3.94-4.59-5.84-6.95
			c-3.61-4.48-4.86-9.69-6.22-15.17c-2.76-11.05-5.1-24.85,3.3-34.1c0.18,0.04,0.36,0.05,0.56,0.04c9.31-0.62,18.64-1.02,27.97-1.21
			c4.27-0.09,8.69,0.18,12.89-0.74c2.05-0.45,4.05-1.08,6.15-1.36c0.69-0.09,1.39-0.15,2.09-0.19c0.5,0.01,1,0.01,1.5,0.01
			c0.1,0.11,0.21,0.21,0.34,0.31c4.61,3.35,5.64,9.26,5.74,14.61C216.6,77.69,216.44,83.38,215.68,88.92z"/>
		<path class="st2" d="M210.75,57.5c-0.13-0.09-0.24-0.2-0.34-0.31c-0.5,0-1,0-1.5-0.01c-0.7,0.04-1.39,0.1-2.09,0.19
			c-2.09,0.28-4.09,0.91-6.15,1.36c-4.2,0.92-8.62,0.65-12.89,0.74c-9.33,0.19-18.66,0.59-27.97,1.21c-0.2,0.01-0.39,0-0.56-0.04
			c-8.4,9.26-6.06,23.06-3.3,34.1c1.37,5.48,2.62,10.69,6.22,15.17c1.9,2.36,3.89,4.64,5.84,6.95c1.67,1.98,3.28,4.15,5.33,5.77
			c4.44,3.54,10.37,3.81,15.71,2.46c2.71-0.69,5.35-1.89,7.61-3.53c1.69-1.23,3.08-2.89,4.91-3.92c1.23-0.69,2.27-0.62,2.99-1.9
			c0.68-1.2,1.34-2.42,2-3.63c1.22-2.2,2.45-4.4,3.6-6.64c2.7-5.25,4.68-10.69,5.5-16.56c0.77-5.54,0.92-11.22,0.82-16.81
			C216.39,66.76,215.36,60.85,210.75,57.5z"/>
		<path class="st1" d="M93.07,84.35c-0.51-0.15-0.9,0.17-1.04,0.56c-4.56-1.5-10.3-2.26-12.93,2.7c-1.35,2.53-1.73,5.69-2.27,8.47
			c-0.58,2.98-1.5,6.73-0.6,9.73c0.73,2.42,2.96,3.61,5.13,4.57c2.56,1.13,5.73,2.1,8.57,1.89c2.41-0.18,3.86-1.62,4.45-3.9
			c0.8-3.08,1.73-5.96,2.82-8.95C99.1,94.23,99.75,86.32,93.07,84.35z M91.53,87.85c0.22,0.05,0.41,0.02,0.57-0.06
			c0.06,0.02,0.13,0.03,0.2,0.03c2.88,0.16,2.48,4.38,1.84,5.95c-0.96,2.37-2.46,3.09-4.91,2.08c-2.35-0.97-1.89-2.97-1.21-4.9
			C88.66,89.15,88.99,87.26,91.53,87.85z"/>
		<path class="st1" d="M183.74,82.64c-0.91-1.32-2.38-2.13-3.89-2.11c-0.17-0.18-0.4-0.29-0.7-0.27c-1.55,0.13-2.94-1.24-4.43-1.57
			c-1.18-0.26-2.4-0.2-3.55,0.15c-2.68,0.81-4.05,3.09-5.47,5.31c-1.61,2.52-3.54,5.11-3.8,8.18c-0.23,2.76,0.71,5.79,2.08,8.17
			c2.47,4.29,7.42,7.21,12.4,5.49c2.34-0.81,3.93-2.58,4.96-4.79c1.36-2.92,2.3-6.23,2.98-9.37
			C184.94,88.94,185.54,85.26,183.74,82.64z M167.8,87.33c0.06-0.76,0.17-0.81,0.87-1.12c1.4-0.61,3.28-1.01,4.72-0.29
			c1.79,0.9,1.39,3.08,0.44,4.5c-1.61,0.25-3.48,0.54-4.9-0.45C168.04,89.35,167.72,88.39,167.8,87.33z"/>
		<path class="st1" d="M165.51,127.94c-1.93-2.8-5.1-4.36-8.25-5.39c-4.13-1.36-8.43-2.26-12.65-3.32
			c-10.46-2.64-20.98-4.59-31.7-2.23c-3.61,0.79-6.77,2.23-7.3,6.09c-1.34,1.4-2.49,3-3.46,4.65c-3.84,6.48-6.46,16.12-1.65,22.79
			c1.31,1.82,3.09,3.27,4.24,5.21c0.99,1.66,1.52,3.54,2.04,5.38c0.96,3.37,1.95,6.77,4.69,9.16c3.34,2.91,7.85,4.75,11.71,6.86
			c3.94,2.16,7.88,4.55,12.19,5.89c3.53,1.1,7.44,1.41,10.36-1.24c1.65-1.5,2.92-3.03,4.83-4.25c1.67-1.06,3.3-2.12,4.76-3.47
			c6.07-5.59,9.08-13.55,10.54-21.5c0.83-4.54,1.23-9.16,1.55-13.76C167.67,135.12,167.71,131.13,165.51,127.94z"/>
	</g>
	<g>
		<path class="st1" d="M239.58,172.07c-6.13-5.84-9.43-13.95-15.47-19.89c-1.18-1.16-2.77,0.87-1.59,2.03
			c4.14,4.07,6.99,9.16,10.35,13.84c-0.1,0.07-0.2,0.16-0.29,0.28c-3.84,5.07-8.62,9.34-14.15,12.51c-2.45,1.4-5.04,2.38-6.61,4.86
			c-1.74,2.75-5.53,4.1-8.39,5.46c-6.25,2.97-12.81,5.29-19.38,7.45c-3.48,1.14-7.01,2.09-10.69,2.3
			c-3.82,0.21-7.67-0.19-11.47-0.49c-4.12-0.32-8.23-0.68-12.35-1.08c-3.84-0.38-7.94-0.6-11.18-2.93c-0.37-0.27-0.76-0.3-1.1-0.2
			c0.04-0.53,0.1-1.06,0.17-1.59c0.07-0.48-0.06-0.87-0.29-1.17c0.02-0.39,0.04-0.77,0.06-1.16c0.16-1.08,0.26-2.17,0.29-3.27
			c0.03-1.04-0.01-2.08-0.1-3.11c0.04-2.46,0.04-4.92-0.01-7.38c-0.03-1.62-2.45-1.35-2.55,0.18c-1.01,0.01-2.11,0.98-1.72,2.26
			c1.01,3.31,1.33,6.78,0.9,10.21c-0.32,2.51-1.22,4.86-1.09,7.32c-0.96,1.95-4.42,2.42-6.33,2.75c-3.19,0.54-6.44,0.79-9.67,0.72
			c-6.12-0.14-12.11-1.47-17.82-3.65c-5.54-2.12-10.79-4.94-15.89-7.95c-5.04-2.98-10.29-5.92-14.75-9.73
			c-5.38-4.6-10.09-10.1-14.99-15.2c1.46-2.88,2.93-5.77,3.44-8.98c0.08-0.47-0.09-0.84-0.36-1.08c0.11-0.33,0.19-0.68,0.23-1.03
			c0.16-1.65-2.39-2.01-2.55-0.35c-0.13,1.29-1.24,2.32-1.84,3.43c-0.57,1.05-1.03,2.16-1.47,3.27c-0.91,2.29-1.65,4.65-2.25,7.05
			c-0.27,1.09-0.5,2.19-0.7,3.29c-0.42,0.95-0.81,1.92-1.08,2.91c-0.27,0.98-0.39,1.94-0.29,2.94c0.12,1.2,0.65,2.43,0.29,3.64
			c-0.15,0.5-0.01,0.94,0.26,1.26c0.01,0.32,0.01,0.64,0.02,0.96c0.06,1.66,2.62,1.34,2.56-0.31c-0.12-3.67,0.14-7.35,0.78-10.96
			c0.5-1.06,1.06-2.09,1.49-3.04c0.09-0.19,0.18-0.38,0.26-0.56c4.52,4.76,8.93,9.73,13.82,14.1c4.92,4.4,10.88,7.69,16.55,11.02
			c6.91,4.05,14.09,7.55,21.66,9.6c-1.1,7.71-1.63,15.48-1.61,23.27c0,0.05,0.01,0.09,0.01,0.14c-0.31,0.78,0.19,1.94,1.31,1.88
			c10.69-0.61,21.4-1.22,32.11-0.68c4.9,0.25,9.83,0.77,14.73,0.29c4.94-0.48,9.69-2.78,14.69-2.47c1.63,0.1,2.01-2.4,0.4-2.55
			c-0.53-3.35,0.61-7.22,1.08-10.49c0.24-1.69,0.58-3.4,0.47-5.11c-0.08-1.2-0.4-2.37-0.78-3.51c4.6,0.24,9.19,0.14,13.7-1.02
			c7.11-1.82,14.19-4.5,20.91-7.42c3.27-1.42,6.47-3,9.54-4.81c1.24-0.73,2.12-1.47,2.89-2.68c0.99-1.57,2.21-2.38,3.83-3.24
			c6.59-3.49,12.3-8.13,16.85-14.06c1.09,1.39,2.26,2.73,3.55,3.96C239.18,175.24,240.77,173.21,239.58,172.07z"/>
		<path class="st2" d="M105.26,225.24c-0.01-7.37,0.53-14.72,1.56-22.02c4.37,0.98,8.88,1.47,13.54,1.28
			c3.14-0.13,9.79-0.38,13.24-2.88c0.44,3.29-0.06,6.88-0.15,10.07c-0.11,4.28-0.23,8.55-0.34,12.83
			C123.82,224.24,114.53,224.72,105.26,225.24z"/>
		<path class="st2" d="M164.18,213.71c-0.41,2.83-1.21,5.92-0.83,8.81c-3.87,0.32-7.53,1.72-11.4,2.26
			c-5.38,0.75-10.8,0.09-16.19-0.16c-0.03,0-0.05,0-0.08,0c0.13-4.68,0.25-9.35,0.38-14.03c0.08-3.12,0.44-6.42,0.02-9.57
			c0.64-0.24,1.15-0.81,1.12-1.67c-0.01-0.21-0.01-0.42-0.01-0.63c2.62,1.74,5.63,2.45,8.73,2.83c3.86,0.48,7.75,0.78,11.63,1.1
			c2.13,0.18,4.26,0.38,6.4,0.55c0.63,1.76,1.12,3.45,0.98,5.36C164.78,210.27,164.43,212,164.18,213.71z"/>
	</g>
</g>
</svg>
