<?xml version="1.0" encoding="utf-8"?>
<!-- Generator: Adobe Illustrator 26.2.1, SVG Export Plug-In . SVG Version: 6.00 Build 0)  -->
<svg version="1.1" id="Layer_1" xmlns="http://www.w3.org/2000/svg" xmlns:xlink="http://www.w3.org/1999/xlink" x="0px" y="0px"
	 viewBox="0 0 280 280" style="enable-background:new 0 0 280 280;" xml:space="preserve">
<style type="text/css">
	.st0{fill:#FFFFFF;}
</style>
<g>
	<path class="st0" d="M52.72,140.17c-5.79-4.02-8.95-6.27-16.62-6.27c-9.33,0-16.9,8.36-16.9,18.66c0,10.31,7.57,18.66,16.9,18.66
		c7.34,0,9.16-0.72,16.95-6.02v18.53c-4.99,2.53-10.92,3.97-16.95,3.97c-19.94,0-36.1-15.74-36.1-35.15
		c0-19.41,16.16-35.14,36.1-35.14c5.98,0,11.66,1.41,16.62,3.91V140.17z"/>
	<rect x="58.76" y="118.42" class="st0" width="18.1" height="67.94"/>
	<path class="st0" d="M67.81,114.87c5.66,0,10.24-4.63,10.24-10.34c0-5.7-4.58-10.34-10.24-10.34c-5.66,0-10.25,4.63-10.25,10.34
		C57.56,110.24,62.15,114.87,67.81,114.87"/>
	<path class="st0" d="M267.21,144.84c-2.41-0.99-9.1-3-10.21-3.45c-8.75-3.62-5.56-10.36,0.92-10.36c4.79,0,8.51,2.01,11.76,4.2
		v-16.15c-6.33-1.94-9.6-2.67-14.85-2.67c-14.1,0-21.35,10.4-21.38,20.9c-0.02,7.38,5.65,15.48,12.27,17.94
		c5.83,2.16,6.71,2.52,10.2,3.73c6.96,2.42,6.98,12.43-2.53,12.43c-3.08,0-10.72-0.91-15.24-10.79l-26.8-68.58h-0.04l-34.16,91.09
		v-49h14.13v-15.72h-58.28v40.51l-30.97-40.47v-0.03h-18.1v67.94h18.1v-41.24l31.47,41.24h17.61v-52.22h7.94v52.22h36.16l4.18-13.23
		h20.21l-4.81-14.25h-10.88l7.42-22.11l10.01,28.06c6.33,17.18,18.29,23.11,31.69,23.11c13.4,0,26.98-7.94,26.98-24.2
		C280,152.12,273.24,147.31,267.21,144.84"/>
</g>
</svg>
