<?xml version="1.0" encoding="utf-8"?>
<!-- Generator: Adobe Illustrator 26.0.3, SVG Export Plug-In . SVG Version: 6.00 Build 0)  -->
<svg version="1.1" id="Layer_1" xmlns="http://www.w3.org/2000/svg" xmlns:xlink="http://www.w3.org/1999/xlink" x="0px" y="0px"
	 viewBox="0 0 280 280" style="enable-background:new 0 0 280 280;" xml:space="preserve">
<style type="text/css">
	.st0{fill:#D50057;}
</style>
<g>
	<path class="st0" d="M89.49,45.6c74.69-26.37,135.35,20.46,100.61,68.79c0,0-20.52,27.63-47.59,23.69c0,0,50.43-29.25,15.89-53.15
		c-34.55-23.9-128.92,8.93-113.68,76.35c15.25,67.41,130.51,65.8,180.56-15.54c0,0,34.57-54.61,3.19-92.01
		C205.71,29.87,173.59,15,138.01,15C79.82,15,30.93,54.75,16.99,108.58C27.45,82.93,50.56,59.34,89.49,45.6z"/>
	<path class="st0" d="M245.12,75.54c12.57,25.59,15.71,67.65-41.24,122.54C151.06,249,56.48,245.74,22.24,187.21
		C40.86,232.84,85.68,265,138.01,265c69.04,0,125-55.96,125-125C263.01,116.42,256.47,94.37,245.12,75.54z"/>
</g>
</svg>
