<?xml version="1.0" encoding="utf-8"?>
<!-- Generator: Adobe Illustrator 26.0.3, SVG Export Plug-In . SVG Version: 6.00 Build 0)  -->
<svg version="1.1" id="Layer_1" xmlns="http://www.w3.org/2000/svg" xmlns:xlink="http://www.w3.org/1999/xlink" x="0px" y="0px"
	 viewBox="0 0 280 280" style="enable-background:new 0 0 280 280;" xml:space="preserve">
<style type="text/css">
	.st0{fill:#49ADE9;}
</style>
<path class="st0" d="M278.6,0c0,70.8,0,141.3,0,212.3c-1.2,0-2.4,0-3.5,0c-20.2,0-40.4,0-60.6-0.1c-2.3,0-3,0.6-3,3
	c0.1,20.4,0.1,40.8,0.1,61.1c0,1.1,0,2.3,0,3.6c-70.2,0-140.1,0-210.2,0c0-70.7,0-141.3,0-212.2c22.2,0,44.3,0,66.9,0
	c0-22.7,0-45.2,0-67.8C138.6,0,208.5,0,278.6,0z M8.6,267.2c1-0.9,1.6-1.4,2.2-2c18.7-18.9,37.4-37.7,56-56.7c0.9-0.9,1.5-2.7,1.5-4
	c0.1-31.3,0-62.6,0.1-94c0-2.1-0.8-3.1-2.6-4.1C51.1,99,36.3,91.5,21.5,84c-4.2-2.1-8.4-4.2-12.9-6.5C8.6,140.9,8.6,203.8,8.6,267.2
	z M201.7,272.6c-0.5-1-0.8-1.8-1.1-2.5c-9.1-18.4-18.3-36.7-27.4-55.2c-1-2.1-2.2-2.7-4.5-2.7c-30.7,0.1-61.4,0.1-92.1,0
	c-2,0-3.5,0.6-4.9,2C53,233.2,34.3,252,15.7,270.8c-0.5,0.5-0.9,1-1.6,1.8C76.8,272.6,139,272.6,201.7,272.6z M271.1,12.8
	c-0.9,0.9-1.5,1.3-2,1.8c-9.6,9.7-19.2,19.4-28.8,29.1c-9,9.1-18,18.3-27.1,27.4c-1.4,1.4-1.8,2.9-1.8,4.8c0,31.1,0.1,62.3,0,93.4
	c0,2.4,0.8,3.5,2.8,4.5c13.2,6.6,26.4,13.4,39.6,20.1c5.6,2.9,11.3,5.7,17.2,8.7C271.1,139.2,271.1,76.3,271.1,12.8z M78.2,7.4
	c0.3,0.8,0.5,1.2,0.7,1.6c9.4,18.9,18.9,37.8,28.2,56.8c0.9,1.8,2,1.9,3.6,1.9c31,0,61.9,0,92.9,0c1.9,0,3.1-0.5,4.4-1.9
	c16.7-16.9,33.5-33.8,50.2-50.7c2.4-2.5,4.8-4.9,7.5-7.8C203,7.4,140.8,7.4,78.2,7.4z M112,75.1c0.4,1,0.7,1.7,1,2.4
	c9.6,19.3,19.2,38.7,28.9,58c0.6,1.2,1.8,2.2,3,2.8c17.5,9,34.9,17.8,52.4,26.7c2.1,1.1,4.2,2.1,6.6,3.3c0.1-1.3,0.2-2.1,0.2-2.9
	c0-29.2,0-58.5,0.1-87.7c0-2.3-0.8-2.8-2.9-2.8c-28.8,0.1-57.6,0-86.4,0C114,74.9,113.2,75,112,75.1z M75.8,204.9
	c30.7,0,61.2,0,92.1,0c-0.5-1-0.8-1.9-1.2-2.6c-9.5-19.1-19-38.2-28.6-57.3c-0.7-1.4-2.1-2.7-3.4-3.4c-18.6-9.6-37.4-19.1-56.1-28.6
	c-0.9-0.5-1.8-0.8-2.9-1.3C75.8,143,75.8,173.9,75.8,204.9z M75.6,74.9c0,8.9,0.1,17.3,0,25.8c0,1.9,0.7,2.8,2.3,3.7
	c12.8,6.4,25.6,13,38.4,19.5c4.8,2.4,9.7,4.9,14.7,7.4c0-0.6,0.1-0.8,0-0.9c-8.9-18-17.9-36-26.9-53.9c-0.4-0.8-1.8-1.4-2.8-1.4
	c-6.3-0.1-12.6-0.1-18.9-0.1C80.3,74.9,78.2,74.9,75.6,74.9z M149.2,148.9c-0.1,0.2-0.3,0.3-0.4,0.5c9,18.1,18,36.2,27.1,54.3
	c0.4,0.7,1.7,1.3,2.5,1.3c6,0.1,12,0.1,18,0.1c2.5,0,5,0,7.5,0c0.1-1.2,0.2-1.9,0.2-2.7c0-7.7,0-15.4,0-23.1c0-1.8-0.6-2.7-2.2-3.5
	c-14.8-7.4-29.5-15-44.3-22.5C154.9,151.8,152,150.3,149.2,148.9z M21.5,75c0,0.2-0.1,0.3-0.1,0.5c15.5,7.9,31,15.8,47,23.9
	c0-7.6-0.1-14.6,0.1-21.5c0-2.3-0.6-3.1-3-3c-14,0.1-28,0.1-41.9,0.1C22.9,74.9,22.2,75,21.5,75z M203.5,259.5
	c0.2-0.1,0.4-0.2,0.6-0.2c0-15,0-30.1,0-45.1c0-1.5-0.7-1.8-2-1.8c-6.8,0-13.6,0-20.4,0c-0.4,0-0.8,0.2-1.4,0.4
	C188.1,228.5,195.8,244,203.5,259.5z M211.7,204.9c15.6,0,31.1,0,46.5,0c0.1-0.2,0.1-0.4,0.2-0.5c-15.5-7.9-30.9-15.7-46.7-23.7
	C211.7,189,211.7,196.9,211.7,204.9z M99.8,67.7C91.8,51.6,84,36,76.3,20.3c-0.2,0.1-0.3,0.1-0.5,0.2c0,15.6,0,31.2,0,47
	c0.9,0.1,1.5,0.2,2.2,0.2C85.1,67.7,92.2,67.7,99.8,67.7z"/>
</svg>
