<?xml version="1.0" encoding="utf-8"?>
<!-- Generator: Adobe Illustrator 26.0.3, SVG Export Plug-In . SVG Version: 6.00 Build 0)  -->
<svg version="1.1" id="Layer_1" xmlns="http://www.w3.org/2000/svg" xmlns:xlink="http://www.w3.org/1999/xlink" x="0px" y="0px"
	 viewBox="0 0 280 280" style="enable-background:new 0 0 280 280;" xml:space="preserve">
<style type="text/css">
	.st0{fill:#FFFFFF;}
</style>
<path class="st0" d="M128.59,259.18c-1.88,0-3.77-0.07-5.67-0.2c-73-5.12-124.1-55.81-122.89-120.49
	C1.25,73.11,58.61,20.82,128.45,20.82c0.87,0,1.74,0,2.62,0.03c35.91,0.47,70.11,15.39,94.88,41.4l-17.71,16.52
	c-20.29-21.22-48.27-33.37-77.62-33.71c-0.73,0-1.45-0.02-2.17-0.02c-56.7,0-103.24,41.71-104.22,93.9
	c-0.96,51.56,41.51,92.44,101.43,96.65c14.61,0.91,29.21-2.06,42.3-8.6c-7.91-6.11-15.39-12.75-22.4-19.88l17.23-17.02
	c8.54,8.8,17.93,16.72,28.05,23.65c6.94-4.48,14.35-9.59,22.33-15.27c10.95-7.81,35.01-13.8,51.69-4.78
	c10.16,5.46,16.07,16.47,15.02,27.95c-0.49,12.17-9.58,23.14-23.74,28.62c-18.75,7.25-41.41,4.12-64.96-8.24
	C172.15,253.04,150.58,258.96,128.59,259.18z M215.58,226.37c13.19,4.48,24.07,4.3,31.83,1.3c6.07-2.35,8.22-5.79,8.27-7
	c0.17-4.32-1.28-5.11-2.34-5.69c-6.09-3.3-20.33-0.91-26.12,3.21C223.31,220.98,219.42,223.7,215.58,226.37L215.58,226.37z"/>
</svg>
