<?xml version="1.0" encoding="utf-8"?>
<!-- Generator: Adobe Illustrator 26.0.3, SVG Export Plug-In . SVG Version: 6.00 Build 0)  -->
<svg version="1.1" id="Layer_1" xmlns="http://www.w3.org/2000/svg" xmlns:xlink="http://www.w3.org/1999/xlink" x="0px" y="0px"
	 viewBox="0 0 280 280" style="enable-background:new 0 0 280 280;" xml:space="preserve">
<style type="text/css">
	.st0{fill:#D20E2D;}
	.st1{fill:#7E242F;}
	.st2{fill:#FB443A;}
</style>
<g>
	<path class="st0" d="M113.1,213.7c-10.5-21.8-30.8-33.1-49.9-45.6c7.1-9.5,7.9-14.5,0.2-23.2c-10.4-11.8-22.3-22.4-33.5-33.5
		c-1.6-1.5-3.3-2.9-5.1-4.4c15.8,1.4,31.1,2.9,46.4,4.1c3.6,0.3,7.3-0.5,10.9-1.4C93,107,94.6,104.3,93.7,91
		c11.2,0.2,21.6,3.1,31.3,8c12.1,6.1,23.9,12.9,35.7,19.3c3.3,2.6,7.6,4.5,9.8,7.9c20.2,31.1,28.7,66.2,34.4,102.3
		c1.7,10.9,3.6,21.9,5.4,32.8c-0.3,2.3-0.7,4.7-1,7c-1.6-1-3.4-1.7-4.7-3c-4.2-4.3-7.8-9.6-12.5-13.2c-11.1-8.5-22.3-17.2-34.5-24.1
		c-9-5.1-19.4-7.7-29.4-11C123.3,215.4,118.2,214.8,113.1,213.7z"/>
	<path class="st1" d="M113.1,213.7c5,1.1,10.2,1.6,15.1,3.2c9.9,3.3,20.4,5.9,29.4,11c12.1,6.9,23.3,15.6,34.5,24.1
		c4.8,3.6,8.3,8.9,12.5,13.2c1.3,1.3,3.1,2,4.7,3c-1.7,2.2-3.1,5.8-5.2,6.2c-10.1,2.2-20.4,3.6-32.1,5.5c1.6-4.1,2.4-6.1,3.5-9.1
		c-36.5,9.3-68.5-0.9-100-19.3C93.1,243,116.2,241,113.1,213.7z"/>
	<path class="st2" d="M246.9,44.3c-4.3-1.5-8.3-5.2-11.3-8.8c-9.4-11.6-18.3-23.6-27.5-35.5c-8.6,16.2-18.9,32.7-35.7,44
		c-1.2,0.7-2.3,1.4-3.5,2.1c0,0,0,0-0.1,0c-3.9,1.4-7.8,2.7-11.6,4.1c-2.3,0-4.5,0-6.8,0c-7.2-2-8.5,0.6-5.2,6.7
		c7.1,20.1,14.3,40.2,21.6,60.8c-2.2,0.3-4.1,0.5-6,0.8c3.3,2.6,7.6,4.5,9.8,7.9c20.2,31.1,28.7,66.2,34.4,102.3
		c1.7,10.9,3.6,21.9,5.4,32.8c4.4-18.6,9-37.2,13-56c10.4-48.4,20.4-96.9,31-145.2C256.2,51.9,255.5,47.2,246.9,44.3z"/>
</g>
</svg>
