<?xml version="1.0" encoding="utf-8"?>
<!-- Generator: Adobe Illustrator 26.4.1, SVG Export Plug-In . SVG Version: 6.00 Build 0)  -->
<svg version="1.1" id="Layer_1" xmlns="http://www.w3.org/2000/svg" xmlns:xlink="http://www.w3.org/1999/xlink" x="0px" y="0px"
	 viewBox="0 0 280 280" style="enable-background:new 0 0 280 280;" xml:space="preserve">
<style type="text/css">
	.st0{fill:#FFFFFF;}
	.st1{fill:#FB0304;}
	.st2{fill:#090B0C;}
</style>
<g>
	<ellipse class="st0" cx="140" cy="140.1" rx="140" ry="139.6"/>
	<path class="st1" d="M207.9,89.7c1.6-12-0.7-22.9-4.6-33.9c4.6,0,8.8,0,13,0c7.9,0,11.1-2.9,11.7-10.9c0.3-4,0-8.1,0.6-12.4
		c32.6,27,50.6,61.6,51.4,103.8c1,56.1-24.4,98-72.1,126.7c9.7-8.9,16.4-19.5,18.6-32.8c5-28.9-10.8-50.9-39-57.9
		c-15.6-3.9-31.6-3-47.4-4c-6.9-0.5-13.8-0.5-20.7-0.9c-1.7-0.1-3.3-0.5-5-0.9c-14.8-3.5-13.9-16.2-7.4-24.6c0.6-0.8,3-1,4.2-0.4
		c24.6,11.4,63,5,81.7-14.5c5.1-5.3,8.3-12.5,12.3-18.9c0.6-1,0.6-2.4,1-4.1c-3.7,0-6.9,0-10.1,0c-11,0-22-0.2-32.9,0.1
		c-2.5,0.1-5.5,1.1-7.5,2.6c-13.2,10.3-36.7,7-44.9-6.7c-1.7-2.9-2.7-6.4-4.2-10.2C140.7,89.7,174,89.7,207.9,89.7z"/>
	<path class="st2" d="M54.5,250.7c-57.2-43.4-74.6-129.6-26.7-194C76-7.9,158.9-11.5,208.1,18.5c-3.7,0-6.7,0-9.7,0
		c-23.6,0.1-47.3-1-70.9,0.5c-26,1.6-48.1,12.3-58.5,38c-9.6,23.6-8.1,46.7,9.5,67.2c-2.8,3.3-5.9,6.5-8.6,10
		c-9.5,12.5-13.3,26.1-7.6,41.4c2.3,6,4.6,8.4,14.8,16.7c-8.9,7-16.8,14.8-21.4,25.3C51.1,228.2,51.1,239,54.5,250.7z"/>
	<path class="st2" d="M135.8,203c9.8,0.9,17.8,1.1,25.7,2.4c7.1,1.2,13.6,4.4,15.8,12.2c2.4,8.4,0.3,15.9-5.9,22
		c-5.6,5.5-12.8,7.9-20.4,9.1c-12.2,1.9-24.3,1.5-36.2-2c-18-5.3-18-21.2-10.7-31.5c2.8-3.9,6.5-7.3,10.1-10.6c1.1-1,3-1.4,4.6-1.4
		C124.9,202.9,131.2,203,135.8,203z"/>
	<path class="st1" d="M161,67.6c-17.4,0-34.7,0-52.2,0c3.6-10,14.9-16,28.3-15.4C148.9,52.7,158.8,59,161,67.6z"/>
</g>
</svg>
