<?xml version="1.0" encoding="utf-8"?>
<!-- Generator: Adobe Illustrator 26.0.3, SVG Export Plug-In . SVG Version: 6.00 Build 0)  -->
<svg version="1.1" id="Layer_1" xmlns="http://www.w3.org/2000/svg" xmlns:xlink="http://www.w3.org/1999/xlink" x="0px" y="0px"
	 viewBox="0 0 280 280" style="enable-background:new 0 0 280 280;" xml:space="preserve">
<style type="text/css">
	.st0{display:none;}
	.st1{display:inline;fill:#01ABE8;}
	.st2{display:inline;fill:#099FDC;}
	.st3{display:inline;fill:#8B7FBB;}
	.st4{display:inline;fill:#AB6DAD;}
	.st5{display:inline;fill:#F4EC1E;}
	.st6{display:inline;fill:#7FC89C;}
	.st7{display:inline;fill:#D5E059;}
	.st8{display:inline;fill:#E3E446;}
	.st9{display:inline;fill:#A2D187;}
	.st10{display:inline;fill:#4FC1B1;}
	.st11{display:inline;fill:#4E93CE;}
	.st12{display:inline;fill:#01B7CB;}
	.st13{display:inline;fill:#93CD91;}
	.st14{display:inline;fill:#BAD775;}
	.st15{display:inline;fill:#02B2DB;}
	.st16{display:inline;fill:#C8DB67;}
	.st17{display:inline;fill:#6E8AC5;}
	.st18{display:inline;fill:#69C4A8;}
	.st19{display:inline;fill:#1DBCBE;}
	.st20{display:inline;fill:#E02592;}
	.st21{display:inline;fill:#AED47E;}
	.st22{display:inline;fill:#C656A0;}
	.st23{display:inline;fill:#149BD7;}
	.st24{display:inline;fill:#D24699;}
	.st25{display:inline;fill:#B863A6;}
	.st26{display:inline;fill:#9C76B4;}
	.st27{fill:#AB6DAD;}
	.st28{fill:#F4EC1E;}
	.st29{fill:#01ABE8;}
	.st30{fill:#6E8AC5;}
	.st31{fill:#93CD91;}
	.st32{fill:#C656A0;}
	.st33{fill:#E02592;}
	.st34{fill:#149BD7;}
	.st35{fill:#9C76B4;}
	.st36{fill:#B863A6;}
	.st37{fill:#01B7CB;}
	.st38{fill:#02B2DB;}
	.st39{fill:#C8DB67;}
	.st40{fill:#8B7FBB;}
	.st41{fill:#4E93CE;}
	.st42{fill:#4FC1B1;}
	.st43{fill:#1DBCBE;}
	.st44{fill:#E3E446;}
	.st45{fill:#AED47E;}
	.st46{fill:#BAD775;}
	.st47{fill:#D24699;}
	.st48{fill:#A2D187;}
	.st49{fill:#D5E059;}
	.st50{fill:#7FC89C;}
	.st51{fill:#69C4A8;}
	.st52{fill:#FCFCFC;}
</style>
<g class="st0">
	<path class="st1" d="M162.1,167.3c-3.4,2.5-6.8,5-10.2,7.5c-0.4-2.8-1-5.7-1-8.5c-0.1-20.3,0-40.5,0-60.8c3.4-1.6,6.8-3.1,10.1-4.7
		C161.4,123,161.7,145.2,162.1,167.3z"/>
	<path class="st2" d="M162.1,167.3c-0.4-22.2-0.7-44.3-1.1-66.5c2.7-1.3,5.5-2.6,8.2-3.9c0.4,1.4,1,2.8,1,4.2c0,20.3,0,40.7,0,61
		C167.5,163.9,164.8,165.6,162.1,167.3z"/>
	<path class="st3" d="M189.7,152c-2.7,1.4-5.4,2.7-8.2,4.1c0-21.8,0-43.6-0.1-65.4c2.3-1.3,4.7-2.7,7-4c0.4,1.9,1.1,3.8,1.1,5.7
		C189.7,112.3,189.7,132.1,189.7,152z"/>
	<path class="st1" d="M183.6,249.4c-1.7,2.8-3.3,5.6-5,8.4c-0.4-2.3-1.2-4.6-1.2-6.9c-0.1-26.7-0.1-53.5-0.1-80.2c2-1.2,4-2.4,6-3.5
		C183.5,194.6,183.6,222,183.6,249.4z"/>
	<path class="st4" d="M202,146.1c-2.7,1.3-5.5,2.6-8.2,3.9c-0.3-2.3-1-4.7-1-7c-0.1-17.1-0.1-34.3,0-51.4c0-2,0.7-3.9,1-5.9
		c3,2.8,6,5.5,9,8.3c-0.6,1.5-1.8,3-1.8,4.6c-0.1,14.3-0.1,28.5,0,42.8C201,142.9,201.6,144.5,202,146.1z"/>
	<path class="st5" d="M89.3,199.4c-4.5-4.3-9.1-8.5-13.4-13.1c-1.1-1.1-1.7-3.9-1.1-5.2c4.4-9.4,9.2-18.6,13.9-27.9
		c0.6,1.3,1.8,2.7,1.8,4c0.1,12.7,0.1,25.3,0,38C90.5,196.7,89.7,198,89.3,199.4z"/>
	<path class="st6" d="M123.3,120.5c1.7-1.1,3.4-2.1,5.1-3.2c0,25.8,0,51.5,0.1,77.3c0,1.9,0.7,3.8,1.1,5.7c-1.7,3.2-3.3,6.3-5,9.5
		c-0.4-2.3-1.2-4.6-1.2-6.9C123.2,175.4,123.3,148,123.3,120.5z"/>
	<path class="st7" d="M103.8,213.8c-2-2-4.1-4.1-6.1-6.1c0-20.4,0.1-40.7,0.1-61.1c0-1.2-0.7-2.5-1.1-3.7c2.4-2.5,4.8-4.9,7.2-7.4
		C103.8,161.6,103.8,187.7,103.8,213.8z"/>
	<path class="st8" d="M96.6,143c0.4,1.2,1.1,2.5,1.1,3.7c0,20.4,0,40.7-0.1,61.1c-2.8-2.8-5.6-5.5-8.3-8.3c0.4-1.4,1.2-2.8,1.2-4.1
		c0.1-12.7,0.1-25.3,0-38c0-1.3-1.2-2.7-1.8-4C91.3,149.8,94,146.4,96.6,143z"/>
	<path class="st9" d="M114.2,126.7c1.6-1.2,3.3-2.3,4.9-3.4c0,30,0,60.1,0.2,90.1c0,1.7,1.1,3.5,1.6,5.2c-1,2.7-2,5.3-3.2,8.6
		c-1.1-0.8-1.9-1.5-2.7-2.1c0-31.7,0.1-63.4,0.1-95C115.1,128.9,114.5,127.8,114.2,126.7z"/>
	<path class="st10" d="M138.8,188.1c-2,2.6-4,5.2-6,7.7c-0.1-21-0.1-42.1-0.3-63.1c-0.1-5.7-0.6-11.4-1-17.2c2-1.1,4-2.2,6-3.3
		c0,23.4,0,46.8,0.1,70.1C137.6,184.3,138.4,186.2,138.8,188.1z"/>
	<path class="st11" d="M170.2,162.2c0-20.3,0.1-40.7,0-61c0-1.4-0.7-2.8-1-4.2c2.4-1.2,4.8-2.5,7.2-3.7c0,21.7,0.1,43.5,0.1,65.2
		C174.4,159.7,172.3,161,170.2,162.2z"/>
	<path class="st12" d="M170.2,175.5c1-0.6,2-1.3,3-1.9c0.4,1.9,1.2,3.8,1.2,5.7c0.1,26,0,51.9,0.1,77.9c0,2.3,0.8,4.6,1.2,6.9
		c-1.4,3.3-2.7,6.6-4.1,9.9c-0.4-1.9-1.2-3.8-1.2-5.7C170.2,237.3,170.2,206.4,170.2,175.5z"/>
	<path class="st13" d="M120.9,218.6c-0.6-1.7-1.6-3.5-1.6-5.2c-0.1-30-0.1-60.1-0.2-90.1c1.4-0.9,2.8-1.8,4.2-2.8
		c0,27.5,0,54.9,0.1,82.4c0,2.3,0.8,4.6,1.2,6.9C123.3,212.7,122.1,215.7,120.9,218.6z"/>
	<path class="st12" d="M146.8,179.5c-1.7,1.8-3.5,3.6-5.2,5.4c-0.3-1.4-0.9-2.9-0.9-4.3c0-23.3,0-46.6,0-70c1.7-0.8,3.4-1.5,5.1-2.3
		c0,21.2,0,42.5,0.1,63.7C145.8,174.5,146.4,177,146.8,179.5z"/>
	<path class="st14" d="M106.8,132.7c1.7-1.4,3.4-2.8,5.2-4.2c0,31.2,0,62.3,0,93.5c-1.4-1.4-2.7-2.7-4.1-4.1c0-27,0.1-54,0.1-81
		C107.9,135.5,107.2,134.1,106.8,132.7z"/>
	<path class="st15" d="M146.8,179.5c-0.3-2.5-1-5-1-7.5c-0.1-21.2-0.1-42.5-0.1-63.7c1.7-0.9,3.4-1.8,5.1-2.7c0,20.3,0,40.5,0,60.8
		c0,2.8,0.7,5.7,1,8.5C150.2,176.4,148.5,177.9,146.8,179.5z"/>
	<path class="st6" d="M162.1,271.6c-1.4-1.4-2.7-2.7-4.1-4.1c0-27.5,0-55,0-82.4c1.3-1.1,2.6-2.3,4-3.4
		C162.1,211.7,162.1,241.6,162.1,271.6z"/>
	<path class="st3" d="M196.9,171.6c2,2,4.1,4.1,6.1,6.1c0,16.5,0.1,33,0.1,49.4c-2.1,2-4.1,3.9-6.2,5.9
		C196.9,212.6,196.9,192.1,196.9,171.6z"/>
	<path class="st16" d="M106.8,132.7c0.4,1.4,1.1,2.8,1.1,4.2c0,27,0,54-0.1,81c-1.4-1.4-2.7-2.7-4.1-4.1c0-26.1,0-52.2,0-78.3
		C104.8,134.6,105.8,133.7,106.8,132.7z"/>
	<path class="st17" d="M176.5,158.5c0-21.7-0.1-43.5-0.1-65.2c1.7-0.9,3.4-1.7,5.1-2.6c0,21.8,0,43.6,0.1,65.4
		C179.8,156.9,178.2,157.7,176.5,158.5z"/>
	<path class="st18" d="M131.5,115.6c0.3,5.7,0.9,11.4,1,17.2c0.2,21,0.2,42.1,0.3,63.1c-1.1,1.5-2.1,3-3.2,4.4
		c-0.4-1.9-1.1-3.8-1.1-5.7c-0.1-25.8-0.1-51.5-0.1-77.3C129.4,116.7,130.4,116.1,131.5,115.6z"/>
	<path class="st2" d="M183.6,249.4c-0.1-27.4-0.1-54.8-0.2-82.2c1-0.6,2.1-1.2,3.1-1.7c0.3,1.9,1,3.9,1,5.8
		c0.1,24.1,0.1,48.2,0.2,72.2C186.4,245.5,185,247.4,183.6,249.4z"/>
	<path class="st19" d="M170.2,175.5c0,30.9,0,61.8,0.1,92.7c0,1.9,0.8,3.8,1.2,5.7c-0.5,1.6-0.9,3.2-1.4,4.8c-0.5,0.4-1,0.8-1.5,1.2
		c-0.5-1.1-0.9-2.2-1.4-3.3c0-33-0.1-66-0.1-99C168.2,177,169.2,176.2,170.2,175.5z"/>
	<path class="st20" d="M219.2,110.4c5.5,6,11,12,16.8,18.4c-5.4,2.9-11.5,6.2-17.6,9.4c-0.3-8.7-0.6-17.3-0.8-26
		C217.6,111.6,218.6,111,219.2,110.4z"/>
	<path class="st10" d="M167.2,177.7c0,33,0.1,66,0.1,99c-1-1-2-2.1-3.1-3.1c0-31.2,0-62.5,0-93.7
		C165.2,179.2,166.2,178.4,167.2,177.7z"/>
	<path class="st21" d="M111.9,222c0-31.2,0-62.3,0-93.5c0.7-0.6,1.5-1.2,2.2-1.8c0.3,1.1,0.9,2.2,0.9,3.3c0,31.7,0,63.4-0.1,95
		C114,224,113,223,111.9,222z"/>
	<path class="st15" d="M175.6,264c-0.4-2.3-1.2-4.6-1.2-6.9c-0.1-26,0-51.9-0.1-77.9c0-1.9-0.8-3.8-1.2-5.7c1.4-0.9,2.9-1.9,4.3-2.8
		c0,26.7,0,53.5,0.1,80.2c0,2.3,0.8,4.6,1.2,6.9C177.6,259.9,176.6,262,175.6,264z"/>
	<path class="st22" d="M212.3,141.3c-2,1-4.1,1.9-6.1,2.9c-0.4-0.9-1.1-1.8-1.1-2.7c-0.1-13.2-0.1-26.4,0-39.5
		c0-1.3,1.2-2.5,1.8-3.8c1.7,1.7,3.5,3.5,5.2,5.2C212.2,116,212.2,128.6,212.3,141.3z"/>
	<path class="st5" d="M136.7,246.1c-0.2-0.1-0.3-0.1-0.5-0.2c-11.5-10.1-11.6-10.6-4.8-24.5c1.8-3.6,3.9-7.1,5.9-10.7
		c0.4,1.3,1.2,2.5,1.2,3.8c0.1,9.4,0.1,18.9,0,28.3C138.5,243.9,137.3,245,136.7,246.1z"/>
	<path class="st17" d="M196.9,171.6c0,20.5,0,41,0.1,61.5c-1.3,1.4-2.7,2.8-4,4.2c0-23.3-0.1-46.5-0.1-69.7
		C194.1,168.9,195.5,170.2,196.9,171.6z"/>
	<path class="st23" d="M187.8,243.5c0-24.1-0.1-48.2-0.2-72.2c0-1.9-0.6-3.9-1-5.8c1.4,0,2.7,0,4.1,0c0,22.5,0,45,0,67.5
		c0,1.7,0.8,3.4,1.2,5.2C190.5,239.9,189.2,241.7,187.8,243.5z"/>
	<path class="st19" d="M140.7,110.6c0,23.3,0,46.6,0,70c0,1.4,0.6,2.9,0.9,4.3c-0.9,1.1-1.9,2.2-2.8,3.3c-0.4-1.9-1.2-3.8-1.2-5.7
		c-0.1-23.4-0.1-46.8-0.1-70.1C138.6,111.7,139.6,111.1,140.7,110.6z"/>
	<path class="st24" d="M212.3,141.3c0-12.6-0.1-25.3-0.1-37.9c2.3,2.4,4.7,4.7,7,7.1c-0.6,0.6-1.6,1.2-1.6,1.8
		c0.2,8.7,0.5,17.3,0.8,26C216.3,139.2,214.3,140.3,212.3,141.3z"/>
	<path class="st25" d="M206.9,98.1c-0.6,1.3-1.8,2.5-1.8,3.8c-0.1,13.2-0.1,26.4,0,39.5c0,0.9,0.7,1.8,1.1,2.7
		c-1.4,0.7-2.8,1.3-4.2,2c-0.4-1.6-1-3.2-1-4.8c-0.1-14.3-0.1-28.5,0-42.8c0-1.5,1.2-3,1.8-4.6C204.2,95.4,205.5,96.8,206.9,98.1z"
		/>
	<path class="st26" d="M193.8,85.7c-0.4,2-1,3.9-1,5.9c-0.1,17.1-0.1,34.3,0,51.4c0,2.3,0.6,4.7,1,7c-1.4,0.7-2.7,1.3-4.1,2
		c0-19.9,0-39.7,0-59.6c0-1.9-0.7-3.8-1.1-5.7C190.2,86,191.3,82.2,193.8,85.7z"/>
	<path class="st14" d="M151.7,261c-1.3-1.2-2.5-2.4-3.8-3.6c0.3-1.1,0.9-2.2,0.9-3.3c0-19.7,0-39.5-0.1-59.2c1-1.1,2-2.2,3-3.2
		C151.7,214.7,151.7,237.8,151.7,261z"/>
	<path class="st8" d="M136.7,246.1c0.6-1.1,1.8-2.2,1.8-3.3c0.1-9.4,0.1-18.9,0-28.3c0-1.3-0.8-2.5-1.2-3.8c1.7-2.6,3.5-5.3,5.2-7.9
		c0.1,15.2,0.1,30.4,0.1,45.6c0,0.9-0.6,1.9-0.9,2.8C140.1,249.5,138.4,247.8,136.7,246.1z"/>
	<path class="st18" d="M164.2,179.9c0,31.2,0,62.5,0,93.7c-0.7-0.7-1.4-1.4-2.1-2c0-30-0.1-59.9-0.1-89.9
		C162.8,181.1,163.5,180.5,164.2,179.9z"/>
	<path class="st16" d="M148.7,194.8c0,19.7,0.1,39.5,0.1,59.2c0,1.1-0.6,2.2-0.9,3.3c-1-1-2-2-3.1-3.1c0.3-1.1,0.9-2.2,0.9-3.3
		c0-17.4,0-34.9-0.1-52.3C146.7,197.4,147.7,196.1,148.7,194.8z"/>
	<path class="st13" d="M158.1,185.1c0,27.5,0,55,0,82.4c-1-1-2-2-3-3c0.3-1.8,0.8-3.6,0.8-5.3c0.1-24.1,0.1-48.1,0.1-72.2
		C156.7,186.4,157.4,185.7,158.1,185.1z"/>
	<path class="st7" d="M145.6,198.7c0,17.4,0.1,34.9,0.1,52.3c0,1.1-0.6,2.2-0.9,3.3c-1-1-2-2.1-3.1-3.1c0.3-0.9,0.9-1.9,0.9-2.8
		c0-15.2-0.1-30.4-0.1-45.6C143.6,201.4,144.6,200.1,145.6,198.7z"/>
	<path class="st9" d="M156,187c0,24.1,0,48.1-0.1,72.2c0,1.8-0.5,3.6-0.8,5.3c-0.4-0.4-0.7-0.7-1.1-1.1c0-24.8,0-49.6,0-74.4
		C154.6,188.3,155.3,187.7,156,187z"/>
	<path class="st25" d="M213.1,219.6c-1.6,1.2-3.2,2.3-4.9,3.5c0-13.4-0.1-26.8-0.1-40.2c1.7,1.7,3.4,3.4,5.1,5.1
		c-0.3,3.6-1,7.2-1,10.7C212.3,205.7,212.8,212.6,213.1,219.6z"/>
	<path class="st21" d="M153.9,189c0,24.8,0,49.6,0,74.4c-0.8-0.8-1.5-1.6-2.3-2.5c0-23.1,0-46.2,0-69.4
		C152.4,190.7,153.2,189.9,153.9,189z"/>
	<path class="st26" d="M203.1,227.2c0-16.5-0.1-33-0.1-49.4c1.4,1.4,2.7,2.7,4.1,4.1c-0.3,1.6-1,3.2-1,4.8c-0.1,12.7,0,25.5,0,38.2
		C205.1,225.6,204.1,226.4,203.1,227.2z"/>
	<path class="st11" d="M191.9,238.2c-0.4-1.7-1.2-3.4-1.2-5.2c-0.1-22.5,0-45,0-67.5c0.7,0.7,1.4,1.3,2.1,2
		c0,23.2,0.1,46.5,0.1,69.7C192.6,237.6,192.2,237.9,191.9,238.2z"/>
	<path class="st20" d="M221.3,196.1c3.9,3.7,7.8,7.3,12.3,11.7c-4.9,2.5-9.1,4.7-13.3,6.9C220.7,208.5,221,202.3,221.3,196.1z"/>
	<path class="st22" d="M213.1,219.6c-0.3-7-0.8-13.9-0.8-20.9c0-3.6,0.6-7.2,1-10.7c1.4,1.4,2.7,2.7,4.1,4.1
		c-0.3,5.1-0.9,10.2-1,15.4c0,3.1,0.7,6.2,1.1,9.2C215.9,217.6,214.5,218.6,213.1,219.6z"/>
	<path class="st24" d="M217.4,216.7c-0.4-3.1-1.1-6.2-1.1-9.2c0.1-5.1,0.6-10.2,1-15.4c1.4,1.4,2.7,2.7,4.1,4.1
		c-0.3,6.2-0.6,12.4-1,18.6C219.4,215.4,218.4,216,217.4,216.7z"/>
	<path class="st4" d="M206,224.8c0-12.7-0.1-25.5,0-38.2c0-1.6,0.6-3.2,1-4.8c0.3,0.3,0.7,0.7,1,1c0,13.4,0.1,26.8,0.1,40.2
		C207.5,223.7,206.8,224.2,206,224.8z"/>
</g>
<g>
	<path class="st27" d="M176.4,0c0.7,1,1.4,1.9,2.1,2.9c-0.4,2-1,3.9-1.1,5.9c-0.1,21.3-0.1,42.7,0,64c0,2,0.6,3.9,1,5.9
		c-1.5,0.8-3,1.6-4.6,2.4c-0.5-2-1.5-4-1.5-6.1c-0.1-20.8,0-41.5-0.1-62.3c0-2.3-0.7-4.6-1.1-6.9c1.4-1.9,2.8-3.9,4.2-5.8
		C175.7,0,176.1,0,176.4,0z"/>
	<path class="st28" d="M60.8,170.4c-6.8-4.5-9.6-10.7-10.3-19c-1.5-17.3-4.4-34.5-6.4-51.8c-0.3-2.5,0.6-5.9,2.2-7.6
		c4.8-5.2,10.3-9.7,15.5-14.5c0.4,0.6,1,1.1,1,1.7c0.1,7.8,0.2,15.6,0,23.4c0,1-1.4,1.9-2.2,2.8c-2.3-1.7-4.6-3.5-6.9-5.2
		c-0.1,0-0.2-0.1-0.4-0.1c0.1,0,0.3,0,0.4,0c1.2,11.3,2.2,22.6,3.7,33.9c0.8,6.8,2.3,13.5,3.4,20.3C60.9,159.6,60.8,165,60.8,170.4z
		"/>
	<path class="st29" d="M126.4,39.1c4.3-2.5,8.7-5,13-7.5c0.4,1.9,1.2,3.8,1.2,5.7c0.1,17.2,0,34.3,0.1,51.5c0,2.8,0.7,5.7,1,8.5
		c-4.8,2.4-9.5,4.8-14.3,7.2c0-19.3,0-38.6-0.1-57.9C127.3,44,126.7,41.6,126.4,39.1z"/>
	<path class="st30" d="M162.7,87.2c-3.3,1.6-6.5,3.1-9.8,4.7c0-23.2,0-46.4,0-69.6c2.7-2.2,5.4-4.3,8.1-6.5c0,21.8,0,43.5,0.2,65.3
		C161.2,83.2,162.1,85.2,162.7,87.2z"/>
	<path class="st31" d="M100,123.8c-2.7,2.8-5.4,5.7-8.2,8.5c-0.1-24.7-0.2-49.5-0.3-74.2c2.4-1.3,4.8-2.7,7.2-4
		c0,21.3,0,42.7,0.1,64C98.8,120,99.6,121.9,100,123.8z"/>
	<path class="st32" d="M184.7,9.1c3.1,3.1,6.1,6.1,9.2,9.2c-0.7,1.9-2.1,3.8-2.1,5.7c-0.2,12.9-0.1,25.9,0,38.8c0,2,0.7,3.9,1.1,5.9
		c-2.7,2-5.4,4-8.1,6c-0.4-1.6-1.1-3.1-1.1-4.7c-0.1-18.7-0.1-37.4,0-56.2C183.6,12.2,184.3,10.7,184.7,9.1z"/>
	<path class="st33" d="M199,23.4c5.7,5.5,11.4,10.9,16.9,16.6c0.8,0.8,1,3.4,0.3,4.2c-5.6,6.5-11.5,12.9-17.2,19.2
		c-0.7-1.1-2.1-2.2-2.1-3.3c-0.2-11.1-0.2-22.2,0-33.3C197,25.6,198.3,24.5,199,23.4z"/>
	<path class="st34" d="M141.7,97.2c-0.4-2.8-1-5.7-1-8.5c-0.1-17.2,0-34.3-0.1-51.5c0-1.9-0.8-3.8-1.2-5.7c2.8-1.8,5.5-3.7,8.3-5.5
		c0.1,22.7,0.1,45.5,0.2,68.2C145.9,95.2,143.8,96.2,141.7,97.2z"/>
	<path class="st35" d="M171.1,5.8c0.4,2.3,1.1,4.6,1.1,6.9c0.1,20.8,0,41.5,0.1,62.3c0,2,1,4,1.5,6.1c-2.6,1.5-5.1,3-7.7,4.5
		c0-22.4,0-44.7,0-67.1c0-2.1-0.7-4.3-1-6.4C167.1,10,169.1,7.9,171.1,5.8z"/>
	<path class="st36" d="M184.7,9.1c-0.4,1.6-1.1,3.1-1.1,4.7c-0.1,18.7-0.1,37.4,0,56.2c0,1.6,0.7,3.1,1.1,4.7
		c-2.1,1.3-4.2,2.7-6.3,4c-0.3-2-1-3.9-1-5.9c-0.1-21.3-0.1-42.7,0-64c0-2,0.7-3.9,1.1-5.9C180.6,5,182.7,7,184.7,9.1z"/>
	<path class="st37" d="M115.1,45.1c1.6-0.8,3.2-1.6,4.8-2.4c0.4,1.9,1.2,3.8,1.2,5.7c0.1,17.9,0,35.7,0.1,53.6c0,1.8,0.7,3.5,1,5.3
		c-2.1,1.3-4.2,2.7-6.3,4c-0.3-1.6-0.9-3.2-0.9-4.8C115.1,86.1,115.1,65.6,115.1,45.1z"/>
	<path class="st38" d="M122.3,107.3c-0.4-1.8-1-3.5-1-5.3c-0.1-17.9,0-35.7-0.1-53.6c0-1.9-0.8-3.8-1.2-5.7c2.1-1.2,4.3-2.5,6.4-3.7
		c0.3,2.5,1,5,1,7.5c0.1,19.3,0.1,38.6,0.1,57.9C125.7,105.4,124,106.3,122.3,107.3z"/>
	<path class="st39" d="M73,69.3c2.5-1.6,5-3.2,7.5-4.9c0.3,1.1,0.9,2.2,0.9,3.3c0.1,17.8,0.1,35.5,0,53.3c0,1.2-0.7,2.4-1.1,3.6
		c-2.4-2.7-4.7-5.4-7.1-8.1c0.4-0.9,1.1-1.8,1.1-2.7c0.1-13.8,0.1-27.6,0-41.4C74.2,71.4,73.4,70.3,73,69.3z"/>
	<path class="st40" d="M165.1,12.1c0.4,2.1,1,4.3,1,6.4c0.1,22.4,0,44.7,0,67.1c-1.2,0.5-2.3,1.1-3.5,1.6c-0.5-2-1.5-4-1.5-6
		c-0.2-21.8-0.2-43.5-0.2-65.3C162.3,14.6,163.7,13.4,165.1,12.1z"/>
	<path class="st41" d="M147.9,94.2c-0.1-22.7-0.1-45.5-0.2-68.2c1.7-1.2,3.4-2.4,5.2-3.6c0,23.2,0,46.4,0,69.6
		C151.2,92.7,149.6,93.5,147.9,94.2z"/>
	<path class="st42" d="M104.8,50.8c1.7-0.9,3.5-1.9,5.2-2.8c0,20.3,0,40.6,0,60.8c0,1.9,0.7,3.8,1.1,5.7c-1.7,1.3-3.5,2.7-5.2,4
		c-0.4-1.9-1-3.8-1-5.8C104.8,92.1,104.8,71.5,104.8,50.8z"/>
	<path class="st43" d="M111.2,114.6c-0.4-1.9-1.1-3.8-1.1-5.7C110,88.6,110,68.3,110,48c1.7-1,3.4-1.9,5.1-2.9c0,20.5,0,40.9,0,61.4
		c0,1.6,0.6,3.2,0.9,4.8C114.4,112.4,112.8,113.5,111.2,114.6z"/>
	<path class="st44" d="M60.7,105.4c0.8-0.9,2.2-1.9,2.2-2.8c0.2-7.8,0.1-15.6,0-23.4c0-0.6-0.7-1.1-1-1.7c2.7-2,5.4-4.1,8.2-6.1
		c0.4,1.6,1.1,3.1,1.1,4.7c0.1,12.8,0,25.7,0,38.5C67.6,111.5,64.2,108.5,60.7,105.4z"/>
	<path class="st45" d="M84.4,62.1c1-0.6,2.1-1.2,3.1-1.9c0.3,2.8,1,5.7,1,8.5c0.1,22.4,0.1,44.9,0.1,67.3c-1,1.4-2,2.7-3,4.1
		c-0.4-2.3-1.1-4.6-1.1-6.9C84.4,109.5,84.4,85.8,84.4,62.1z"/>
	<path class="st46" d="M84.4,62.1c0,23.7,0,47.4,0.1,71.1c0,2.3,0.7,4.6,1.1,6.9c-0.9,1.4-1.9,2.7-2.8,4.1
		c-0.5-4.2-0.8-8.4-1.4-12.6c-0.3-2.2-1.1-4.3-1.7-6.4c0.2-0.2,0.3-0.4,0.6-0.6c0.4-1.2,1.1-2.4,1.1-3.6c0.1-17.8,0.1-35.5,0-53.3
		c0-1.1-0.6-2.2-0.9-3.3C81.8,63.7,83.1,62.9,84.4,62.1z"/>
	<path class="st47" d="M199,23.4c-0.7,1.1-2.1,2.2-2.1,3.3c-0.2,11.1-0.2,22.2,0,33.3c0,1.1,1.4,2.2,2.1,3.3
		c-2.1,1.8-4.1,3.5-6.2,5.3c-0.4-2-1.1-3.9-1.1-5.9c-0.1-12.9-0.1-25.9,0-38.8c0-1.9,1.4-3.8,2.1-5.7C195.6,20,197.3,21.7,199,23.4z
		"/>
	<path class="st44" d="M60.8,170.4c0.1-5.4,0.1-10.8,0.2-16.2c2.3-4.5,4.5-8.9,6.8-13.4c0.5,1.7,1.3,3.4,1.4,5.1
		c0.2,5.3-0.1,10.5,0.2,15.8c0.1,1.3,1.3,2.6,2,3.9c-1.3,3.4-2.6,6.8-4.3,11.1C64.6,174.3,62.7,172.3,60.8,170.4z"/>
	<path class="st48" d="M88.6,136.1c0-22.4,0-44.9-0.1-67.3c0-2.8-0.6-5.7-1-8.5c1.3-0.8,2.7-1.5,4-2.3c0.1,24.7,0.2,49.5,0.3,74.2
		C90.8,133.5,89.7,134.8,88.6,136.1z"/>
	<path class="st49" d="M71.3,165.5c-0.7-1.3-2-2.6-2-3.9c-0.2-5.2,0-10.5-0.2-15.8c-0.1-1.7-0.9-3.4-1.4-5.1c2.9-4,5.7-8,8.6-12.1
		c0,4.6-0.1,9.2,0.1,13.8c0.1,3.3,0.7,6.5,1.1,9.8C75.4,156.7,73.3,161.1,71.3,165.5z"/>
	<path class="st50" d="M100,123.8c-0.4-1.9-1.2-3.8-1.2-5.7c-0.1-21.3-0.1-42.7-0.1-64c1-0.6,2.1-1.2,3.1-1.8
		c0,23.2,0.1,46.4,0.1,69.6C101.3,122.5,100.6,123.1,100,123.8z"/>
	<path class="st51" d="M101.9,121.9c0-23.2-0.1-46.4-0.1-69.6c1-0.5,2-1,3-1.4c0,20.7,0,41.3,0.2,62c0,1.9,0.7,3.8,1,5.8
		C104.6,119.7,103.3,120.8,101.9,121.9z"/>
	<path class="st49" d="M71.1,114.6c0-12.8,0.1-25.7,0-38.5c0-1.6-0.7-3.1-1.1-4.7c1-0.7,2-1.4,3-2.1c0.4,1,1.2,2.1,1.2,3.1
		c0.1,13.8,0.1,27.6,0,41.4c0,0.9-0.7,1.8-1.1,2.7C72.4,115.9,71.8,115.2,71.1,114.6z"/>
	<path class="st39" d="M77.4,152.3c-0.4-3.3-1-6.5-1.1-9.8c-0.2-4.6-0.1-9.2-0.1-13.8c1.1-1.2,2.2-2.3,3.3-3.5
		c0.6,2.1,1.4,4.2,1.7,6.4c0.6,4.2,1,8.4,1.4,12.6C81,146.9,79.2,149.6,77.4,152.3z"/>
	<path class="st52" d="M53.9,100.1c-0.1,0-0.3,0-0.4,0C53.6,100.1,53.7,100.1,53.9,100.1C53.8,100.1,53.9,100.1,53.9,100.1z"/>
</g>
</svg>
