<?xml version="1.0" encoding="UTF-8"?>
<svg id="Layer_1" data-name="Layer 1" xmlns="http://www.w3.org/2000/svg" viewBox="0 0 200 200">
  <defs>
    <style>
      .cls-1 {
        fill: #0168b3;
      }

      .cls-2 {
        fill: #1ab6eb;
      }
    </style>
  </defs>
  <path class="cls-2" d="m135.7,193.53c-.01-.54-.04-1.08-.04-1.62,0-10.33,0-20.66,0-30.99,0-.35,0-.71,0-1.17.55,0,1.01,0,1.46,0,5.5,0,10.95-.56,16.32-1.77,2.92-.66,5.77-1.62,8.65-2.42,1.4-.39,2.62-1.11,3.86-1.83.84-.49,1.85-.69,2.7-1.17,1.17-.67,2.26-1.49,3.39-2.23.48-.31,1.03-.54,1.47-.9.83-.67,1.61-1.41,2.41-2.13.86-.77,1.82-1.46,2.55-2.34,1.48-1.8,2.88-3.67,4.21-5.59.93-1.34,1.79-2.74,2.48-4.22.71-1.53,1.28-3.15,1.7-4.79.61-2.36,1.22-4.75,1.51-7.16.57-4.79.74-9.59.12-14.41-.47-3.67-1.09-7.3-2.55-10.71-1.03-2.41-2.31-4.71-3.57-7.02-.55-1-1.21-1.98-1.98-2.82-1.62-1.76-3.04-3.71-5.04-5.11-1.55-1.08-2.97-2.35-4.52-3.45-.73-.52-1.66-.75-2.43-1.23-2.48-1.55-5.17-2.59-7.97-3.39-1.17-.34-2.29-.89-3.47-1.14-2.56-.56-5.15-.99-7.73-1.47-1.06-.2-2.12-.44-3.19-.58-1.13-.15-2.27-.26-3.41-.31-2.74-.12-5.48-.26-8.21-.27-22-.02-43.99-.02-65.99,0-.66,0-.88-.13-.87-.85.04-3.7.04-7.4,0-11.1,0-.73.18-.96.94-.95,9.92.02,19.84.01,29.76.01.2,0,.4-.02.73-.05,0-.34,0-.67,0-.99,0-8.99,0-17.99,0-26.98,0-.62.02-1.24-.02-1.86-.01-.15-.21-.34-.36-.42-.14-.07-.35-.02-.53-.02-22.15,0-44.3,0-66.45,0-.27,0-.53-.1-.8-.15-.01-.08-.03-.15-.04-.23,1.09-.93,2.25-1.77,3.23-2.81.76-.8,1.7-1.32,2.51-2.02,1.03-.89,2.12-1.72,3.21-2.54,1.47-1.1,3-2.11,4.42-3.26,1.64-1.33,3.5-2.26,5.33-3.25.86-.46,1.6-1.13,2.44-1.62.98-.56,2.01-1.01,3.01-1.53.74-.39,1.45-.86,2.2-1.21.77-.35,1.59-.58,2.37-.91,1.67-.71,3.32-1.46,4.99-2.15.7-.29,1.45-.47,2.17-.71,2.14-.71,4.24-1.52,6.42-2.1,2.77-.74,5.57-1.42,8.4-1.87,3.85-.61,7.74-.96,11.6-1.44.22-.03.43-.18.65-.28,4.06,0,8.12,0,12.18,0,1.21.15,2.42.27,3.62.44,3.56.51,7.12,1,10.66,1.58,1.83.3,3.64.77,5.44,1.23,1.52.39,3.03.87,4.53,1.33.96.29,1.94.52,2.86.91,3.03,1.26,6.05,2.54,9.04,3.89,2.25,1.02,4.48,2.09,6.65,3.26,1.67.9,3.23,1.99,4.84,3,1.05.66,2.16,1.24,3.15,1.98,2.8,2.1,5.58,4.23,8.32,6.41,1.15.92,2.16,2.01,3.25,3.01,1.01.93,2.13,1.77,3.05,2.77,1.91,2.08,3.74,4.24,5.57,6.38,1.04,1.22,2.07,2.44,3.03,3.72,1.19,1.6,2.31,3.27,3.45,4.91.65.93,1.35,1.84,1.93,2.82.79,1.33,1.47,2.72,2.23,4.06,2.09,3.67,3.95,7.46,5.39,11.43,1.19,3.28,2.34,6.58,3.37,9.92.71,2.3,1.26,4.66,1.77,7.01.32,1.46.46,2.95.65,4.44.33,2.59.64,5.18.96,7.77.09.75.18,1.5.28,2.25v10.33c-.15,1.6-.24,3.21-.47,4.8-.52,3.57-1.08,7.13-1.68,10.68-.29,1.7-.62,3.39-1.09,5.05-.83,2.92-1.7,5.83-2.7,8.69-.83,2.36-1.78,4.69-2.83,6.96-1.36,2.95-2.74,5.91-4.36,8.72-1.65,2.87-3.51,5.62-5.44,8.32-1.92,2.68-3.9,5.34-6.09,7.79-2.71,3.03-5.58,5.93-8.55,8.71-2.26,2.12-4.76,3.98-7.19,5.9-1.09.86-2.25,1.65-3.42,2.41-1.37.9-2.79,1.74-4.18,2.6-1.33.82-2.64,1.68-3.99,2.45-1.12.64-2.3,1.2-3.46,1.78-.54.27-1.09.5-1.65.73-.25.11-.52.18-.77.28-2.15.93-4.3,1.86-6.45,2.79,0,0,.01,0,.01,0Z"/>
  <path class="cls-2" d="m135.72,102.7c2.2.01,4.3-.06,6.41.43,3.03.7,5.46,2.15,7.05,4.86.86,1.45,1.4,3.04,1.53,4.72.24,3.05.42,6.14-.88,9.01-1.31,2.87-3.31,5.03-6.51,5.95-2.49.71-4.99.85-7.6.8v-25.76Z"/>
  <path class="cls-1" d="m135.55,193.56c-12.02,0-24.04,0-36.06-.02-.33,0-.67-.03-1-.04-.02-.04-.04-.08-.06-.12,0-.13,0-.26,0-.39,0-.17-.02-.33-.03-.5,0,.17.02.33.03.5.02-.15.05-.3.05-.45,0-30.31,0-60.62,0-90.93,0-.33-.02-.66-.03-1,.04-.6-.43-.39-.7-.39-9.82,0-19.64,0-29.46,0-.22,0-.44.08-.65.13h0c-.03.51-.07,1.01-.07,1.52,0,15.17,0,30.34,0,45.51,0,.67-.03,1.33-.04,2-12.3,0-24.6,0-36.99,0V28.25c-.07-.04-.14-.08-.21-.12-.58.62-1.18,1.23-1.74,1.86-2.24,2.52-4.57,4.97-6.69,7.59-3.61,4.45-6.41,8.51-9.83,14.76-.84,1.53-1.75,3.01-2.51,4.58-.66,1.36-1.14,2.81-1.73,4.2-2.28,5.35-4.06,10.87-5.32,16.54-.72,3.2-1.22,6.46-1.71,9.71-.31,2.01-.41,4.04-.61,6.07-.03.32-.11.63-.16.94v12.95c.19,1.18.46,2.36.56,3.55.35,3.95,1.11,7.83,1.98,11.69.34,1.52.92,2.98,1.26,4.5,1.1,4.93,3.02,9.57,5.05,14.16.8,1.82,1.69,3.61,2.63,5.37,1.1,2.06,2.24,4.1,3.47,6.08,4.01,6.53,8.78,12.47,14.17,17.9,6.53,6.58,13.84,12.12,21.93,16.64,1.85,1.04,3.76,1.99,5.66,2.94,3.91,1.95,7.98,3.52,12.13,4.9,4.34,1.44,8.76,2.57,13.26,3.35,2.62.45,5.27.78,7.91,1.1,1.59.19,3.2.24,4.79.36.12,0,.23.08.34.12h10.33c.87-.1,1.73-.22,2.6-.29,3.4-.29,6.8-.64,10.15-1.38,3.42-.76,6.83-1.5,10.23-2.32,1.43-.35,2.82-.85,4.21-1.33.99-.34,1.96-.75,2.94-1.13-.02,0-.04,0-.06,0Z"/>
</svg>