<?xml version="1.0" encoding="UTF-8"?>
<svg id="Layer_1" data-name="Layer 1" xmlns="http://www.w3.org/2000/svg" viewBox="0 0 280 280">
  <defs>
    <style>
      .cls-1 {
        fill: #d54125;
        stroke-width: 0px;
      }
    </style>
  </defs>
  <path class="cls-1" d="M213.15,61.44c-5.92,6.89-11.78,13.71-17.6,20.48-3.55-2.16-6.91-4.42-10.46-6.31-9.7-5.17-20.2-7.46-31.11-7.9-24.19-.97-44.09,7.79-59.16,26.8-9.19,11.59-13.99,25.02-15.04,39.77-1.21,17.03,2.47,32.89,12.01,47.1,11.74,17.48,28.12,27.95,49.12,30.49,23.48,2.84,43.37-4.64,59.66-21.8,1.96-2.07,2.89-4.19,2.84-7.14-.19-10.42-.08-20.84-.08-31.26,0-.7,0-1.39,0-2.28h-59.2c1.47-1.75,2.63-3.15,3.81-4.53,5.34-6.25,10.71-12.48,16.01-18.76,1.08-1.27,2.2-1.83,3.94-1.82,20.97.07,41.94.07,62.91,0,1.84,0,2.22.59,2.22,2.3-.05,23.16-.06,46.31,0,69.47,0,1.98-.53,3.56-1.71,5.13-11.97,16-27.64,26.78-46.49,33.12-14.4,4.84-29.19,6.54-44.29,5.33-24.24-1.94-45.6-10.68-63.38-27.52-14.91-14.12-24.13-31.44-28.05-51.48-4.23-21.6-2.26-42.7,7.25-62.67,13.52-28.39,35.88-46.48,66.21-54.36,25.59-6.64,50.5-4.07,74.27,7.65,5.33,2.63,10.2,6.17,15.28,9.3.31.19.56.48,1.04.9Z"/>
</svg>