<?xml version="1.0" encoding="utf-8"?>
<!-- Generator: Adobe Illustrator 26.0.3, SVG Export Plug-In . SVG Version: 6.00 Build 0)  -->
<svg version="1.1" id="Layer_1" xmlns="http://www.w3.org/2000/svg" xmlns:xlink="http://www.w3.org/1999/xlink" x="0px" y="0px"
	 viewBox="0 0 280 280" style="enable-background:new 0 0 280 280;" xml:space="preserve">
<style type="text/css">
	.st0{fill:#FFFFFF;}
</style>
<g>
	<path class="st0" d="M140.2,278.8c-5,0-9.9,0-14.9,0c-7.3,0.1-14.3-1.3-21.2-3.5c-7.5-2.4-15-4.8-22.4-7.5
		c-3.3-1.2-6.3-3.4-9.4-5.2c-4.9-2.9-10.1-5.5-14.6-8.9c-6.8-5.2-13.6-10.6-19.6-16.7c-5-5.1-8.7-11.4-12.9-17.2
		c-2.7-3.8-5.7-7.5-7.9-11.7c-3.2-6.2-5.8-12.6-8.4-19.1c-1.8-4.5-3.5-9.1-4.7-13.8c-1.3-5.1-2.7-10.3-3.1-15.5
		c-0.8-9.8-1.4-19.8-1.1-29.6c0.2-6.9,1.9-13.8,3.2-20.7c0.9-4.8,2-9.7,3.8-14.3c3.2-8,7-15.9,10.6-23.7c1.3-2.7,2.8-5.3,4.5-7.7
		c4.8-6.4,9.5-12.9,14.9-18.9c4.3-4.8,9.5-9,14.4-13.4c1.9-1.6,4.1-2.9,6.1-4.4c8.5-6.6,17.8-11.5,27.8-15.6
		c6.6-2.7,13.1-5.5,20-7.3c4.2-1.1,8.6-2.2,12.9-2.5c11-0.7,22-1.5,33-1.1c8.2,0.4,16.3,2.7,24.4,4.3c3.5,0.7,7,1.4,10.3,2.8
		c6.3,2.6,12.5,5.4,18.6,8.4c3.8,1.9,7.6,3.9,11.1,6.4c6.3,4.5,12.6,9,18.4,14.1c5.4,4.8,10.4,10.1,15,15.7c4.1,5,7.6,10.5,11,15.9
		c2.2,3.4,4,7.2,5.7,10.9c2.7,5.9,5.7,11.8,7.6,18c1.9,6,2.6,12.4,4.1,18.6c2.4,10.1,2.8,20.4,2.1,30.6c-0.5,8.1-1.8,16.3-3.4,24.3
		c-1.5,7.4-3.8,14.7-6.2,21.9c-1.4,4.1-3.7,7.9-5.8,11.7c-3.2,5.9-6.3,11.9-10.1,17.4c-3.1,4.5-7.4,8.2-10.7,12.6
		c-4.9,6.7-12,11-18,16.4c-7.1,6.5-15.8,10.3-24,15.1c-7.1,4.2-15,6.3-22.6,8.9c-4.3,1.4-8.9,2.2-13.5,2.7
		c-8.4,0.8-16.9,1.2-25.3,1.8C140.2,279.2,140.2,279,140.2,278.8z M138.2,258.9c65.9,1.5,120.9-53.4,120.6-118.2
		c-0.2-34.4-12.8-63.5-37.1-86.8c-22.4-21.4-50-32.6-81.5-32.4c-44.2,0.3-78,20-102,56.4C26.1,96.4,20,117.8,20.4,140
		c0.7,40.1,17.3,73.1,49.8,96.9C90.6,251.7,113.7,259.8,138.2,258.9z"/>
	<path class="st0" d="M84.8,106.4c0-4.7,2.7-7.4,5.5-10.1c2.9-2.9,6.2-4.9,10.3-2.4c1.9-3,4.8-3.8,7.6-3.2c4.2,0.9,8.1,0.7,12.1-0.5
		c2.6-0.8,5.3-1.1,7.9-1.6c0.1-2.6,2.5-3.1,4.3-3c3.9,0.4,7.1-1.7,10.6-2.4c7.8-1.7,15.7-2.8,23.7-1.9c1.6,0.2,3.2,1.4,4.9,2.2
		c3.9-2.9,4.1-2.8,9,0c3.1,1.7,6.5,2.9,9.5,4.7c1.8,1,3.4,2.6,4.7,4.2c0.6,0.8,0.3,3.5,0,3.5c-1.6,0.4-3.6,0.8-4.9,0.1
		c-2.3-1.2-3.8-1.5-5.8,0.4c-0.5,0.5-2.1,0.2-3.1-0.1c-1.6-0.5-2.9-0.5-3.4,1.3c-0.8,2.6-2.5,3.3-5.1,3c-1.6-0.1-3.3,0.5-4.9,0.9
		c-2.1,0.6-3.8,0.5-5.2-1.5c-1.9-3-6-3.1-8.1-0.3c-0.3,0.4-0.9,0.7-1.4,0.8c-2.3,0.4-4.5,0.7-6.8,1.2c-4.5,0.9-9.1,2-13.6,2.9
		c-1.4,0.3-2.8,0.9-4.1,0.7c-5.4-0.7-10.2,1.4-15.1,3c-4.1,1.3-8,3.6-11.9,5.5c-0.8,0.4-1.2,1.6-2,2.2c-2.6,2-5.3,3.8-7.8,5.8
		c-2.7,2.1-5.6,4-7.9,6.4c-0.8,0.9-0.6,3.5,0.1,4.8c2.6,4.7,6.1,8.9,6.2,14.7c0.1,3.5,6.1,9.9,9.4,10.7c0.8,0.2,1.8,1.3,1.9,2.1
		c0.6,3.4,2.4,5.5,5.5,7c4.6,2.3,9.7,4.1,12.7,8.9c0.9,1.4,3.3,1.8,5.2,2.5c2.8,1,6.1,1,7.4,4.6c0.2,0.6,1.5,1.4,1.9,1.2
		c4-1.9,6.9,1.3,10.3,2.1c0.3,0.1,0.6,0.3,0.8,0.3c6.4-0.3,12.9-0.5,19.3-0.9c1.3-0.1,2.9-0.5,3.7-1.3c2.1-2.2,5.6-2.9,5.5-7.5
		c-0.1-5.7-3.1-10.1-4.6-15.1c-0.4-1.5-1.2-2.9-1.9-4.2c-0.7-1.5-1.7-2.3-3.7-2.2c-1.4,0.1-3-0.7-4.1-1.6c-2-1.5-4.1-1.8-6.6-2.1
		c-4.3-0.5-8.7-1.8-12.8-3.3c-2.8-1-4.8-5.8-4.2-8.4c0.8-3.5,4.1-6.7,7.6-6.9c2.6-0.2,5.1,0.1,7.7,1.1c3,1.2,6.7,0.9,10.1,1.2
		c2,0.2,3.8-0.2,5.7,1.8c1.3,1.4,4.3,1.1,6.4,1.8c5.2,1.6,10.3,3.2,15.4,5c2.3,0.8,4.7,1.9,6.6,3.4c1.1,0.8,1.2,2.8,1.9,4.1
		c1.9,3.3,4.2,6.3,5.8,9.7c1.3,2.8,3.3,5.8,1,9.2c-0.6,0.8-0.1,2.4-0.1,3.5c-0.3,0.2-0.5,0.4-0.8,0.6c-0.5-0.6-1.3-1.2-1.5-2
		c-1-3.2-1.7-6.5-2.7-9.7c-0.3-0.8-1.4-1.2-2.1-1.9c-2.5-2.2-5.2-4.1-7.4-6.6c-3.2-3.7-7.1-4.2-12-3.7c0.4,0.9,0.4,1.9,0.9,2.2
		c5.6,3.6,6.7,9.8,9,15.3c1.5,3.5,3,7.1,4.5,10.6c0.1,0.2,0.1,0.4,0.3,0.5c3.1,3,3.2,3.4-0.4,5.7c-1.7,1.1-1.8,2.5-2.2,4
		c-1.4,4.4-5.4,6.1-8.9,8.2c-2.6,1.5-5.2,3-8,4.6c-2-2.1-4.8-1.1-6.8,0.3c-4.6,3.3-9.3,1.2-14,0.9c-3.2-0.2-6.6-0.3-9.8,0.1
		c-3.2,0.3-6.2,0.4-8.4-2.4c-2.8-3.6-6.2-5.5-10.9-4.9c-1,0.1-2.4-1.1-3.4-2c-2.5-2.4-5-4.7-8.3-6c-1.7-0.7-3.1-2.3-4.4-3.8
		c-1.4-1.6-3-2.3-5.2-2.1c-4.1,0.3-7.5-2.5-9.2-6.1c-2.2-4.8-6.1-8.6-11.2-10c-2.7-0.7-4-2.3-4.7-4.2c-1.2-3.3-1.5-7-2.7-10.3
		c-0.8-2-2.3-4-4.1-5.3c-1.9-1.4-2.7-3-2.7-5.1c0-1.8,0.3-3.7,0.1-5.5c-0.3-3.7-1.4-7.3-1.2-11c0.2-5.1,0.9-10.1,6.6-12.6
		c2.2-1,3.9-3.2,6.1-4.3C80.2,107.3,82.5,107,84.8,106.4z"/>
</g>
</svg>
