<?xml version="1.0" encoding="utf-8"?>
<!-- Generator: Adobe Illustrator 26.0.3, SVG Export Plug-In . SVG Version: 6.00 Build 0)  -->
<svg version="1.1" id="Layer_1" xmlns="http://www.w3.org/2000/svg" xmlns:xlink="http://www.w3.org/1999/xlink" x="0px" y="0px"
	 viewBox="0 0 280 280" style="enable-background:new 0 0 280 280;" xml:space="preserve">
<style type="text/css">
	.st0{fill:#9D8D67;}
	.st1{fill:#FFFFFF;}
</style>
<g>
	<path class="st0" d="M84.9,66.4c12,3,21.7,10.3,32,16.5c2.1,1.3,4.2,0.9,6.3,0.8c0.5,0,1-0.9,1.4-1.4c1.2-1.5,2.2-3.2,3.6-4.6
		c5.4-5.5,11.3-5.2,16.1,1c1.1,1.4,2.2,2.8,2.8,4.4c0.9,2.5,2.8,3.1,5.1,3.4c18.7,3,36.7,8.4,53.2,17.9c8.1,4.7,15.4,10.3,21.4,17.4
		c12.1,14.4,14.6,32.1,3.5,49.2c1.6,0.8,3.2,1.5,4.8,2.3c12.8,6.4,25.7,12.8,38.5,19.3c3,1.5,5.4,3.6,6.4,6.9c0,0.9,0,1.7,0,2.6
		c-0.2,0.5-0.5,1-0.7,1.5c-1.7,4.3-4.7,6-9.1,4.5c-3.2-1-6.3-2.3-9.2-3.9c-11.4-6.7-22.6-13.5-33.9-20.4c-4.8-2.9-4.8-2.9-9.2,0.6
		c-0.1,0.1-0.2,0.2-0.3,0.3c-10.5,8.5-22.3,14.3-35,18.8c-18.5,6.4-37.6,9.4-57.1,10.1c-4.5,0-9.1,0-13.6,0
		c-20.4-0.7-40.3-3.9-59.5-11c-14.2-5.2-27.4-12.2-38.2-23c-6.8-6.7-11.9-14.5-13.6-24.1c-2.1-11.3,1-21.5,7.6-30.6
		c7-9.7,16.4-16.6,26.8-22.2c15.8-8.5,32.7-13.5,50.3-16.2c5-0.8,10.1-1.2,15.1-1.8c0.6-0.1,1.1-0.2,2.2-0.4
		c-1.3-0.9-2.3-1.6-3.3-2.2c-4.5-2.9-9.1-5.7-13.6-8.6c-1.2-0.8-2.2-1.9-3.1-3c-1.2-1.4-1.3-2.8,0.5-4
		C83.7,66.4,84.3,66.4,84.9,66.4z M165.6,148.9c-0.5,0-1,0-1.5,0c-4.3,0-7.2-3.2-6.3-7.4c0.3-1.4,1.2-2.8,2.1-3.9
		c1.8-2.2,3.9-2.4,6.1-0.6c1.3,1.1,2.2,2.6,3.4,3.9c0.9,1,1.8,2.2,2.9,2.7c13.8,6.8,27.6,13.5,41.5,20.2c3.6,1.7,7.2,3.2,10.8,4.8
		c6.8-9.1,9.1-21.6,4-33c-4.7-10.6-12.9-18-22.4-24.1c-13.6-8.7-28.6-13.9-44.2-17.3c-3.4-0.7-6.8-1.3-10.4-2c0,0.9,0,1.3,0.1,1.7
		c0.8,3.8,1.8,7.6,2.3,11.5c0.6,3.9,0.6,7.8-1,11.6c-1.3,3-4.1,4.2-6.9,2.8c-1.7-0.9-3.4-2-4.7-3.4c-3.1-3.1-5.8-6.8-9.1-9.7
		c-6.4-5.5-13.2-10.7-19.8-16c-0.7-0.6-1.9-0.9-2.8-0.8c-5.1,0.3-10.3,0.7-15.4,1.2c-16.3,1.7-32,5.5-47.1,12
		c-12.1,5.2-23.3,11.9-32,22.2c-5.9,7-9.5,15-9.2,24.3c0.3,9.8,4.7,17.9,11.3,24.8C27.5,185.3,40.2,192,53.9,197
		c23.4,8.5,47.6,11.4,72.4,10.6c10.8-0.4,21.6-1.5,32.2-3.6c17.2-3.4,33.7-8.9,48.5-18.6c3.4-2.2,6.5-4.8,9.9-7.3
		c-0.7-0.5-0.9-0.6-1.1-0.8c-14-8.5-28-17.1-42-25.6c-1.2-0.8-2.2-0.6-3.4,0.1c-9.5,5.4-19.5,9.6-29.9,12.9
		c-8.6,2.7-17.2,5.2-26.3,5.7c-3.6,0.2-5.4,1.4-6.3,5c-1.2,4.9-3.1,9.6-4.8,14.7c4.2,0,8,0.1,11.9,0c8.7-0.3,16.7-2.8,24-7.5
		c4.8-3.1,7.9-7.6,11.1-12.1c0.9-1.2,2.5-1.9,3.8-2.8c1.3,1.7,0.3,3.4-0.4,4.9c-3.6,7.2-9.1,12.7-16.2,16.5
		c-11.8,6.3-24.5,6.9-37.3,5.6c-10.2-1-20-4.1-29.3-8.5c-7.4-3.5-14.3-7.8-18.9-14.8c-3.1-4.8-2.9-11,0.4-15.5
		c2.6-3.7,6.3-6,10.3-7.8c13.5-6.1,27.9-8.2,42.4-9.5c4.8-0.4,9.7-0.6,14.6-0.9c0.5,0,1.1-0.1,1.4-0.4c2.1-3.1,4.1-6.3,6.2-9.7
		c-0.9-0.1-1.6-0.2-2.3-0.3c-5.1-0.6-10-1.8-14.3-4.8c-3.4-2.4-5.5-7.1-4.7-10.8c1.4-6.6,5.6-11.3,10.3-16.1c1,1.2,1.8,2.3,2.7,3.4
		c-1,1.2-2,2.1-2.8,3.3c-2,2.9-4.1,5.8-5.6,8.9c-1.4,3-0.4,5.5,2.3,7.4c4.1,2.8,8.9,3.2,13.6,3.9c3.2,0.5,6.4,0.9,9.6,1.6
		c0.7,0.1,1.2,1.2,1.9,1.8c-0.7,0.5-1.3,1.3-2,1.4c-2.9,0-4.3,1.7-5.6,3.9c-1.1,2-2.6,3.9-4,6c3.8,0.6,7.3-0.5,10.9,1.7
		c-1.2,0.7-2,1.3-2.9,1.5c-3.1,0.7-6.2,1.3-9.4,1.8c-1.2,0.2-1.9,0.4-2.5,1.6c-2.2,4.6-4.7,9-6.9,13.6c-1.3,2.7-2.4,5.5-3.8,8.7
		c3.1-0.3,5.6-0.4,8.1-0.8c12-2.1,23.7-5.7,34.9-10.6C158.3,152.7,161.9,150.7,165.6,148.9C165.8,148.9,166,148.8,165.6,148.9
		C165.9,148.7,165.8,148.8,165.6,148.9z M97.2,144.2c-0.2,0-0.9-0.1-1.5,0c-6.7,1.3-13.4,2.4-20,3.9c-5.9,1.3-11.6,3.4-16.6,6.9
		c-6,4.2-7.1,10.1-2.8,15.3c1.3,1.6,2.8,3.2,4.5,4.5c10.7,8.5,23.4,12.3,36.5,14.7c1.4,0.3,1.6-0.7,1.8-1.6
		c1.2-3.9,2.4-7.8,3.6-11.6c0.5-1.7,1.2-3.4,1.9-5.5c-2.2,0-3.9,0.1-5.7,0c-4.9-0.3-9.7-0.9-14.2-2.9c-6.3-2.9-7.4-8.7-2.7-13.7
		c0.7-0.7,1.4-1.5,2.3-2C88.7,149.3,93,146.7,97.2,144.2z M117.6,142.7c-1.9,0.6-3.4,1-4.9,1.5c-7.9,2.5-15.7,5.2-22.8,9.6
		c-2,1.2-3.8,2.9-5.4,4.6c-1.3,1.4-1.1,3,0.5,4.1c1.4,0.9,2.9,1.9,4.4,2.2c5.1,0.8,10.3,1.3,15.5,1.7c0.7,0.1,1.8-0.8,2.2-1.5
		c2.4-4.9,4.6-9.8,6.9-14.7C115.1,147.7,116.3,145.4,117.6,142.7z"/>
	<path class="st1" d="M165.6,148.9c-3.7,1.8-7.3,3.8-11.1,5.5c-11.2,4.9-22.8,8.5-34.9,10.6c-2.5,0.4-5,0.5-8.1,0.8
		c1.4-3.2,2.5-6,3.8-8.7c2.2-4.6,4.7-9,6.9-13.6c0.6-1.2,1.3-1.4,2.5-1.6c3.1-0.5,6.3-1.1,9.4-1.8c0.9-0.2,1.6-0.8,2.9-1.5
		c-3.6-2.2-7.1-1.1-10.9-1.7c1.4-2.1,2.8-4,4-6c1.3-2.2,2.7-3.9,5.6-3.9c0.7,0,1.3-0.9,2-1.4c-0.6-0.6-1.1-1.6-1.9-1.8
		c-3.2-0.7-6.4-1.1-9.6-1.6c-4.7-0.8-9.5-1.1-13.6-3.9c-2.7-1.9-3.8-4.3-2.3-7.4c1.5-3.2,3.7-6,5.6-8.9c0.8-1.1,1.8-2.1,2.8-3.3
		c-0.9-1.1-1.7-2.1-2.7-3.4c-4.7,4.8-8.9,9.5-10.3,16.1c-0.8,3.7,1.3,8.4,4.7,10.8c4.3,3,9.2,4.2,14.3,4.8c0.7,0.1,1.4,0.2,2.3,0.3
		c-2.2,3.4-4.2,6.6-6.2,9.7c-0.2,0.3-0.9,0.4-1.4,0.4c-4.8,0.3-9.7,0.5-14.6,0.9c-14.6,1.3-29,3.4-42.4,9.5c-4,1.8-7.6,4.2-10.3,7.8
		c-3.3,4.6-3.6,10.8-0.4,15.5c4.7,7,11.5,11.3,18.9,14.8c9.3,4.4,19.1,7.5,29.3,8.5c12.8,1.2,25.6,0.6,37.3-5.6
		c7.1-3.8,12.6-9.3,16.2-16.5c0.7-1.5,1.7-3.1,0.4-4.9c-1.3,0.9-2.9,1.6-3.8,2.8c-3.2,4.5-6.4,9-11.1,12.1c-7.3,4.7-15.3,7.1-24,7.5
		c-3.8,0.1-7.6,0-11.9,0c1.7-5.1,3.6-9.8,4.8-14.7c0.9-3.6,2.8-4.8,6.3-5c9-0.5,17.7-3,26.3-5.7c10.4-3.2,20.4-7.5,29.9-12.9
		c1.2-0.7,2.2-0.8,3.4-0.1c14,8.6,28,17.1,42,25.6c0.2,0.1,0.5,0.3,1.1,0.8c-3.4,2.5-6.5,5.1-9.9,7.3c-14.8,9.7-31.3,15.1-48.5,18.6
		c-10.6,2.1-21.4,3.2-32.2,3.6c-24.8,0.9-49-2.1-72.4-10.6c-13.7-5-26.5-11.7-36.7-22.5c-6.6-7-11-15.1-11.3-24.8
		c-0.3-9.3,3.3-17.3,9.2-24.3c8.6-10.3,19.8-17,32-22.2c15.2-6.1,31-9.9,47.2-11.6c5.1-0.5,10.3-0.9,15.4-1.2
		c0.9-0.1,2.1,0.2,2.8,0.8c6.7,5.3,13.4,10.4,19.8,16c3.3,2.9,6,6.5,9.1,9.7c1.4,1.4,3,2.5,4.7,3.4c2.9,1.4,5.7,0.2,6.9-2.8
		c1.6-3.7,1.6-7.7,1-11.6s-1.5-7.7-2.3-11.5c-0.1-0.4,0-0.8-0.1-1.7c3.6,0.7,7,1.3,10.4,2c15.7,3.4,30.6,8.6,44.2,17.3
		c9.5,6.1,17.7,13.5,22.4,24.1c5.1,11.4,2.9,23.9-4,33c-3.6-1.6-7.2-3.1-10.8-4.8c-13.9-6.7-27.7-13.4-41.5-20.2
		c-1.1-0.6-2-1.8-2.9-2.7c-1.2-1.3-2.1-2.8-3.4-3.9c-2.2-1.8-4.3-1.6-6.1,0.6c-0.9,1.1-1.8,2.5-2.1,3.9c-0.9,4.2,2,7.4,6.3,7.4
		C164.6,148.9,165.1,148.9,165.6,148.9L165.6,148.9z"/>
	<path class="st1" d="M97.2,144.2c-4.2,2.5-8.5,5.2-12.8,7.8c-0.8,0.5-1.6,1.3-2.3,2c-4.8,5-3.6,10.8,2.7,13.7
		c4.5,2.1,9.3,2.7,14.2,2.9c1.8,0.1,3.6,0,5.7,0c-0.7,2.1-1.4,3.8-1.9,5.5c-1.2,3.9-2.4,7.8-3.6,11.6c-0.3,0.9-0.4,1.9-1.8,1.6
		c-13.2-2.5-25.8-6.2-36.5-14.7c-1.6-1.3-3.1-2.8-4.5-4.5c-4.3-5.2-3.2-11.1,2.8-15.3c5-3.5,10.7-5.6,16.6-6.9
		c6.6-1.5,13.3-2.6,20-3.9C96.3,144.1,97,144.2,97.2,144.2z"/>
	<path class="st1" d="M117.6,142.7c-1.3,2.7-2.5,5-3.6,7.3c-2.3,4.9-4.5,9.9-6.9,14.7c-0.3,0.7-1.5,1.6-2.2,1.5
		c-5.2-0.4-10.4-0.9-15.5-1.7c-1.5-0.2-3.1-1.3-4.4-2.2c-1.6-1.1-1.8-2.8-0.5-4.1c1.6-1.7,3.4-3.4,5.4-4.6
		c7.1-4.3,14.9-7.1,22.8-9.6C114.2,143.6,115.7,143.2,117.6,142.7z"/>
</g>
</svg>
