<?xml version="1.0" encoding="UTF-8"?>
<svg id="Layer_1" data-name="Layer 1" xmlns="http://www.w3.org/2000/svg" viewBox="0 0 280 280">
  <defs>
    <style>
      .cls-1 {
        isolation: isolate;
      }

      .cls-2, .cls-3 {
        fill: none;
        stroke: #333;
        stroke-miterlimit: 10;
        stroke-width: 4.4px;
      }

      .cls-4 {
        fill: #333;
      }

      .cls-4, .cls-5 {
        stroke-width: 0px;
      }

      .cls-5 {
        fill: #fff;
      }

      .cls-3 {
        stroke-linecap: round;
      }
    </style>
  </defs>
  <path class="cls-5" d="M186.64,86.31c.27-2.07.48-4.43.49-6.9.06-8.72-2.35-18.77-13.79-21.31-1.53-.34-3.07-.51-4.57-.51-5.75,0-10.61,2.48-14.29,6.18-.2.2-.41.41-.6.62-.12.13-.24.25-.35.38-2.76,3.07-4.81,6.91-5.84,11.03-.02.08-.05.17-.07.25-3.63-7.83-8.72-12.9-15.18-15.09-1.42-.47-2.88-.77-4.36-.96-.12-.02-.25-.03-.37-.04-.36-.04-.73-.07-1.09-.09-.24-.01-.48-.02-.71-.03-.21,0-.43-.03-.64-.03-.07,0-.14,0-.2,0-.59,0-1.17.03-1.75.08-.18.02-.36.04-.54.06-.44.05-.88.11-1.31.18-.2.03-.4.07-.6.11-1.23.25-2.43.6-3.59,1.05-.03.01-.07.03-.1.04-2.49.99-4.78,2.44-6.68,4.35-6.83,6.99-4.35,16.35-3.13,20.62h-18.44l-.51,2.37c-7.01-3.3-15.59-4.97-25.63-4.97-18.67,0-34.43,6.01-45.57,17.37C5.95,112.56,0,128.96,0,148.52s5.95,35.94,17.2,47.39c11.13,11.33,26.89,17.32,45.56,17.32,10.12,0,18.7-1.65,25.64-4.92l.5,2.32h34.23c.28.5.57,1,.91,1.5,4.58,6.82,12.6,10.28,23.84,10.28.02,0,.03,0,.05,0,.01,0,.03,0,.04,0,.06,0,.12,0,.19,0,.81,0,1.6-.02,2.38-.06.34-.01.67-.03,1-.05.55-.03,1.09-.07,1.63-.12.56-.05,1.12-.11,1.66-.18.42-.05.84-.1,1.25-.16.44-.07.87-.14,1.29-.22.27-.05.54-.1.8-.16.93-.19,1.83-.4,2.69-.65.06-.02.12-.03.18-.05.48-.14.94-.29,1.4-.45.12-.04.23-.08.35-.12,1.42-.51,2.73-1.1,3.94-1.77.06-.03.12-.07.17-.1,1.17-.67,2.24-1.43,3.2-2.26.12-.11.25-.22.37-.33.26-.24.52-.48.76-.73.35-.35.68-.72,1-1.1,0,0,0-.01.01-.02.07-.09.14-.18.21-.27.79-.99,1.43-1.99,1.94-2.99h76.21v-54.71h29.39v-69.61h-93.36Z"/>
  <g>
    <g class="cls-1">
      <path class="cls-4" d="M6.67,148.52c0-36.53,22.07-58.14,56.1-58.14,12.89,0,22.81,2.97,29.58,8.62h.65l1.3-6.03h37.74v44.6h-50.9c-.65-1.95-4.27-3.89-8.34-3.89-6.49,0-10.29,4.91-10.29,14.84,0,10.57,4.27,14.84,11.59,14.84,3.06,0,5.38-.83,7.05-1.95v-5.1h-9.64v-12.24h62.22v59.9h-39.41l-1.3-6.03h-.65c-6.68,5.75-16.69,8.62-29.58,8.62-34.03,0-56.1-21.51-56.1-58.04Z"/>
    </g>
    <g class="cls-1">
      <path class="cls-4" d="M162.99,162.52h14.19v-33.01h-6.49v19.75h-37.09v-56.28h139.73v56.28h-37.09v-19.75h-6.49v33.01h14.19v41.45h-80.95v-41.45h0Z"/>
    </g>
    <g>
      <path class="cls-5" d="M199.06,150.84c-.09,6.12-1.48,12.61-4.73,17.9-1.3,2.04-3.15,4.08-5.38,5.56-1.3,18.17-12.15,24.76-22.99,25.78l3.99.46c-.09,3.8,0,15.21-21.97,15.21-11.03,0-16.23-3.71-18.82-8.16-2.5-4.45-2.32-9.46-2.5-12.15-10.66-5.47-19.75-16.69-19.75-35.79,0-7.6,1.76-15.39,6.4-21.6,3.62-4.91,9.18-9.46,15.58-9.55.65,0,1.3,0,2.04.09-3.62-15.21-12.7-28.65-16.97-43.76-1.39-4.82-2.5-10.48,1.39-14.46,3.89-3.89,9.92-4.73,15.02-3.06,5.47,1.85,8.9,6.58,11.22,11.59,5.19,11.03,8.07,23.27,9.46,35.33,1.85-11.68.65-24.2,2.87-35.79,1.48-7.32,7.97-16.04,17.99-13.82,10.85,2.41,8.99,16.41,7.42,25.31-.93,5.19-2.04,10.2-3.34,15.3-1.39,5.38-3.06,10.66-5.01,15.86,3.43-.09,7.05,3.06,8.9,5.75,1.3,1.85,2.13,3.89,2.69,6.12,11.03-3.06,16.69,8.72,16.5,17.9Z"/>
      <g>
        <path class="cls-2" d="M130.82,128.59c-3.62-15.3-12.7-28.74-16.97-43.76-1.39-4.82-2.5-10.48,1.39-14.46,3.89-3.89,9.92-4.73,15.02-3.06,5.47,1.85,8.9,6.58,11.22,11.59,5.47,11.68,8.44,24.66,9.64,37.46.46,4.73.65,9.46.65,14.19"/>
        <path class="cls-2" d="M164.94,135.63c4.64-9.74,8.25-19.94,11.03-30.32,1.3-5.01,2.5-10.11,3.34-15.3,1.58-8.9,3.43-22.9-7.42-25.31-10.01-2.23-16.6,6.49-17.99,13.82-2.32,11.68-1.02,24.39-2.97,36.16"/>
        <path class="cls-3" d="M143.89,193.68c6.03,7.97,43.02,16.04,45.06-19.01"/>
        <path class="cls-2" d="M170.13,121.26c3.71-.65,7.7,2.69,9.74,5.66,4.64,6.68,3.99,16.04,2.23,23.64-1.3,5.47-3.52,11.13-7.51,15.11-3.71,3.71-10.66,6.21-15.3,2.97-4.64-3.15-6.03-11.31-5.38-16.69"/>
        <path class="cls-2" d="M182.37,133.13c11.13-3.34,16.78,8.44,16.6,17.71-.09,6.12-1.48,12.61-4.73,17.9-3.15,5.29-10.48,10.11-16.6,6.58-2.97-1.67-4.27-5.19-4.91-8.34"/>
        <path class="cls-3" d="M122.85,150.65c5.01,0,32.08,3.99,24.01,35.05"/>
        <path class="cls-2" d="M150.85,198.68c-15.02,3.99-44.04-5.01-44.04-39.04,0-7.6,1.76-15.39,6.4-21.6,3.62-4.91,9.18-9.46,15.58-9.55,4.54-.09,8.9,1.11,13.35,1.58,5.1.56,10.11,1.02,15.21,1.58,6.49.65,9.83,5.1,7.88,11.68-3.62,12.33-19.75,10.66-29.67,10.66"/>
        <path class="cls-2" d="M126.56,195.44c.28,5.29-.74,20.31,21.33,20.31s21.97-11.31,21.97-15.21"/>
      </g>
    </g>
  </g>
</svg>