<?xml version="1.0" encoding="utf-8"?>
<!-- Generator: Adobe Illustrator 26.0.3, SVG Export Plug-In . SVG Version: 6.00 Build 0)  -->
<svg version="1.1" id="Layer_1" xmlns="http://www.w3.org/2000/svg" xmlns:xlink="http://www.w3.org/1999/xlink" x="0px" y="0px"
	 viewBox="0 0 280 280" style="enable-background:new 0 0 280 280;" xml:space="preserve">
<style type="text/css">
	.st0{fill:#FF0000;}
	.st1{fill:#FFFFFF;}
	.st2{fill:#EEEEEE;}
</style>
<g>
	<path class="st0" d="M153.9,177.3l34.5-50.2l-11.6-1.7c-1.6-0.3-2.8-1.7-2.8-3.3l0.8-30.2l-24.5,13.3c-1.4,0.7-3.1,0.4-4.1-0.8
		l-8.6-10.4l-13.9,27.9c-0.8,1.6-2.8,2.3-4.4,1.4c-1-0.5-1.7-1.5-1.8-2.6L112.4,67L99.3,80.8c-1.2,1.3-3.3,1.4-4.6,0.2
		c-0.1,0-0.1-0.1-0.2-0.2L69.2,54.1l-6.7,36.2c-0.3,1.8-2,3-3.8,2.6c-0.1,0-0.1,0-0.2,0l-18.5-4.4l24.9,47.8
		c0.8,1.6,0.2,3.6-1.4,4.4c-1,0.5-2.2,0.5-3.1-0.1l-26.9-15.8L32,138.2c-0.2,1.5-1.4,2.7-3,2.9l-27.8,2.2l17.1,24.9
		c0.9,1.4,0.7,3.2-0.5,4.3l-8.8,7.8l56.3,23.3c1.3,0.5,2.1,1.8,2,3.2l-1,17.1l39.2-19.6c2.4-1.2,5.2-0.2,6.4,2.2
		c0.2,0.3,0.3,0.6,0.4,1l10.2,42.2l8.7-2.6l-14.5-41c-0.9-2.5,0.5-5.2,2.9-6.1c0.3-0.1,0.7-0.2,1-0.2l43.6-5L154,181.1
		C153.2,180,153.1,178.4,153.9,177.3z"/>
	<path class="st1" d="M122,250.6l-10.3-43c-0.1-0.3-0.2-0.6-0.3-0.8c-0.5-1-1.3-1.7-2.4-2.1c-1-0.4-2.1-0.3-3.1,0.2L65.6,225
		l1.1-18.3c0.1-1.1-0.6-2.1-1.6-2.6L7.8,180.5l9.6-8.5c1-0.9,1.1-2.3,0.4-3.4L0,142.7l29-2.3c1.2-0.1,2.2-1.1,2.3-2.3l1.7-14.5
		L60.8,140c0.8,0.4,1.7,0.5,2.5,0.1c0.6-0.3,1.1-0.9,1.3-1.5c0.2-0.7,0.1-1.4-0.2-2L38.8,87.5l20.1,4.8c0.7,0.1,1.4,0,1.9-0.4
		c0.6-0.4,0.9-1,1.1-1.7l6.9-37.5l26.4,27.8c1,1,2.7,0.9,3.6-0.1l14.1-14.9l5.4,55.1c0.1,0.9,0.6,1.6,1.4,2c0.6,0.3,1.3,0.4,2,0.2
		c0.7-0.2,1.2-0.7,1.5-1.3l14.4-28.9l9.3,11.2c0.8,0.9,2.1,1.2,3.2,0.6l25.5-13.9l-0.8,31.4c0,1.3,0.9,2.4,2.2,2.6l12.7,1.9
		l-35.1,51.1c-0.6,0.9-0.6,2.1,0.1,3l10.9,14.7l-44.8,5.1c-0.3,0-0.6,0.1-0.9,0.2c-2.1,0.7-3.3,3.1-2.5,5.2l14.8,41.6L122,250.6z
		 M107.7,203.1c0.6,0,1.2,0.1,1.8,0.3c1.4,0.5,2.5,1.5,3.1,2.8c0.2,0.3,0.3,0.7,0.4,1.1l10,41.5l7.3-2.2L116,206.4
		c-1-2.9,0.5-6,3.4-7c0.4-0.1,0.8-0.2,1.2-0.3l42.4-4.9l-9.5-12.8c-1-1.4-1.1-3.2-0.1-4.6h0l33.8-49.3l-10.5-1.6c-2-0.3-3.4-2-3.4-4
		l0.8-29l-23.4,12.7c-1.7,0.9-3.7,0.5-4.9-1l-7.9-9.6l-13.4,27c-1,2-3.4,2.7-5.3,1.7c-1.2-0.6-2-1.8-2.1-3.1l-5.1-52.1l-12,12.7
		c-1.5,1.6-4,1.7-5.6,0.2c-0.1-0.1-0.1-0.1-0.2-0.2L69.6,55.6l-6.4,34.8c-0.2,1-0.8,1.9-1.6,2.5c-0.9,0.6-1.9,0.8-3,0.7
		c-0.1,0-0.2,0-0.3-0.1l-17-4.1L65.6,136c0.5,0.9,0.6,2,0.3,3c-0.3,1-1,1.8-2,2.3c-1.2,0.6-2.6,0.6-3.8-0.1l-26-15.3l-1.4,12.3
		c-0.2,1.9-1.7,3.3-3.6,3.5l-26.6,2.1L19,167.8c1.1,1.6,0.9,3.9-0.6,5.2l-8,7.1l55.2,22.9c1.6,0.7,2.5,2.2,2.4,3.9l-0.9,15.9
		l38.2-19C106,203.3,106.9,203.1,107.7,203.1z"/>
</g>
<g>
	<path class="st2" d="M244.3,154l34.5-50.2l-11.6-1.7c-1.6-0.3-2.8-1.7-2.8-3.3l0.8-30.2l-24.5,13.3c-1.4,0.7-3.1,0.4-4.1-0.8
		L228,70.6l-13.9,27.9c-0.8,1.6-2.8,2.3-4.4,1.4c-1-0.5-1.7-1.5-1.8-2.6l-5.2-53.6l-13.1,13.8c-1.2,1.3-3.3,1.4-4.6,0.2
		c-0.1,0-0.1-0.1-0.2-0.2l-25.3-26.7l-6.7,36.2c-0.3,1.8-2,3-3.8,2.6c-0.1,0-0.1,0-0.2,0l-18.5-4.4l24.9,47.8
		c0.8,1.6,0.2,3.6-1.4,4.4c-1,0.5-2.2,0.5-3.1-0.1l-26.9-15.8l-1.5,13.4c-0.2,1.5-1.4,2.7-3,2.9L91.6,120l17.1,24.9
		c0.9,1.4,0.7,3.2-0.5,4.3l-8.8,7.8l56.3,23.3c1.3,0.5,2.1,1.8,2,3.2l-1,17.1l39.2-19.6c2.4-1.2,5.2-0.2,6.4,2.2
		c0.2,0.3,0.3,0.6,0.4,1l10.2,42.2l8.7-2.6l-14.5-41c-0.9-2.5,0.5-5.2,2.9-6.1c0.3-0.1,0.7-0.2,1-0.2l43.6-5l-10.2-13.8
		C243.6,156.7,243.5,155.2,244.3,154z"/>
	<path class="st1" d="M212.4,227.3l-10.3-43c-0.1-0.3-0.2-0.6-0.3-0.8c-0.5-1-1.3-1.7-2.4-2.1c-1-0.4-2.1-0.3-3.1,0.2L156,201.8
		l1.1-18.3c0.1-1.1-0.6-2.1-1.6-2.6l-57.3-23.7l9.6-8.5c1-0.9,1.1-2.3,0.4-3.4l-17.8-25.9l29-2.3c1.2-0.1,2.2-1.1,2.3-2.3l1.7-14.5
		l27.8,16.4c0.8,0.4,1.7,0.5,2.5,0.1c0.6-0.3,1.1-0.9,1.3-1.5c0.2-0.7,0.1-1.4-0.2-2l-25.6-49.1l20.1,4.8c0.7,0.1,1.4,0,1.9-0.4
		c0.6-0.4,0.9-1,1.1-1.7l6.9-37.5l26.4,27.8c1,1,2.7,0.9,3.6-0.1l14.1-14.9l5.4,55.1c0.1,0.9,0.6,1.6,1.4,2c0.6,0.3,1.3,0.4,2,0.2
		c0.7-0.2,1.2-0.7,1.5-1.3l14.4-28.9l9.3,11.2c0.8,0.9,2.1,1.2,3.2,0.6l25.5-13.9l-0.8,31.4c0,1.3,0.9,2.4,2.2,2.6l12.7,1.9
		l-35.1,51.1c-0.6,0.9-0.6,2.1,0.1,3l10.9,14.7l-44.8,5.1c-0.3,0-0.6,0.1-0.9,0.2c-2.1,0.7-3.3,3.1-2.5,5.2l14.8,41.6L212.4,227.3z
		 M198.1,179.9c0.6,0,1.2,0.1,1.8,0.3c1.4,0.5,2.5,1.5,3.1,2.8c0.2,0.3,0.3,0.7,0.4,1.1l10,41.5l7.3-2.2l-14.3-40.3
		c-1-2.9,0.5-6,3.4-7c0.4-0.1,0.8-0.2,1.2-0.3l42.4-4.9l-9.5-12.8c-1-1.4-1.1-3.2-0.1-4.6h0l33.8-49.3l-10.5-1.6c-2-0.3-3.4-2-3.4-4
		l0.8-29L241,82.4c-1.7,0.9-3.7,0.5-4.9-1l-7.9-9.6l-13.4,27c-1,2-3.4,2.7-5.3,1.7c-1.2-0.6-2-1.8-2.1-3.1l-5.1-52.1l-12,12.7
		c-1.5,1.6-4,1.7-5.6,0.2c-0.1-0.1-0.1-0.1-0.2-0.2L160,32.4l-6.4,34.8c-0.2,1-0.8,1.9-1.6,2.5c-0.9,0.6-1.9,0.8-3,0.7
		c-0.1,0-0.2,0-0.3-0.1l-17-4.1l24.2,46.4c0.5,0.9,0.6,2,0.3,3c-0.3,1-1,1.8-2,2.3c-1.2,0.6-2.6,0.6-3.8-0.1l-26-15.3l-1.4,12.3
		c-0.2,1.9-1.7,3.3-3.6,3.5l-26.6,2.1l16.5,23.9c1.1,1.6,0.9,3.9-0.6,5.2l-8,7.1l55.2,22.9c1.6,0.7,2.5,2.2,2.4,3.9l-0.9,15.9
		l38.2-19C196.4,180.1,197.3,179.9,198.1,179.9z"/>
</g>
</svg>
