<?xml version="1.0" encoding="utf-8"?>
<!-- Generator: Adobe Illustrator 26.2.1, SVG Export Plug-In . SVG Version: 6.00 Build 0)  -->
<svg version="1.1" id="Layer_1" xmlns="http://www.w3.org/2000/svg" xmlns:xlink="http://www.w3.org/1999/xlink" x="0px" y="0px"
	 viewBox="0 0 280 280" style="enable-background:new 0 0 280 280;" xml:space="preserve">
<style type="text/css">
	.st0{fill:#FFFFFF;}
	.st1{fill:#FF671D;}
</style>
<g>
	<rect y="0" class="st0" width="280" height="280"/>
	<g>
		<g>
			<path class="st1" d="M263.18,156.92c-0.19,0.19-1.73,1.57-3.05,0.28c-0.62-0.63-0.62-1.44-0.21-2.16
				c1.07-2.04,0.77-2.27-0.88-3.93l-28.32-28.28l10.91-10.9l28.29,28.26c1.65,1.65,1.89,1.97,3.92,0.92V64.83l-11.45,11.45
				l-4.56-4.61c5.59-7.17,6.14-16.45,1.93-24.89c-0.62-1.72-1.43-3.49,0-4.9c2.54-2.53,4.66,0.08,4.99,0.4l9.1,9.09V5.65h-46.82
				l9.86,9.89c0.4,0.37,1.81,1.97-0.55,4.32c-1.36,1.36-2.55,0.98-4.11,0.17c-8.47-4.35-16.38-4.2-24.43,1.63l-4.58-4.57
				l11.41-11.44H5.82v208.81l19.05-19.03c0.31-0.31,3.08-2.77,5.36-0.47c1.1,1.09,1.1,2.53,0.41,3.85
				c-1.91,3.65-1.37,4.04,1.58,6.99l41.46,41.45c2.92,2.94,3.31,3.49,6.96,1.6c1.36-0.7,2.76-0.7,3.86,0.4
				c2.29,2.28-0.15,5.07-0.46,5.38l-19.09,19.07h76.26c0.14-0.31,0.3-0.61,0.46-0.98c0.59-1.1-0.71-2.22-1.37-2.86l-23.3-23.35
				c-0.69-0.66-1.79-1.92-2.92-1.37c-1.2,0.58-2.16,1.28-3.29,0.21c-1.16-1.17-0.18-2.41,0.7-3.3l11.4-11.41l33.29,33.3l-9.79,9.76
				h127.43V146.25L263.18,156.92z M113.89,224.77l-22.36,22.34c-0.29,0.3-3.06,2.75-5.36,0.46c-1.1-1.12-1.1-2.52-0.39-3.86
				c1.89-3.63,1.32-4.05-1.6-6.97l-18.91-18.9l-6.95,6.95l-4.59-4.6l6.94-6.95L42.7,195.3c-2.9-2.96-3.3-3.49-6.94-1.6
				c-1.34,0.71-2.77,0.68-3.87-0.4c-2.3-2.29,0.14-5.05,0.47-5.38l22.34-22.31c0.33-0.34,3.08-2.8,5.38-0.48
				c1.12,1.06,1.12,2.51,0.4,3.86c-1.89,3.63-1.33,4.02,1.59,6.97l41.46,41.46c2.93,2.92,3.33,3.49,6.96,1.56
				c1.35-0.68,2.76-0.68,3.89,0.41C116.65,221.7,114.22,224.44,113.89,224.77z M260.23,116.61c-1.23,1.23-2.63,0.32-3.73-0.55
				c-2.75-1.94-6.31-4.25-10.27-3.57l-2.6-2.58l6.42-6.42l10.36,10.35C260.59,114.03,261.58,115.27,260.23,116.61z M228.11,25.88
				c2.45-2.44,4.94,0.78,5.56,1.43l17.08,17.08c0.65,0.64,3.88,3.08,1.44,5.52c-1.67,1.65-3.39,0.87-5.16-0.07
				c-3.71-2.29-8.29-3.89-12.47-1.43l-4.9-4.9c2.44-4.18,0.84-8.78-1.45-12.5C227.27,29.3,226.48,27.53,228.11,25.88z M182.21,47.24
				c-1.34,0.72-2.76,0.72-3.88-0.4c-2.28-2.27,0.17-5.05,0.49-5.36l20.83-20.85l59.21,59.2L238,100.67
				c-0.32,0.31-3.08,2.75-5.36,0.48c-1.13-1.14-1.13-2.56-0.42-3.87c1.89-3.66,1.35-4.05-1.59-6.98l-41.47-41.46
				C186.23,45.9,185.84,45.33,182.21,47.24z M235.47,141.39c-1.35,1.34-2.58,0.37-2.75,0.17l-10.36-10.35l6.38-6.41l2.58,2.59
				c-0.66,3.96,1.65,7.51,3.61,10.28C235.77,138.77,236.7,140.15,235.47,141.39z"/>
			<path class="st1" d="M54.34,266.59l-41.47-41.44c-2.95-2.96-3.34-3.48-6.96-1.59c-0.04,0.02-0.07,0.03-0.09,0.06v50.08h50.04
				c0.02-0.03,0.04-0.09,0.06-0.13C57.82,269.95,57.25,269.54,54.34,266.59z"/>
			<path class="st0" d="M84.5,249.24c-1.1-1.1-2.5-1.1-3.86-0.4c-3.64,1.89-4.04,1.34-6.96-1.6l-41.46-41.45
				c-2.95-2.95-3.48-3.34-1.58-6.99c0.69-1.32,0.69-2.76-0.41-3.85c-2.28-2.29-5.05,0.16-5.36,0.47L5.82,214.46v9.14
				c0.02-0.02,0.06-0.04,0.09-0.06c3.62-1.89,4.01-1.36,6.96,1.59l41.47,41.44c2.91,2.96,3.48,3.36,1.59,6.97
				c-0.02,0.04-0.04,0.09-0.06,0.13h9.09l19.09-19.07C84.35,254.31,86.8,251.52,84.5,249.24z"/>
			<path class="st0" d="M110.48,218.97c-3.63,1.93-4.03,1.36-6.96-1.56l-41.46-41.46c-2.92-2.95-3.48-3.34-1.59-6.97
				c0.72-1.34,0.72-2.79-0.4-3.86c-2.29-2.32-5.05,0.15-5.38,0.48l-22.34,22.31c-0.33,0.33-2.77,3.09-0.47,5.38
				c1.1,1.08,2.53,1.1,3.87,0.4c3.64-1.89,4.05-1.36,6.94,1.6l17.98,17.95l-6.94,6.95l4.59,4.6l6.95-6.95l18.91,18.9
				c2.92,2.92,3.49,3.34,1.6,6.97c-0.71,1.35-0.71,2.74,0.39,3.86c2.29,2.29,5.07-0.15,5.36-0.46l22.36-22.34
				c0.33-0.33,2.76-3.08,0.48-5.39C113.24,218.3,111.83,218.3,110.48,218.97z"/>
			<path class="st0" d="M229.65,43.51l4.9,4.9c4.18-2.46,8.76-0.86,12.47,1.43c1.77,0.94,3.49,1.72,5.16,0.07
				c2.44-2.44-0.79-4.88-1.44-5.52l-17.08-17.08c-0.61-0.65-3.11-3.88-5.56-1.43c-1.63,1.66-0.84,3.43,0.1,5.13
				C230.5,34.72,232.09,39.33,229.65,43.51z"/>
			<path class="st0" d="M207.8,21.65c8.06-5.83,15.96-5.98,24.43-1.63c1.56,0.81,2.75,1.19,4.11-0.17c2.36-2.35,0.95-3.95,0.55-4.32
				l-9.86-9.89h-12.4l-11.41,11.44L207.8,21.65z"/>
			<path class="st0" d="M259.75,41.88c-1.43,1.42-0.62,3.18,0,4.9c4.21,8.44,3.66,17.71-1.93,24.89l4.56,4.61l11.45-11.45V51.37
				l-9.1-9.09C264.41,41.95,262.3,39.35,259.75,41.88z"/>
			<path class="st0" d="M232.23,97.28c-0.72,1.31-0.72,2.73,0.42,3.87c2.28,2.27,5.04-0.17,5.36-0.48l20.85-20.84l-59.21-59.2
				l-20.83,20.85c-0.31,0.31-2.76,3.09-0.49,5.36c1.12,1.12,2.54,1.12,3.88,0.4c3.64-1.91,4.02-1.34,6.96,1.6l41.47,41.46
				C233.58,93.22,234.12,93.61,232.23,97.28z"/>
			<path class="st0" d="M122.91,230.63l-11.4,11.41c-0.88,0.89-1.86,2.13-0.7,3.3c1.13,1.07,2.08,0.38,3.29-0.21
				c1.13-0.55,2.23,0.71,2.92,1.37l23.3,23.35c0.66,0.64,1.95,1.76,1.37,2.86c-0.16,0.37-0.32,0.67-0.46,0.98h5.19l9.79-9.76
				L122.91,230.63z"/>
			<path class="st0" d="M269.92,140.18l-28.29-28.26l-10.91,10.9l28.32,28.28c1.65,1.66,1.95,1.9,0.88,3.93
				c-0.4,0.72-0.4,1.53,0.21,2.16c1.31,1.3,2.85-0.09,3.05-0.28l10.65-10.67v-5.15C271.82,142.15,271.57,141.83,269.92,140.18z"/>
			<path class="st0" d="M243.63,109.92l2.6,2.58c3.96-0.68,7.52,1.63,10.27,3.57c1.1,0.86,2.5,1.78,3.73,0.55
				c1.35-1.34,0.36-2.58,0.18-2.76l-10.36-10.35L243.63,109.92z"/>
			<path class="st0" d="M231.32,127.39l-2.58-2.59l-6.38,6.41l10.36,10.35c0.17,0.2,1.41,1.17,2.75-0.17
				c1.23-1.25,0.29-2.62-0.55-3.72C232.97,134.9,230.65,131.36,231.32,127.39z"/>
		</g>
		<path class="st0" d="M252.59,260.58c0-4.33,3.51-7.51,7.64-7.51c4.12,0,7.62,3.18,7.62,7.51c0,4.37-3.5,7.56-7.62,7.56
			C256.1,268.14,252.59,264.95,252.59,260.58z M260.23,266.88c3.42,0,6.11-2.64,6.11-6.3c0-3.58-2.7-6.24-6.11-6.24
			c-3.45,0-6.13,2.67-6.13,6.24C254.1,264.24,256.78,266.88,260.23,266.88z M258.66,264.95h-1.33v-8.7h3.29
			c2.07,0,3.08,0.75,3.08,2.47c0,1.56-0.99,2.22-2.24,2.39l2.46,3.84h-1.49l-2.29-3.76h-1.5V264.95z M260.21,260.07
			c1.12,0,2.12-0.07,2.12-1.41c0-1.09-0.96-1.26-1.91-1.26h-1.77v2.67H260.21z"/>
		<path class="st0" d="M86.52,140.56c-2.36,5.03-0.31,7.73,1.7,9.69l40.96,41.02c1.97,1.94,4.68,4.04,9.72,1.67l4.6,4.57
			c-18.24,15.26-39.57,9.55-55.32-6.2c-15.75-15.74-21.48-37.11-6.23-55.35L86.52,140.56z M142.47,189.39
			c2.36-5.05,0.32-7.75-1.68-9.73l-40.98-41c-1.97-1.99-4.68-4.05-9.72-1.66l-4.59-4.56c18.22-15.25,39.6-9.54,55.33,6.21
			c15.74,15.75,21.46,37.09,6.21,55.31L142.47,189.39z"/>
		<path class="st0" d="M229.73,104.05c-1.12-1.12-2.54-1.14-3.9-0.43c-3.61,1.91-4.01,1.34-6.95-1.58L177.43,60.6
			c-2.95-2.93-3.5-3.32-1.6-6.98c0.7-1.34,0.7-2.76-0.4-3.87c-2.29-2.3-5.06,0.16-5.37,0.5l-20.84,20.83l17.02,31.57l-0.17,0.13
			l-32.72-15.82l-20.05,20.03c-0.96,0.97-3.33,3.32-0.88,5.79c1.91,1.88,4.19-0.09,5.21-0.97c1.44-1.27,2.7-0.63,4.6-0.15
			c1.66,0.41,3.22,1.22,4.82,1.98l65.49,32.49l2.27-2.29l-32.05-59.2l36.76,36.72c2.95,2.94,3.5,3.33,1.59,6.97
			c-0.71,1.36-0.69,2.78,0.41,3.9c2.29,2.27,5.06-0.15,5.36-0.49l22.36-22.35C229.57,109.07,232.01,106.34,229.73,104.05z"/>
		<path class="st0" d="M167.87,145.78l-13.59-13.6l-17.48-8.62l-0.18,0.14l26.66,26.65c8.65,11.19,0.52,13.14,3.92,16.54
			c2.44,2.44,5.52-0.93,6.4-1.79l8.98-9.03c0.86-0.84,4.26-3.95,1.8-6.36C180.98,146.28,179.03,154.41,167.87,145.78z"/>
		<path class="st0" d="M124.91,228.63c7.48-7.65,19.04-8.72,31.06,2.23c10.94,9.98,9.61,23.68,2.22,31.05l-2.58-2.57
			c2.37-3.08-0.04-5.76-1.73-7.43l-18.95-18.94c-1.69-1.69-4.36-4.09-7.42-1.73L124.91,228.63z"/>
		<path class="st0" d="M141.49,212.06l11.76-11.75l33.29,33.3l-11.76,11.74c-0.17,0.16-1.72,1.55-3.02,0.25
			c-0.62-0.61-0.62-1.42-0.23-2.17c1.1-2.06,0.78-2.3-0.87-3.93l-23.32-23.31c-1.62-1.66-1.86-1.94-3.91-0.9
			c-0.76,0.42-1.56,0.42-2.17-0.22C139.94,213.78,141.31,212.24,141.49,212.06z M155.24,198.31l9.92-9.93l9.02,9.06
			c0.24,0.17,1.04,1.1-0.3,2.43c-0.76,0.76-1.41,0.54-2.3,0.1c-4.76-2.46-9.21-2.39-13.76,0.92L155.24,198.31z M185.94,229
			c3.17-4.05,3.47-9.25,1.1-14.04c-0.34-0.95-0.79-1.91,0-2.7c1.42-1.45,2.62,0.04,2.81,0.2l8.9,8.89l-10.23,10.24L185.94,229z
			 M170.09,213.18c1.38-2.37,0.49-4.96-0.79-7.05c-0.54-0.98-0.99-1.95-0.06-2.9c1.39-1.36,2.77,0.46,3.11,0.81l9.61,9.62
			c0.36,0.35,2.2,1.71,0.8,3.12c-0.93,0.93-1.89,0.5-2.88-0.06c-2.09-1.27-4.66-2.19-7.02-0.78L170.09,213.18z"/>
		<path class="st0" d="M182.33,171.22c4.25-4.24,7.16-6.28,10.46-7.16c5.27-1.34,9.49,0.31,13.23,4.02
			c3.71,3.73,5.36,7.99,4.03,13.24c-0.88,3.31-2.93,6.22-7.17,10.46l-2.58-2.61c2.16-3.08,0.45-5.05-1.71-7.26l-6.73-6.69
			c-2-2-4.22-3.45-6.92-1.42L182.33,171.22z M174.41,189.1c-1.64-1.66-1.86-1.97-3.93-0.88c-0.76,0.4-1.55,0.38-2.17-0.24
			c-1.29-1.27,0.11-2.84,0.28-3.01l11.75-11.75l28.29,28.32c1.63,1.6,1.86,1.95,3.92,0.87c0.75-0.39,1.55-0.42,2.17,0.23
			c1.3,1.27-0.07,2.85-0.27,3.02l-12.58,12.59c-0.18,0.18-1.39,1.19-2.67-0.07c-0.64-0.63-0.73-1.34-0.34-2.08
			c1.07-2.06,0.5-2.04-1.13-3.67L174.41,189.1z"/>
		<path class="st0" d="M210.53,146.84c-1.33,2.86-0.17,4.35,0.93,5.47l23.06,23.05c1.11,1.09,2.62,2.26,5.46,0.93l2.58,2.59
			c-10.27,8.55-22.29,5.37-31.14-3.47c-8.85-8.88-12.06-20.87-3.47-31.14L210.53,146.84z M241.99,174.29
			c1.33-2.86,0.18-4.33-0.96-5.45l-23.03-23.05c-1.12-1.1-2.63-2.27-5.48-0.93l-2.58-2.59c10.28-8.57,22.3-5.37,31.12,3.48
			c8.89,8.88,12.08,20.85,3.5,31.14L241.99,174.29z"/>
		<g>
			<path class="st0" d="M37.92,107.14l10.25-10.26l26.59,26.61c1.55,1.55,1.76,1.84,3.67,0.81c0.72-0.36,1.49-0.36,2.07,0.22
				c1.19,1.23-0.08,2.7-0.26,2.87l-11.84,11.84c-0.17,0.18-1.62,1.46-2.85,0.26c-0.57-0.58-0.57-1.34-0.22-2.06
				c1.02-1.93,0.72-2.15-0.83-3.67L37.92,107.14z M65.82,98.72c0.18,0.19,1.09,1.36-0.15,2.61c-1.18,1.19-2.48,0.29-3.52-0.5
				c-2.59-1.83-5.93-4.01-9.64-3.37l-2.45-2.44l6.03-6L65.82,98.72z M30.04,115.04l6.02-6.04l2.42,2.48
				c-0.63,3.71,1.54,7.05,3.38,9.61c0.8,1.07,1.69,2.37,0.5,3.52c-1.23,1.25-2.42,0.35-2.59,0.17L30.04,115.04z"/>
			<path class="st0" d="M96.5,101.74c1.56,1.55,1.77,1.85,3.68,0.87c0.73-0.38,1.49-0.38,2.06,0.2c1.23,1.22-0.08,2.66-0.26,2.84
				l-11.83,11.82c-0.14,0.18-1.63,1.47-2.84,0.25c-0.59-0.57-0.59-1.32-0.2-2.03c1.02-1.94,0.7-2.15-0.84-3.68L64.37,90.12
				c-1.56-1.56-1.77-1.87-3.69-0.88c-0.71,0.38-1.47,0.38-2.05-0.18c-1.23-1.23,0.07-2.68,0.25-2.85l11.84-11.85
				c0.16-0.16,1.63-1.44,2.83-0.24c0.6,0.58,0.6,1.34,0.21,2.07c-0.98,1.91-0.69,2.11,0.84,3.67L96.5,101.74z M92.08,86.2
				l-3.67,3.68l-2.43-2.43l3.66-3.66l-9.48-9.52c-1.53-1.53-1.76-1.83-3.66-0.82c-0.72,0.36-1.47,0.36-2.05-0.21
				c-1.24-1.22,0.07-2.67,0.25-2.84L86.5,58.54c0.18-0.14,1.66-1.43,2.85-0.24c0.58,0.58,0.58,1.34,0.21,2.06
				c-1.01,1.93-0.73,2.13,0.83,3.69l21.9,21.89c1.56,1.55,1.77,1.84,3.69,0.85c0.71-0.39,1.47-0.39,2.05,0.22
				c1.22,1.19-0.08,2.64-0.24,2.83l-11.84,11.83c-0.16,0.17-1.62,1.46-2.84,0.24c-0.59-0.58-0.59-1.32-0.19-2.03
				c1-1.93,0.68-2.15-0.84-3.67L92.08,86.2z"/>
			<path class="st0" d="M90.46,54.63l11.05-11.04l31.26,31.29L121.74,85.9c-0.17,0.18-1.64,1.47-2.84,0.26
				c-0.59-0.59-0.59-1.36-0.21-2.06c1.01-1.93,0.72-2.15-0.84-3.65l-21.9-21.95c-1.55-1.54-1.77-1.84-3.69-0.82
				c-0.72,0.38-1.46,0.38-2.05-0.19C89.01,56.25,90.29,54.78,90.46,54.63z M103.38,41.7l9.31-9.34l8.49,8.5
				c0.22,0.2,0.97,1.06-0.29,2.31c-0.7,0.72-1.33,0.5-2.16,0.09c-4.47-2.31-8.66-2.24-12.92,0.87L103.38,41.7z M132.22,70.55
				c2.99-3.79,3.29-8.71,1.05-13.18c-0.32-0.92-0.74-1.81,0-2.59c1.34-1.33,2.49,0.06,2.64,0.19l8.36,8.38l-9.61,9.62L132.22,70.55z
				 M117.35,55.66c1.3-2.21,0.47-4.64-0.75-6.59c-0.5-0.95-0.93-1.86-0.05-2.75c1.3-1.25,2.6,0.44,2.94,0.77l9.02,9.03
				c0.32,0.32,2.05,1.63,0.76,2.95c-0.88,0.86-1.8,0.44-2.72-0.07c-1.98-1.21-4.39-2.05-6.6-0.74L117.35,55.66z"/>
		</g>
	</g>
</g>
</svg>
