<?xml version="1.0" encoding="utf-8"?>
<!-- Generator: Adobe Illustrator 26.2.1, SVG Export Plug-In . SVG Version: 6.00 Build 0)  -->
<svg version="1.1" id="Layer_1" xmlns="http://www.w3.org/2000/svg" xmlns:xlink="http://www.w3.org/1999/xlink" x="0px" y="0px"
	 viewBox="0 0 280 280" style="enable-background:new 0 0 280 280;" xml:space="preserve">
<style type="text/css">
	.st0{fill:#FFFFFF;}
	.st1{fill:#FF671D;}
</style>
<g>
	<rect y="0" class="st0" width="280" height="280"/>
	<rect x="6.52" y="6.12" class="st0" width="267.6" height="267.77"/>
	<g>
		<path class="st0" d="M140.78,139.39"/>
		<path class="st1" d="M6.56,171.62L6.51,273.86l86.23,0.03c0.11-0.21,0.19-0.39,0.29-0.63c0.81-1.54-0.98-3.08-1.89-4l-32.08-32.08
			c-0.93-0.93-2.46-2.71-3.98-1.91c-1.66,0.8-3,1.8-4.55,0.27c-1.58-1.6-0.24-3.32,1-4.52l15.68-15.7l45.81,45.83l-12.49,12.72
			H274.1l0.02-173.81l-13.8,13.77c-0.25,0.24-2.39,2.14-4.16,0.38c-0.86-0.88-0.86-1.98-0.3-3.01c1.47-2.81,1.03-3.12-1.22-5.37
			l-38.98-38.97l15.03-15.02l38.95,38.96c1.93,1.93,2.64,2.6,4.49,1.83L274.1,6.17l-98.78-0.05l6.99,7c0.3,0.3,1.39,1.51-0.41,3.31
			c-1.04,1.02-1.94,0.72-3.15,0.13c-6.44-3.33-12.48-3.21-18.63,1.24l-3.5-3.5l8.02-8.03L6.51,6.25l0.06,158.15l14-14.04
			c0.24-0.25,2.36-2.12,4.11-0.36c0.84,0.84,0.84,1.93,0.29,2.94c-1.45,2.79-1.03,3.09,1.22,5.33l31.62,31.6
			c2.23,2.25,2.54,2.67,5.31,1.23c1.02-0.56,2.11-0.56,2.95,0.29c1.75,1.77-0.12,3.88-0.34,4.1l-17.06,17.08
			c-0.24,0.21-2.35,2.1-4.09,0.35c-0.85-0.88-0.85-1.95-0.3-2.97c1.44-2.76,1.02-3.08-1.21-5.3l-31.64-31.62
			C9.3,170.88,8.98,170.42,6.56,171.62z"/>
		<path class="st0" d="M252.88,260.76c-0.01-4.32,3.5-7.51,7.64-7.51c4.11,0,7.61,3.19,7.61,7.51c0,4.36-3.5,7.55-7.61,7.55
			C256.38,268.31,252.87,265.12,252.88,260.76z M260.52,267.05c3.4,0,6.1-2.68,6.1-6.29c0-3.56-2.69-6.25-6.1-6.25
			c-3.44,0-6.12,2.68-6.12,6.25C254.39,264.37,257.08,267.05,260.52,267.05z M258.92,265.12h-1.3v-8.68h3.3
			c2.05,0,3.07,0.77,3.07,2.48c0,1.55-0.98,2.22-2.26,2.4l2.48,3.8h-1.47l-2.29-3.75h-1.53V265.12z M260.5,260.25
			c1.1,0,2.11-0.1,2.11-1.43c0-1.06-0.98-1.28-1.9-1.28h-1.8v2.71H260.5z"/>
		<path class="st0" d="M51.39,167.44l-5.31,5.31l-3.48-3.49l5.29-5.29l-13.7-13.72c-2.23-2.23-2.53-2.65-5.31-1.21
			c-1.02,0.56-2.12,0.54-2.95-0.3c-1.74-1.74,0.12-3.84,0.37-4.11l17.03-17.05c0.25-0.21,2.34-2.1,4.1-0.35
			c0.84,0.87,0.84,1.95,0.3,2.96c-1.44,2.77-1.02,3.05,1.21,5.3l31.62,31.62c2.23,2.25,2.53,2.69,5.32,1.22
			c1.03-0.54,2.1-0.54,2.96,0.31c1.75,1.75-0.12,3.87-0.35,4.1l-17.06,17.04c-0.23,0.25-2.34,2.09-4.09,0.36
			c-0.85-0.85-0.85-1.92-0.32-2.94c1.45-2.77,1.03-3.08-1.2-5.33L51.39,167.44z"/>
		<path class="st0" d="M67.62,108.51c-1.82,3.85-0.25,5.9,1.27,7.4l31.26,31.27c1.51,1.53,3.57,3.09,7.42,1.28l3.5,3.5
			c-13.92,11.62-30.2,7.28-42.21-4.74c-12.01-12.03-16.36-28.3-4.74-42.23L67.62,108.51z M110.29,145.76
			c1.81-3.85,0.23-5.92-1.27-7.42l-31.28-31.27c-1.5-1.52-3.55-3.09-7.4-1.28l-3.5-3.49c13.92-11.62,30.2-7.26,42.21,4.75
			c12.02,12,16.37,28.3,4.75,42.22L110.29,145.76z"/>
		<g>
			<path class="st0" d="M129.66,112.48l-10.37-10.39l-13.34-6.58l-0.12,0.12l20.34,20.35c6.57,8.51,0.37,10.01,2.97,12.61
				c1.87,1.85,4.23-0.73,4.89-1.41l6.85-6.84c0.67-0.68,3.26-3.01,1.38-4.88C139.66,112.87,138.17,119.08,129.66,112.48z"/>
			<path class="st0" d="M176.84,80.64c-0.84-0.84-1.92-0.84-2.95-0.3c-2.77,1.45-3.07,1.02-5.3-1.23L136.94,47.5
				c-2.23-2.22-2.64-2.52-1.21-5.31c0.53-1.02,0.53-2.11-0.3-2.95c-1.74-1.74-3.85,0.11-4.09,0.36l-15.9,15.9l12.98,24.06
				l-0.12,0.12l-24.96-12.09l-15.3,15.32c-0.73,0.7-2.54,2.51-0.66,4.38c1.45,1.45,3.19-0.04,3.98-0.72
				c1.09-0.96,2.05-0.47,3.5-0.12c1.27,0.31,2.47,0.91,3.67,1.53l49.95,24.77l1.74-1.76l-24.42-45.14l28.03,28.02
				c2.23,2.24,2.65,2.55,1.2,5.3c-0.54,1.03-0.53,2.12,0.31,2.97c1.75,1.74,3.85-0.12,4.1-0.36l17.05-17.05
				C176.74,84.5,178.59,82.4,176.84,80.64z"/>
		</g>
		<path class="st0" d="M176.78,34.46c1.87-3.18,0.67-6.69-1.1-9.53c-0.71-1.31-1.33-2.64-0.06-3.92c1.87-1.85,3.75,0.61,4.23,1.08
			l13.02,13.06c0.49,0.47,2.96,2.35,1.1,4.22c-1.26,1.26-2.58,0.65-3.92-0.07c-2.84-1.74-6.33-2.95-9.53-1.09L176.78,34.46z"/>
		<path class="st0" d="M138.01,32.92l15.89-15.9l45.17,45.13l-15.91,15.91c-0.25,0.24-2.36,2.11-4.1,0.36
			c-0.84-0.84-0.84-1.92-0.3-2.94c1.45-2.78,1.02-3.08-1.22-5.34l-31.62-31.62c-2.24-2.23-2.53-2.66-5.3-1.21
			c-1.03,0.55-2.13,0.55-2.96-0.3C135.91,35.26,137.78,33.15,138.01,32.92z"/>
		<path class="st0" d="M198.27,55.95c4.28-5.5,4.69-12.54,1.48-18.99c-0.49-1.34-1.08-2.67,0-3.74c1.93-1.93,3.55,0.06,3.79,0.3
			l12.08,12.07l-13.87,13.84L198.27,55.95z"/>
		<path class="st0" d="M69.94,212.57c10.28-10.56,26.21-12.01,42.75,3.06c15.08,13.72,13.22,32.6,3.06,42.73l-3.55-3.53
			c3.25-4.25-0.06-7.9-2.39-10.23l-26.1-26.1c-2.33-2.32-6-5.62-10.22-2.38L69.94,212.57z"/>
		<path class="st0" d="M92.79,189.7l16.16-16.15l45.82,45.81l-16.17,16.17c-0.25,0.25-2.39,2.15-4.17,0.37
			c-0.85-0.85-0.85-1.96-0.31-2.99c1.48-2.83,1.05-3.13-1.22-5.41l-32.11-32.08c-2.25-2.26-2.57-2.71-5.39-1.24
			c-1.04,0.55-2.14,0.55-3-0.31C90.65,192.12,92.54,189.94,92.79,189.7z M111.71,170.78l13.66-13.64l12.42,12.42
			c0.32,0.3,1.43,1.54-0.42,3.4c-1.04,1.02-1.95,0.72-3.18,0.09c-6.56-3.35-12.68-3.23-18.93,1.31L111.71,170.78z M153.98,213.07
			c4.35-5.59,4.79-12.76,1.53-19.31c-0.48-1.35-1.1-2.71,0-3.79c1.95-1.99,3.62,0.06,3.85,0.27l12.27,12.29l-14.09,14.08
			L153.98,213.07z M132.17,191.25c1.91-3.26,0.68-6.8-1.11-9.66c-0.74-1.36-1.35-2.71-0.06-4.01c1.91-1.88,3.81,0.63,4.3,1.11
			l13.22,13.25c0.48,0.47,3,2.38,1.1,4.28c-1.28,1.27-2.64,0.67-3.98-0.07c-2.87-1.75-6.42-2.98-9.68-1.07L132.17,191.25z"/>
		<path class="st0" d="M149.01,133.48c5.82-5.8,9.86-8.62,14.41-9.85c7.23-1.85,13.04,0.41,18.2,5.55
			c5.14,5.14,7.4,10.97,5.58,18.21c-1.25,4.54-4.06,8.58-9.89,14.4l-3.55-3.55c2.95-4.29,0.63-7-2.37-10l-9.26-9.24
			c-2.74-2.75-5.82-4.72-9.56-1.94L149.01,133.48z M138.1,158.13c-2.27-2.27-2.56-2.7-5.39-1.23c-1.03,0.55-2.14,0.55-2.99-0.3
			c-1.77-1.77,0.13-3.91,0.36-4.18l16.18-16.15l38.96,38.96c2.27,2.26,2.57,2.7,5.39,1.23c1.05-0.55,2.15-0.55,3,0.3
			c1.78,1.79-0.12,3.93-0.36,4.18l-17.33,17.33c-0.24,0.24-1.91,1.66-3.68-0.1c-0.87-0.87-1.01-1.83-0.47-2.87
			c1.47-2.82,0.71-2.79-1.56-5.06L138.1,158.13z"/>
		<path class="st0" d="M204.1,78.42l8.81-8.82l3.55,3.55c-0.92,5.46,2.27,10.35,4.95,14.15c1.16,1.54,2.45,3.45,0.75,5.13
			c-1.84,1.86-3.55,0.51-3.81,0.27L204.1,78.42z"/>
		<path class="st0" d="M256.53,54.53c0.24,0.24,1.58,1.95-0.26,3.79c-1.71,1.71-3.6,0.44-5.13-0.72c-3.79-2.7-8.7-5.89-14.15-4.97
			l-3.56-3.54l8.84-8.83L256.53,54.53z"/>
		<path class="st0" d="M187.84,99.95c-1.85,3.91-0.26,6.01,1.27,7.52l31.75,31.73c1.53,1.56,3.62,3.13,7.53,1.27l3.57,3.58
			c-14.16,11.81-30.7,7.42-42.88-4.78c-12.2-12.2-16.61-28.74-4.79-42.89L187.84,99.95z M231.14,137.73c1.85-3.91,0.25-6-1.29-7.53
			l-31.72-31.72c-1.54-1.55-3.61-3.15-7.54-1.31l-3.54-3.54c14.15-11.85,30.69-7.43,42.87,4.76c12.18,12.2,16.61,28.71,4.79,42.89
			L231.14,137.73z"/>
	</g>
</g>
</svg>
