<?xml version="1.0" encoding="UTF-8"?>
<svg id="Layer_1" data-name="Layer 1" xmlns="http://www.w3.org/2000/svg" viewBox="0 0 280 280">
  <defs>
    <style>
      .cls-1 {
        fill: #fff;
        stroke-width: 0px;
      }
    </style>
  </defs>
  <path class="cls-1" d="M279.75,125.43c-.7-10.88-3-21.68-7.3-31.71-.42-.99-.87-1.98-1.33-2.95-.25-.52-.53-.99-.78-1.5h0c-5.69-11.4-13.42-20.46-21.93-27.62-.28-.23-.56-.44-.84-.67-1.15-.94-2.3-1.88-3.47-2.75-1.39-1.04-2.79-2.03-4.2-2.98-.08-.06-.17-.12-.25-.18-6.13-4.1-12.43-7.38-18.46-10-6.03-2.62-11.81-4.58-16.9-6.04-10.19-2.92-17.65-3.83-19.01-3.99l-.85-3.22c-.99-.44-2.04-.76-3.1-.99-1.06-.23-2.15-.36-3.21-.43-.58-.04-1.15-.05-1.72-.05-.46,0-.92,0-1.36.03-.98.04-1.9.12-2.71.23-.54.06-1.03.14-1.46.21-.44.07-.81.14-1.12.21-.31.05-.56.11-.73.15-.17.04-.27.07-.29.07l-.86,2.6-.29.86s-.15-.02-.38-.04c-.22-.02-.57-.04-1.04-.04-.47,0-1.06,0-1.8.05-.73.04-1.6.12-2.61.25-1.88.23-4.27.63-7.19,1.31-2.93.68-6.41,1.63-10.5,2.97-2.04.67-4.24,1.44-6.6,2.32-2.35.88-4.87,1.86-7.55,2.98-2.68,1.11-5.52,2.35-8.54,3.72-2.95,1.34-6.07,2.82-9.35,4.43h0s-.03.02-.05.02c0,0,0,0,0,0-.07.03-.14.07-.21.11-2.21,1.12-4.44,2.43-6.23,3.53h0s0,0,0,0c-.35.22-.68.42-.99.62-.02.01-.03.02-.05.03-1.53.96-2.55,1.66-2.55,1.66h0s-3.17,2.11-3.17,2.11c-2.76,1.84-5.26,3.96-7.55,6.31-2.28,2.35-4.34,4.93-6.19,7.68-1.14,1.7-2.21,3.47-3.2,5.29-.99,1.82-1.91,3.7-2.76,5.62-1.45,3.27-2.71,6.67-3.79,10.13-1.64,5.24-2.88,10.63-3.82,15.93-.34,1.94-.65,3.87-.91,5.77-.18,1.3-.35,2.6-.49,3.88-.21,1.85-.39,3.67-.54,5.46h0c-.03.34-.05.66-.07,1-.1,1.31-.2,2.6-.27,3.86-.03.57-.06,1.13-.09,1.68-.05,1.06-.1,2.1-.14,3.12-.02.48-.04.97-.05,1.45-.04,1.43-.08,2.84-.09,4.16v.54c-.01,1.02,0,2,0,2.96.02,3.05.1,5.7.19,7.85.05,1.05.1,2.04.16,2.93,0,.11.01.23.02.34.06.89.12,1.65.17,2.23,0,.07.01.14.02.21.03.36.06.64.07.78h0s-60.2,38.82-60.2,38.82c0,0,0,0,0,0h0s0,0,0,0l-8.33,5.59s-.14.22-.27.49c-.05.1-.1.22-.14.34-.16.38-.33.88-.43,1.43-.02.11-.03.23-.05.36-.01.13-.02.26-.03.39v.29c.02.5.11,1.01.34,1.51.01.03.03.06.04.09.2.41.47.82.86,1.2.28.27.62.53,1.03.77.11.06.26.15.45.24.62.31,1.68.8,3.11,1.43,1.42.63,3.2,1.4,5.27,2.27,1.27.54,2.64,1.12,4.11,1.74,4.44,1.87,9.67,4.05,15.16,6.34,3.08,1.29,6.25,2.6,9.41,3.92,1.59.66,3.17,1.33,4.73,1.98,7.09,2.96,13.86,5.82,19.19,8.13,1.02.44,1.99.86,2.89,1.26,1.83.8,3.41,1.51,4.68,2.1,2.12.98,3.37,1.64,3.45,1.85.01.04.1.11.25.2.14.08.33.18.58.29.74.34,1.96.82,3.6,1.36.62.21,1.3.42,2.04.64,2.57.77,5.85,1.62,9.71,2.37,1.78.35,3.69.69,5.7.98,1.21.18,2.46.34,3.76.5,2.54.3,5.23.53,8.03.68,2.64.14,5.39.2,8.23.17,2.06-.03,4.18-.11,6.33-.25,2.32-.15,4.69-.36,7.11-.65,3.77-.47,7.62-1.12,11.56-2.01.06-.02.13-.03.2-.05.05-.01.1-.02.15-.03,2.46-.57,4.95-1.22,7.45-1.97,1.52-.46,3.06-.96,4.6-1.49,1.82-.64,3.65-1.33,5.5-2.07,2.3-.94,4.62-1.97,6.94-3.1,3.76-1.84,7.52-3.93,11.27-6.32.42-.26.83-.53,1.25-.8l7.84-5.13c-.63.41-1.26.81-1.9,1.2-.95.59-1.9,1.12-2.85,1.67,1.8-1.04,3.61-2.12,5.4-3.29,8.33-5.44,16.57-12.33,24.46-21,7.91-8.67,15.48-19.11,22.46-31.65-.01.01-.03.03-.04.04,0,0,.02-.02.02-.03,0,0,0,0,0,0,0,0,0,0,0,0l-.57.37c-1.05.56-3.29,1.57-6.14,3.69-.13.1-.27.22-.41.32-.35.27-.7.53-1.06.84-.51.42-1.03.88-1.56,1.37-1.91,1.78-4.18,4.03-6.73,6.48-4.25,4.08-9.28,8.72-14.75,12.66-8.75,6.3-17.58,12.86-29.06,18.12-5.74,2.63-11.77,4.97-18.03,6.86-3.13.94-6.31,1.77-9.55,2.47s-6.52,1.26-9.84,1.67c-.54.07-1.09.13-1.64.19-.54.05-1.09.11-1.64.16-.55.05-1.09.09-1.64.13-.55.04-1.1.07-1.65.11h0c-1.99.11-3.98.16-5.98.15-2.01-.02-4.03-.11-6.04-.26-2.02-.16-4.05-.38-6.09-.68-2.02-.31-4.05-.68-6.1-1.13-.28-.05-1.21-.21-2.67-.48-1.46-.27-3.46-.66-5.89-1.17-2.43-.51-5.31-1.15-8.51-1.92-3.2-.77-6.74-1.67-10.51-2.71-3.77-1.05-7.78-2.23-11.92-3.57-4.14-1.33-8.41-2.82-12.71-4.46-6.45-2.46-12.97-5.28-19.21-8.48-2.08-1.07-4.13-2.18-6.14-3.33-.17-.02-1.06-.08-1.35-.8-.14-.34-.15-.84.1-1.53.28-.79.89-1.83,2.03-3.25.27-.33.57-.69.9-1.06s.69-.77,1.09-1.19c.8-.84,1.73-1.76,2.82-2.79,2.19-2.05,5.01-4.49,8.63-7.41,7.08-5.72,13.22-12.65,27.47-22.53,0,0,0,0,0,0h0c3.17,2.21,6.48,4.24,9.89,6.08,7.59,4.09,15.7,7.3,23.91,9.8.73.22,1.45.44,2.18.65.77.22,1.53.43,2.31.65,8.65,2.36,17.35,3.98,25.65,5.08,3.22.43,6.38.77,9.46,1.05,1.69.15,3.36.29,5,.41,1.64.12,3.24.21,4.81.3,4.56.24,8.83.34,12.7.35h2.03c1.91-.01,3.7-.04,5.37-.08h.15c3.09-.08,5.74-.21,7.87-.33,1.06-.06,2-.12,2.79-.18s1.44-.11,1.94-.15c.49-.04.82-.07,1-.09l2.87-1.89,3.98-2.63c.64-.05,1.1-.1,1.31-.11-.41.03-.83.05-1.25.07l.02-.02,1.57-1.03c-.07,0-.17.02-.29.03-.9.08-3.14.28-6.44.46-1.98.11-4.34.21-7.03.27-.03,0-.06,0-.09,0-.43.01-.86.02-1.31.03-5.79-.45-11.87-1.3-18.03-2.42-.12-.02-.23-.03-.35-.06-11.86-2.16-24-5.32-34.88-8.63-2.72-.83-5.36-1.66-7.9-2.49-7.61-2.49-14.3-4.94-19.41-6.99-6.81-2.73-10.81-4.75-10.46-5.2.04-.05.05-.2.06-.41,0-.03,0-.05,0-.08,0-.22,0-.52-.02-.88,0-.05,0-.1,0-.15-.05-1-.16-2.5-.29-4.36,0-.02,0-.03,0-.04-.19-2.82-.42-6.48-.51-10.84-.1-4.73-.03-10.23.41-16.13h0c0-.05,0-.1,0-.15h0c.15-2.06.37-4.17.62-6.32h0s0,0,0,0c.23-1.96.52-3.94.85-5.95.06-.37.12-.73.18-1.1.36-2.09.76-4.18,1.25-6.29,3.03-13.22,8.63-26.71,18.68-37.53,1.29-1.39,2.69-2.72,4.14-4.01.62-.56,1.28-1.1,1.93-1.64.88-.72,1.78-1.42,2.71-2.1.57-.42,1.07-.88,1.66-1.29,2.36-1.18,4.84-2.25,7.48-3.2.03,0,.05-.02.08-.03.78-.28,1.56-.55,2.36-.81,1.62-.53,3.29-1.01,5.02-1.45.56-.14,1.13-.29,1.71-.42,3.2-.75,6.58-1.35,10.14-1.79.96-.12,1.92-.22,2.9-.32.54-.05,1.08-.1,1.62-.15,1.34-.1,2.68-.19,4.05-.25.22-.01.44-.02.67-.03,1.6-.07,3.24-.1,4.91-.1,1.67,0,3.37.02,5.11.09,26.27.92,45.1,8.8,58.57,20.19,1.37,1.16,2.66,2.36,3.91,3.58.36.35.71.69,1.05,1.05,1.05,1.07,2.07,2.15,3.05,3.26.39.45.77.9,1.15,1.35.76.91,1.51,1.83,2.23,2.77.5.65.98,1.3,1.46,1.96.42.59.83,1.19,1.24,1.78,1,1.46,1.94,2.94,2.84,4.44.16.27.33.54.49.81.59,1.01,1.16,2.03,1.71,3.06,0,0,0,0,0,0,2.38,4.46,4.4,9.05,6.06,13.69.42,1.17.81,2.34,1.19,3.51.17.55.35,1.09.51,1.64.5,1.64.95,3.28,1.38,4.92h0c1.99,7.63,3.19,15.13,3.88,22.08,0,0,0,0,0,0,.46,4.65.71,9.06.8,13.06.25,11.68-.74,20-.91,21.51h0c.31-.14.61-.27.91-.4.21-.09.41-.19.62-.28.31-.14.62-.29.93-.43.76-.36,1.47-.72,2.13-1.07.66-.34,1.27-.68,1.83-1.01.56-.32,1.07-.64,1.54-.95l1.9-1.25c3.09-1.43,5.4-2.73,7.04-3.88,2.07-1.44,3.82-3.14,4-5.57.02-.28.04-.55.06-.83.18-2.35.39-4.78.6-7.19,0,0,0,0,0,0,.05-.58.1-1.15.15-1.73.56-6.45.69-12.93.27-19.39Z"/>
</svg>