<?xml version="1.0" encoding="utf-8"?>
<!-- Generator: Adobe Illustrator 26.0.3, SVG Export Plug-In . SVG Version: 6.00 Build 0)  -->
<svg version="1.1" id="Layer_1" xmlns="http://www.w3.org/2000/svg" xmlns:xlink="http://www.w3.org/1999/xlink" x="0px" y="0px"
	 viewBox="0 0 280 280" style="enable-background:new 0 0 280 280;" xml:space="preserve">
<style type="text/css">
	.st0{fill:#FFFFFF;}
</style>
<g>
	<path class="st0" d="M251.7,113.5c9.6,0,18.8,0,28.3,0c0,26.1,0,52.3,0,78.7c-4.5,0-9-0.2-13.5,0.1c-3.3,0.2-5.5-0.9-7.6-3.4
		c-7.9-9.2-16.1-18.1-24.2-27.1c-0.4-0.4-0.8-0.7-1.6-1.4c0,10.8,0,21.2,0,31.7c-9.2,0-18.1,0-27.3,0c0-10.5,0-20.9,0-31.3
		c-5.7,24.7-28.4,35.5-47,32.1c-19.1-3.5-32.7-19.8-32.9-39.3c-0.2-19.2,13.8-36,32.9-39.5c18.3-3.4,41.2,7,46.9,32
		c0-10.4,0-20.7,0-31.3c0.9-0.1,1.6-0.2,2.3-0.2c4.3,0,8.5,0.1,12.8,0c1.5,0,2.5,0.5,3.5,1.6c8.4,9.5,16.9,19,25.4,28.4
		c0.5,0.5,1,1.1,2,2C251.7,135.2,251.7,124.4,251.7,113.5z M165.8,164.6c6.2,0,11.4-5,11.4-11.2c0.1-6-5.1-11.2-11.1-11.3
		c-6.2-0.1-11.3,4.8-11.5,11.1C154.6,159.3,159.7,164.5,165.8,164.6z"/>
	<path class="st0" d="M35.6,114.4c9.7,0,19.1,0,28.9,0c0,10.4,0,20.6,0,30.9c4.3-15,13.2-25.7,28.4-30.1c15.1-4.4,28.4-0.6,39.5,9.7
		c-6.6,7.1-13.1,14-19.5,20.8c-7.5-4.7-13.3-4.3-17.4,0.8c-3.6,4.5-3.3,10.6,0.7,14.7c3.5,3.7,10.2,5.3,16.4,0
		c6.7,6.6,13.5,13.2,20.5,20c-9.5,9.5-20.9,13.7-33.9,11.8c-18.3-2.6-29.4-13.7-34.6-31.4c0,5.1,0,10.1,0,15.2c0,5.1,0,10.2,0,15.4
		c-9.7,0-19.2,0-29,0C35.6,166.4,35.6,140.5,35.6,114.4z"/>
	<path class="st0" d="M28.9,192.3c-9.7,0-19.2,0-28.8,0c0-16.7,0-33.3,0-50.1c9.6,0,19.1,0,28.8,0C28.9,159,28.9,175.6,28.9,192.3z"
		/>
	<path class="st0" d="M35.6,86.5c9.7,0,19.1,0,28.8,0c0,7.1,0,14.1,0,21.3c-9.5,0-19.1,0-28.8,0C35.6,100.8,35.6,93.8,35.6,86.5z"/>
	<path class="st0" d="M0,135.2c0-7,0-13.8,0-20.7c9.6,0,19.2,0,29.1,0c0,3.4,0,6.8,0,10.3c0,3.4,0,6.9,0,10.5
		C19.4,135.2,9.8,135.2,0,135.2z"/>
</g>
</svg>
