<?xml version="1.0" encoding="utf-8"?>
<!-- Generator: Adobe Illustrator 26.2.1, SVG Export Plug-In . SVG Version: 6.00 Build 0)  -->
<svg version="1.1" id="Layer_1" xmlns="http://www.w3.org/2000/svg" xmlns:xlink="http://www.w3.org/1999/xlink" x="0px" y="0px"
	 viewBox="0 0 280 280" style="enable-background:new 0 0 280 280;" xml:space="preserve">
<style type="text/css">
	.st0{fill:#F5333F;}
</style>
<g>
	<path class="st0" d="M79.43,138.27c-0.14-21.4,7.13-42.2,20.59-58.84c-2.98-6.15-6.01-12.02-9.04-17.89c0-0.33-0.33-0.66-0.52-1.04
		c-0.19,0.24-0.36,0.49-0.52,0.76L79.01,82.75c-1.42,2.75-2.79,5.54-4.26,8.28c-0.69,1.95-2.7,3.12-4.73,2.75
		c-1.06-0.17-2.08-0.5-3.03-0.99c-2.79-1.42-5.49-2.93-8.28-4.45l-3.74-2.04c-0.03,0.17-0.03,0.35,0,0.52l1.28,7.29l3.98,21.78
		l3.12,17.51c0.32,1.56,0.32,3.17,0,4.73c-0.13,1.59-1.52,2.78-3.11,2.65c-0.18-0.01-0.36-0.05-0.54-0.09
		c-1.24-0.28-2.35-0.98-3.12-1.99c-5.35-6.25-10.7-12.54-16.09-18.93c-1.33-1.61-2.65-3.17-4.07-4.73v0.66
		c-0.99,3.6-1.99,7.2-2.93,10.75c-0.31,2.2-2.35,3.73-4.55,3.42c-0.18-0.02-0.35-0.06-0.52-0.11l-19.83-4.4l-4.73-1.04
		c-0.01,0.13-0.01,0.25,0,0.38l3.98,15.2c1.23,4.73,2.46,9.47,3.64,14.2c0.84,1.69,0.14,3.73-1.54,4.57
		c-0.13,0.06-0.26,0.12-0.4,0.17l-6.58,3.17L0,163.31l0.62,0.57l34.32,29.16l8.43,7.2c1.96,1.57,2.73,4.2,1.94,6.58
		c-0.52,1.89-1.14,3.83-1.66,5.73l-2.04,6.96l12.12-1.47l15.15-1.85l15.67-1.89h12.5c4.21,0.57,8.38,1.04,12.59,1.51l12.59,1.56
		l4.73,0.52c-27.74-12.5-47.34-43.46-47.34-79.72"/>
	<path class="st0" d="M176.47,89.42c15.95-8.1,34.8-8.1,50.75,0h34.08c-27.84-32.85-77.04-36.91-109.88-9.07
		c-3.27,2.77-6.3,5.81-9.07,9.07H176.47z"/>
	<path class="st0" d="M269.82,101.82H243.6c21.27,23.06,19.82,59-3.23,80.27s-59,19.82-80.27-3.23c-20.07-21.76-20.07-55.28,0-77.04
		h-26.37c-6.6,11.63-10.06,24.78-10.04,38.15c-0.23,43.16,34.58,78.34,77.74,78.56c43.16,0.23,78.34-34.58,78.56-77.74
		C280.07,127.14,276.56,113.7,269.82,101.82"/>
	<path class="st0" d="M127.81,89.42c9.49-13.25,23.16-22.92,38.82-27.46c-22.5-0.31-43.86,9.83-57.85,27.46H127.81z"/>
	<path class="st0" d="M109.82,136.76c0.74-12.24,4.12-24.17,9.89-34.98h-19.36c-5.87,10.82-9.11,22.87-9.47,35.17
		c-0.95,43.55,32.95,81.66,75.5,81.18C136.33,207.81,107.98,173.73,109.82,136.76"/>
</g>
</svg>
