<?xml version="1.0" encoding="utf-8"?>
<!-- Generator: Adobe Illustrator 26.0.3, SVG Export Plug-In . SVG Version: 6.00 Build 0)  -->
<svg version="1.1" id="Layer_1" xmlns="http://www.w3.org/2000/svg" xmlns:xlink="http://www.w3.org/1999/xlink" x="0px" y="0px"
	 viewBox="0 0 280 280" style="enable-background:new 0 0 280 280;" xml:space="preserve">
<style type="text/css">
	.st0{fill:#717372;}
	.st1{fill:#AC1D37;}
</style>
<g>
	<path class="st0" d="M166.7,163.4c0,27.8,0,55.7,0,83.5c0,9.4-3,12.4-12.3,12.4c-10.1,0-20.3,0.1-30.4,0c-7.6,0-11-3.4-11-10.9
		c0-56.2,0-112.5,0-168.7c0-8,4-12,12-12c9.9,0,19.9,0,29.8,0c8.7,0,11.8,3,11.8,11.7C166.7,107.3,166.7,135.3,166.7,163.4z"/>
	<path class="st0" d="M167,32c0,15.1-12.2,27.1-27.4,27c-14.9-0.1-26.9-12.1-26.9-26.9c0-15,12.2-27.4,27.1-27.4
		C154.8,4.7,167,17,167,32z"/>
	<path class="st1" d="M68.4,25.4C82.7,25.3,94.7,37,95,51.4C95.2,65.7,83,78.1,68.5,78c-14.4-0.1-26.2-11.9-26.2-26.3
		C42.3,37.2,54,25.4,68.4,25.4z"/>
	<path class="st1" d="M25.2,128c-12.4,0-22.1-9.6-22.1-21.9C3.1,93.8,12.7,84,25,84c12.2-0.1,22.1,9.7,22.3,21.9
		C47.4,117.8,37.3,128,25.2,128z"/>
	<path class="st1" d="M16.5,179.3C7.3,179.2,0,172,0,162.8c0-9.4,7.5-16.8,16.9-16.6c9.1,0.2,16.4,7.7,16.3,16.7
		C33,172.1,25.6,179.3,16.5,179.3z"/>
	<path class="st1" d="M41.4,207.8c0.1,6.7-5.3,12.1-12,12.1c-6.3-0.1-11.7-5.4-11.8-11.8c-0.1-6.6,5.3-12,12.1-11.9
		C36.3,196.2,41.3,201.2,41.4,207.8z"/>
	<path class="st1" d="M53.6,231.3c4.5-0.1,8.3,3.5,8.4,8c0.1,4.6-3.3,8.2-8,8.3c-4.6,0.1-8.3-3.4-8.4-8
		C45.5,235.1,49.1,231.4,53.6,231.3z"/>
	<circle class="st1" cx="81.3" cy="258.1" r="5.8"/>
	<circle class="st1" cx="107.3" cy="268.3" r="4.5"/>
	<circle class="st1" cx="128.6" cy="271.5" r="3.9"/>
	<circle class="st1" cx="147.5" cy="271.3" r="3.5"/>
	<circle class="st1" cx="163.8" cy="269.5" r="3.1"/>
</g>
</svg>
