<?xml version="1.0" encoding="UTF-8"?>
<svg id="Layer_1" data-name="Layer 1" xmlns="http://www.w3.org/2000/svg" viewBox="0 0 280 218.3">
  <defs>
    <style>
      .cls-1 {
        fill: #fff;
        stroke-width: 0px;
      }
    </style>
  </defs>
  <path class="cls-1" d="m61.55,196.28c72.8-53.33,145.23-106.39,218.14-159.81.17,1.17.35,1.69.31,2.19-2.17,27.63-4.38,55.25-6.49,82.89-.17,2.28-.94,3.63-2.92,4.83-47.68,28.86-95.33,57.77-142.94,86.76-2.42,1.47-4.42,1.5-7.03.73-18.44-5.49-36.93-10.81-55.4-16.2-1.11-.32-2.17-.82-3.67-1.39Z"/>
  <path class="cls-1" d="m11.05,181.78C54.21,120.99,96.96,60.76,140.1,0c19.38,27.06,38.4,53.61,57.7,80.56-4.13,3.08-8.21,6.16-12.33,9.19-45.53,33.39-91.08,66.75-136.58,100.18-2.04,1.5-3.72,1.86-6.22,1.08-10.21-3.16-20.52-6.02-31.61-9.23Z"/>
  <path class="cls-1" d="m65.35,83.34c-18.36,25.86-36.54,51.47-54.72,77.07-.28-.1-.56-.2-.84-.3C6.56,119.28,3.33,78.44,0,36.43c22.23,15.96,43.62,31.31,65.35,46.91Z"/>
  <path class="cls-1" d="m143.73,217.73c42.55-26.06,85.1-52.13,128.29-78.58-.43,6.18-.78,11.73-1.22,17.28-.61,7.68-1.38,15.35-1.89,23.03-.13,1.94-.92,2.66-2.63,3.16-33.28,9.68-66.55,19.4-99.81,29.12-7.49,2.19-14.98,4.38-22.47,6.57-.09-.19-.18-.38-.26-.57Z"/>
</svg>