<?xml version="1.0" encoding="utf-8"?>
<!-- Generator: Adobe Illustrator 26.0.3, SVG Export Plug-In . SVG Version: 6.00 Build 0)  -->
<svg version="1.1" id="Layer_1" xmlns="http://www.w3.org/2000/svg" xmlns:xlink="http://www.w3.org/1999/xlink" x="0px" y="0px"
	 viewBox="0 0 280 280" style="enable-background:new 0 0 280 280;" xml:space="preserve">
<style type="text/css">
	.st0{fill:#77BD03;}
	.st1{fill:#F9FBF4;}
	.st2{fill:#FAFCF6;}
	.st3{fill:#F9FBF6;}
</style>
<g>
	<path class="st0" d="M139.5,279.7c-74.1,2-141.8-62.1-139.5-143.5C2.1,62.7,62.5,2.3,136,0.3c80-2.2,144.3,63.2,144,140.6
		C279.7,217.6,215.3,281.9,139.5,279.7z M61.8,81.9c0,40.1,0,79.3,0,118.6c24.5,0,48.6,0,72.6,0c0-9.7,0-19,0-28.9
		c-13.5,0-26.6,0-39.8,0c0-2.1,0-3.6,0-5.1c0-26.5,0-53,0-79.4c0-2.5,0.5-5.2-3.3-5.2C81.5,81.9,71.8,81.9,61.8,81.9z M152,110.8
		c6,0,11.2,0,16.4,0c7.9,0,15.8,0,23.6,0.3c4.9,0.2,8.2,2.9,8.6,7.9c0.4,4.9-2.6,7.8-7.4,8.2c-6.2,0.5-12.3,0.6-18.5,0.7
		c-14.4,0.2-23.4,9.5-23.2,23.8c0.1,3.3,1.1,4.6,4.6,4.6c13.7-0.2,27.4-0.3,41.1-0.1c19.6,0.3,39.9-15.6,37.5-40
		c-1.6-16.4-10.5-29.4-26.1-31.8C190.1,81.5,171,82,152,81.1C152,91.7,152,100.8,152,110.8z M229.9,201c0-10.1,0-19.4,0-28.7
		c-26.2,0-51.9,0-78.3,0c0,8.2,0.1,16-0.1,23.8c-0.1,4,1.6,5.1,5.4,5c10.9-0.2,21.8-0.1,32.6-0.1C202.8,201,216.1,201,229.9,201z"/>
	<path class="st1" d="M61.8,81.9c10,0,19.7,0,29.5,0c3.8,0,3.3,2.7,3.3,5.2c0,26.5,0,53,0,79.4c0,1.5,0,3,0,5.1
		c13.2,0,26.3,0,39.8,0c0,9.9,0,19.2,0,28.9c-24,0-48,0-72.6,0C61.8,161.2,61.8,122,61.8,81.9z"/>
	<path class="st2" d="M152,110.8c0-10,0-19.1,0-29.7c19.1,1,38.1,0.5,56.6,3.3c15.6,2.4,24.5,15.4,26.1,31.8
		c2.4,24.3-17.9,40.3-37.5,40c-13.7-0.2-27.4-0.1-41.1,0.1c-3.5,0-4.5-1.3-4.6-4.6c-0.2-14.3,8.8-23.6,23.2-23.8
		c6.2-0.1,12.4-0.2,18.5-0.7c4.8-0.4,7.7-3.3,7.4-8.2c-0.4-5-3.7-7.8-8.6-7.9c-7.9-0.3-15.8-0.2-23.6-0.3
		C163.2,110.8,157.9,110.8,152,110.8z"/>
	<path class="st3" d="M229.9,201c-13.7,0-27,0-40.3,0c-10.9,0-21.8-0.1-32.6,0.1c-3.8,0.1-5.5-1-5.4-5c0.2-7.8,0.1-15.7,0.1-23.8
		c26.3,0,52.1,0,78.3,0C229.9,181.6,229.9,190.9,229.9,201z"/>
</g>
</svg>
