<?xml version="1.0" encoding="utf-8"?>
<!-- Generator: Adobe Illustrator 26.0.3, SVG Export Plug-In . SVG Version: 6.00 Build 0)  -->
<svg version="1.1" id="Layer_1" xmlns="http://www.w3.org/2000/svg" xmlns:xlink="http://www.w3.org/1999/xlink" x="0px" y="0px"
	 viewBox="0 0 280 280" style="enable-background:new 0 0 280 280;" xml:space="preserve">
<style type="text/css">
	.st0{fill:#B7151F;}
</style>
<path class="st0" d="M0,63.3c10,0,20-0.1,30-0.1c22.8,0,25.2,2.2,28.1,26.1C71,71.4,86.6,59.6,108.7,59.4
	c22.4-0.2,38.2,9.8,46.5,32.1c12.3-19.4,28.6-30.5,50.3-31.9c34.7-2.3,54.6,16.9,55.9,54c0.7,18.4,0.2,36.8,0.2,55.2
	c0,18,0,18,18.4,19.5c0,10.4,0,20.8,0,31.9c-15.3,0-30.7,0.9-45.9-0.3c-8.5-0.7-11.7-8.4-11.8-16.6c-0.2-18.4-0.2-36.8-0.4-55.2
	c-0.1-10,0-20-0.7-30c-1.4-19.9-15.7-28.2-34.2-19.6c-18.2,8.5-25,25-26.1,43.4c-1.4,22.5-0.7,45.2-0.9,67.8c0,3.5,0,7,0,11
	c-13.4,0-25.9,0-39.7,0c0-3.5,0-6.9,0-10.3c0-29.1,0.1-58.2-0.1-87.2c-0.1-10.1-0.4-21.1-11.7-25.5c-12.2-4.8-23.7-1.3-32.9,7.7
	c-13.1,12.8-16.9,29.4-17.2,46.9c-0.4,22.6-0.1,45.1-0.1,68.3c-13.1,0-25.5,0-39.1,0c0-5,0-10,0-15.1c0-31,0-62,0-93.1
	c0-15.5,0-15.5-15.4-15.7c-1.3,0-2.6-0.2-3.9-0.3C0,85.3,0,74.3,0,63.3z"/>
</svg>
