<?xml version="1.0" encoding="utf-8"?>
<!-- Generator: Adobe Illustrator 26.0.3, SVG Export Plug-In . SVG Version: 6.00 Build 0)  -->
<svg version="1.1" id="Layer_1" xmlns="http://www.w3.org/2000/svg" xmlns:xlink="http://www.w3.org/1999/xlink" x="0px" y="0px"
	 viewBox="0 0 280 280" style="enable-background:new 0 0 280 280;" xml:space="preserve">
<style type="text/css">
	.st0{fill:#BDD632;}
	.st1{fill:#114D86;}
	.st2{fill:#18A2DC;}
</style>
<g>
	<path class="st0" d="M178.9,274.3c-7.7,1.9-15.4,3.8-23.1,5.7c-10.9,0-21.8,0-32.7,0c-2.3-0.7-4.5-1.5-6.8-2
		c-56.4-11.6-93.5-44.7-110.9-99.6c-2-6.3-3.6-12.8-5.4-19.2c0-12.4,0-24.8,0-37.3c0.4-1.1,0.8-2.3,1.2-3.4
		c1.3-3.9,2.6-7.8,3.9-11.7c0.4,0.6,0.9,1.3,1.1,1.9c6,19.7,15.6,37.5,29.9,52.3c8,8.2,17.6,14.8,26.5,22.2c1,1,1.9,2.3,3.1,3.1
		c31.7,19.3,65.8,25.5,102.4,18.4c17.4-3.4,33.1-10.8,48.4-19.4c0.1,2,0.4,4.1,0.1,6.1c-2.6,22.5-9.8,43.4-22.5,62.2
		C189.3,260.6,184,267.4,178.9,274.3z"/>
	<path class="st1" d="M62.6,183.2c-8.9-7.3-18.5-13.9-26.5-22.2c-14.3-14.8-23.9-32.6-29.9-52.3c-0.2-0.7-0.7-1.3-1.1-1.9
		c0.4-2.9,0.3-6,1.2-8.7C24.6,45.4,61,13.3,115.7,2c1.4-0.3,2.7-1.3,4-2c12.8,0,25.6,0,38.4,0c2.2,0.7,4.3,1.7,6.5,2.1
		c28,5.3,52.4,17.4,72.7,37.6c-0.9,0.2-1.8,0.8-2.6,0.6c-22.4-5.8-44.8-5.4-66.9,0.6c-9.2,2.5-17.8,6.9-26.7,10.5
		c-2.1,0.8-4.3,1.4-6.2,2.5C85.8,83,61.7,126.1,62.6,183.2z"/>
	<path class="st2" d="M141.1,51.3c8.9-3.5,17.6-8,26.7-10.5c22.1-5.9,44.5-6.4,66.9-0.6c0.8,0.2,1.7-0.4,2.6-0.6
		c23.2,22.1,36.7,49.2,41.3,80.7c9.9,67.8-32,133.6-97.4,153.5c-0.7,0.2-1.5,0.3-2.2,0.5c5.1-6.9,10.3-13.7,15.2-20.8
		c12.8-18.8,19.9-39.7,22.5-62.2c0.2-2-0.1-4.1-0.1-6.1c0.2-1.3,0.5-2.6,0.5-3.9c1.1-44.9-15.4-82.2-49.2-111.5
		C159.7,62.8,150,57.5,141.1,51.3z"/>
</g>
</svg>
