<?xml version="1.0" encoding="utf-8"?>
<!-- Generator: Adobe Illustrator 26.0.3, SVG Export Plug-In . SVG Version: 6.00 Build 0)  -->
<svg version="1.1" id="Layer_1" xmlns="http://www.w3.org/2000/svg" xmlns:xlink="http://www.w3.org/1999/xlink" x="0px" y="0px"
	 viewBox="0 0 280 280" style="enable-background:new 0 0 280 280;" xml:space="preserve">
<style type="text/css">
	.st0{fill:#F48012;}
	.st1{fill:#FFFFFF;}
</style>
<g>
	<path class="st0" d="M263.8,264.8c0-52.8,0-105.5,0-158.3c0-1.4-0.1-2.8-0.2-4.8c-4,1.9-7.5,3.5-10.9,5.1c-0.4,0.2-0.9,0.4-1.3,0.6
		c-0.4,0.1-0.7,0.3-1.1,0.4c-0.4,0.2-0.7,0.4-1.1,0.5c-1.2,0.6-2.5,1.1-3.7,1.7c-0.3,0.2-0.6,0.5-1,0.7c0,0,0,0,0,0
		c-0.2,1.9-0.6,3.8-0.6,5.8c0,43.5,0,86.9,0,130.4c0,2.3,0.1,4.5,0.2,6.8c-0.1,0.3-0.1,0.7-0.2,1c-0.8-0.1-1.6-0.1-2.4-0.2
		c0,0-0.1-0.2-0.1-0.2l-0.2,0c-0.6-0.3-1.3-0.5-1.9-0.8c0,0,0.1,0,0.1,0c-0.3-0.2-0.7-0.4-1-0.6c-0.1-0.2-0.3-0.2-0.5-0.2
		c-0.6-0.3-1.2-0.5-1.9-0.8c-0.3-0.2-0.6-0.6-0.9-0.7c-30.2-13.2-60.3-26.4-90.5-39.6c-3.1-1.4-6.1-1.3-9.2,0.1c-4.6,2-9.3,4-13.9,6
		c-27.1,11.9-54.2,23.8-81.3,35.7c-1.1,0.5-2.4,0.8-3.9,1.3c-0.1-1.6-0.2-2.8-0.3-4c0-7.8,0.2-15.7-0.1-23.5
		c-0.1-3.4,1.1-4.9,4.1-6.2c32.4-14,64.7-28.2,97.1-42.4c2.1-0.9,3.9-0.9,6,0c22.7,10,45.5,20,68.2,29.9c1.1,0.5,2.3,0.9,3.7,1.4
		c0-29.1,0-57.6,0-86.8c-6.8,3-13.2,5.7-19.7,8.6c0,16,0,31.8,0,47.9c-1.2-0.3-2.1-0.5-3-0.8c-15.2-6.6-30.5-13.2-45.6-20
		c-4.6-2.1-8.7-2.1-13.3,0c-21.5,9.6-43,18.9-64.6,28.3c-16.5,7.2-33.1,14.5-49.6,21.6c-2.2,0.9-3,2.1-2.9,4.5
		c0.2,5.6,0,11.2,0.1,16.7c0,12.9,0,25.8,0.1,38.7c0,2.1,0.2,4.3,1.1,6.2c2.3,5,7.9,6.6,13.7,4c35.3-15.4,70.6-30.8,105.8-46.3
		c2.1-0.9,3.8-1,6,0c10.7,4.8,21.4,9.3,32.1,14c24.7,10.8,49.4,21.7,74.1,32.5c7.5,3.3,14.5-1.1,14.7-9.4
		C263.8,267.9,263.8,266.4,263.8,264.8z"/>
	<path class="st1" d="M256.6,0c0,0.1,0,0.3,0.1,0.4c5.6,2.5,7.2,7,7.1,12.9c-0.2,18.9-0.1,37.7-0.1,56.8c-1.6,0.7-3.1,1.4-4.7,2.1
		c-37.6,16.4-75.2,32.8-112.7,49.4c-4.5,2-8.4,2-12.9,0c-14.7-6.7-29.6-13-44.5-19.5c-1.3-0.6-2.7-1.1-4.4-1.8c0,16.2,0,32.1,0,48.2
		c-6.5,2.9-12.9,5.7-19.6,8.6c0-29.1,0-57.8,0-87c5,2.2,9.7,4.2,14.4,6.3c19.2,8.4,38.4,16.8,57.6,25.2c1.9,0.8,3.5,1.1,5.6,0.2
		c33.3-14.6,66.6-29.2,99.9-43.8c0.4-0.2,0.7-0.4,1.2-0.7c0-10.5,0-21,0-31.9c-1.4,0.6-2.6,1-3.8,1.5
		c-31.4,13.7-62.8,27.4-94.1,41.2c-4.1,1.8-7.7,1.8-11.8,0C102.8,54.3,71.4,40.6,40,26.9c-1.2-0.5-2.4-1-4-1.6
		c0,48.5,0,96.5,0,144.6c-6.5,2.9-12.8,5.6-19.5,8.5c-0.1-1.7-0.2-3-0.2-4.3c0-53.6,0.1-107.1-0.1-160.7c0-6.3,1.8-10.8,7.6-13.4
		c1.6,0,3.2,0,4.8,0c0.3,0.3,0.5,0.6,0.8,0.8C65.1,16.5,101,32.1,136.8,47.9c2.3,1,4.1,0.9,6.4-0.1C178.5,32.3,213.7,16.9,249,1.5
		c0.8-0.3,1.4-1,2.1-1.5C252.9,0,254.8,0,256.6,0z"/>
</g>
</svg>
