<?xml version="1.0" encoding="utf-8"?>
<!-- Generator: Adobe Illustrator 26.2.1, SVG Export Plug-In . SVG Version: 6.00 Build 0)  -->
<svg version="1.1" id="Layer_1" xmlns="http://www.w3.org/2000/svg" xmlns:xlink="http://www.w3.org/1999/xlink" x="0px" y="0px"
	 viewBox="0 0 280 280" style="enable-background:new 0 0 280 280;" xml:space="preserve">
<style type="text/css">
	.st0{fill-rule:evenodd;clip-rule:evenodd;fill:#FFFFFF;}
</style>
<path class="st0" d="M52.02,49.09c8.71,7.08,11.98,6.54,28.33,5.44l154.17-9.26c3.27,0,0.55-3.26-0.54-3.8l-25.6-18.51
	c-4.91-3.81-11.44-8.17-23.97-7.08L35.12,26.77c-5.44,0.54-6.53,3.26-4.36,5.44L52.02,49.09z M61.27,85.02v162.22
	c0,8.72,4.36,11.98,14.16,11.44l169.44-9.8c9.81-0.54,10.9-6.54,10.9-13.62V74.13c0-7.07-2.72-10.88-8.73-10.34L69.99,74.13
	C63.45,74.68,61.27,77.94,61.27,85.02L61.27,85.02z M228.54,93.72c1.09,4.9,0,9.8-4.91,10.36l-8.16,1.63v119.76
	c-7.09,3.81-13.62,5.99-19.07,5.99c-8.72,0-10.9-2.72-17.44-10.88l-53.4-83.83v81.11l16.9,3.81c0,0,0,9.79-13.63,9.79l-37.58,2.18
	c-1.09-2.18,0-7.62,3.81-8.71l9.81-2.72V114.96l-13.62-1.09c-1.09-4.9,1.63-11.98,9.26-12.52l40.32-2.72l55.57,84.92v-75.13
	l-14.17-1.63c-1.09-6,3.26-10.35,8.71-10.89L228.54,93.72z M22.58,12.07L177.87,0.64C196.94-1,201.84,0.1,213.83,8.8l49.57,34.84
	c8.18,5.99,10.9,7.62,10.9,14.15v191.08c0,11.98-4.36,19.06-19.61,20.14L74.36,279.9c-11.45,0.55-16.9-1.09-22.89-8.71l-36.5-47.36
	c-6.54-8.72-9.26-15.24-9.26-22.87V31.12C5.7,21.33,10.06,13.16,22.58,12.07z"/>
</svg>
