<?xml version="1.0" encoding="utf-8"?>
<!-- Generator: Adobe Illustrator 26.2.1, SVG Export Plug-In . SVG Version: 6.00 Build 0)  -->
<svg version="1.1" id="Layer_1" xmlns="http://www.w3.org/2000/svg" xmlns:xlink="http://www.w3.org/1999/xlink" x="0px" y="0px"
	 viewBox="0 0 280 280" style="enable-background:new 0 0 280 280;" xml:space="preserve">
<style type="text/css">
	.st0{fill-rule:evenodd;clip-rule:evenodd;fill:#A4864C;}
</style>
<g>
	<path class="st0" d="M276.33,178.7c-1.51,5.28-3.32,10.46-5.41,15.54c-17.91,36.73-62.2,52-98.93,34.09
		c-36.73-17.91-52-62.2-34.09-98.93c0.76-1.56,1.57-3.09,2.44-4.59l0,0l0.31-0.57c20.99-35.08,66.44-46.51,101.52-25.52
		C269.67,115.17,283.46,147.46,276.33,178.7"/>
	<path class="st0" d="M203.94,14.53c18.95,9.47,35.53,23.09,48.48,39.86c-15.16-6.81-31.6-10.34-48.22-10.36
		c-6.07,0-12.13,0.45-18.13,1.37L203.94,14.53z"/>
	<path class="st0" d="M141.76,0c6.36,0,12.71,0.43,19.01,1.29l-57.88,100.25c-33.36,56.02-14.99,128.47,41.03,161.82
		c9.5,5.66,19.75,9.95,30.45,12.76C99.17,294.1,23.65,247.71,5.68,172.52C-12.29,97.32,34.1,21.8,109.3,3.83
		C119.93,1.29,130.82,0.01,141.76,0"/>
</g>
</svg>
