<?xml version="1.0" encoding="utf-8"?>
<!-- Generator: Adobe Illustrator 26.1.0, SVG Export Plug-In . SVG Version: 6.00 Build 0)  -->
<svg version="1.1" id="Layer_1" xmlns="http://www.w3.org/2000/svg" xmlns:xlink="http://www.w3.org/1999/xlink" x="0px" y="0px"
	 viewBox="0 0 280 280" style="enable-background:new 0 0 280 280;" xml:space="preserve">
<style type="text/css">
	.st0{fill:#939598;}
	.st1{fill:#0082C4;}
	.st2{fill:#FFFFFF;}
</style>
<g>
	<path class="st0" d="M78.3,96.2c13.7-19,36.1-31.3,61.3-31.3c41.8,0,75.6,33.8,75.6,75.6c0,41.8-33.8,75.6-75.6,75.6
		c-30.9,0-57.5-18.5-69.2-45.1c9.4,10.8,23.3,17.7,38.8,17.7c28.4,0,51.4-23,51.4-51.4s-23-51.4-51.4-51.4
		C97.6,85.9,86.9,89.7,78.3,96.2"/>
	<path class="st1" d="M2.1,140.2C2.1,81.1,49.9,33.2,109,33.2c38.5,0,72.2,20.3,91,50.8c-15.1-16.1-36.6-26.2-60.4-26.2
		c-45.7,0-82.7,37-82.7,82.7s37,82.7,82.7,82.7c23.2,0,44.3-9.6,59.3-25c-19,29.5-52.2,49-89.9,49C49.9,247.1,2.1,199.2,2.1,140.2"
		/>
	<path class="st2" d="M10,83.2C31.7,34.2,80.9,0,138,0c77.3,0,140,62.7,140,140c0,77.3-62.7,140-140,140
		c-56.6,0-105.3-33.6-127.4-81.8c19.9,33.6,56.5,56.2,98.4,56.2c63.1,0,114.2-51.1,114.2-114.2c0-63.1-51.1-114.2-114.2-114.2
		C66.6,25.9,29.7,49,10,83.2"/>
</g>
</svg>
