<?xml version="1.0" encoding="utf-8"?>
<!-- Generator: Adobe Illustrator 26.0.3, SVG Export Plug-In . SVG Version: 6.00 Build 0)  -->
<svg version="1.1" id="Layer_1" xmlns="http://www.w3.org/2000/svg" xmlns:xlink="http://www.w3.org/1999/xlink" x="0px" y="0px"
	 viewBox="0 0 280 280" style="enable-background:new 0 0 280 280;" xml:space="preserve">
<style type="text/css">
	.st0{fill-rule:evenodd;clip-rule:evenodd;fill:#6489A8;}
</style>
<g>
	<path id="Fill-38" class="st0" d="M237.6,29.1c0-0.1,0-0.2-0.1-0.2c0,0,0-0.1,0-0.1c0,0-0.1-0.1-0.1-0.1c0-0.1-0.1-0.1-0.2-0.2
		c-0.1-0.1-0.1-0.1-0.2-0.2c0,0-0.1-0.1-0.1-0.1c-0.2-0.1-17-8.7-17-27c0-0.7-0.5-1.2-1.2-1.2c-0.7,0-1.2,0.5-1.2,1.2
		c0,18.2-16.8,26.9-17,27c0,0-0.1,0.1-0.1,0.1c-0.1,0-0.1,0.1-0.2,0.2c-0.1,0.1-0.1,0.1-0.1,0.2c0,0-0.1,0.1-0.1,0.1
		c0,0,0,0.1,0,0.1c0,0.1,0,0.1-0.1,0.2c0,0.1,0,0.2,0,0.2c0,0.1,0,0.1,0,0.2c0,0.1,0,0.2,0.1,0.3c0,0,0,0.1,0,0.1c0,0,0,0,0.1,0.1
		c0.1,0.1,0.2,0.3,0.3,0.4c0,0,0.1,0.1,0.1,0.1c0,0,0,0,0,0c0.2,0.1,17,8.7,17,27c0,0.7,0.5,1.2,1.2,1.2c0.7,0,1.2-0.6,1.2-1.2
		c0-18.2,16.8-26.9,17-27c0,0,0,0,0,0c0,0,0.1-0.1,0.1-0.1c0.1-0.1,0.2-0.2,0.3-0.4c0,0,0.1,0,0.1-0.1c0,0,0-0.1,0-0.1
		c0-0.1,0-0.1,0.1-0.2c0-0.1,0-0.2,0-0.2C237.6,29.2,237.6,29.2,237.6,29.1"/>
	<path id="Fill-40" class="st0" d="M60.6,171.3c2.1,4.3,7.9,8.5,7.9,8.5c-1.4-5.5-0.1-9.6,4.2-14.1C67.8,165.4,58.5,167,60.6,171.3"
		/>
	<path id="Fill-41" class="st0" d="M116.4,135.4c5.2,1.6,6.2-4.9,13-4.6c2.5-1.9,5.3-4.6,6.4-10.1
		C124.1,116.3,119.5,127.8,116.4,135.4"/>
	<path id="Fill-42" class="st0" d="M197.9,133c0,0.6,0,2.3-0.1,4.8c0,0.5-0.1,0-0.1,0c-0.9-9-11.1-12.6-12.4-19.8
		c-1.3-6.6,4.2-9.8,7-12.5c0.9-0.9,1.3-1.5,1.5-2.1c0.1-0.5,0.1-1,0-1.5c-0.1-0.4-0.2-0.8-0.4-1.2c0-0.1,0-0.1,0,0
		C198.7,110.5,197.9,129.6,197.9,133 M255.5,136.9c-1.5-4.3-3.3-8.5-5.3-12.5c-18.4-36.1-55.6-63.1-95.8-67.9
		c-4.7-0.5-9.5-0.8-14.3-0.8c-67.7,0-122.6,54.9-122.6,122.6c0,31.3,11.8,59.9,31.1,81.6c5-17.9,9.5-32.2,11.6-39.1
		c3.9-13.1,4.5-15.2,5-19.2c0.7-6.2-16.4-15-20.5-21.9c-4.1-6.9,4.6-24.3,13.8-26.1c11.2-2.1,28.5-1.9,38.1-17.8
		c9.7-15.9,18-30.2,20.7-32.4c7.4-6,20-3.4,24.1-4.1c4.1-0.7,13.8-4.1,17.9-4.8c3.6-0.6,12.1-1,17.4-1.1c0,0,0,0,0,0
		c-4.6,0.6-8.2,3-10.5,5.8c-2.1,2.5-3.3,6.9-0.8,10.1c2.5-0.5,5.4-1.3,7.1,0.4c13.7,11.1-6.5,22.7-14.4,31.3c-1.6,1.8-3.2,3.9-4.4,6
		c-1.1,2.1-1.6,4.5-2,7.1c0,0.1,0.1,0.2,0.2,0.1c1.9-1.1,4.1-2,5.9-3.6c1.9-1.6,3.5-3.3,5.3-5.7c8.2-10.6,24.9-21.5,34.3-4.8
		c0.1,0.2,0.2,0.4,0.1,0.6l-1.9,53c-0.8,9.5,0.2,37.6,0.2,37.6l0.2,2.6c0,0,0.1,2.2,0.7,5.8c1.6,10.9,5.1,29.6,10.8,39.5
		c0.2,0.3,0.4,0.6,0.5,0.8c2.9-1.9,5.7-3.9,8.4-6.1c28-22.5,45.9-57,45.9-95.7C262.6,163.7,260.1,149.8,255.5,136.9"/>
</g>
</svg>
