<?xml version="1.0" encoding="utf-8"?>
<!-- Generator: Adobe Illustrator 26.2.0, SVG Export Plug-In . SVG Version: 6.00 Build 0)  -->
<svg version="1.1" id="Layer_1" xmlns="http://www.w3.org/2000/svg" xmlns:xlink="http://www.w3.org/1999/xlink" x="0px" y="0px"
	 viewBox="0 0 280 280" style="enable-background:new 0 0 280 280;" xml:space="preserve">
<style type="text/css">
	.st0{fill:#F3932A;}
	.st1{fill:#DA549D;}
</style>
<g>
	<path class="st0" d="M125.21,96.57c-18.52,6.17-34.83,24.25-34.83,44.98c0,22.05,15.87,41.89,37.48,45.86v-14.99l53.8,51.59
		l-55.56,56v-16.76c-61.73-7.06-109.8-59.53-109.8-123.46c0-61.73,44.98-113.32,104.5-123.02L82.88,53.8
		C82.88,53.8,125.21,96.57,125.21,96.57z"/>
	<path class="st1" d="M155.64,181.23c20.28-6.17,34.39-24.25,33.95-44.54c-0.44-22.05-16.76-41.45-38.36-44.98l0.44,14.99
		L98.32,54.24L151.23,0v15.87c62.17,5.73,111.12,57.32,112.44,120.82c1.32,61.73-44.98,114.65-103.62,125.67l37.92-39.24
		L155.64,181.23z"/>
</g>
</svg>
