<?xml version="1.0" encoding="utf-8"?>
<!-- Generator: Adobe Illustrator 26.0.3, SVG Export Plug-In . SVG Version: 6.00 Build 0)  -->
<svg version="1.1" id="Layer_1" xmlns="http://www.w3.org/2000/svg" xmlns:xlink="http://www.w3.org/1999/xlink" x="0px" y="0px"
	 viewBox="0 0 280 280" style="enable-background:new 0 0 280 280;" xml:space="preserve">
<style type="text/css">
	.st0{fill:#059DDB;}
</style>
<path class="st0" d="M95.4,280c1.2-6.8,3.4-13.5,3.5-20.3c0.4-34.1,0-68.2,0.3-102.3c0-5.8-1.5-8.2-7.5-9
	c-6.6-0.8-12.9-3.1-19.2-4.8c0,27.8,0,55.4,0,83.4c-8.2,0-17.7,0-26.2,0c0.5-10.4,1.4-20.7,1.5-31c0.1-60.6,0.1-121.2,0.1-181.9
	c0-3.5,0-6.9,0-11.1c11.7,4.6,22,2.8,31.8-3.1c13.4,0,26.8,0,40.2,0c5.1,1.8,10.3,3.3,15.3,5.3c20.6,8.3,34.7,22.8,42.7,43.6
	c1.3,3.3,4.3,7,7.4,8.3c38.4,16.3,57.1,55.1,44.6,93.6c-12.3,38-51.2,59.1-91.3,49.5c-5-1.2-10-2.7-17.2-4.6
	c1.3,28.9,2.5,56.6,3.7,84.3C115.2,280,105.3,280,95.4,280z M182.1,81.8c-0.4,1.9-0.6,2.9-0.8,4c-0.2,1.1-0.3,2.3-0.5,3.5
	c-6,27.5-22,46.8-48.5,56c-8.4,2.9-11.1,6.7-10,14.7c0.3,1.7,0.3,3.5,0,5.2c-0.8,5.6,1.5,9.1,7,10c10.5,1.8,21.1,4.9,31.6,4.5
	c24-0.9,43.2-18.4,47.9-41.3C213.4,115.2,203.1,92.8,182.1,81.8z M153.2,52.7c-11.9-29.2-53.2-38.3-78.3-24.8c-2,1-3.7,4.4-3.8,6.8
	C70.9,61.4,71,88.2,71.1,115c0,1.9,1.2,5,2.7,5.5c7.9,3,16,5.4,25.6,8.5c0-25.9,0-49.3,0-72.7C118.3,62.6,134.6,50.3,153.2,52.7z
	 M157.9,72.3c-11.2,2.8-21.4,5.3-31.5,8.1c-1.6,0.4-3.8,2.6-3.8,4c-0.3,13.1-0.2,26.3-0.2,39.9C145.7,115.9,158.5,97.8,157.9,72.3z"
	/>
</svg>
