<?xml version="1.0" encoding="utf-8"?>
<!-- Generator: Adobe Illustrator 26.0.3, SVG Export Plug-In . SVG Version: 6.00 Build 0)  -->
<svg version="1.1" id="Layer_1" xmlns="http://www.w3.org/2000/svg" xmlns:xlink="http://www.w3.org/1999/xlink" x="0px" y="0px"
	 viewBox="0 0 280 280" style="enable-background:new 0 0 280 280;" xml:space="preserve">
<style type="text/css">
	.st0{fill:#FFFFFF;}
	.st1{fill:#AB075B;}
	.st2{fill:#AB085B;}
	.st3{fill:#AB065A;}
	.st4{fill:#AB095C;}
</style>
<g>
	<path class="st0" d="M56.6,138.5c4.5,6.2,8.3,13.1,14.4,18.1c4.5,3.7,9.5,6.5,15.3,7.3c0.4,0.1,0.8,0.2,1.1,0.5
		c-10.9,0.5-20.1-2.8-26.7-11.8c-2.5-3.5-5.2-6.9-7.6-10.4c-1.2-1.8-2.6-2.4-4.8-2.4c-4.5,0.1-4.5,0-4.5,4.6c0,2.5,0,5,0,7.4
		c0.1,4.6,1.2,5.8,5.7,6.5c0.6,0.1,1.2,0.3,1.9,0.5c0,0.2-0.1,0.4-0.1,0.5c-6,0-12,0-18.1,0c-0.1-0.1-0.1-0.2-0.2-0.4
		c0.4-0.2,0.7-0.5,1.1-0.7c3.1-0.9,3.9-1.8,4-5.1c0.2-5.3,0.2-10.7,0.2-16.1c0-4.4,0-8.9-0.1-13.3c-0.1-3.7-1.1-4.7-4.6-5.3
		c-0.6-0.1-1.2-0.4-1.8-0.6c0-0.2,0-0.4,0.1-0.6c0.5-0.1,1-0.2,1.6-0.2c5,0,9.9-0.2,14.9,0c3.4,0.2,7,0.4,10.2,1.5
		c7,2.4,8.6,10.9,3.2,16C60.3,136.1,58.5,137.1,56.6,138.5z M43.8,128.6L43.8,128.6c0,2.3,0,4.6,0,6.8c0,1.3,0.5,2.1,1.9,2.1
		c2,0,3.9,0.1,5.9-0.1c4.1-0.3,6.9-2.4,7.9-5.7c1.1-3.7-0.2-7.5-3.3-9.9c-3-2.4-6.4-3-10.1-2.7c-1.7,0.1-2.3,1.2-2.3,2.8
		C43.8,124.2,43.8,126.4,43.8,128.6z"/>
	<path class="st0" d="M94.7,116.2c3.8,0.9,7.7,1.3,11.3,2.8c7.4,3,12.1,8.6,12.9,16.8c0.7,8.1-2.1,14.9-8.8,19.7
		c-5.3,3.8-11.3,5-17.6,4.6c-3-0.2-6.1-0.7-9-1.7c-8.9-3.1-14.1-10.4-14.2-19.5s5.2-16.7,13.9-20c1.8-0.7,3.6-1.2,5.4-1.5
		c2-0.4,4-0.5,6-0.7C94.6,116.5,94.7,116.3,94.7,116.2z M94.4,157.9c10.7,0,19.3-8.7,19.4-19.4c0.1-10.7-8.8-19.7-19.4-19.7
		s-19.3,8.7-19.3,19.5C74.9,149.2,83.6,157.9,94.4,157.9z"/>
	<path class="st1" d="M200,136.2c3.1-1.1,6.2-2.3,9.5-3.5c0,1.6,0,2.9,0,4.6c6.3-4.7,12.2-5.9,17.9,0.6c3.3-3.8,7.4-5.1,12.3-4.1
		c3.8,0.8,6.3,3.6,6.6,7.5c0.3,3.5,0.2,7,0.2,10.6c0,4.8,0.2,5,4.7,6.4c0.2,0.1,0.4,0.3,0.5,0.8c-4.3,0-8.5,0-13.1,0
		c0.3-0.4,0.3-0.8,0.5-0.8c2.6-0.6,2.8-2.5,2.7-4.7c-0.1-3.6,0-7.3-0.2-11c-0.2-2.9-1.5-5.2-4.3-6.2c-3-1.1-5.8-0.6-8.3,1.4
		c-0.6,0.5-1.1,1.7-1.1,2.5c0,4.2,0.2,8.3,0.2,12.5c0.1,4,0.2,4.3,4.2,5.2c0.4,0.1,0.8,0.3,1.1,1c-4.3,0-8.7,0-13,0
		c0-0.2,0-0.5,0.1-0.5c2.9-0.8,3-3.1,2.9-5.5c-0.1-3.4,0-6.8,0-10.2c0-2.8-0.9-5.1-3.5-6.2c-2.9-1.3-6-1.2-8.5,0.9
		c-1,0.8-1.6,2.6-1.7,3.9c-0.2,4-0.1,8-0.1,11.9c0,3.1,0.7,3.9,3.7,4.5c0.6,0.1,1.1,0.4,1.7,0.6c0,0.2-0.1,0.4-0.1,0.5
		c-4.4,0-8.8,0-13.7,0c0.6-0.5,0.9-0.9,1.2-1c1.9-0.4,2.4-1.8,2.4-3.5c0-4.6,0-9.1,0-13.7c0-3.4-0.3-3.7-3.8-4
		c-0.3,0-0.6-0.1-0.9-0.2C200,136.5,200,136.4,200,136.2z"/>
	<path class="st0" d="M0,117.4c0.7-0.1,1.4-0.4,2-0.4c4.3,0,8.6,0.1,12.9,0c4.2-0.1,8.2,0.2,12,2.2c7.6,3.9,8.1,13.1,1.1,18
		c-4,2.7-8.3,3.6-13,2.7c-0.5-0.1-1-0.3-1.5-0.5c-0.2-0.1-0.4-0.3-1-0.8c0.9,0,1.5,0,2,0c2.5-0.2,5.2,0,7.5-0.8
		c6-2.1,7.6-9.5,3.2-14.2c-3.2-3.4-7.4-4.6-11.9-4.3c-0.6,0-1.4,1-1.7,1.6c-0.3,0.7-0.2,1.7-0.2,2.5c0,8.9,0,17.9,0,26.8
		c0,0.5,0,1,0,1.6c0.3,4.8,1,5.6,5.6,6.3c0.5,0.1,0.9,0.2,1.5,0.8c-0.5,0.2-0.9,0.5-1.4,0.5c-5.3,0-10.6,0.1-15.8,0.1
		c-0.3,0-0.6-0.1-1-0.6c0.5-0.2,1-0.6,1.5-0.7c2.1-0.5,3.3-1.8,3.6-3.9c0.3-2.2,0.6-4.4,0.6-6.6c0-8,0-16-0.3-24.1
		c-0.1-3.9-0.8-4.4-4.7-5.3c-0.4-0.1-0.8-0.3-1.1-0.4C0,117.8,0,117.6,0,117.4z"/>
	<path class="st2" d="M131.7,138.7c-1.9,0-3.5,0-5.3,0c0.9-1.9,2.2-2.8,4-2.6c2,0.2,3.2-0.6,4.4-2.1c6-7.6,13.1-13.9,22.3-17.3
		c2-0.8,4.3-1,6.5-1.4c0.6-0.1,1.3,0.2,2.7,0.4c-1.9,1.8-3.4,3.3-5.3,5c-0.3-2.4-1.8-2.6-3.2-2.3c-2.2,0.6-4.6,1.1-6.2,2.5
		c-3.1,2.7-5.7,5.9-8.4,9c-1.5,1.8-2.7,3.8-4.5,6.2c2.9-0.2,5.4-0.4,8-0.6c-1.5,1.5-2.9,3.4-5.6,3.1c-2.4-0.3-3.8,0.6-5.1,2.6
		c-2.7,4-5.6,7.9-8.5,11.8c-6.5,8.9-15.5,12.4-26.3,11.7c-0.3,0-0.5-0.1-0.8-0.1c-0.1,0-0.1-0.1-0.3-0.3
		C116.1,162.5,123.9,150.9,131.7,138.7z"/>
	<path class="st3" d="M259.2,142.1c-0.3,0.2-0.5,0.3-0.5,0.3c-1.4-0.5-2.9-0.9-4.3-1.4c0.5-1.3,0.8-2.9,1.6-3.9
		c3.4-4,11.5-4.8,15.9-1.9c1.8,1.2,2.7,2.9,2.7,5.1c0,3.8,0,7.6,0,11.3c0,0.8,0,1.7,0.1,2.5c0.4,2.9,1.2,3.5,4.1,3.4
		c0.4,0,0.7,0,1.2,0c-1.3,3-6.1,2.6-9.8-0.8c-2.9,1.8-6,3.3-9.6,3.1c-3.3-0.1-5.8-1.7-6.4-4.2c-0.7-3,0.6-5.8,3.9-7
		c3.7-1.4,7.6-2.2,11.7-3.4c0-1.3,0.2-3.1,0-4.8c-0.5-4.3-6.1-6.8-9.8-4.5c-1.4,0.9-1.6,2.2-1.3,3.6
		C258.7,140.4,258.9,141.2,259.2,142.1z M269.7,146.5c-3,1-5.8,1.6-8.3,2.8s-3.2,3.5-2.5,5.7c0.7,2,2.7,3.1,5.6,2.9
		c2.8-0.2,5-1.7,5.1-3.9C269.9,151.7,269.7,149.4,269.7,146.5z"/>
	<path class="st4" d="M160.5,133.9c1.5,0.2,3,0.3,4.5,0.7c6.5,1.7,10.2,6.7,9.9,13.2c-0.2,6.1-4.8,11.3-11.1,12.5
		c-3.3,0.6-6.5,0.5-9.7-0.5c-5.9-1.9-9.3-6.9-9-13.1c0.3-6,4.5-10.7,10.9-12.1C157.5,134.2,159,134.1,160.5,133.9z M149.8,147.6
		c0,0.4,0,1.1,0.1,1.8c0.6,5.4,4.6,9.5,9.5,9.7c5.5,0.3,9.7-2.9,10.8-8.6c0.3-1.6,0.4-3.2,0.3-4.8c-0.5-7-6-11.4-12.5-10.2
		C153.2,136.5,149.8,141.2,149.8,147.6z"/>
	<path class="st2" d="M185.2,138.4c1.4-1.3,2.6-2.7,4.1-3.8c2.7-2,5-1.2,7.3,1.1c0.3,0.3,0.2,1.5-0.1,1.8c-0.8,0.7-1.7,1.3-2.7,1.6
		c-0.5,0.1-1.2-0.6-1.9-0.9c-3.2-1.4-6.6,0.7-6.6,4.2c-0.1,3.9-0.1,7.8,0,11.7c0,2.9,1.1,3.9,4.1,4.1c0.7,0.1,1.5,0.3,2.2,0.4
		c0,0.2-0.1,0.4-0.1,0.6c-4.8,0-9.5,0-14.3,0c-0.1-0.2-0.3-0.4-0.4-0.5c0.3-0.1,0.7-0.3,1-0.4c2.1-0.3,2.6-1.6,2.6-3.5
		c0-4.7,0.1-9.4,0-14.1c0-2.6-1.1-3.6-3.8-3.7c-0.6,0-1.3-0.1-1.9-0.2c0-0.2,0-0.4-0.1-0.5c0.4-0.2,0.7-0.4,1.1-0.5
		c2.4-0.8,4.9-1.6,7.3-2.5c1.8-0.7,2.1-0.6,2.1,1.4c0,1.1,0,2.2,0,3.3C185.1,138.2,185.2,138.3,185.2,138.4z"/>
</g>
</svg>
