<?xml version="1.0" encoding="utf-8"?>
<!-- Generator: Adobe Illustrator 26.0.3, SVG Export Plug-In . SVG Version: 6.00 Build 0)  -->
<svg version="1.1" id="Layer_1" xmlns="http://www.w3.org/2000/svg" xmlns:xlink="http://www.w3.org/1999/xlink" x="0px" y="0px"
	 viewBox="0 0 280 280" style="enable-background:new 0 0 280 280;" xml:space="preserve">
<style type="text/css">
	.st0{fill:#FFFFFF;}
	.st1{fill:#EC2028;}
</style>
<g>
	<g>
		<path class="st0" d="M280,227.2c-5.2,0.1-10.5,0.1-15.7,0.2c-1.1,0-1.6-0.8-1.8-1.8c-1.6-5.9-3.2-11.9-4.9-17.8
			c-2.7-9.6-5.3-19.3-8-28.9c-0.3-1.3-0.7-2.5-1-3.8c-0.2,0-0.3,0-0.5,0c0,0.5-0.1,0.9-0.1,1.4c0,16.1,0,32.3,0,48.4
			c0,2.3-0.2,2.5-2.5,2.5c-3,0-6,0-9,0c-2.3,0-2.5-0.2-2.5-2.5c0-23.4,0-46.8,0-70.2c0-2.5,0-5.1,0-7.6c0-1.5,0.6-2.1,2-2.1
			c4.6,0,9.1,0,13.7,0c1.4,0,2.1,0.5,2.5,2c3.2,12.5,6.6,24.9,9.9,37.4c1,3.9,2,7.8,3,11.7c0.1,0.4,0.3,0.8,0.5,1.2
			c0.1,0,0.3,0,0.4,0c0.1-0.4,0.2-0.8,0.2-1.2c0-16.3,0-32.7-0.1-49c0-1.8,0.3-2.1,2.1-2.1c3.3,0,6.6,0,10,0c0.6,0,1.2,0.2,1.8,0.3
			C280,172.6,280,199.9,280,227.2z"/>
		<path class="st0" d="M27.9,144.1c0.3,0.2,0.7,0.5,1,0.6c8.3,1.9,13.2,7,14.6,15.3c0.2,1.3,0.4,2.7,0.5,4c0.1,1-0.2,1.8-1.5,2
			c-3.8,0.6-7.6,1.2-11.4,1.8c-1.2,0.2-1.8-0.2-1.9-1.5c-0.2-1.7-0.5-3.4-1.1-5c-0.9-2.4-3-3.5-5.9-3.3c-2.5,0.1-4.3,1.5-5,3.9
			c-0.9,3-0.9,5.9-0.1,8.9c0.6,2.3,2.3,3.7,4.4,4.6c3.7,1.6,7.5,3.1,11.1,4.8c7.3,3.3,11,9.1,11.7,17c0.6,6.2,0.5,12.4-1.4,18.5
			c-2.2,6.7-6.8,10.8-13.8,12.2c-0.5,0.1-0.9,0.4-1.3,0.6c-3.7,0-7.5,0-11.2,0c-0.6-0.2-1.1-0.5-1.7-0.6c-4.7-1.1-8.6-3.3-11.3-7.3
			c-2.7-4-3.4-8.6-3.7-13.3c-0.1-1.4,0.5-2.1,1.8-2.3c3.8-0.6,7.7-1.2,11.5-1.8c1.3-0.2,1.8,0.2,2,1.6c0.2,2.1,0.6,4.2,1.2,6.2
			c0.9,2.7,3.1,3.9,6.3,3.7c2.9-0.2,4.8-1.5,5.2-4.4c0.4-3.2,0.5-6.5,0.3-9.7c-0.2-3.3-2.2-5.5-5.2-6.8c-3.1-1.3-6.3-2.6-9.5-3.9
			c-5.6-2.5-9.9-6.2-11.7-12.3c-1.6-5.6-1.7-11.3-0.7-17c1.4-8.3,6-14,14.6-15.8c0.4-0.1,0.8-0.4,1.2-0.6
			C20.7,144.1,24.3,144.1,27.9,144.1z"/>
		<path class="st0" d="M74.2,145.1c2.1,0,4.1,0,6.2,0c1.3,0,2,0.5,2.3,1.8c1.2,5.6,2.5,11.2,3.7,16.8c2.5,11.2,4.9,22.4,7.4,33.5
			c1.9,8.7,3.8,17.3,5.7,26c0.2,0.9,0.4,1.8,0.6,2.7c0.2,0.9-0.3,1.4-1.2,1.4c-4.4,0-8.7,0.1-13.1,0c-0.5,0-1.3-0.9-1.4-1.4
			c-0.8-3.7-1.4-7.4-2-11.2c-0.5-3.4-0.5-3.4-3.9-3.4c-3.6,0-7.2,0-10.7,0c-1.1,0-1.5,0.3-1.7,1.5c-0.7,4-1.4,8.1-2.2,12.1
			c-0.5,2.4-0.6,2.5-3,2.5c-3.7,0-7.4,0-11,0c-1.9,0-2.2-0.3-1.7-2.2c2.8-12.5,5.6-25,8.4-37.5c2.8-12.7,5.5-25.4,8.5-38.1
			c1.1-5,0.2-4.6,5.5-4.5C71.7,145.1,72.9,145.1,74.2,145.1z M74.4,171.1c-0.2,0-0.3,0-0.5,0.1c-0.1,0.2-0.2,0.4-0.2,0.5
			c-1.6,8.5-3.2,17-4.8,25.5c-0.2,1.2,0.2,1.5,1.3,1.4c2.5,0,5.1-0.1,7.6,0c1.3,0,1.6-0.4,1.3-1.7c-1.3-6.8-2.5-13.7-3.7-20.5
			C75.1,174.6,74.8,172.9,74.4,171.1z"/>
		<path class="st0" d="M107.3,186.3c0-13,0-26,0-39c0-1.8,0.3-2.2,2-2.2c7.5,0.1,14.9,0,22.4,0.3c9.9,0.5,16.5,5.8,18.9,15.5
			c1.9,7.6,1.8,15.2-0.8,22.7c-2.6,7.5-8.1,11.6-15.8,12.8c-3,0.5-6.1,0.5-9.1,0.6c-1.5,0-1.8,0.5-1.8,1.9c0.1,8.7,0,17.4,0,26.1
			c0,2.2-0.2,2.4-2.4,2.4c-3.8,0-7.6,0-11.4,0c-1.8,0-2-0.2-2-2.1C107.3,212.3,107.3,199.3,107.3,186.3z M123.1,170.9
			C123.1,170.9,123.1,170.9,123.1,170.9c0,3.5,0,6.9,0,10.4c0,1.1,0.3,1.7,1.5,1.6c1.6-0.1,3.1,0,4.7-0.2c2.7-0.3,4.8-1.7,5.7-4.4
			c1.5-4.7,1.4-9.4,0.2-14.1c-0.6-2.5-2.2-4.4-4.9-4.8c-1.8-0.3-3.6-0.2-5.4-0.4c-1.3-0.1-1.7,0.4-1.7,1.7
			C123.2,164.2,123.1,167.6,123.1,170.9z"/>
		<path class="st0" d="M187.2,186.3c0-13,0-25.9,0-38.9c0-1.9,0.4-2.3,2.3-2.3c11.2,0,22.4,0,33.6,0c2.1,0,2.4,0.3,2.4,2.4
			c0,3.2,0,6.3,0,9.5c0,2.2-0.3,2.6-2.5,2.6c-6,0-12,0-18,0c-1.5,0-1.8,0.5-1.8,1.9c0.1,5.1,0.1,10.3,0,15.4c0,1.5,0.5,1.9,2,1.9
			c5.1-0.1,10.3,0,15.4,0c1.9,0,2.2,0.3,2.2,2.2c0,3.3,0,6.6,0,10c0,1.9-0.3,2.2-2.3,2.2c-5.1,0-10.3,0-15.4,0
			c-1.4,0-1.9,0.4-1.9,1.8c0.1,5.5,0.1,11,0,16.5c0,1.2,0.4,1.6,1.6,1.6c5.9,0,11.8,0,17.7,0c2.8,0,3,0.1,3,3c0,3.1,0,6.2,0,9.3
			c0,1.8-0.3,2.1-2.1,2.1c-11.4,0-22.7,0-34.1,0c-1.8,0-2.1-0.3-2.1-2.2C187.2,212.2,187.2,199.2,187.2,186.3z"/>
		<path class="st0" d="M176.3,186.3c0,12.9,0,25.8,0,38.7c0,2.2-0.1,2.4-2.4,2.4c-3.7,0-7.5,0-11.2,0c-2,0-2.2-0.3-2.2-2.3
			c0-25.9,0-51.9,0-77.8c0-1.9,0.3-2.3,2.3-2.3c3.7,0,7.4,0,11,0c2.4,0,2.5,0.2,2.5,2.6C176.3,160.5,176.3,173.4,176.3,186.3
			C176.3,186.3,176.3,186.3,176.3,186.3z"/>
	</g>
	<g>
		<path class="st0" d="M123.2,135.9c-0.4-0.2-0.8-0.5-1.2-0.6c-8.1-1.7-14.1-7.7-15.4-16c-0.6-3.7-0.8-7.5-0.8-11.3
			c0-12,0-23.9,0.3-35.9c0.1-5,1.7-9.6,4.9-13.5c2.8-3.5,6.5-5.5,10.9-6.5c0.5-0.1,0.9-0.4,1.4-0.6c3.4,0,6.8,0,10.3,0
			c1.7,0.6,3.5,1.2,5.2,1.9c6.6,2.9,10.4,8.2,11.3,15.1c0.9,6.7,0.9,13.5,0.9,20.3c0.1,8.4-0.1,16.9-0.3,25.3
			c-0.1,5.1-1.4,9.8-4.5,14c-2.8,3.8-6.7,6.1-11.3,7.1c-0.5,0.1-0.9,0.4-1.4,0.6C130.1,135.9,126.7,135.9,123.2,135.9z M121.6,93.6
			c0.2,7.5,0.3,14.8,0.6,22.1c0.2,3.7,2.7,6,6.1,5.9c3.4,0,6-2.4,6-6c0.2-11.4,0.3-22.8,0.4-34.2c0-3.2-0.2-6.3-0.4-9.5
			c-0.2-2.3-1.1-4.3-3.3-5.4c-4.1-1.9-8.5,0.5-8.8,5.2C121.9,79,121.8,86.4,121.6,93.6z"/>
		<path class="st1" d="M245.5,135.9c-0.5-0.2-1-0.6-1.5-0.7c-8.6-1.7-14.9-8.3-15.9-17.1c-0.5-4.6-0.7-9.3-0.7-14
			c0-10.6,0.1-21.1,0.3-31.7c0.1-3.6,0.9-7.1,2.6-10.3c2.8-5.3,7.1-8.5,12.9-9.8c0.8-0.2,1.7-0.6,2.5-0.8c2.7,0,5.4,0,8.1,0
			c0.9,0.3,1.8,0.7,2.8,0.9c4.4,1.2,8.2,3.3,10.9,7.1c3,4.1,4.3,8.8,4.3,13.7c0.1,13.5,0.1,27,0,40.5c0,3.3-0.6,6.6-1.9,9.7
			c-2.3,5.4-6.1,9.2-11.7,11c-1.5,0.5-2.9,0.9-4.4,1.4C251.1,135.9,248.3,135.9,245.5,135.9z M243.3,93.9c-0.1,0-0.2,0-0.3,0
			c0,2.2,0,4.4,0,6.5c0.1,5.2,0.2,10.5,0.5,15.7c0.2,3.5,2.8,5.6,6.3,5.6c3.4,0,5.8-2.2,6.2-5.7c0.1-1.1,0.3-2.3,0.3-3.4
			c0.1-11.3,0.1-22.6,0.1-33.9c0-2.5-0.1-5.1-0.4-7.6c-0.4-3.3-2.7-5.3-5.9-5.3c-3.6-0.1-5.9,1.7-6.5,5.1c-0.2,1.1-0.3,2.2-0.3,3.2
			C243.3,80.7,243.3,87.3,243.3,93.9z"/>
		<path class="st0" d="M0,52.8c8.7,0.1,17.5-0.3,26.2,0.3c9.3,0.7,15.5,6.9,17.4,16.2c1.4,7.1,1.5,14.1-0.8,21
			c-2.6,7.9-8.3,12.3-16.4,13.5c-2.9,0.4-5.8,0.5-8.7,0.5c-1.5,0-2,0.5-2,2c0.1,8.6,0,17.1,0,25.7c0,2.8,0,2.8-2.9,2.8
			c-4.3,0-8.6-0.1-12.9-0.2C0,107.4,0,80.1,0,52.8z M28.8,78.7c-0.1,0-0.1,0-0.2,0c-0.1-1.5-0.1-3-0.3-4.5c-0.5-4.3-2.4-6.6-6.1-7.3
			c-1-0.2-2.1-0.2-3.1-0.2c-3.5,0-3.4-0.4-3.4,3.3c0,5.8,0,11.6,0,17.4c0,3.1,0,3.1,3.2,3.1c1,0,2.1-0.1,3.1-0.2
			c3-0.3,5.2-2.1,5.8-5C28.3,83.1,28.5,80.8,28.8,78.7z"/>
		<path class="st0" d="M189.8,96.5c0.5-1.6,0.9-3.2,1.4-4.8c2.1-7.7,4.3-15.5,6.4-23.2c1.3-4.7,2.7-9.4,3.9-14.1
			c0.4-1.4,1.2-1.8,2.5-1.8c4,0,8,0,12,0c1.3,0,1.8,0.6,1.8,1.8c0,1,0,2,0,3c0,24.9,0,49.9,0,74.8c0,2.7-0.1,2.7-2.7,2.7
			c-3.1,0-6.2,0-9.3,0c-1.9,0-2.1-0.3-2.1-2.2c0-14.9,0-29.9,0-44.8c0-0.5-0.1-0.9-0.1-1.4c-0.2,0-0.3,0-0.5-0.1
			c-0.3,0.8-0.6,1.6-0.8,2.4c-2.4,8.9-4.8,17.9-7.3,26.9c-0.2,0.9-0.5,1.8-0.7,2.7c-0.3,1.4-1.1,2-2.5,2c-1.8-0.1-3.5,0-5.3,0
			c-1.3,0-2-0.5-2.4-1.7c-1.9-6.9-3.7-13.8-5.6-20.7c-1-3.6-1.9-7.1-2.8-10.7c-0.1-0.2-0.2-0.4-0.6-1c-0.1,0.9-0.3,1.3-0.3,1.8
			c0,14.8,0,29.7,0,44.5c0,2.2-0.2,2.4-2.4,2.4c-3.1,0-6.2,0-9.3,0c-2.3,0-2.4-0.2-2.4-2.5c0-22.5,0-45,0-67.5c0-3.4,0.1-6.8,0-10.3
			c0-1.5,0.6-2.1,2-2.1c3.9,0,7.8,0,11.7,0c1.5,0,2.3,0.6,2.8,2.1c3.4,11.9,6.8,23.7,10.3,35.5c0.6,2.1,1.2,4.2,1.9,6.3
			C189.5,96.5,189.7,96.5,189.8,96.5z"/>
		<path class="st0" d="M52.6,93.7c0-12.9,0-25.7,0-38.6c0-2.3,0.2-2.6,2.6-2.6c7.7,0.1,15.4-0.1,23,0.4c6.7,0.4,12.3,3.4,15.8,9.6
			c1.8,3.1,2.7,6.5,3,10.1c0.5,5.2,0.5,10.4-1.2,15.6c-1.2,3.9-3.3,7.3-6.5,9.8c-0.9,0.7-1.1,1.4-0.7,2.5c2.9,8.8,5.7,17.5,8.5,26.3
			c0.6,1.9,1.3,3.8,1.9,5.8c0.6,1.8,0.3,2.3-1.6,2.3c-4.1,0-8.3,0-12.4,0c-1.4,0-2-0.5-2.4-1.8c-2.8-9.6-5.7-19.3-8.5-28.9
			c-0.3-1.1-0.8-1.5-1.9-1.5c-4.2,0-3.7-0.2-3.7,3.5c0,8.8,0,17.5,0,26.3c0,2.2-0.2,2.4-2.4,2.4c-3.6,0-7.3,0-10.9,0
			c-2.4,0-2.6-0.2-2.6-2.6C52.6,119.4,52.6,106.6,52.6,93.7z M68.4,77.7C68.4,77.7,68.4,77.7,68.4,77.7c0,3.2,0,6.4,0,9.6
			c0,0.8,0,1.7,1.1,1.6c1.9,0,3.8,0,5.7-0.3c2.4-0.3,4.2-1.7,5-4.1c1.4-4.5,1.4-9,0-13.4c-0.8-2.5-2.6-3.9-5.2-4.3
			c-1.7-0.2-3.4-0.2-5.1-0.3c-1.2-0.1-1.6,0.5-1.6,1.6C68.5,71.4,68.4,74.5,68.4,77.7z"/>
	</g>
</g>
</svg>
