<?xml version="1.0" encoding="utf-8"?>
<!-- Generator: Adobe Illustrator 26.0.3, SVG Export Plug-In . SVG Version: 6.00 Build 0)  -->
<svg version="1.1" id="Layer_1" xmlns="http://www.w3.org/2000/svg" xmlns:xlink="http://www.w3.org/1999/xlink" x="0px" y="0px"
	 viewBox="0 0 280 280" style="enable-background:new 0 0 280 280;" xml:space="preserve">
<style type="text/css">
	.st0{fill-rule:evenodd;clip-rule:evenodd;fill:#62BB39;}
	.st1{fill-rule:evenodd;clip-rule:evenodd;fill:#FFFFFF;}
</style>
<g>
	<path class="st0" d="M66.28,66.72c-10.99,2.99-20.04,10.5-26.45,21.96l-3.56,6.36l-0.02,11c-0.01,7.02,0.44,12.39,1.26,14.86
		c1.9,5.73-3.18,10.09-5.38,4.61c-0.56-1.39-0.85-1.58-0.89-0.58c-0.03,0.82,0.84,3.5,1.94,5.96c1.1,2.46,2.29,5.91,2.64,7.68
		c0.51,2.53,0.67,2.72,0.77,0.92c0.1-1.72,1.04-2.71,3.77-3.97l3.64-1.68l4.81,4.08c6.13,5.2,14.69,10.01,16.54,9.3
		c1.76-0.68,0.43-2.16-5.72-6.36c-4.31-2.95-11.96-12.66-11.96-15.19c0-0.85-0.62-3.02-1.37-4.83
		c-5.48-13.11,4.32-34.52,19.25-42.06c10.18-5.14,28.88-4.05,36.57,2.14c8.64,6.95,13.32,13.55,14.78,20.86l1.04,5.17l0.55-10.99
		c0.61-12.18,0.64-12-1.88-10.65c-1.94,1.04-1.59,1.3-9.95-7.47C96.6,67.29,80.5,62.86,66.28,66.72"/>
	<path class="st0" d="M192.75,66.72c-7.26,1.97-15.13,7.06-20.98,13.57c-4.75,5.28-5.51,5.78-7.52,5.02l-2.25-0.85l0.53,16.75
		c0.29,9.21,0.96,18.19,1.48,19.96c0.93,3.16,0.94,3.14,0.5-0.92c-1.84-17.18-1.77-18.44,1.36-24.29
		c13.08-24.4,43.07-27.91,61.7-7.22c1.87,2.08,3.4,4.31,3.4,4.97c0,0.66,0.55,1.84,1.22,2.64c5.4,6.43,5.03,21.72-0.8,33
		c-2.26,4.37-8.99,11.98-10.59,11.98c-1.95,0-7.34,5.52-5.92,6.06c2.49,0.96,14.57-6.24,19.22-11.44c1.87-2.09,4.64-2.58,5.62-0.98
		c0.33,0.53,1.59,1.35,2.8,1.81c2.39,0.91,2.75,2.61,1.23,5.75c-0.93,1.93-0.92,1.94,0.46,0.22c0.78-0.98,1.43-2.63,1.43-3.67
		c0.01-1.04,0.63-3.91,1.37-6.39c1.7-5.62,1.7-6.11-0.04-5.44c-3.61,1.39-5.79-3.26-3.5-7.47c0.88-1.62,1.68-5.84,1.94-10.28
		C247.08,81.31,220,59.31,192.75,66.72"/>
	<path class="st0" d="M79.88,90.17c-3.21,8.43-3.8,11.84-3.8,22.09c0,6.95,0.44,11.85,1.23,13.75c0.68,1.62,1.53,4.52,1.89,6.44
		c0.83,4.46,4.17,4.56,5.42,0.17c0.43-1.51,1.37-4.61,2.08-6.87c1.71-5.44,1.71-22.05,0-27.49c-0.71-2.27-1.65-5.36-2.08-6.86
		C83.64,87.95,80.99,87.27,79.88,90.17"/>
	<path class="st0" d="M196.16,92.06c-5.41,11.5-2.48,46.46,3.57,42.68c7.05-4.4,7.07-41.92,0.02-45.69
		C198.25,88.25,197.76,88.66,196.16,92.06"/>
	<path class="st0" d="M22.51,129.99c0.52,2.86-2.56,6.71-5.43,6.77c-1.79,0.04-10.39,5.95-12.72,8.74
		c-6.07,7.3-5.85,12.42,0.87,20.19c2.07,2.39,12.4,8.62,14.31,8.62c0.77,0,1.54,0.31,1.71,0.69c0.29,0.65,6.99,4.2,33.75,17.89
		c6.3,3.22,20.94,10.73,32.53,16.7c11.59,5.96,22.32,11.42,23.83,12.13c1.51,0.71,3.37,1.65,4.12,2.1
		c21.38,12.63,27.02,12.32,56.36-3.02c2.02-1.05,10.13-5.24,18.04-9.3c44.74-23,66.25-34.11,75.44-38.94
		c11.54-6.08,14.66-9.85,14.66-17.74v-6.35l-4.58-4.14c-2.52-2.28-7.54-5.55-11.17-7.27c-5.45-2.58-6.66-3.56-6.97-5.61
		c-0.27-1.74-0.42-1.36-0.52,1.31c-0.08,2.08-1.17,6.11-2.43,8.96c-2.73,6.17-2.84,6.93-0.62,4.18l1.67-2.07l1.99,2.8
		c5.97,8.38,0.24,16.11-16.8,22.66c-3.02,1.16-6.74,2.77-8.25,3.58c-1.51,0.81-3.19,1.47-3.73,1.47c-0.54,0-3.54,1.24-6.66,2.75
		c-3.12,1.51-6.26,2.75-6.98,2.75c-0.72,0-1.53,0.36-1.8,0.8c-0.27,0.44-3.08,1.76-6.24,2.93c-3.16,1.17-8.09,3.29-10.97,4.7
		c-2.87,1.41-5.77,2.57-6.44,2.57c-0.67,0-2.03,0.56-3.03,1.25c-0.99,0.69-2.83,1.57-4.09,1.97c-1.26,0.39-4.83,1.89-7.94,3.33
		c-3.11,1.44-5.94,2.62-6.29,2.62c-0.35,0-3.17,1.18-6.27,2.62c-18.27,8.5-24.78,8.42-44.58-0.55c-2.27-1.03-9.28-4.02-15.58-6.66
		c-10.93-4.57-21.27-9.03-30.24-13.05c-2.27-1.02-5.57-2.37-7.33-3c-1.76-0.63-5.55-2.23-8.42-3.55c-2.87-1.32-5.45-2.4-5.73-2.4
		c-0.29,0-2.55-0.98-5.03-2.17c-2.48-1.2-5.55-2.44-6.83-2.76c-3.08-0.77-12.57-6.37-14.42-8.5c-3.7-4.26-2.97-12.83,1.21-14.41
		c1.75-0.66,2.5-1.48,2.19-2.39c-0.26-0.76-0.96-3.24-1.55-5.51C23.98,131.48,21.8,126.06,22.51,129.99"/>
	<path class="st1" d="M254.61,62.53c-0.35-0.01-2.47-1.26-4.72-2.77c-2.24-1.51-4.35-2.75-4.68-2.75c-0.33,0-2.54-0.85-4.91-1.88
		c-2.37-1.04-5.13-2.23-6.14-2.66c-11.97-5.05-45.51-7.09-57.28-3.48c-2.77,0.85-6.48,1.95-8.25,2.44
		c-10.23,2.83-12.68,4.96-12.79,11.13c-0.09,5.28-1.29,5.71-15.24,5.55c-14.5-0.16-15.96-0.84-15.96-7.4c0-3.24-2.08-6.45-4.2-6.46
		c-0.47,0-1.92-0.56-3.22-1.25c-1.31-0.68-3.99-1.53-5.96-1.89c-1.97-0.36-5.44-1.27-7.7-2.04c-4.91-1.65-28.47-2.44-37.7-1.26
		c-3.35,0.43-6.85,1.18-7.79,1.67s-3.46,1.19-5.62,1.54c-5.05,0.84-16.92,5.75-22.21,9.18C14.42,70.53,11.61,75.9,15.15,89.09
		c0.74,2.77,1.36,6.66,1.36,8.65c0.01,3.42,1.19,8.88,4.18,19.39c0.73,2.56,1.33,5.66,1.32,6.87c0,1.22,0.58,4.07,1.3,6.33
		c0.72,2.27,2.2,7.22,3.3,11c3.14,10.83,6.9,18.96,9.4,20.29c3.09,1.66,36.94,0.56,42.83-1.38c7.34-2.43,21.08-7.81,24.46-9.59
		c1.61-0.84,4.91-2.54,7.33-3.77c12.19-6.19,17.32-16.86,19.38-40.38c1.74-19.8,19.86-18.7,21.3,1.3c0.74,10.26,2.7,20.87,4.18,22.6
		c0.68,0.8,1.24,2.16,1.24,3.03c0,6.14,21.66,19.6,39.87,24.78c3.02,0.86,6.53,2.03,7.79,2.61c4,1.82,38.08,2.06,40.8,0.28
		c2.08-1.36,5.94-8.27,5.94-10.63c0-0.57,1.2-3.99,2.67-7.61c1.47-3.62,2.89-8.44,3.16-10.7c0.27-2.27,1.37-7.01,2.45-10.54
		c1.07-3.53,2.3-9.2,2.74-12.6c0.43-3.4,1.04-6.59,1.34-7.09c0.48-0.77,1.67-7.22,3.87-21.03
		C268.11,76.26,258.65,62.64,254.61,62.53z M118.8,89.82c-2.62,46.31-3,47.1-27.59,57.07c-1.01,0.41-3.26,1.03-5.01,1.37
		c-1.75,0.34-3.81,0.95-4.58,1.35c-8.01,4.11-35.05,5.65-39.59,2.25c-2.96-2.22-5.12-6.48-5.93-11.7c-0.33-2.13-1.53-6-2.66-8.58
		c-1.13-2.58-2.33-6.5-2.68-8.71c-0.34-2.2-1.19-5.86-1.89-8.13C22.75,94.82,25.09,78.81,35.12,72c2.12-1.44,4.06-2.86,4.31-3.16
		C45.59,61.42,73.19,55.16,87.25,58C113.26,63.25,119.93,69.98,118.8,89.82z M248.02,129.41c-1.29,4.28-2.35,8.64-2.36,9.68
		c-0.01,1.04-0.63,2.69-1.37,3.67c-0.74,0.98-1.36,2.49-1.37,3.37c-0.02,0.87-1.24,2.93-2.71,4.58l-2.68,2.99l-12.79-0.12
		c-8.52-0.08-14.28-0.58-17.25-1.5c-2.46-0.76-6.94-2.08-9.96-2.93c-6.32-1.78-9.51-2.89-14.66-5.09c-2.02-0.86-4.14-1.73-4.73-1.92
		c-10.89-3.56-14.91-15.17-15.62-45.01l-0.49-20.84l3.51-4.6c3.92-5.14,9.21-9.02,14.08-10.32c16.46-4.4,25.77-5.2,35.87-3.09
		c21.07,4.41,37.58,15.76,39.18,26.94C255.98,94.43,253.43,111.43,248.02,129.41z"/>
</g>
</svg>
