<?xml version="1.0" encoding="utf-8"?>
<!-- Generator: Adobe Illustrator 26.4.1, SVG Export Plug-In . SVG Version: 6.00 Build 0)  -->
<svg version="1.1" id="Layer_1" xmlns="http://www.w3.org/2000/svg" xmlns:xlink="http://www.w3.org/1999/xlink" x="0px" y="0px"
	 viewBox="0 0 280 280" style="enable-background:new 0 0 280 280;" xml:space="preserve">
<style type="text/css">
	.st0{fill:#E30F4D;}
	.st1{fill:#FBBF15;}
	.st2{fill:none;stroke:#FBBF15;stroke-width:1.029;stroke-miterlimit:31.4324;}
	.st3{fill:none;stroke:#E30F4D;stroke-width:1.029;stroke-miterlimit:31.4324;}
</style>
<g transform="translate(-351.2031 -517.92235)">
	<path class="st0" d="M472.4,675.7l0.2,30.9c-3.3-3.2-7.7-5.3-12.5-5.3c-10.2,0-18.6,9.2-18.6,20.4c0,11.2,8.3,20.2,18.6,20.2
		c4.8,0,9.2-2,12.5-5.3v4.2h12.3v-65H472.4z M597.9,675.7v65.2h12.3v-65.2H597.9z M618.9,675.7v65.2h12.3v-65.2H618.9z M351.2,678.9
		v61.9h13.2v-51.4l6.8,0.2c4.9,0,8.5,3.6,8.5,8.1c0,4.5-4,8.1-8.8,8.1h-2.9v14.9l13.1,20.2h15.6l-18.2-25.9
		c8.2-2,14.2-9.2,14.2-17.8c0-10.1-8.3-18.2-18.6-18.2c-0.3,0-0.6,0-0.9,0H351.2z M501.8,679.2v61.7l27.4-0.2
		c10.5-0.2,18.9-8.1,18.9-17.8c0-7.1-2.5-11.9-10.8-15.8c3.4-3.2,5.5-7.5,5.5-12.1c0-4.2-1.8-8.2-4.6-11.2c-3-3.2-8.2-4.6-15.3-4.6
		H501.8z M515,689.9h8.3c3.6,0,6.6,3,6.6,6.6c0,3.6-3,6.4-6.6,6.4h-4.2v11.2h7.7c4.4,0,7.9,3.5,7.9,7.9c-0.1,3.4-1.8,6.1-4.6,7.3
		c-0.9,0.4-2.1,0.7-3.3,0.7H515V689.9z M415.7,700.7c-11.3,0-20.6,9.3-20.6,20.8c0,11.4,9.3,20.8,20.6,20.8c8.6,0,15.3-4,18.8-10.1
		l-10.1-4.6c-1.3,2.8-4.2,4.8-7.7,4.8c-4.7,0-8.5-3.5-8.5-7.7c0-0.3,0-0.3,0-0.6h27.4c0.1-0.8,0-1.7,0-2.6
		C435.8,708.1,427,700.7,415.7,700.7z M552.3,702.9v24.6c0,5.2,3.5,9.9,8.6,12.7c1,0.5,2.2,0.9,3.3,1.3c2.3,0.8,4.9,1.3,7.5,1.3
		c10.7,0,19.3-6.9,19.3-15.2v-24.6H579l-0.2,22.4c0,3.7-3.1,6.6-7,6.6c-3.9,0-7.2-2.9-7.2-6.6l0.2-22.4H552.3z M415.7,709.4
		c4.2,0,7.5,3.5,7.5,7.7h-15.1C408.2,712.9,411.5,709.4,415.7,709.4z M463.5,711.4c5,0,9.2,4.4,9.2,9.9c0,5.5-4.2,10.1-9.2,10.1
		c-1.9,0-3.7-0.8-5.1-1.8c-0.5-0.4-0.9-0.7-1.3-1.1c-1.6-1.8-2.6-4.4-2.6-7.2C454.5,715.8,458.5,711.4,463.5,711.4z"/>
	<path class="st1" d="M526.8,591.4c0.2,0.2,0.4,0.5,0.4,0.5c1.2-0.9,2.2-1.8,3.6-2.1c2.2-0.6,5.3,0.6,7.5,2.1c1.1,0.8,2,1.7,2.9,2.8
		c0.7,0.7,1.8,0.7,2.6,1c2.6,0.5,4.9,1.4,7.1,2.8c1.5,0.9,2.7,2.5,4.5,2.8c2.1,0.4,4.1,1.1,6,2.1c2.2,1.5,4.4,3.3,6.9,3.8
		c5.4,0.6,9.9,3.6,14.2,6.6c2.5,1.4,5.4,3.2,8.5,2.1c0.9-0.4,1.6-1.1,1.9-2c0.3-2-1-3.6-2.3-5c-2.6-3-7.1-5.6-6.6-10.1
		c0.4-3.2,4.4-5.2,7.3-6.1c1.6-0.6,3.3-0.4,4.7-1.6c0.6-0.6,1.5-1.9,2.2-1.5c0.7,0.3,1,1.7,1.2,2.7c0.4,3.2-0.3,6.4-3.1,8.2
		c-1.4,0.9-2.9,1.2-4.4,1.5c2.4,2,4.7,4.3,6.1,7c0.8,1.5,1.2,2.9,1.4,4.8c-0.1,3.4-2.2,6.3-5.1,8.1c-1.7,0.9-3.6,1.3-5.7,1.2
		c-0.8,0-1.5-0.2-2.2-0.2c0.3,1.6,0.4,3.8,0,5.5c-0.1,0.9-0.7,1.9-0.7,3c0.4,0.5,1.1,0.6,1.7,0.6c1.5,0,3.3-0.1,4,1.5
		c0.7,1.4,0.9,2.7,1.5,4.1c0.1,0.3,0.7,1.2,1,1c1-0.9,2-2.2,3.3-1.6c0.1,0.1,1,0.8,4.1,3c0.4,0.3,0.5,0.8,0.6,1.4
		c1.2,0.5,2.6,1.3,2.9,2.6c0.3,0.9,0.1,1.8,0.4,2.6c0.4,0.9,1.6,2.8,0.6,3.3l-0.5,0.2l-4.3,1.3c-0.4,0-0.7-0.2-1-0.5
		c-2.3-0.1-5,0.6-6.8-1c-0.8-0.7-1.4-1.5-2-2.3c-1.3,0.7-3.3,1.2-4.7,0.3c-2.8-2.2-5.7-4.3-9.5-4.2c-1.7,0.4-3.8,0.9-5.4,0.1
		c-1.6-1.1-3.4-1.7-4.7-3.3c-1.8-1.9-1.9-4.2-2.4-6.6l0-0.1c-2.4,0.7-5.1,0.4-7.6,0.2c-2.1-0.1-4,0.2-5.9,0.6
		c-2.4,0.5-5,0.7-7.5,0.6l-1.2,0.9c0.5,0.2,1.2,0.1,1.6,0.5l0.5,0.5c2.1,0.2,4.4-0.2,6.3,0.4c0.5,0.2,0.9,0.4,1.1,0.9
		c0.4,0.7,0.2,1.5-0.1,1.9c-0.8,1.4-1.6,3-2.9,4.1c-0.4,0.4-1.4-0.1-1.5,0.7c-0.5,2-2.3,3.7-4.3,4.2c-0.8,0.2-1.7,0-2.4-0.3
		c-2.3-0.8-4.8-1.5-7.2-2.1c-0.8-0.2-1.4-1-2.1-1.5c-1.1,0-2.4,0.4-3.2-0.6c-0.5-0.5-1.1-1.7-1.2-1.7c-2.2,2.7-4.6,5.4-7.4,7.8
		c-11.5,9.7-28.7,12.9-43.2,7.7c-8-2.8-15.3-8-21.1-15.9c0,0-0.9,2.4-2.3,2.7l-3.6,0.5c-2.8,1.2-5.7,2.2-8.6,3.2
		c-1.7,0.4-3.6,0-4.9-1.1c-1-0.9-1.5-1.9-2.2-2.9c-0.3-0.4-1.5-0.1-2.1-0.2c-0.3,0-0.8-0.4-1.1-0.9l-2.5-4.1c-0.4-0.9-0.2-1.4,0-1.9
		c0.5-0.9,1.5-1.3,2.5-1.4c1.8-0.2,3.9-0.7,5.6,0c0.8-0.9,2.1-0.8,3.2-1l0.1,0c-0.5-0.6-1.3-1-1.9-1.5c-3.3,0.8-6.9,0.3-10.1-0.4
		c-2.9-0.7-5.4,1-8.3,0.6c0,0-0.7,1.7-1.1,2.6c-0.6,1.4-1.3,3.2-3.3,4.3c-1.3,0.7-2.6,1.4-3.9,2c-2.3,1.2-5.4,0.7-7.8,0.2
		c-1-0.1-1.7,0-2.6,0.3c-0.9,0.6-1.9,1.8-2.8,2.4c-0.9,0.7-2.5,1.7-4.1,1.6c-1-0.1-2.2-0.7-2.6-0.5c-0.2,0.1-1.8,3.4-3.7,3.9
		c-1.9,0.5-4.1,0.1-5.9-0.3c-0.5,0.2-0.9,0.7-1.6,0.6c-1.2-0.3-2.5-0.7-3.6-1.3c-0.5-0.4-0.5-1-0.7-1.5c0-0.8,0.6-1.5,1-2.2
		c0.2-0.9,0.1-1.9,0.5-2.7c0.6-1.3,1.9-2,3-2.6c0.2-0.9,0.8-1.7,1.5-2.1c1.5-0.9,3.1-2.6,5-1.5l2,1.7c1.3-0.6,1.3-1.8,2.3-4
		c0.4-1,1-2,2.2-2.2c0.9-0.1,1.9,0,2.5-0.1c0.6-0.1,2.6-0.9,2.8-1.2c0.3-0.3,0.4-0.7,0.3-1c-1.4-3.5-1.4-4.9-1.6-7.5
		c-2,0.2-4.2,0.5-6.3,0.2c-3.2-0.5-6.3-3-7.5-6c-1.4-3.1-0.8-7.3,1.4-9.9c1.7-2,3.6-3.8,5.6-5.4c-0.7-0.2-1.5-0.2-2.1-0.3
		c-3-0.5-5.9-3.1-6.5-6c-0.5-1.9,0-3.7,0.9-5.4c0.3-0.3,0.7-0.7,1.2-0.5c1.4,0.6,2.2,1.5,4.1,2.4c1.8,0.9,8.8,1.4,10.2,6
		c0.9,3.6-0.9,5.9-3.6,7.9c-2,1.4-4.1,3.2-5.2,5.3c-0.7,1.5-0.4,3.7,0.9,4.9c1.5,1.4,3.8,1.3,5.5,0.7c3.2-1.3,6.1-3.4,8.9-5.6
		c2.7-2,5.3-2.8,8.7-2.9c1.4,0,3.7-1.1,4.9-2.1c2.3-1.8,4.4-3.7,7.2-4.3c1.2-0.3,2.5-0.3,3.8-0.5c1-0.5,1.7-1.6,2.5-2.2
		c3.7-3.2,8.7-3.2,12.7-5.7c2.3-1.7,4.7-2.9,7.7-2.7c1.4,0.1,2.4,0.2,3.5,0.7c0,0,0.2,0,0.2-0.1c8-10.4,19.2-16.2,31.8-17.3
		c9.7-0.8,18.6,1.5,26.3,6.1C518.8,582.7,523.3,586.7,526.8,591.4L526.8,591.4z"/>
	<path class="st2" d="M526.8,591.4c0.2,0.2,0.4,0.5,0.4,0.5c1.2-0.9,2.2-1.8,3.6-2.1c2.2-0.6,5.3,0.6,7.5,2.1c1.1,0.8,2,1.7,2.9,2.8
		c0.7,0.7,1.8,0.7,2.6,1c2.6,0.5,4.9,1.4,7.1,2.8c1.5,0.9,2.7,2.5,4.5,2.8c2.1,0.4,4.1,1.1,6,2.1c2.2,1.5,4.4,3.3,6.9,3.8
		c5.4,0.6,9.9,3.6,14.2,6.6c2.5,1.4,5.4,3.2,8.5,2.1c0.9-0.4,1.6-1.1,1.9-2c0.3-2-1-3.6-2.3-5c-2.6-3-7.1-5.6-6.6-10.1
		c0.4-3.2,4.4-5.2,7.3-6.1c1.6-0.6,3.3-0.4,4.7-1.6c0.6-0.6,1.5-1.9,2.2-1.5c0.7,0.3,1,1.7,1.2,2.7c0.4,3.2-0.3,6.4-3.1,8.2
		c-1.4,0.9-2.9,1.2-4.4,1.5c2.4,2,4.7,4.3,6.1,7c0.8,1.5,1.2,2.9,1.4,4.8c-0.1,3.4-2.2,6.3-5.1,8.1c-1.7,0.9-3.6,1.3-5.7,1.2
		c-0.8,0-1.5-0.2-2.2-0.2c0.3,1.6,0.4,3.8,0,5.5c-0.1,0.9-0.7,1.9-0.7,3c0.4,0.5,1.1,0.6,1.7,0.6c1.5,0,3.3-0.1,4,1.5
		c0.7,1.4,0.9,2.7,1.5,4.1c0.1,0.3,0.7,1.2,1,1c1-0.9,2-2.2,3.3-1.6c0.1,0.1,1,0.8,4.1,3c0.4,0.3,0.5,0.8,0.6,1.4
		c1.2,0.5,2.6,1.3,2.9,2.6c0.3,0.9,0.1,1.8,0.4,2.6c0.4,0.9,1.6,2.8,0.6,3.3l-0.5,0.2l-4.3,1.3c-0.4,0-0.7-0.2-1-0.5
		c-2.3-0.1-5,0.6-6.8-1c-0.8-0.7-1.4-1.5-2-2.3c-1.3,0.7-3.3,1.2-4.7,0.3c-2.8-2.2-5.7-4.3-9.5-4.2c-1.7,0.4-3.8,0.9-5.4,0.1
		c-1.6-1.1-3.4-1.7-4.7-3.3c-1.8-1.9-1.9-4.2-2.4-6.6l0-0.1c-2.4,0.7-5.1,0.4-7.6,0.2c-2.1-0.1-4,0.2-5.9,0.6
		c-2.4,0.5-5,0.7-7.5,0.6l-1.2,0.9c0.5,0.2,1.2,0.1,1.6,0.5l0.5,0.5c2.1,0.2,4.4-0.2,6.3,0.4c0.5,0.2,0.9,0.4,1.1,0.9
		c0.4,0.7,0.2,1.5-0.1,1.9c-0.8,1.4-1.6,3-2.9,4.1c-0.4,0.4-1.4-0.1-1.5,0.7c-0.5,2-2.3,3.7-4.3,4.2c-0.8,0.2-1.7,0-2.4-0.3
		c-2.3-0.8-4.8-1.5-7.2-2.1c-0.8-0.2-1.4-1-2.1-1.5c-1.1,0-2.4,0.4-3.2-0.6c-0.5-0.5-1.1-1.7-1.2-1.7c-2.2,2.7-4.6,5.4-7.4,7.8
		c-11.5,9.7-28.7,12.9-43.2,7.7c-8-2.8-15.3-8-21.1-15.9c0,0-0.9,2.4-2.3,2.7l-3.6,0.5c-2.8,1.2-5.7,2.2-8.6,3.2
		c-1.7,0.4-3.6,0-4.9-1.1c-1-0.9-1.5-1.9-2.2-2.9c-0.3-0.4-1.5-0.1-2.1-0.2c-0.3,0-0.8-0.4-1.1-0.9l-2.5-4.1c-0.4-0.9-0.2-1.4,0-1.9
		c0.5-0.9,1.5-1.3,2.5-1.4c1.8-0.2,3.9-0.7,5.6,0c0.8-0.9,2.1-0.8,3.2-1l0.1,0c-0.5-0.6-1.3-1-1.9-1.5c-3.3,0.8-6.9,0.3-10.1-0.4
		c-2.9-0.7-5.4,1-8.3,0.6c0,0-0.7,1.7-1.1,2.6c-0.6,1.4-1.3,3.2-3.3,4.3c-1.3,0.7-2.6,1.4-3.9,2c-2.3,1.2-5.4,0.7-7.8,0.2
		c-1-0.1-1.7,0-2.6,0.3c-0.9,0.6-1.9,1.8-2.8,2.4c-0.9,0.7-2.5,1.7-4.1,1.6c-1-0.1-2.2-0.7-2.6-0.5c-0.2,0.1-1.8,3.4-3.7,3.9
		c-1.9,0.5-4.1,0.1-5.9-0.3c-0.5,0.2-0.9,0.7-1.6,0.6c-1.2-0.3-2.5-0.7-3.6-1.3c-0.5-0.4-0.5-1-0.7-1.5c0-0.8,0.6-1.5,1-2.2
		c0.2-0.9,0.1-1.9,0.5-2.7c0.6-1.3,1.9-2,3-2.6c0.2-0.9,0.8-1.7,1.5-2.1c1.5-0.9,3.1-2.6,5-1.5l2,1.7c1.3-0.6,1.3-1.8,2.3-4
		c0.4-1,1-2,2.2-2.2c0.9-0.1,1.9,0,2.5-0.1c0.6-0.1,2.6-0.9,2.8-1.2c0.3-0.3,0.4-0.7,0.3-1c-1.4-3.5-1.4-4.9-1.6-7.5
		c-2,0.2-4.2,0.5-6.3,0.2c-3.2-0.5-6.3-3-7.5-6c-1.4-3.1-0.8-7.3,1.4-9.9c1.7-2,3.6-3.8,5.6-5.4c-0.7-0.2-1.5-0.2-2.1-0.3
		c-3-0.5-5.9-3.1-6.5-6c-0.5-1.9,0-3.7,0.9-5.4c0.3-0.3,0.7-0.7,1.2-0.5c1.4,0.6,2.2,1.5,4.1,2.4c1.8,0.9,8.8,1.4,10.2,6
		c0.9,3.6-0.9,5.9-3.6,7.9c-2,1.4-4.1,3.2-5.2,5.3c-0.7,1.5-0.4,3.7,0.9,4.9c1.5,1.4,3.8,1.3,5.5,0.7c3.2-1.3,6.1-3.4,8.9-5.6
		c2.7-2,5.3-2.8,8.7-2.9c1.4,0,3.7-1.1,4.9-2.1c2.3-1.8,4.4-3.7,7.2-4.3c1.2-0.3,2.5-0.3,3.8-0.5c1-0.5,1.7-1.6,2.5-2.2
		c3.7-3.2,8.7-3.2,12.7-5.7c2.3-1.7,4.7-2.9,7.7-2.7c1.4,0.1,2.4,0.2,3.5,0.7c0,0,0.2,0,0.2-0.1c8-10.4,19.2-16.2,31.8-17.3
		c9.7-0.8,18.6,1.5,26.3,6.1C518.8,582.7,523.3,586.7,526.8,591.4L526.8,591.4z"/>
	<path class="st0" d="M390.4,593.9c0.9,0.2,4,0.9,5.4,2.4c1.2,1.4,1.4,3.9,0.3,5.4c-1.6,2.2-4.5,4.1-6.7,6.3
		c-1.7,1.7-2.5,4.1-1.9,6.5c0.7,2.1,2.8,3.6,5,3.8c3.3,0.1,5.9-1.6,8.6-3.1c2.7-1.9,5.2-4.4,8.3-5.2c2-0.7,4.4-0.5,6.3-1.2
		c2.1-0.7,3.8-2.2,5.6-3.8c1.9-1.5,3.9-2.5,7.3-2.5c1.6,0,1.6-0.3,4.4-2.8c2.6-2.4,6.1-2.6,9.1-4c2.1-0.7,3.9-2.2,5.9-3.3
		c1.9-0.8,4.5-0.9,6.5-0.2c1.3,0.5,1.8,0.7,3.7,2l9.2,7.6c0.2,0.2,0.4,0.4,0.7,0.7c0.4,0.4,5.4,6.3,7.5,9.7c0.7,1.2,1.2,3,1.3,3.7
		c0.4,5.2,1.9,9.8,3.6,14.3c0.1,0.4,1.4,1.2,1.9,1.9c1.4,2,2.4,4.6,4.7,5.9c0,0,0.7,0.4,1.4,0.7c0.2,0.1,0.3,0.6-0.2,0.7
		c-2.5,0.5-5.4-1.5-6.4-3.4c-1.2-2.2-2.3-3.7-4.3-4.4l-0.1,0.1c0.3,0.6,0.8,1.2,1.1,1.7c0.8,1.2,1.5,2.6,1.9,3.9
		c0.4,1.4,2,2.5,3.3,3.3l1.7,0.9c0.6,0.3,0.5,0.7,0.1,0.9l-0.3,0c-3.1,0.1-5.6-0.9-7.7-3.1c-0.5-0.5-1.2-1-1.9-1
		c-1.4,1.2-2.7,2.4-4.5,2.5c-1.9-0.3-4-0.3-5.7,0.4c-1.6,0.5-3.1,1.2-4.9,1.3c-0.8,0-1.7-0.4-2-1.2c0-1-0.7-2.1-0.1-3.1l1.2-1.7
		c0-0.2-0.2-0.4-0.4-0.5c-0.5-0.1-1.2,0.7-1.4-0.1c0.1-1.7,1.8-2.8,2.9-4c0.3-1.4,0.8-2.6,1.8-3.7c0-0.2-0.2-0.3-0.3-0.4
		c-1.4,0.2-2.9,0.6-4.5,0.6c-1.2,0.7-2.8,1.1-4.3,0.7c-0.3-0.2-0.2-0.6-0.1-0.8c1.5-2.1,2.2-4.8,1.7-7.5c0-0.2-0.1-0.4-0.4-0.4
		c-0.2,0-0.4,0.3-0.4,0.4c-0.4,2.4-1.1,4.5-2.4,6.5c-0.6,0.8-2.6,1-3.9,1.4c-0.3,0.2-0.7,0.4-0.7,0.8c0,0.9,0.4,1.6,0.8,2.2
		c0,0,2.7,4.4,2.8,5.3c0.1,0.7-0.3,3.1-0.6,4.4c0.2,0.3,0.4,0.2,0.6,0c0.5-0.3,1.7-2.2,2.1-3.5c0.1-0.6-0.1-1.3-0.3-1.7l-3.1-6
		c0.2-0.4,0.7-0.5,1-0.5c0.7,0,1.3,0.4,2,0.5c0.7,1.9,1,2.6,2.7,5.3c0.6,0.9,0.5,2,0,3.1c-0.6,1.3-1.4,2.6-2.2,3.8
		c-0.8,0.8-2,0.7-3.1,0.9h-0.9c-2.7,1.4-5.5,2.4-8.4,3.3c-1.3,0.4-2.8,0.2-3.8-0.7c-1-0.8-1.4-2-2.1-3c-0.8-1-2.5,0-2.9-0.7
		c-0.8-1.3-1.4-2.4-2.2-3.7c-0.2-0.4-0.1-0.9,0.4-1c1.1-0.2,2.2-0.5,3.3-0.6c1.1-0.1,1.9,0.1,2.6,0.9c1.4,1.6,1.9,3.8,3.9,4.8
		c0.6,0.3,3-0.5,4.3-1.1c0.8-0.5,1.7-1.2,1.7-2.2c-0.1-2-1.5-3.6-3.1-4.7c-1.7-0.9-3.5-2.1-4.8-3.7c-0.6-0.9-0.8-1.9-1.1-2.9
		c-0.1-0.3-0.5-0.3-0.7-0.1c-0.7,0.6-0.1,1.8,0,2.5c0.2,0.5,0.3,0.9,0,1.1c-1,0.8-2.5,0.5-3.6,0.4c-2.5-0.1-4.8-1.1-7.5-0.9
		c-2.5,0.1-6.8,1.6-7.9-0.8c-0.9-2.3-0.5-5-0.1-7.4c0-0.3-0.3-0.4-0.5-0.5c-0.2-0.1-0.5,0-0.5,0.3c-0.6,2.3-0.7,5-1.4,7.3
		c-0.7,2-2.3,4.5-4.5,5.6c-2,1-4.2,1.4-6.5,1.5c-4.3,0.1-8.7,0.9-11.3,4.6c-0.2,0.3-0.2,0.4-0.3,0.8c-0.1,0.5,0.4,0.7,0.6,0.4
		c2.9-3.3,6.9-4.5,11.1-4.3c4.1,0,8.2-0.7,10.7-4.2c0.7-0.8,1.7-2.4,1.7-2.4l1.4,1.1c0,0-0.7,1.7-1.1,2.4c-0.6,1.1-1.6,2.8-2.8,3.5
		c-0.8,0.4-2.2,1.2-3.7,2c-1.2,0.7-2.8,0.8-4.3,0.4c-1.9-0.3-4.3-0.8-6.1,0c-0.9,0.6-1.7,1.5-2.6,2.2c-0.9,0.7-2.4,1.6-3.9,1.5
		c-1.1-0.1-2.3-0.9-3.1,0c-1.1,1-1.4,2.8-2.8,3.5c-1.7,0.9-3.6,0-5.3-0.2l0-0.1c0.3-1.5,0.6-3.2,1.6-4.4c0.7-0.1,1.3-0.2,1.8-0.7
		c0.7-0.6,1.2-1.4,1.6-2.1c1.4-0.9,3.1-1.6,4.1-3.2c0.7-1.5,1.4-3.7,1.9-4.2c0.1-0.1,0.3-0.2,0.6-0.3c0.3,0,1.5-0.1,2.6-0.2
		c0.4-0.1,2.8-0.9,4-2c0.4-0.4,0.5-0.9,0.4-1.4c-0.1-0.5-1.1-2.5-1.4-4c-0.1-0.8-0.2-3.2-0.3-5c0-0.4-0.2-0.5-0.5-0.4
		c-2,0.5-4,1-6.2,0.7c-3-0.4-6.2-2.4-7.3-5.4c-1-2.6-0.8-6.3,1.2-8.4c1.8-2.2,4.1-4,6.3-5.8c0.3-0.3,0.6-0.5,0.5-0.9
		c-0.1-0.6-0.6-1-1-1.1c-1.4-0.3-2.9,0.2-4.2-0.4c-2.3-0.9-4.2-3.1-4.5-5.5c-0.1-1.1,0.3-2.8,0.7-3c0.3-0.1,1.8,1.2,2.7,1.7
		C387.2,593.1,388.2,593.4,390.4,593.9"/>
	<path class="st3" d="M390.4,593.9c0.9,0.2,4,0.9,5.4,2.4c1.2,1.4,1.4,3.9,0.3,5.4c-1.6,2.2-4.5,4.1-6.7,6.3
		c-1.7,1.7-2.5,4.1-1.9,6.5c0.7,2.1,2.8,3.6,5,3.8c3.3,0.1,5.9-1.6,8.6-3.1c2.7-1.9,5.2-4.4,8.3-5.2c2-0.7,4.4-0.5,6.3-1.2
		c2.1-0.7,3.8-2.2,5.6-3.8c1.9-1.5,3.9-2.5,7.3-2.5c1.6,0,1.6-0.3,4.4-2.8c2.6-2.4,6.1-2.6,9.1-4c2.1-0.7,3.9-2.2,5.9-3.3
		c1.9-0.8,4.5-0.9,6.5-0.2c1.3,0.5,1.8,0.7,3.7,2l9.2,7.6c0.2,0.2,0.4,0.4,0.7,0.7c0.4,0.4,5.4,6.3,7.5,9.7c0.7,1.2,1.2,3,1.3,3.7
		c0.4,5.2,1.9,9.8,3.6,14.3c0.1,0.4,1.4,1.2,1.9,1.9c1.4,2,2.4,4.6,4.7,5.9c0,0,0.7,0.4,1.4,0.7c0.2,0.1,0.3,0.6-0.2,0.7
		c-2.5,0.5-5.4-1.5-6.4-3.4c-1.2-2.2-2.3-3.7-4.3-4.4l-0.1,0.1c0.3,0.6,0.8,1.2,1.1,1.7c0.8,1.2,1.5,2.6,1.9,3.9
		c0.4,1.4,2,2.5,3.3,3.3l1.7,0.9c0.6,0.3,0.5,0.7,0.1,0.9l-0.3,0c-3.1,0.1-5.6-0.9-7.7-3.1c-0.5-0.5-1.2-1-1.9-1
		c-1.4,1.2-2.7,2.4-4.5,2.5c-1.9-0.3-4-0.3-5.7,0.4c-1.6,0.5-3.1,1.2-4.9,1.3c-0.8,0-1.7-0.4-2-1.2c0-1-0.7-2.1-0.1-3.1l1.2-1.7
		c0-0.2-0.2-0.4-0.4-0.5c-0.5-0.1-1.2,0.7-1.4-0.1c0.1-1.7,1.8-2.8,2.9-4c0.3-1.4,0.8-2.6,1.8-3.7c0-0.2-0.2-0.3-0.3-0.4
		c-1.4,0.2-2.9,0.6-4.5,0.6c-1.2,0.7-2.8,1.1-4.3,0.7c-0.3-0.2-0.2-0.6-0.1-0.8c1.5-2.1,2.2-4.8,1.7-7.5c0-0.2-0.1-0.4-0.4-0.4
		c-0.2,0-0.4,0.3-0.4,0.4c-0.4,2.4-1.1,4.5-2.4,6.5c-0.6,0.8-2.6,1-3.9,1.4c-0.3,0.2-0.7,0.4-0.7,0.8c0,0.9,0.4,1.6,0.8,2.2
		c0,0,2.7,4.4,2.8,5.3c0.1,0.7-0.3,3.1-0.6,4.4c0.2,0.3,0.4,0.2,0.6,0c0.5-0.3,1.7-2.2,2.1-3.5c0.1-0.6-0.1-1.3-0.3-1.7l-3.1-6
		c0.2-0.4,0.7-0.5,1-0.5c0.7,0,1.3,0.4,2,0.5c0.7,1.9,1,2.6,2.7,5.3c0.6,0.9,0.5,2,0,3.1c-0.6,1.3-1.4,2.6-2.2,3.8
		c-0.8,0.8-2,0.7-3.1,0.9h-0.9c-2.7,1.4-5.5,2.4-8.4,3.3c-1.3,0.4-2.8,0.2-3.8-0.7c-1-0.8-1.4-2-2.1-3c-0.8-1-2.5,0-2.9-0.7
		c-0.8-1.3-1.4-2.4-2.2-3.7c-0.2-0.4-0.1-0.9,0.4-1c1.1-0.2,2.2-0.5,3.3-0.6c1.1-0.1,1.9,0.1,2.6,0.9c1.4,1.6,1.9,3.8,3.9,4.8
		c0.6,0.3,3-0.5,4.3-1.1c0.8-0.5,1.7-1.2,1.7-2.2c-0.1-2-1.5-3.6-3.1-4.7c-1.7-0.9-3.5-2.1-4.8-3.7c-0.6-0.9-0.8-1.9-1.1-2.9
		c-0.1-0.3-0.5-0.3-0.7-0.1c-0.7,0.6-0.1,1.8,0,2.5c0.2,0.5,0.3,0.9,0,1.1c-1,0.8-2.5,0.5-3.6,0.4c-2.5-0.1-4.8-1.1-7.5-0.9
		c-2.5,0.1-6.8,1.6-7.9-0.8c-0.9-2.3-0.5-5-0.1-7.4c0-0.3-0.3-0.4-0.5-0.5c-0.2-0.1-0.5,0-0.5,0.3c-0.6,2.3-0.7,5-1.4,7.3
		c-0.7,2-2.3,4.5-4.5,5.6c-2,1-4.2,1.4-6.5,1.5c-4.3,0.1-8.7,0.9-11.3,4.6c-0.2,0.3-0.2,0.4-0.3,0.8c-0.1,0.5,0.4,0.7,0.6,0.4
		c2.9-3.3,6.9-4.5,11.1-4.3c4.1,0,8.2-0.7,10.7-4.2c0.7-0.8,1.7-2.4,1.7-2.4l1.4,1.1c0,0-0.7,1.7-1.1,2.4c-0.6,1.1-1.6,2.8-2.8,3.5
		c-0.8,0.4-2.2,1.2-3.7,2c-1.2,0.7-2.8,0.8-4.3,0.4c-1.9-0.3-4.3-0.8-6.1,0c-0.9,0.6-1.7,1.5-2.6,2.2c-0.9,0.7-2.4,1.6-3.9,1.5
		c-1.1-0.1-2.3-0.9-3.1,0c-1.1,1-1.4,2.8-2.8,3.5c-1.7,0.9-3.6,0-5.3-0.2l0-0.1c0.3-1.5,0.6-3.2,1.6-4.4c0.7-0.1,1.3-0.2,1.8-0.7
		c0.7-0.6,1.2-1.4,1.6-2.1c1.4-0.9,3.1-1.6,4.1-3.2c0.7-1.5,1.4-3.7,1.9-4.2c0.1-0.1,0.3-0.2,0.6-0.3c0.3,0,1.5-0.1,2.6-0.2
		c0.4-0.1,2.8-0.9,4-2c0.4-0.4,0.5-0.9,0.4-1.4c-0.1-0.5-1.1-2.5-1.4-4c-0.1-0.8-0.2-3.2-0.3-5c0-0.4-0.2-0.5-0.5-0.4
		c-2,0.5-4,1-6.2,0.7c-3-0.4-6.2-2.4-7.3-5.4c-1-2.6-0.8-6.3,1.2-8.4c1.8-2.2,4.1-4,6.3-5.8c0.3-0.3,0.6-0.5,0.5-0.9
		c-0.1-0.6-0.6-1-1-1.1c-1.4-0.3-2.9,0.2-4.2-0.4c-2.3-0.9-4.2-3.1-4.5-5.5c-0.1-1.1,0.3-2.8,0.7-3c0.3-0.1,1.8,1.2,2.7,1.7
		C387.2,593.1,388.2,593.4,390.4,593.9L390.4,593.9z"/>
	<path class="st0" d="M538.3,593.6c1.2,0.8,1.7,2.4,3.2,2.8c2.5,0.5,5,1.1,7.2,2.2c1.6,0.8,3.3,2.1,4.8,3.2c1.3,0.9,2.7,0.6,4.2,1.1
		c2.1,0.5,3.9,2.2,5.8,3.4c2.5,2,6,1.7,8.9,2.9c4.5,1.4,8.1,4.9,12.3,7c2.2,1.2,5.4,1.6,7.6,0.3c1.4-1,2.4-2.4,2.1-4.3
		c-0.8-4.6-5.9-7.1-8.3-10.9c-0.5-0.9-0.9-2.2-0.5-3.3c0.8-2.3,3.2-3.5,5.2-4.2c1.7-0.6,3.6-0.6,5.1-1.5c0.5-0.3,1-0.8,1.4-1.2
		c0.3-0.3,0.4,0.3,0.4,0.6c0.5,2.7,0,5.5-2.4,7.1c-0.9,0.6-2,0.9-3.1,1.2c-0.8,0.2-2.7,0.5-2.6,1.2c0.1,0.7,0.9,1.3,1.5,1.8
		c3.1,2.6,6.1,6,6.4,10c0.1,3.1-2.1,5.9-4.8,7.2c-2,0.9-4.5,1.2-6.7,0.5c-0.6-0.1-1.5-0.6-1.9,0.1c-0.2,0.9,0.3,1.6,0.5,2.4
		c0.4,1.4,0.2,3.4-0.3,4.8c-0.2,1.1-1.4,2.5-0.3,3.6c1,1.5,3.1,1.1,4.7,1.4c0.9,0.2,1.2,1.2,1.5,1.9c0.3,0.9,0.7,2.7,1.1,3.5
		c0.3,0.7,1.5,1.4,2.5,2.5c1.2,1.2,2.1,3.4,4.1,3.3c0.6,1.4,1.1,2.8,1.2,4.4l-0.3,0.1c-1.6,0-3.7,0.5-4.9-0.6
		c-1.6-1.4-1.8-3.4-3.8-2.8c-0.9,0.7-2.1,0.9-3.2,0.5c-1-0.3-1.7-1.3-2.6-1.8c-2.7-2-6.3-3-9.8-2.2c-2,0.5-3.6-0.9-5.2-1.8
		c-2.1-0.9-2.7-3.2-3.2-5.1c0,0-0.4-2.2-0.4-2.4c0-0.2,0.1-0.3,0.4-0.5c0.3-0.2,0.4,0.1,0.4,0.1c0.9,2.4,3.5,5.9,6.5,6.9
		c2.8,1.1,5.4-0.3,8.4,0.2c2.8,0.4,5.1,2.2,7.3,3.9c0.2,0,0.3-0.2,0.4-0.3v-0.2c-2.6-3.3-6.2-5-10.4-4.7c-3.5,0.7-6.9-0.4-8.9-3.4
		c-1.1-1.7-1.9-3.5-2.3-5.4c-0.3-2.2-0.8-4.7-1.6-6.8c-0.1-0.4-0.4-0.4-0.7-0.3c-0.2,0.1-0.2,0.3-0.2,0.5c0,0.1,1,4.8,0.2,7.1
		c-0.5,1.8-2.4,2.5-4.1,2.6c-1.7,0.1-3.3-0.2-5.1-0.2c-4.1-0.2-7.6,1.5-11.9,1.1c0.4-1,0.9-2,0.7-3.2c-0.1-0.4-0.4-0.4-0.7-0.2
		c-0.8,0.5-0.7,1.5-1.2,2.1c-0.9,1.5-2.6,2.8-4.3,3.1c-1.2,0.9-2.4,2.2-3.3,3.3c-0.4,0.3-0.4,1-0.3,1.5c0.9,2,3.1,2.3,5,2.8
		c0.9,0.1,1.8-0.2,2.2-1c0.8-1.2,0.9-3.3,2.8-3.5h4c0.4,0.1,0.8,0.1,0.8,0.6c0,0.2-0.1,0.4-0.2,0.6c-0.6,0.9-1.2,2.4-2.4,3.2
		c-0.6,0.2-1.5,0-1.9,0.5c-0.2,1.4-0.6,2.8-1.9,3.5c-1,0.9-2.5,0.5-3.6,0.1c-2.1-0.8-4.3-1.2-6.4-1.9c-0.9-0.3-1.3-1.4-2.2-1.6
		c-0.9-0.2-2,0.5-2.7-0.3c-0.5-0.6-0.7-1.7-1-2.7c-0.2-0.6-0.4-1.5-0.6-2.3c-0.2-0.7,0-1.1,0.2-1.7l2.9-5.3c0.2-0.3,0.4-0.7,0.8-0.8
		c0.3-0.1,1.8,0.6,2,0.8c0.1,0.1,0,0.3-0.2,0.6c-0.6,0.9-2.8,4.4-2.8,4.4c-0.7,1.5,0,3.2,0.7,4.4c0.1,0.2,0.2,0.3,0.4,0.2
		c-0.1-0.9-0.2-1.9,0-2.8c0.2-0.9,0.7-1.7,1.3-2.5l2.4-3.5c0.3-0.6,0.2-1.5-0.2-2.1c-1-1.1-2.5-1.3-3.4-2.7c-2-2.6-2.1-5.6-2.4-8.9
		c0-0.3-0.2-0.6-0.5-0.7c-0.2-0.1-0.4,0.2-0.5,0.3c-0.6,2.1-0.2,4.7,0.3,6.6c0.4,1.5,1,2.9,1.7,4.3c0.1,0.3-0.1,0.5-0.4,0.6
		c-1.6,0.1-3.1,0-4.7-0.2c-2.1-0.3-3.7-2.1-5.3-3.3l-0.4,0.4c0.4,2.2,3,3.5,3.8,5.7c0.5,1.7,2.1,3,2.5,4.8c0,0.3-0.2,0.5-0.4,0.7
		c-0.5,0.2-1.1-0.2-1.6,0.1c-0.1,1,0.5,2,0.1,3c-0.5,0.9-1.3,1.9-2.4,1.9c-2.1-0.7-4-1.5-6.1-2.2c-1.5-0.1-2.9,0.1-4.3,0.3
		c-1.3-0.3-2.3-1.4-3.3-2.2c-0.3-0.1-0.6-0.1-0.9,0.1c-2.3,2.3-4.7,4.7-8.2,4.6c-0.2,0-0.4-0.3-0.4-0.5l0.1-0.2
		c1.5-1.3,3.3-2.8,3.9-4.6c0.5-1.5,1.9-2.7,2.3-4.2c0-0.2,0-0.4-0.2-0.5c-0.3,0-0.5,0.2-0.5,0.2c-1.6,1.7-2.9,3.6-4.1,5.5
		c-1.2,1.3-3.1,2-4.9,1.5c-0.2-0.2-0.2-0.5-0.1-0.7c7-4.3,7.8-12,9.8-19c1.4-4.6,2.3-9.4,6-13.1c5.4-5.9,12.2-9.5,18.2-14.7
		c0.9-0.8,2.1-1.6,3.2-1.7C534.3,590.7,536.3,591.9,538.3,593.6"/>
	<path class="st3" d="M538.3,593.6c1.2,0.8,1.7,2.4,3.2,2.8c2.5,0.5,5,1.1,7.2,2.2c1.6,0.8,3.3,2.1,4.8,3.2c1.3,0.9,2.7,0.6,4.2,1.1
		c2.1,0.5,3.9,2.2,5.8,3.4c2.5,2,6,1.7,8.9,2.9c4.5,1.4,8.1,4.9,12.3,7c2.2,1.2,5.4,1.6,7.6,0.3c1.4-1,2.4-2.4,2.1-4.3
		c-0.8-4.6-5.9-7.1-8.3-10.9c-0.5-0.9-0.9-2.2-0.5-3.3c0.8-2.3,3.2-3.5,5.2-4.2c1.7-0.6,3.6-0.6,5.1-1.5c0.5-0.3,1-0.8,1.4-1.2
		c0.3-0.3,0.4,0.3,0.4,0.6c0.5,2.7,0,5.5-2.4,7.1c-0.9,0.6-2,0.9-3.1,1.2c-0.8,0.2-2.7,0.5-2.6,1.2c0.1,0.7,0.9,1.3,1.5,1.8
		c3.1,2.6,6.1,6,6.4,10c0.1,3.1-2.1,5.9-4.8,7.2c-2,0.9-4.5,1.2-6.7,0.5c-0.6-0.1-1.5-0.6-1.9,0.1c-0.2,0.9,0.3,1.6,0.5,2.4
		c0.4,1.4,0.2,3.4-0.3,4.8c-0.2,1.1-1.4,2.5-0.3,3.6c1,1.5,3.1,1.1,4.7,1.4c0.9,0.2,1.2,1.2,1.5,1.9c0.3,0.9,0.7,2.7,1.1,3.5
		c0.3,0.7,1.5,1.4,2.5,2.5c1.2,1.2,2.1,3.4,4.1,3.3c0.6,1.4,1.1,2.8,1.2,4.4l-0.3,0.1c-1.6,0-3.7,0.5-4.9-0.6
		c-1.6-1.4-1.8-3.4-3.8-2.8c-0.9,0.7-2.1,0.9-3.2,0.5c-1-0.3-1.7-1.3-2.6-1.8c-2.7-2-6.3-3-9.8-2.2c-2,0.5-3.6-0.9-5.2-1.8
		c-2.1-0.9-2.7-3.2-3.2-5.1c0,0-0.4-2.2-0.4-2.4c0-0.2,0.1-0.3,0.4-0.5c0.3-0.2,0.4,0.1,0.4,0.1c0.9,2.4,3.5,5.9,6.5,6.9
		c2.8,1.1,5.4-0.3,8.4,0.2c2.8,0.4,5.1,2.2,7.3,3.9c0.2,0,0.3-0.2,0.4-0.3v-0.2c-2.6-3.3-6.2-5-10.4-4.7c-3.5,0.7-6.9-0.4-8.9-3.4
		c-1.1-1.7-1.9-3.5-2.3-5.4c-0.3-2.2-0.8-4.7-1.6-6.8c-0.1-0.4-0.4-0.4-0.7-0.3c-0.2,0.1-0.2,0.3-0.2,0.5c0,0.1,1,4.8,0.2,7.1
		c-0.5,1.8-2.4,2.5-4.1,2.6c-1.7,0.1-3.3-0.2-5.1-0.2c-4.1-0.2-7.6,1.5-11.9,1.1c0.4-1,0.9-2,0.7-3.2c-0.1-0.4-0.4-0.4-0.7-0.2
		c-0.8,0.5-0.7,1.5-1.2,2.1c-0.9,1.5-2.6,2.8-4.3,3.1c-1.2,0.9-2.4,2.2-3.3,3.3c-0.4,0.3-0.4,1-0.3,1.5c0.9,2,3.1,2.3,5,2.8
		c0.9,0.1,1.8-0.2,2.2-1c0.8-1.2,0.9-3.3,2.8-3.5h4c0.4,0.1,0.8,0.1,0.8,0.6c0,0.2-0.1,0.4-0.2,0.6c-0.6,0.9-1.2,2.4-2.4,3.2
		c-0.6,0.2-1.5,0-1.9,0.5c-0.2,1.4-0.6,2.8-1.9,3.5c-1,0.9-2.5,0.5-3.6,0.1c-2.1-0.8-4.3-1.2-6.4-1.9c-0.9-0.3-1.3-1.4-2.2-1.6
		c-0.9-0.2-2,0.5-2.7-0.3c-0.5-0.6-0.7-1.7-1-2.7c-0.2-0.6-0.4-1.5-0.6-2.3c-0.2-0.7,0-1.1,0.2-1.7l2.9-5.3c0.2-0.3,0.4-0.7,0.8-0.8
		c0.3-0.1,1.8,0.6,2,0.8c0.1,0.1,0,0.3-0.2,0.6c-0.6,0.9-2.8,4.4-2.8,4.4c-0.7,1.5,0,3.2,0.7,4.4c0.1,0.2,0.2,0.3,0.4,0.2
		c-0.1-0.9-0.2-1.9,0-2.8c0.2-0.9,0.7-1.7,1.3-2.5l2.4-3.5c0.3-0.6,0.2-1.5-0.2-2.1c-1-1.1-2.5-1.3-3.4-2.7c-2-2.6-2.1-5.6-2.4-8.9
		c0-0.3-0.2-0.6-0.5-0.7c-0.2-0.1-0.4,0.2-0.5,0.3c-0.6,2.1-0.2,4.7,0.3,6.6c0.4,1.5,1,2.9,1.7,4.3c0.1,0.3-0.1,0.5-0.4,0.6
		c-1.6,0.1-3.1,0-4.7-0.2c-2.1-0.3-3.7-2.1-5.3-3.3l-0.4,0.4c0.4,2.2,3,3.5,3.8,5.7c0.5,1.7,2.1,3,2.5,4.8c0,0.3-0.2,0.5-0.4,0.7
		c-0.5,0.2-1.1-0.2-1.6,0.1c-0.1,1,0.5,2,0.1,3c-0.5,0.9-1.3,1.9-2.4,1.9c-2.1-0.7-4-1.5-6.1-2.2c-1.5-0.1-2.9,0.1-4.3,0.3
		c-1.3-0.3-2.3-1.4-3.3-2.2c-0.3-0.1-0.6-0.1-0.9,0.1c-2.3,2.3-4.7,4.7-8.2,4.6c-0.2,0-0.4-0.3-0.4-0.5l0.1-0.2
		c1.5-1.3,3.3-2.8,3.9-4.6c0.5-1.5,1.9-2.7,2.3-4.2c0-0.2,0-0.4-0.2-0.5c-0.3,0-0.5,0.2-0.5,0.2c-1.6,1.7-2.9,3.6-4.1,5.5
		c-1.2,1.3-3.1,2-4.9,1.5c-0.2-0.2-0.2-0.5-0.1-0.7c7-4.3,7.8-12,9.8-19c1.4-4.6,2.3-9.4,6-13.1c5.4-5.9,12.2-9.5,18.2-14.7
		c0.9-0.8,2.1-1.6,3.2-1.7C534.3,590.7,536.3,591.9,538.3,593.6L538.3,593.6z"/>
	<path class="st0" d="M443.2,639c0.3,0.6,0.6,0.8,0.1,1.2c-0.9,0.7-2.3,1.2-3.1,1c-0.5-0.2-1-2-1.6-2.8c-0.4-0.6-1.2-1-1-1.4
		c0.1-0.2,0.4-0.2,0.4-0.2c1.2,0,2.4-0.1,3.6-0.2C442.7,636.4,442.5,637.7,443.2,639"/>
	<path class="st3" d="M443.2,639c0.3,0.6,0.6,0.8,0.1,1.2c-0.9,0.7-2.3,1.2-3.1,1c-0.5-0.2-1-2-1.6-2.8c-0.4-0.6-1.2-1-1-1.4
		c0.1-0.2,0.4-0.2,0.4-0.2c1.2,0,2.4-0.1,3.6-0.2C442.7,636.4,442.5,637.7,443.2,639L443.2,639z"/>
	<path class="st0" d="M542.6,637.6c-0.2,1.1-0.5,2.2-0.9,3.2c-0.4,0.7-1.4,0.5-2,0.4c-0.8-0.2-1.8-0.3-1.9-1.3
		c-0.1-0.9,0.8-2.5,0.8-2.5c0.9-0.2,1.6,0.1,3.3-0.1C542.2,637.2,542.7,637.2,542.6,637.6"/>
	<path class="st3" d="M542.6,637.6c-0.2,1.1-0.5,2.2-0.9,3.2c-0.4,0.7-1.4,0.5-2,0.4c-0.8-0.2-1.8-0.3-1.9-1.3
		c-0.1-0.9,0.8-2.5,0.8-2.5c0.9-0.2,1.6,0.1,3.3-0.1C542.2,637.2,542.7,637.2,542.6,637.6z"/>
	<path class="st0" d="M386.3,639.3c-0.1,0.1-1.4,2.5-2.6,3.1c-0.7,0.4-1.1,0.1-1.4-0.1c-0.1-0.1-0.7-0.7-0.7-0.7
		c-0.2-0.3-0.1-1.1,0.3-1.4c0.9-0.8,1.8-1.3,2.7-1.9c0.2-0.2,0.6-0.2,0.9,0C386,638.6,386.4,639,386.3,639.3"/>
	<path class="st3" d="M386.3,639.3c-0.1,0.1-1.4,2.5-2.6,3.1c-0.7,0.4-1.1,0.1-1.4-0.1c-0.1-0.1-0.7-0.7-0.7-0.7
		c-0.2-0.3-0.1-1.1,0.3-1.4c0.9-0.8,1.8-1.3,2.7-1.9c0.2-0.2,0.6-0.2,0.9,0C386,638.6,386.4,639,386.3,639.3L386.3,639.3z"/>
	<path class="st0" d="M597.2,638.5c0.6,0.5,2.1,1.3,2.8,2.3c0.3,0.4-0.4,1-0.7,1.4c-0.4,0.3-0.7,0.5-1.3,0.5c-0.5,0-1-0.4-1.4-0.8
		c-0.7-0.8-1.7-2-1.7-2.5c0-0.3,1.3-1.6,2.1-1L597.2,638.5z"/>
	<path class="st3" d="M597.2,638.5c0.6,0.5,2.1,1.3,2.8,2.3c0.3,0.4-0.4,1-0.7,1.4c-0.4,0.3-0.7,0.5-1.3,0.5c-0.5,0-1-0.4-1.4-0.8
		c-0.7-0.8-1.7-2-1.7-2.5c0-0.3,1.3-1.6,2.1-1L597.2,638.5z"/>
	<path class="st0" d="M379.8,648.9c-0.2,0-2.5-0.7-2.6-0.9c-0.1-0.1-0.1-0.5,0.1-0.7c0.7-0.7,0.7-1,0.9-3.3c0-0.5,0.8-1.3,1.4-1.6
		c0.4-0.2,1.8,1.5,1.8,1.7C380.7,646.2,380.1,648.9,379.8,648.9"/>
	<path class="st3" d="M379.8,648.9c-0.2,0-2.5-0.7-2.6-0.9c-0.1-0.1-0.1-0.5,0.1-0.7c0.7-0.7,0.7-1,0.9-3.3c0-0.5,0.8-1.3,1.4-1.6
		c0.4-0.2,1.8,1.5,1.8,1.7C380.7,646.2,380.1,648.9,379.8,648.9z"/>
	<path class="st0" d="M603.4,646.1c0.2,0.7,1.2,2.1,0.5,2.3l-2.5,0.8c-0.3,0.1-0.5-0.8-0.5-0.8c-0.3-1.4-0.6-2.4-1-3.8
		c-0.1-0.9,0.3-1.3,1.2-1.7c0.7-0.4,1.6,0.1,1.8,0.7C603.2,644.2,603.2,645.2,603.4,646.1"/>
	<path class="st3" d="M603.4,646.1c0.2,0.7,1.2,2.1,0.5,2.3l-2.5,0.8c-0.3,0.1-0.5-0.8-0.5-0.8c-0.3-1.4-0.6-2.4-1-3.8
		c-0.1-0.9,0.3-1.3,1.2-1.7c0.7-0.4,1.6,0.1,1.8,0.7C603.2,644.2,603.2,645.2,603.4,646.1L603.4,646.1z"/>
	<path class="st1" d="M531.9,600.8c0.3,0.5,0,1-0.3,1.3c-1.6,1.5-3.5,3.1-4.7,4.9c-0.4,0.6-0.7,1.2-1.1,1.9c0,0.1-0.1,0.2-0.3,0.1
		c-0.2-0.2-0.1-1.8,0.3-2.8c0.8-2.2,2.6-4.2,4.5-5.6C530.8,600.3,531.7,600.2,531.9,600.8"/>
	<path class="st2" d="M531.9,600.8c0.3,0.5,0,1-0.3,1.3c-1.6,1.5-3.5,3.1-4.7,4.9c-0.4,0.6-0.7,1.2-1.1,1.9c0,0.1-0.1,0.2-0.3,0.1
		c-0.2-0.2-0.1-1.8,0.3-2.8c0.8-2.2,2.6-4.2,4.5-5.6C530.8,600.3,531.7,600.2,531.9,600.8L531.9,600.8z"/>
	<path class="st1" d="M454.9,605.4c1.1,2.2,0.4,5.3,0.2,5.8c-0.1,0.2-0.3,0.3-0.3,0.1c-0.5-2.6-0.8-3.7-1.3-4.8
		c-0.6-1.2-1.5-1.7-1-2.5c0.2-0.2,0.7-0.4,1-0.2C454.1,604,454.6,604.8,454.9,605.4"/>
	<path class="st2" d="M454.9,605.4c1.1,2.2,0.4,5.3,0.2,5.8c-0.1,0.2-0.3,0.3-0.3,0.1c-0.5-2.6-0.8-3.7-1.3-4.8
		c-0.6-1.2-1.5-1.7-1-2.5c0.2-0.2,0.7-0.4,1-0.2C454.1,604,454.6,604.8,454.9,605.4L454.9,605.4z"/>
	<path class="st1" d="M473.1,621.3c1.3,1.4,2.1,3,1.7,5c-0.2,0.4-0.2,1-0.7,1.1c-0.2,0.1-0.4-0.1-0.4-0.3c-0.1-1-0.1-2.1-0.7-3
		c-0.7-0.7-1.4-2-2.6-2c-0.8,0.2-1.4,1.1-1.8,1.7c0,0.1-0.2,0.1-0.2,0c-0.4-1.1,0.1-2,0.5-2.9c0.4-0.9,0.8-2.6,2.3-2
		C472.1,619.5,472.3,620.6,473.1,621.3"/>
	<path class="st2" d="M473.1,621.3c1.3,1.4,2.1,3,1.7,5c-0.2,0.4-0.2,1-0.7,1.1c-0.2,0.1-0.4-0.1-0.4-0.3c-0.1-1-0.1-2.1-0.7-3
		c-0.7-0.7-1.4-2-2.6-2c-0.8,0.2-1.4,1.1-1.8,1.7c0,0.1-0.2,0.1-0.2,0c-0.4-1.1,0.1-2,0.5-2.9c0.4-0.9,0.8-2.6,2.3-2
		C472.1,619.5,472.3,620.6,473.1,621.3L473.1,621.3z"/>
	<path class="st1" d="M516.1,623.2c0.1,0.2,0,0.5,0,0.7c-0.2,0.2-0.4,0.5-0.7,0.3c-0.8-0.3-0.7-1.5-1.6-1.4c-0.7,0-1.2,0.6-1.7,0.9
		c-1,0.9-2.4,1.8-2.6,3.2c-0.2,0.5-0.1,1.2-0.5,1.5c-0.3,0.1-0.6-0.2-0.6-0.4c-0.2-1.8,0.4-3.5,1.7-4.7c1.3-1.1,2.2-2.5,3.2-3.7
		c0.3-0.3,0.8,0.3,1.2,0.7C514.7,620.6,515.7,622.2,516.1,623.2"/>
	<path class="st2" d="M516.1,623.2c0.1,0.2,0,0.5,0,0.7c-0.2,0.2-0.4,0.5-0.7,0.3c-0.8-0.3-0.7-1.5-1.6-1.4c-0.7,0-1.2,0.6-1.7,0.9
		c-1,0.9-2.4,1.8-2.6,3.2c-0.2,0.5-0.1,1.2-0.5,1.5c-0.3,0.1-0.6-0.2-0.6-0.4c-0.2-1.8,0.4-3.5,1.7-4.7c1.3-1.1,2.2-2.5,3.2-3.7
		c0.3-0.3,0.8,0.3,1.2,0.7C514.7,620.6,515.7,622.2,516.1,623.2L516.1,623.2z"/>
	<path class="st1" d="M470.6,634.7c0.1,0.7,0,1.9-0.5,2.1c-0.7,0.3-1.6,0.4-2.4,0.3c-0.3,0-0.5-0.2-0.4-0.4c0.4-1.1,1.4-2.1,2.5-2.3
		C470.1,634.3,470.5,634.3,470.6,634.7"/>
	<path class="st2" d="M470.6,634.7c0.1,0.7,0,1.9-0.5,2.1c-0.7,0.3-1.6,0.4-2.4,0.3c-0.3,0-0.5-0.2-0.4-0.4c0.4-1.1,1.4-2.1,2.5-2.3
		C470.1,634.3,470.5,634.3,470.6,634.7L470.6,634.7z"/>
	<path class="st1" d="M514.9,635.4c0,0,0.7,1,0.4,1.6c-0.3,0.5-1.4,0.4-1.9,0.1c-0.6-0.4-0.9-1.1-0.9-2c0-0.2,0-0.4,0.2-0.6
		C513.1,634.3,514.3,634.7,514.9,635.4"/>
	<path class="st2" d="M514.9,635.4c0,0,0.7,1,0.4,1.6c-0.3,0.5-1.4,0.4-1.9,0.1c-0.6-0.4-0.9-1.1-0.9-2c0-0.2,0-0.4,0.2-0.6
		C513.1,634.3,514.3,634.7,514.9,635.4L514.9,635.4z"/>
</g>
</svg>
