<?xml version="1.0" encoding="utf-8"?>
<!-- Generator: Adobe Illustrator 26.2.1, SVG Export Plug-In . SVG Version: 6.00 Build 0)  -->
<svg version="1.1" id="Layer_1" xmlns="http://www.w3.org/2000/svg" xmlns:xlink="http://www.w3.org/1999/xlink" x="0px" y="0px"
	 viewBox="0 0 280 280" style="enable-background:new 0 0 280 280;" xml:space="preserve">
<style type="text/css">
	.st0{fill:#59595B;}
	.st1{fill:#DB1A2D;}
	.st2{fill:#DB1B2D;}
</style>
<g>
	<path class="st0" d="M0,126.08c1-4.91,1.97-9.83,3-14.73c0.37-1.75,0.87-3.48,1.44-5.76c8.83,0,17.57,0,26.32,0
		c45.16,0,90.33-0.07,135.49,0.07c5.91,0.02,11.88,0.73,17.71,1.74c4.91,0.85,9.14,3.36,10.25,8.79c1.14,5.58-1.06,10.14-5.52,13.39
		c-7.07,5.15-14.9,8.47-23.85,8.47c-32.43,0.02-64.85,0.01-97.28,0.01c-1.81,0-3.62,0-6.11,0c-4.08,21.31-8.14,42.55-12.28,64.17
		c13.55,0,26.54,0,39.99,0c1.85-10.32,3.69-20.63,5.61-31.31c1.23-0.13,2.49-0.37,3.75-0.37c17.7-0.02,35.4-0.07,53.1,0.08
		c1.65,0.01,4.06,0.89,4.83,2.15c17.85,29.06,35.51,58.24,53.46,87.79c-1.35,0.86-2.5,1.68-3.73,2.35
		C122.2,308.55,15.74,255.56,1.82,161.23c-0.42-2.84-1.21-5.63-1.82-8.44C0,143.89,0,134.98,0,126.08z"/>
	<path class="st1" d="M153.87,0.45c5.56,1.12,11.15,2.12,16.67,3.39C229.92,17.52,272.5,64.82,279.1,125.25
		c4.38,40.07-7.37,75.43-33.29,106.24c-0.63,0.74-1.07,1.64-1.88,2.9c-17.23-24.56-33.88-48.29-50.83-72.45
		c3.42-1.16,6.52-2.06,9.5-3.24c15.89-6.29,28.69-15.69,32.93-33.38c6.18-25.78-13.44-50.48-40.02-50.48c-57.71,0-115.42,0-173.13,0
		c-1.76,0-3.51,0-6.15,0c1.34-2.42,2.2-4.13,3.19-5.75C43.07,30.6,77.41,8.28,122.1,1.56c1.03-0.15,1.99-0.73,2.98-1.11
		c2.32,0,4.63,0,6.95,0c4.63,0,9.27,0,13.9,0C148.58,0.45,151.22,0.45,153.87,0.45z"/>
	<path class="st2" d="M145.93,0.45c-4.63,0-9.27,0-13.9,0C136.66,0.45,141.3,0.45,145.93,0.45z"/>
</g>
</svg>
