<?xml version="1.0" encoding="utf-8"?>
<!-- Generator: Adobe Illustrator 26.2.1, SVG Export Plug-In . SVG Version: 6.00 Build 0)  -->
<svg version="1.1" id="Layer_1" xmlns="http://www.w3.org/2000/svg" xmlns:xlink="http://www.w3.org/1999/xlink" x="0px" y="0px"
	 viewBox="0 0 280 280" style="enable-background:new 0 0 280 280;" xml:space="preserve">
<style type="text/css">
	.st0{fill:#D5505B;}
</style>
<g>
	<path class="st0" d="M230.38,139.83c0,16.39,0.51,32.79-0.1,49.15c-1.39,36.81-17.74,65.02-51.02,81.62
		c-54.65,27.26-120.19-7.61-128.92-68.03c-0.63-4.33-0.85-8.75-0.86-13.13c-0.07-33.01-0.06-66.02-0.03-99.02
		c0.04-46.44,34.98-85.14,81.18-89.94c48.04-4.99,92.32,29.61,98.32,77.49c1.55,12.41,1.12,25.08,1.42,37.63
		C230.54,123.67,230.38,131.75,230.38,139.83z M93.97,88.45c1.22,1.6,2.28,3,3.36,4.38c11.63,14.86,23.22,29.74,34.93,44.53
		c1.55,1.96,1.59,3.18,0,5.12c-8.34,10.19-16.54,20.5-24.79,30.77c-4.66,5.81-9.31,11.63-14.16,17.68c3.05,2.45,5.86,4.71,8.82,7.08
		c13.17-16.39,26.14-32.53,39.28-48.88c13.03,16.62,25.74,32.84,38.68,49.34c3.08-2.43,5.9-4.65,8.9-7
		c-13.59-17.37-26.88-34.35-40.27-51.46c13.7-17.09,27.23-33.98,40.89-51.02c-3.16-2.52-5.9-4.7-8.84-7.05
		c-13.17,16.38-26.07,32.43-39.26,48.85c-13.04-16.63-25.81-32.91-38.69-49.33C99.74,83.91,96.97,86.09,93.97,88.45z M110.58,161.86
		c-4.28-5.58-8.26-10.78-12.36-16.13c5.12-2.51,8.46-5.98,8.84-11.54c0.52-7.79-4.01-13.88-12.63-14.88
		c-7.68-0.9-15.55-0.19-23.47-0.19c0,14.26,0,28.53,0,42.81c3.41,0,6.53,0,9.97,0c0-5,0-9.7,0-14.31c3.92-1.1,6.79-0.39,8.68,3.14
		c0.66,1.24,1.69,2.28,2.56,3.41c6.53,8.48,6.53,8.48,17.19,7.98C109.47,162.13,109.58,162.09,110.58,161.86z M207.77,133.13
		c-0.57-6.53-2.55-10.33-7.05-12.56c-7.25-3.61-14.76-3.72-21.89,0.16c-8.68,4.71-8.74,15.49-0.19,20.4
		c2.63,1.51,5.68,2.33,8.59,3.32c2.92,0.99,5.95,1.65,8.83,2.73c0.94,0.35,2.27,1.66,2.16,2.34c-0.16,1.03-1.28,2.1-2.25,2.77
		c-0.82,0.57-2,0.73-3.04,0.85c-6.6,0.76-8.35-0.3-12.27-7.48c-3,0.61-6.09,1.24-9.15,1.86c0.7,5.81,2.26,8.87,5.65,11.37
		c6.55,4.83,19.24,5.12,26.07,0.61c7.6-5.02,7.5-15.03-0.36-19.65c-2.51-1.48-5.46-2.25-8.26-3.19c-3.03-1.02-6.19-1.69-9.15-2.86
		c-1.09-0.43-2.54-1.92-2.47-2.81c0.08-1.03,1.5-2.36,2.63-2.83c6.04-2.5,9.97-0.35,12.82,7.01
		C201.46,134.5,204.53,133.83,207.77,133.13z"/>
	<path class="st0" d="M80.95,138.11c0-3.76,0-6.69,0-9.81c4,0,7.86-0.24,11.68,0.09c2.36,0.2,4.22,1.79,4.32,4.44
		c0.11,2.75-1.75,4.17-4.16,4.47C88.98,137.76,85.11,137.85,80.95,138.11z"/>
</g>
</svg>
