<?xml version="1.0" encoding="utf-8"?>
<!-- Generator: Adobe Illustrator 26.5.0, SVG Export Plug-In . SVG Version: 6.00 Build 0)  -->
<svg version="1.1" id="Layer_1" xmlns="http://www.w3.org/2000/svg" xmlns:xlink="http://www.w3.org/1999/xlink" x="0px" y="0px"
	 viewBox="0 0 280 280" style="enable-background:new 0 0 280 280;" xml:space="preserve">
<style type="text/css">
	.st0{fill:#DB284E;}
	.st1{fill:#FFFFFF;}
</style>
<g>
	<circle class="st0" cx="140" cy="140" r="140"/>
	<path class="st1" d="M74.6,232.1c-0.3-1.4-0.6-2.6-0.7-3.9c-1.1-10.9-2.5-21.7-3.2-32.7c-0.6-9-0.7-18-0.7-27
		c0-13.7,2.1-27.2,6.7-40.1c0.5-1.3-0.1-1.9-1.1-2.3c-1.6-0.6-3.2-1.2-4.8-1.7c-1-0.3-1.4-0.8-0.9-1.8c1.5-3.2,2.9-6.5,4.4-9.7
		c0.5-1.1,1.2-1,2.1-0.4c2.2,1.4,4.4,2.6,6.6,4c1,0.6,1.6,0.4,2.2-0.4c1.6-2,3.2-4,4.8-6c0.7-0.9,0.2-1.5-0.4-2.1
		c-2.5-2.3-5-4.5-7.9-7.1c2.7-3,5.3-6,7.9-8.9c0.8-0.8,1.3-0.1,1.8,0.5c2.2,2.4,4.5,4.8,6.7,7.2c0.9,1,1.8,1.1,2.9,0.3
		c2.1-1.6,4.3-3.1,6.6-4.7c-1.1-2-2.2-3.9-3.3-5.9c-1.2-2.1-2.4-4.2-3.6-6.2c-0.5-0.8-0.4-1.4,0.4-1.9c3.3-2.2,6.5-4.4,9.7-6.5
		c1.2-0.8,1.9-0.5,2.4,0.8c1.5,3.9,3.1,7.8,4.6,11.8c1.2,3,1.2,3,4.2,2c2-0.6,4-1.2,6-1.8c1.1-0.3,1.5-1,1.2-2.1
		c-1.2-5-2.2-10.1-3.5-15c-0.4-1.5,0-2.1,1.3-2.4c4.6-1.1,9.2-2.1,13.8-3.1c1-0.2,1.5,0.2,1.6,1.2c0.4,5.7,1,11.4,1.3,17.2
		c0.1,1.7,0.7,2.4,2.4,2.4c2.1,0,4.2,0.2,6.3,0.4c1.3,0.1,1.9-0.3,2-1.7c0.4-5.8,0.9-11.7,1.3-17.5c0.2-2.7,0.3-2.9,3-2.7
		c3.3,0.3,6.5,0.9,9.8,1.3c1.7,0.2,3.4,0.6,5.1,0.7c1.1,0.1,1.3,0.4,1,1.4c-2,6.4-3.9,12.9-5.9,19.4c-0.8,2.4-0.9,2.3,1.7,3.3
		c1.8,0.7,3.6,1.5,5.3,2.4c1.2,0.6,2,0.5,2.7-0.8c2.8-5,5.5-9.9,8.5-14.8c2.7-4.6,5.7-9,8.6-13.5c0.6-0.9,0.6-1.4-0.4-1.9
		c-5.1-2.9-10.5-5-16.2-6.5c-10.3-2.8-20.8-3.3-31.3-2.2c-7.3,0.8-14.5,2.5-21.5,4.9c-9,3.1-17.4,7.3-25,12.8
		c-20.3,14.8-34.1,34.1-41,58.3c-3,10.5-4.6,21.2-5.5,32.1c-0.1,0.6-0.4,1.5-0.8,1.7c-4,2-8.1,3.8-12.4,5.8c-0.1-1-0.2-1.6-0.2-2.2
		c0.7-13.8,2.8-27.5,6.8-40.7c6.9-22.9,18.8-42.8,37.1-58.5c5-4.3,10.5-8.3,16-11.9c4.1-2.7,8.6-4.8,13.1-6.7
		c4.9-2.1,9.9-4.1,15.1-5.6c4.5-1.3,9.1-2.2,13.7-2.6c5.9-0.6,11.8-0.9,17.7-0.7c5.4,0.2,10.9,1,16.1,2.3c5.9,1.4,11.6,3.5,17.2,5.8
		c3.6,1.5,6.8,3.8,10.2,5.7c2.8,1.6,5.6,3.3,8.4,4.9c1.2,0.7,1,1.4,0.2,2.2c-2.8,2.9-5.1,6.2-7.1,9.7c-2.3,4-5.2,7.6-7.8,11.4
		c-3.6,5.4-7.2,10.8-10.8,16.2c-0.7,1.1-0.7,1.8,0.4,2.7c1.8,1.5,3.6,3,5.3,4.6c0.9,0.8,1.8,0.9,2.9,0.2c0.2-0.2,0.5-0.3,0.8-0.4
		c2.3-1.2,2.4-1.2,4.1,0.8c9.5,11,15.4,23.6,15.4,38.4c0,6.7-1.1,13.2-3.4,19.4c-0.4,1.1-1.1,1.3-2.2,1.3c-4.9,0-9.7,0-14.6,0
		c-2.3,0-2.3,0.1-2,2.4c1.2,8,2.4,16.1,3.6,24.1c0.2,1.3-0.3,1.9-1.6,2.2c-3.1,0.7-6.1,1.6-9.1,2.3c-1.2,0.3-1.5,1.1-1.4,2.2
		c0.5,6.2,0.9,12.4,1.3,18.6c0.3,5,0.7,9.9,1,14.9c0.1,1.8-0.3,2.1-2,1.7c-7.6-1.7-15.3-3.4-22.9-5.1c-4.9-1.1-9.8-2.2-14.7-3.3
		c-7.2-1.6-14.4-3.2-21.6-4.8c-3-0.7-5.9-1.2-8.9-2c-2.4-0.6-4.6,0.1-6.8,0.9c-9.8,3.7-19.7,7.4-29.5,11
		C79.1,231.2,76.9,231.5,74.6,232.1z M82,177.5c0.4,7.3,1,18.6,1.6,29.8c0.2,2.9,0.4,5.7,0.7,8.6c0.1,1.1,0.4,2,2,1.5
		c5.6-2,11.2-4.1,16.7-6.5c9.1-4.1,16.8-9.8,23-17.6c6.1-7.6,9.8-16.3,11.8-25.8c0.2-0.8,0.4-1.8-0.7-2c-1.5-0.3-3-0.4-4.2,1
		c-4.7,5.4-10.5,7.6-17.6,6.1c-8.6-1.8-14.5-9.7-14-18.4c0.8-13.3,14.7-21.1,26.2-14.8c1.3,0.7,2.5,0.7,3.8,0
		c3.5-1.9,7.1-3.7,10.7-5.6c13.9-7.3,27.7-14.6,41.6-21.8c1.3-0.7,1.4-1.2,0.4-2.1c-7-6.6-15-11.2-24.6-12.9
		c-9.7-1.7-19.3-1.3-28.7,1.1c-12,3.1-22.3,9.1-31.1,17.9c-7.9,7.9-12.8,17.3-15,28.2C82.6,154,82.1,163.7,82,177.5z M166.8,154.9
		C166.8,154.9,166.8,154.9,166.8,154.9c3.2-0.1,6.3-0.1,9.5-0.1c8.8,0,17.7,0,26.5,0c1,0,1.9,0.1,2.2-1.4c1.1-5.3,1.3-10.6,0.4-15.9
		c-1.1-6.4-3.6-12.3-7.1-17.8c-0.6-1-1.1-2.4-3-1.5c-10.8,5.4-21.7,10.7-32.5,16.1c-10.9,5.4-21.9,10.9-32.8,16.3
		c-1.4,0.7-2.2,0.5-3-0.9c-2.5-4.1-8.1-5.6-12.3-3.4c-4.5,2.4-6.5,7.7-4.6,12.3c1.7,4.1,5.8,6.7,10,6.3c4.1-0.4,7.7-3.7,8.4-8
		c0.3-1.8,1-2.2,2.8-2.2C143.1,154.9,155,154.9,166.8,154.9z M166,165.2c0,0,0,0.1,0,0.1c-4.5,0-9,0-13.5,0c-1.4,0-2.1,0.5-2.3,1.9
		c-1.8,11.7-6.6,22.1-13.6,31.6c-2,2.7-4.3,5.1-6.5,7.6c-0.7,0.8-1.4,1.7,0.2,2.2c1.8,0.5,3.6,1.1,5.4,1.6c5.5,1.4,11.1,2.8,16.7,4
		c6.6,1.5,13.2,2.9,19.9,4.2c3.1,0.6,3.2,0.5,3-2.8c-0.6-8.6-1.1-17.2-1.8-25.7c-0.1-1.2,0.3-1.8,1.4-2.1c2.6-0.6,5.1-1.3,7.6-1.9
		c1.5-0.3,2.1-1.1,1.8-2.6c-0.9-5.3-1.7-10.6-2.5-15.9c-0.2-1.6-1-2.1-2.6-2.1C174.8,165.3,170.4,165.2,166,165.2z"/>
</g>
</svg>
