<?xml version="1.0" encoding="utf-8"?>
<!-- Generator: Adobe Illustrator 26.5.2, SVG Export Plug-In . SVG Version: 6.00 Build 0)  -->
<svg version="1.1" id="Layer_1" xmlns="http://www.w3.org/2000/svg" xmlns:xlink="http://www.w3.org/1999/xlink" x="0px" y="0px"
	 viewBox="0 0 280 280" style="enable-background:new 0 0 280 280;" xml:space="preserve">
<style type="text/css">
	.st0{fill:#FFFFFF;}
</style>
<g>
	<path class="st0" d="M216.8,110.1C198,89.9,172,78.8,143.7,78.8h-2c-9.4,0-19.5,7.7-19.5,19.1c0,11.3,8.2,19.5,19.5,19.5
		c37.6,0,62.8,32.7,62.8,63.2c0,30.4-24.2,63.2-63.2,63.2c-48.1,0-77.7-24.4-98.3-46.3V238c18.3,19,50.6,41.7,100.6,42
		c55.5,0,100.6-45.1,100.6-100.6C244.3,154.1,234.3,128.8,216.8,110.1"/>
	<path class="st0" d="M35.7,100.6c0,25.4,10,50.8,27.5,69.5c18.8,20.1,44.7,31.1,73.1,31.1h2c9.2,0,19.5-7.8,19.5-19.1
		c0-11.1-8.4-19.5-19.5-19.5c-37.6,0-62.8-32.7-62.8-63.2c0-30.4,24.2-63.2,63.2-63.2c31.7,0,58.3,10.4,83.8,32.6V29.2
		C198.4,10.2,169.4,0.3,136.3,0C80.8,0,35.7,45.1,35.7,100.6"/>
	<path class="st0" d="M216.8,110.1C198,89.9,172,78.8,143.7,78.8h-2c-9.4,0-19.5,7.7-19.5,19.1c0,11.3,8.2,19.5,19.5,19.5
		c37.6,0,62.8,32.7,62.8,63.2c0,30.4-24.2,63.2-63.2,63.2c-48.1,0-77.7-24.4-98.3-46.3V238c18.3,19,50.6,41.7,100.6,42
		c55.5,0,100.6-45.1,100.6-100.6C244.3,154.1,234.3,128.8,216.8,110.1"/>
	<path class="st0" d="M35.7,100.6c0,25.4,10,50.8,27.5,69.5c18.8,20.1,44.7,31.1,73.1,31.1h2c9.2,0,19.5-7.8,19.5-19.1
		c0-11.1-8.4-19.5-19.5-19.5c-37.6,0-62.8-32.7-62.8-63.2c0-30.4,24.2-63.2,63.2-63.2c31.7,0,58.3,10.4,83.8,32.6V29.2
		C198.4,10.2,169.4,0.3,136.3,0C80.8,0,35.7,45.1,35.7,100.6"/>
</g>
</svg>
