<?xml version="1.0" encoding="utf-8"?>
<!-- Generator: Adobe Illustrator 26.3.1, SVG Export Plug-In . SVG Version: 6.00 Build 0)  -->
<svg version="1.1" id="Layer_1" xmlns="http://www.w3.org/2000/svg" xmlns:xlink="http://www.w3.org/1999/xlink" x="0px" y="0px"
	 viewBox="0 0 280 280" style="enable-background:new 0 0 280 280;" xml:space="preserve">
<style type="text/css">
	.st0{fill:#020303;}
	.st1{fill:#A6A6A6;}
	.st2{fill:#3B9DEF;}
	.st3{fill:#02F5E5;}
	.st4{fill:#E2F84E;}
	.st5{fill:#F76D22;}
</style>
<g>
	<path class="st0" d="M95.6,233.5c-22.9-12.6-45.9-25-68.6-37.8c-5.8-3.2-11.5-6.9-16.3-11.4c-12-11.1-13.8-25.5-5.7-39.7
		c5.3-9.3,13.1-16.4,21.8-22.4c21-14.6,44.8-22.8,69.5-28.4c3-0.7,6.1-1.3,9.5-2c-1.3-9-2.6-17.8-3.9-26.7
		c-2.6-17.7-5.3-35.3-7.8-53c-0.9-6.2,2.3-10.5,7.6-10.9c5-0.4,8.8,2.6,9.6,7.9c3.3,22,6.5,43.9,9.8,65.9c0.7,4.6,1.4,9.1,2.1,14
		c6.8-0.5,13.4-1.1,20-1.4c25.3-1.1,50.2,0.6,73.9,10.4c7.1,2.9,13.9,7.1,19.8,12c11,9.3,13.5,21.7,8.3,35.2
		c-3,7.9-8.1,14.5-14,20.4c-21.7,21.8-43.5,43.6-65.2,65.5c-6.7,6.6-13.3,13.1-20,19.7c-5.8,5.6-6.8,5.8-13.8,2.1
		C119.8,246.3,107.7,239.9,95.6,233.5z M192.8,97.5c5.9,3.8,12.4,6.6,16.9,11.3c9,9.3,8.8,20.7,1.9,31.8
		c-4.9,7.9-11.8,13.2-19.5,17.7c-15.3,9-31,17-48.9,19.5c-10.6,1.4-21.1,3.4-31.7,4.4c-16.1,1.6-32.1,0.4-47.9-3.6
		c-11.3-2.8-22.1-6.9-30.3-15.9c-10.5-11.6-6.3-25.6,1.6-34.3c2.9-3.2,5.8-6.3,8.7-9.4c0.2,0.1,0-0.1-0.1,0
		c-0.6,0.3-1.2,0.5-1.8,0.9c-8.4,5.3-15.8,11.8-21.7,19.8c-10.5,14.2-7.3,26.8,2.7,36.4c6.1,5.8,13.5,9.7,21.5,12.6
		c16,5.7,32.5,7.9,49.4,7.9c27.7-0.1,55-3.4,80.8-14.5c8.2-3.5,16.6-6.6,24.5-10.7c11.7-6.2,22-14.5,28.7-26.1
		c5.4-9.3,5.7-20.3-1.4-28.6c-7.2-8.6-16.6-14.3-27.3-17.4C197,98.5,194.8,98,192.8,97.5z M167.3,97.4c3.7,2,6.5,3.6,9.4,5.1
		c9.5,5,12.3,19.5,4.9,27.1c-7.2,7.5-14.8,14.5-25.1,17.7c-10.3,3.2-20.4,6.9-30.9,9.2c-10.7,2.3-21.6,2.7-32.6,0.7
		c-4.5-0.8-9.4-0.3-13.7-1.6c-6.2-2-12.5-3.8-17.9-8.2c-5.3-4.4-9.4-10.9-7.6-17.7c1-3.7,3-7,4.8-11.2c-1.2,0.3-2.4,0.2-2.9,0.7
		c-3.1,3-6.3,6-9.2,9.3c-8.4,9.6-7.5,21.4,2.9,28c6.2,3.9,13.3,7,20.4,9.1c15.3,4.6,31.1,4,46.9,2.7c20.6-1.7,40.3-6.7,58.4-17.1
		c6.8-3.9,13.4-7.8,18.7-13.7c7.5-8.3,11.2-19.2,0.4-28.1c-0.5-0.4-0.9-1.1-1.4-1.5C185.7,101.7,177.3,98.8,167.3,97.4z M144.3,98.9
		c2,1,4.1,1.8,6,3c5.5,3.5,6.2,7.3,3.4,13.1c-2.3,4.6-6.5,7.1-10.5,8.5c-8.9,3.1-18.1,5.7-27.4,7.3c-9.7,1.7-19.6,0.8-28.7-3.7
		c-7.5-3.7-8.4-10.3-2.5-16.2c1-1.1,2.4-1.8,3.6-2.7c-0.3-0.3-0.7-0.7-1-1c-6.7,3.3-13.1,7-17.1,13.6c-3.4,5.5-2.6,11.5,2.6,15.2
		c3.4,2.5,7.4,5,11.5,5.8c29.6,5.8,57.8,3.9,81.8-17.2c5.3-4.6,6.7-11.8,2.5-16.4C161.9,101.1,153.4,99,144.3,98.9z M106.9,102.3
		c-2.9,1.6-5.9,2.9-8.4,4.9c-5.4,4.2-4.7,9.7,1.8,11.5c5.1,1.5,10.7,1.9,16,1.7c7.5-0.3,14.8-2.4,20.8-7.3c4.7-3.8,4-8.9-1.5-11.1
		c-3.3-1.3-6.9-1.7-10.5-2.6c-0.1,10-1.3,12.1-7,13C111.6,113.4,109.9,111.9,106.9,102.3z"/>
	<path class="st1" d="M95.6,233.5c12.1,6.4,24.2,12.8,36.3,19.2c7,3.7,8,3.5,13.8-2.1c6.7-6.6,13.3-13.1,20-19.7
		c1.7,0.3,3.3,0.8,5,0.9c26.8,0.7,53.5,2.6,79.8,8.4c7.3,1.6,14.3,4.3,21.3,6.8c2.2,0.8,4.3,2.5,6,4.1c2.7,2.5,2.9,6,0,8.2
		c-3.3,2.5-7,4.8-10.8,6.3c-14.5,5.6-29.7,8.2-45,9.5c-24.5,2-49.1,3.8-73.7,3.9c-32,0.1-63.9-1.7-95.3-8.7
		c-7.5-1.7-14.8-4.6-22-7.3c-3.4-1.3-7.5-3.8-6.9-7.7c0.5-2.8,3.8-6.4,6.6-7.4c10-3.6,20.3-7,30.7-9.2c10.6-2.2,21.5-3,32.3-4.4
		C94.5,234.1,95,233.7,95.6,233.5z"/>
	<path class="st2" d="M192.8,97.5c2,0.5,4.2,1.1,6.4,1.7c10.8,3.2,20.1,8.9,27.3,17.4c7.1,8.4,6.8,19.3,1.4,28.6
		c-6.8,11.6-17,19.9-28.7,26.1c-7.9,4.2-16.3,7.2-24.5,10.7c-25.8,11.1-53.1,14.4-80.8,14.5c-16.8,0.1-33.4-2.2-49.4-7.9
		c-8-2.8-15.4-6.7-21.5-12.6c-10.1-9.6-13.2-22.3-2.7-36.4c5.9-8,13.3-14.5,21.7-19.8c0.6-0.4,1.2-0.6,1.8-0.9c0.1,0,0.2,0.1,0.1,0
		c-2.9,3.1-5.8,6.3-8.7,9.4c-7.9,8.7-12.2,22.8-1.6,34.3c8.2,9,19,13.1,30.3,15.9c15.7,3.9,31.8,5.1,47.9,3.6
		c10.6-1,21.2-2.9,31.7-4.4c17.9-2.4,33.6-10.5,48.9-19.5c7.7-4.5,14.6-9.9,19.5-17.7c6.9-11.1,7-22.5-1.9-31.8
		C205.2,104.1,198.7,101.3,192.8,97.5z"/>
	<path class="st3" d="M167.3,97.4c10.1,1.4,18.4,4.4,25.5,10.3c0.5,0.4,0.9,1.1,1.4,1.5c10.9,8.9,7.2,19.8-0.4,28.1
		c-5.3,5.9-11.9,9.8-18.7,13.7c-18.1,10.4-37.8,15.4-58.4,17.1c-15.7,1.3-31.6,1.9-46.9-2.7c-7.1-2.1-14.1-5.2-20.4-9.1
		c-10.4-6.6-11.3-18.4-2.9-28c2.9-3.3,6-6.3,9.2-9.3c0.6-0.5,1.7-0.5,2.9-0.7c-1.8,4.2-3.9,7.6-4.8,11.2c-1.8,6.8,2.3,13.3,7.6,17.7
		c5.4,4.5,11.7,6.3,17.9,8.2c4.3,1.4,9.2,0.8,13.7,1.6c10.9,2,21.9,1.6,32.6-0.7c10.5-2.3,20.6-6,30.9-9.2
		c10.2-3.2,17.9-10.2,25.1-17.7c7.3-7.6,4.5-22.1-4.9-27.1C173.8,101,171,99.4,167.3,97.4z"/>
	<path class="st4" d="M144.3,98.9c9.1,0.1,17.7,2.2,24,9.3c4.2,4.7,2.8,11.8-2.5,16.4c-24,21.1-52.2,23-81.8,17.2
		c-4.1-0.8-8.1-3.3-11.5-5.8c-5.2-3.8-6-9.8-2.6-15.2c4.1-6.6,10.5-10.3,17.1-13.6c0.3,0.3,0.7,0.7,1,1c-1.2,0.9-2.5,1.7-3.6,2.7
		c-5.9,5.9-5,12.5,2.5,16.2c9.1,4.5,19,5.4,28.7,3.7c9.3-1.6,18.5-4.2,27.4-7.3c4.1-1.4,8.3-3.9,10.5-8.5c2.9-5.8,2.1-9.7-3.4-13.1
		C148.4,100.6,146.3,99.8,144.3,98.9z"/>
	<path class="st5" d="M106.9,102.3c3.1,9.6,4.8,11.1,11.2,10.1c5.7-0.9,6.9-3,7-13c3.6,0.9,7.2,1.3,10.5,2.6
		c5.5,2.2,6.2,7.3,1.5,11.1c-6,4.9-13.3,7-20.8,7.3c-5.3,0.2-10.9-0.2-16-1.7c-6.5-1.9-7.2-7.4-1.8-11.5
		C101,105.2,104,103.9,106.9,102.3z"/>
</g>
</svg>
