<?xml version="1.0" encoding="utf-8"?>
<!-- Generator: Adobe Illustrator 26.0.3, SVG Export Plug-In . SVG Version: 6.00 Build 0)  -->
<svg version="1.1" id="Layer_1" xmlns="http://www.w3.org/2000/svg" xmlns:xlink="http://www.w3.org/1999/xlink" x="0px" y="0px"
	 viewBox="0 0 280 280" style="enable-background:new 0 0 280 280;" xml:space="preserve">
<style type="text/css">
	.st0{fill:#FFFFFF;}
</style>
<g>
	<path class="st0" d="M114.2,229.1H50.9V50.9h63.3V0h-64C37,0,23.9,5.4,14.7,14.7C5.4,23.9,0,37,0,50.1v179.7
		c0,13.1,5.4,26.2,14.7,35.5C23.9,274.6,37,280,50.1,280h64V229.1z"/>
	<path class="st0" d="M165.8,50.9h63.3v178.2h-63.3V280h64c13.1,0,26.2-5.4,35.5-14.7c9.3-9.3,14.7-22.4,14.7-35.5V50.1
		c0-13.1-5.4-26.2-14.7-35.5C256.1,5.4,243,0,229.9,0h-64V50.9z"/>
</g>
</svg>
