<?xml version="1.0" encoding="utf-8"?>
<!-- Generator: Adobe Illustrator 26.0.3, SVG Export Plug-In . SVG Version: 6.00 Build 0)  -->
<svg version="1.1" id="Layer_1" xmlns="http://www.w3.org/2000/svg" xmlns:xlink="http://www.w3.org/1999/xlink" x="0px" y="0px"
	 viewBox="0 0 280 280" style="enable-background:new 0 0 280 280;" xml:space="preserve">
<style type="text/css">
	.st0{fill:#FFFFFF;}
	.st1{fill:#0177BD;}
</style>
<g>
	<path class="st0" d="M280,140.24c0.55,68.08-51.13,139.36-140.41,139.08C53.91,279.05,0.34,212.48,0,140.24
		C-0.33,69.04,53,0.69,140.04,0.68C228.5,0.67,280.49,71.12,280,140.24z M16.04,171.86c-0.19,0.51-0.07,0.94,0.36,1.28
		c13.29,46.67,44.01,76.98,90.46,89.69c58.63,16.05,114.09-9.01,144.2-59.05c14.93-24.82,20.4-51.99,15.97-80.83
		c0.3-0.6,0.27-1.18-0.11-1.74c-0.92-4.29-1.84-8.59-2.77-12.88c0.2-0.6,0.05-1.1-0.44-1.5c-4.63-21.86-16.56-39.94-31.74-55.53
		C186.25,4.33,112.67-2.46,58.15,42.21c-35.86,29.38-51.01,68.4-44.94,114.8c-0.24,0.62-0.18,1.22,0.16,1.79
		C14.26,163.15,15.15,167.51,16.04,171.86z"/>
	<path class="st1" d="M13.21,157.01c-6.07-46.4,9.08-85.42,44.94-114.8c54.51-44.67,128.1-37.88,173.82,9.08
		c15.18,15.59,27.11,33.67,31.74,55.53c-0.75,0.36-1.5,0.72-2.25,1.09c-21.84,0.19-43.69,0.33-65.53,0.6
		c-12.98,0.16-21.44,7.57-21.7,18.73c-0.27,11.47,8.55,19.5,21.87,19.63c13.45,0.13,26.91-0.01,40.36,0.04
		c4.62,0.02,10.89-0.84,10.08,5.94c-0.28,2.34-6.7,5.55-10.38,5.64c-23.2,0.51-46.44,0.91-69.61-0.03
		c-10.45-0.42-15.25,3.48-17.52,13.21c30.91,0,61.49,0.15,92.07-0.18c4.06-0.04,8.74-1.73,11.99-4.16
		c6.74-5.04,9.2-12.19,6.32-20.46c-3.15-9.04-10.15-13.1-19.34-13.26c-14.46-0.26-28.94,0.22-43.38-0.36
		c-3.12-0.13-6.11-3.44-9.17-5.28c2.8-2.19,5.58-6.23,8.42-6.27c22.51-0.34,45.03,0.07,67.54,0.25c1.18,0.34,2.35,0.68,3.53,1.02
		c4.44,28.85-1.04,56.02-15.97,80.83c-30.1,50.05-85.57,75.1-144.2,59.05c-46.45-12.71-77.16-43.02-90.46-89.69
		c0.72-0.21,1.43-0.42,2.15-0.63c21.13-0.28,42.25-0.61,63.38-0.84c15.08-0.16,24.19-7.45,24.04-19.41
		c-0.15-11.86-9.35-19.03-24.6-19.08c-12.43-0.04-24.89,0.42-37.28-0.26c-3.76-0.21-7.34-3.48-11-5.35
		c3.56-2.03,7.05-5.67,10.69-5.83c15.68-0.65,31.4-0.28,47.25-0.28c-1.66-10.34-6.96-13.94-16.77-13.19
		c-10.69,0.82-21.49,0.1-32.24,0.2c-13.56,0.13-22.52,7.76-22.48,18.99c0.04,11.22,9.06,19.01,22.5,19.13
		c14.11,0.13,28.24-0.26,42.33,0.28c2.81,0.11,5.5,3.4,8.24,5.23c-2.75,2.2-5.47,6.26-8.25,6.31c-22.49,0.37-44.99-0.02-67.49-0.17
		C15.63,157.83,14.42,157.42,13.21,157.01z M175.43,109.22c-14.97-1.77-14.96-1.76-20.98,9.28c-6.44,11.8-12.9,23.58-20.11,36.76
		c-7.12-13.24-14.2-24.53-19.39-36.62c-4.51-10.51-11.28-12.31-22.01-9.42c11.05,19.95,21.65,39.45,32.66,58.73
		c3.09,5.42,14.75,5.37,17.78-0.04C154.09,148.79,164.41,129.48,175.43,109.22z"/>
	<path class="st0" d="M263.49,121.92c-22.52-0.18-45.04-0.6-67.54-0.25c-2.84,0.04-5.61,4.08-8.42,6.27
		c3.05,1.84,6.04,5.15,9.17,5.28c14.44,0.58,28.92,0.1,43.38,0.36c9.2,0.17,16.19,4.22,19.34,13.26c2.88,8.27,0.42,15.43-6.32,20.46
		c-3.25,2.43-7.93,4.11-11.99,4.16c-30.58,0.34-61.16,0.18-92.07,0.18c2.27-9.73,7.07-13.64,17.52-13.21
		c23.17,0.94,46.41,0.55,69.61,0.03c3.68-0.08,10.1-3.29,10.38-5.64c0.81-6.77-5.46-5.92-10.08-5.94
		c-13.45-0.05-26.91,0.09-40.36-0.04c-13.32-0.13-22.14-8.16-21.87-19.63c0.26-11.16,8.72-18.57,21.7-18.73
		c21.84-0.27,43.68-0.4,65.53-0.6c0.9,0.14,1.79,0.28,2.69,0.41c0.92,4.29,1.84,8.59,2.77,12.88
		C265.77,121.43,264.63,121.68,263.49,121.92z"/>
	<path class="st0" d="M16.84,158.25c22.5,0.16,45,0.54,67.49,0.17c2.78-0.05,5.5-4.11,8.25-6.31c-2.74-1.82-5.43-5.12-8.24-5.23
		c-14.09-0.54-28.22-0.15-42.33-0.28c-13.44-0.12-22.47-7.92-22.5-19.13c-0.04-11.23,8.92-18.86,22.48-18.99
		c10.75-0.1,21.55,0.62,32.24-0.2c9.81-0.75,15.11,2.85,16.77,13.19c-15.85,0-31.57-0.37-47.25,0.28
		c-3.64,0.15-7.13,3.79-10.69,5.83c3.66,1.87,7.25,5.14,11,5.35c12.39,0.68,24.85,0.22,37.28,0.26c15.25,0.05,24.45,7.21,24.6,19.08
		c0.15,11.97-8.96,19.25-24.04,19.41c-21.13,0.22-42.25,0.55-63.37,0.84c-0.84-0.22-1.67-0.44-2.51-0.65
		c-0.89-4.35-1.78-8.7-2.67-13.05C14.53,158.62,15.69,158.43,16.84,158.25z"/>
	<path class="st1" d="M263.49,121.92c1.14-0.24,2.28-0.48,3.42-0.73c0.37,0.56,0.41,1.14,0.11,1.75
		C265.84,122.6,264.67,122.26,263.49,121.92z"/>
	<path class="st1" d="M16.84,158.25c-1.16,0.19-2.31,0.37-3.47,0.56c-0.35-0.57-0.4-1.17-0.16-1.79
		C14.42,157.42,15.63,157.83,16.84,158.25z"/>
	<path class="st1" d="M264.15,108.31c-0.9-0.14-1.8-0.28-2.69-0.41c0.75-0.36,1.5-0.72,2.26-1.09
		C264.2,107.21,264.35,107.71,264.15,108.31z"/>
	<path class="st1" d="M16.04,171.86c0.84,0.22,1.68,0.43,2.51,0.65c-0.72,0.21-1.43,0.42-2.15,0.63
		C15.97,172.8,15.85,172.37,16.04,171.86z"/>
	<path class="st0" d="M175.43,109.22c-11.02,20.26-21.34,39.57-32.04,58.68c-3.03,5.42-14.69,5.47-17.78,0.04
		c-11.01-19.28-21.61-38.78-32.66-58.73c10.73-2.89,17.5-1.09,22.01,9.42c5.19,12.09,12.27,23.38,19.39,36.62
		c7.21-13.18,13.67-24.96,20.11-36.76C160.48,107.46,160.46,107.45,175.43,109.22z"/>
</g>
</svg>
