<?xml version="1.0" encoding="utf-8"?>
<!-- Generator: Adobe Illustrator 26.0.3, SVG Export Plug-In . SVG Version: 6.00 Build 0)  -->
<svg version="1.1" id="Layer_1" xmlns="http://www.w3.org/2000/svg" xmlns:xlink="http://www.w3.org/1999/xlink" x="0px" y="0px"
	 viewBox="0 0 280 280" style="enable-background:new 0 0 280 280;" xml:space="preserve">
<style type="text/css">
	.st0{fill:#06AFC5;}
	.st1{fill:#6D227F;}
	.st2{fill:#FCB919;}
</style>
<g>
	<path class="st0" d="M31.81,120.03c0-25.55-0.41-48.42,0.37-71.26c0.15-4.29,4.04-9.93,7.87-12.41
		C92.46,2.43,188.37-10.17,247.52,8.96c0,29.84,0,59.95,0,91.4C173.44,79.3,102.16,86.1,31.81,120.03z M170.29,45.25
		c-0.47-15.56-14.12-28.28-30.03-27.97c-16.34,0.32-28.43,12.96-28.09,29.37c0.33,15.87,13.79,28.81,29.45,28.33
		C156.94,74.51,170.74,60.2,170.29,45.25z"/>
	<path class="st1" d="M174.77,246.75c0-33.98,0-67.97,0-101.95c1.34-1.58,2.69-3.16,4.03-4.73c3.64,0.27,7.3,0.34,10.9,0.83
		c57.15,7.79,58.6,9.44,58.6,65.81c0,23.96,0,47.93,0,73.31c-24.55-10.05-47.29-19.37-70.04-28.68
		C177.1,249.79,175.93,248.27,174.77,246.75z"/>
	<path class="st2" d="M31.78,247.41c0-27.48-0.36-54.04,0.38-80.56c0.11-4.05,4.49-10.35,8.23-11.55
		c20.7-6.65,41.82-12.05,65.09-18.52c0,36.53,0,69.4,0,103.18C81.23,242.41,57.31,244.82,31.78,247.41z"/>
	<path class="st1" d="M178.8,140.06c-1.34,1.58-2.69,3.16-4.03,4.73C176.11,143.21,177.46,141.63,178.8,140.06z"/>
	<path class="st1" d="M174.77,246.75c1.17,1.52,2.33,3.05,3.5,4.57C177.1,249.79,175.93,248.27,174.77,246.75z"/>
</g>
</svg>
