<?xml version="1.0" encoding="utf-8"?>
<!-- Generator: Adobe Illustrator 26.0.3, SVG Export Plug-In . SVG Version: 6.00 Build 0)  -->
<svg version="1.1" id="Layer_1" xmlns="http://www.w3.org/2000/svg" xmlns:xlink="http://www.w3.org/1999/xlink" x="0px" y="0px"
	 viewBox="0 0 280 280" style="enable-background:new 0 0 280 280;" xml:space="preserve">
<style type="text/css">
	.st0{fill:#BF272D;}
</style>
<path class="st0" d="M173.9,141.5c16.5-9.8,32.9-19.7,51.5-30.7c-4,10.1-7.1,18.3-10.7,27.4c9.9,1.2,18.8,2.2,27.7,3.2
	c-5.6,5.9-10.3,12-16.1,16.8c-6.2,5.1-8.6,10.6-6.5,18.4c1.1,4,1.1,8.3,1.8,13.6c-18.1-1.2-35.4-2.4-52.7-3.6
	c-0.3,0.7-0.6,1.4-0.9,2.1c9.1,7.6,18.3,15.3,28,23.4c-7.6,5.4-16,9.1-20.9,15.5c-4.8,6.3-6.1,15.3-9.1,23.8
	c-7.6-5.1-15.7-11.5-24.6-1.3c-6.7-7.7-12.7-14.7-19.9-23c-6.6,18.4-12.7,35.6-18.9,52.7c-0.4-0.1-0.9-0.2-1.3-0.2
	c2.4-18.1,4.8-36.1,7.4-55.6c-10.1,4.1-18.7,7.5-28.3,11.3c-3.1-13-13-11.4-24.7-10.4c11.8-18.3,3-32.8-6.6-48.2
	c12.9-3,24.5-5.7,36.2-8.4c0.2-0.6,0.4-1.2,0.6-1.8c-16-7-32.1-14-48.5-21.1c0.7-1.5,1-3.1,1.9-4c12-11.2,11.3-23.8,4.4-37.3
	c-1.7-3.4-2.5-7.3-4.2-12.6c9.8,3.8,18,7.1,27.2,10.7c1.2-9.6,2.2-18.1,3.5-29c11.2,18,21.4,34.3,31.5,50.6c0.9-0.1,1.8-0.2,2.7-0.3
	c0-25.6,0-51.1,0-78.6c9.3,5.3,16.1,9.1,23.5,13.3c13.8-19.2,27.2-38,41.9-58.4c3.7,24.8,7.1,47.8,10.5,70.7c8.8,0,16.6,0,25.6,0
	c-11.6,23.6-22.8,46.6-34,69.5C172.7,140.6,173.3,141.1,173.9,141.5z"/>
</svg>
