<?xml version="1.0" encoding="utf-8"?>
<!-- Generator: Adobe Illustrator 26.0.3, SVG Export Plug-In . SVG Version: 6.00 Build 0)  -->
<svg version="1.1" id="Layer_1" xmlns="http://www.w3.org/2000/svg" xmlns:xlink="http://www.w3.org/1999/xlink" x="0px" y="0px"
	 viewBox="0 0 280 280" style="enable-background:new 0 0 280 280;" xml:space="preserve">
<style type="text/css">
	.st0{fill-rule:evenodd;clip-rule:evenodd;fill:#FFFFFF;}
</style>
<g>
	<path class="st0" d="M279.8,165.5c-0.1-0.2-0.4-0.6-0.6-1c-0.2-0.4-0.5-0.8-0.5-1c-0.3-0.5-1.6-2.9-2.1-3.8
		c-0.2-0.4-0.4-0.7-0.5-0.8c-0.1-0.1-0.4-0.7-1.3-2.4c-0.2-0.3-0.4-0.8-0.6-1c-0.2-0.2-0.4-0.6-0.5-0.9c-0.1-0.2-0.4-0.8-0.7-1.2
		c-0.2-0.4-0.5-0.8-0.5-1c-0.1-0.1-0.4-0.7-0.7-1.3c-0.3-0.6-0.6-1.1-0.6-1.1c0,0-0.3-0.5-0.6-1.1c-0.3-0.6-0.7-1.2-0.7-1.3
		c-0.1-0.1-0.2-0.4-0.3-0.5c-0.1-0.2-0.4-0.8-0.8-1.3c-0.3-0.6-0.7-1.2-0.8-1.3c-0.1-0.2-0.3-0.6-0.5-1c-0.2-0.4-0.5-0.9-0.7-1.3
		c-0.2-0.3-0.4-0.7-0.4-0.7c0,0-0.2-0.3-0.4-0.7c-0.5-0.7-0.5-1,0.1-1.9c0.2-0.4,0.5-1,0.7-1.2c0.1-0.2,0.3-0.6,0.5-0.9
		c0.2-0.2,0.4-0.7,0.6-1c0.9-1.7,1.2-2.2,1.3-2.4c0.1-0.1,0.3-0.5,0.5-0.8c0.6-1.1,1.9-3.4,2.2-3.8c0.1-0.1,0.2-0.3,0.2-0.4
		c0.1-0.1,0.4-0.7,0.7-1.3c0.3-0.6,0.6-1.1,0.6-1.1c0,0,0.3-0.5,0.6-1.1c0.3-0.6,0.9-1.5,1.1-2c0.3-0.5,0.6-1.1,0.8-1.5
		c0.2-0.3,0.4-0.7,0.5-0.9c0.1-0.2,0.3-0.5,0.5-0.8c0.2-0.3,0.5-0.9,0.8-1.5c0.3-0.5,0.6-1,0.7-1.1c0.1-0.1,0.3-0.4,0.4-0.7
		c0.1-0.3,0.5-1,0.9-1.6c0.8-1.4,1.4-1.3-6.1-1.3c-6.3,0-6.5,0-6.8,0.6c-0.1,0.2-0.3,0.5-0.4,0.8c-0.2,0.2-0.4,0.7-0.6,1
		c-0.6,1.1-1.3,2.3-1.4,2.5c-0.1,0.1-0.3,0.5-0.5,0.9c-0.2,0.4-0.4,0.8-0.5,1c-0.1,0.1-0.4,0.7-0.7,1.3c-0.3,0.6-0.7,1.2-0.8,1.3
		c-0.1,0.2-0.2,0.4-0.3,0.6c-0.1,0.2-0.4,0.7-0.7,1.3c-0.3,0.5-0.6,1-0.6,1c0,0.1-1.1,1.9-1.2,2c-0.2,0.2-0.4,0.1-0.5-0.1
		c-0.1-0.1-0.3-0.6-0.5-0.9c-0.5-0.9-1.1-2-1.6-2.8c-0.2-0.4-0.4-0.7-0.5-0.8c-0.1-0.1-0.4-0.6-0.6-1.1c-0.3-0.5-0.7-1.2-0.8-1.5
		c-0.2-0.3-0.4-0.6-0.5-0.8c-0.1-0.2-0.3-0.6-0.5-0.9c-0.2-0.3-0.6-1-0.8-1.5c-0.3-0.5-0.8-1.4-1.1-2c-0.3-0.6-0.6-1.1-0.6-1.2
		s-0.2-0.3-0.3-0.4l-0.3-0.3l-6.3,0c-3.5,0-6.4,0.1-6.4,0.1c-0.1,0.1,0.1,0.7,0.9,2c0.3,0.6,0.6,1.1,0.7,1.2
		c0.1,0.1,0.2,0.4,0.3,0.5c0.1,0.2,0.4,0.8,0.8,1.3c0.3,0.6,0.7,1.1,0.7,1.3c0.1,0.1,0.3,0.6,0.5,1c0.2,0.4,0.4,0.8,0.5,0.9
		c0.2,0.2,0.8,1.4,1.4,2.5c0.2,0.3,0.4,0.7,0.6,1c0.2,0.2,0.4,0.6,0.5,0.9c0.1,0.2,0.4,0.8,0.7,1.2c0.2,0.4,0.5,0.8,0.5,1
		c0.1,0.1,0.4,0.7,0.7,1.3c0.3,0.6,0.6,1.1,0.6,1.1c0,0,0.4,0.7,0.9,1.5c0.5,0.8,0.9,1.5,0.9,1.6c0,0.1,1.2,2.1,1.5,2.6
		c0.1,0.1,0.3,0.5,0.5,0.9c0.2,0.4,0.5,0.9,0.7,1.2c0.8,1.3,0.8,1.3,0.3,2.2c-0.3,0.5-0.6,1.1-0.8,1.4c-0.2,0.3-0.5,0.9-0.8,1.5
		c-1,1.8-1.5,2.6-1.7,3c-0.1,0.2-0.3,0.6-0.5,0.9c-0.3,0.5-0.5,0.8-1.2,2.2c-0.3,0.6-0.6,1.1-0.7,1.2c-0.1,0.1-0.3,0.5-0.5,0.8
		c-0.7,1.3-1.2,2.1-1.3,2.3c-0.1,0.1-0.3,0.5-0.5,0.9c-0.2,0.4-0.4,0.8-0.5,1c-0.2,0.4-1,1.8-1.4,2.4c-1.7,3.1-1.5,3.1-3.4-0.4
		c-0.2-0.4-0.4-0.7-0.5-0.8c-0.1-0.1-0.4-0.6-0.6-1.1c-0.3-0.5-0.7-1.2-0.8-1.5c-0.2-0.3-0.4-0.6-0.5-0.8c-0.1-0.2-0.3-0.6-0.5-0.9
		c-0.2-0.3-0.6-1-0.8-1.5s-0.8-1.4-1.1-2c-0.3-0.6-0.6-1.1-0.6-1.1c0,0-0.3-0.6-0.7-1.2c-0.4-0.6-0.7-1.2-0.7-1.2
		c0-0.1-0.1-0.2-0.2-0.3c-0.6-0.6-0.5-1,0.5-1.4c2.5-1.2,5.7-4.1,6.9-6.3c1.4-2.5,1.9-4.2,2.1-6.8c0.1-1.4,0-4.3-0.2-4.7
		c-0.1-0.1-0.1-0.4-0.2-0.7c-0.2-1.4-1.5-4-2.6-5.5c-2.7-3.5-5.8-5.4-10.3-6.3c-1.4-0.3-18-0.4-18.4-0.2c-0.4,0.2-0.4,51.9,0,52.3
		c0.3,0.4,11.1,0.4,11.4,0c0.1-0.1,0.1-3.3,0.1-7.9c0-7.5,0-8.2,0.5-7.3c0.1,0.2,0.2,0.5,0.3,0.6c0.1,0.2,0.4,0.8,0.8,1.3
		c0.3,0.6,0.7,1.1,0.7,1.3c0.1,0.1,0.3,0.6,0.5,1c0.2,0.4,0.4,0.8,0.5,0.9c0.2,0.2,0.8,1.4,1.4,2.5c0.2,0.3,0.4,0.7,0.6,1
		c0.2,0.2,0.4,0.6,0.5,0.9c0.1,0.2,0.4,0.8,0.7,1.2c0.2,0.4,0.5,0.9,0.6,1c0.1,0.2,0.3,0.6,0.5,0.9c0.2,0.3,0.6,1,0.8,1.5
		c0.3,0.5,0.6,1,0.8,1.2l0.3,0.3l10.1,0c11.3,0,10.4,0.1,11-1.1c0.2-0.4,0.5-0.8,0.5-1c0.3-0.5,1.5-2.5,1.5-2.6c0,0,0.3-0.5,0.6-1.1
		c0.3-0.6,0.9-1.5,1.1-2c0.3-0.5,0.6-1.1,0.8-1.5c0.2-0.3,0.4-0.7,0.5-0.9c0.1-0.2,0.4-0.6,0.6-1s0.5-0.9,0.7-1.2
		c0.1-0.2,0.3-0.6,0.5-0.9c0.2-0.2,0.4-0.6,0.4-0.8c0.2-0.5,0.6-0.4,0.9,0.2c0.1,0.2,0.2,0.4,0.3,0.5c0.2,0.4,1.6,2.7,2.2,3.8
		c0.2,0.4,0.4,0.7,0.5,0.8c0.1,0.1,0.4,0.7,1.3,2.4c0.2,0.3,0.4,0.8,0.6,1c0.2,0.2,0.4,0.6,0.5,0.9c0.2,0.4,0.7,1.3,1.7,3
		c0.8,1.4,0.3,1.3,7.3,1.3C280.3,166.4,280.4,166.4,279.8,165.5z"/>
	<path class="st0" d="M205.8,166.1c0.3-0.4,0.3-10.8,0-11.1c-0.2-0.2-1-0.3-10-0.3l-9.8,0v-4.4v-4.4l8.5-0.1l8.5-0.1v-5.7v-5.7
		l-8.5-0.1l-8.5-0.1v-4.4v-4.4l9.8,0c9,0,9.8-0.1,10-0.3c0.2-0.3,0.3-10.5,0-11.1l-0.1-0.4l-15.5,0l-15.5,0l-0.1,14.3
		c0,8.7-0.1,14.3-0.2,14.3c-0.1,0-0.3-0.3-0.4-0.6c-0.4-0.7-1.4-2.5-1.7-2.9c-0.1-0.2-0.2-0.4-0.3-0.5c-0.1-0.1-0.3-0.5-0.5-0.9
		c-0.5-0.9-1.1-2-1.6-2.8c-0.2-0.4-0.4-0.7-0.5-0.8c-0.1-0.1-0.4-0.7-1.3-2.4c-0.2-0.3-0.4-0.8-0.6-1c-0.2-0.2-0.4-0.6-0.5-0.9
		c-0.2-0.4-0.7-1.3-1.7-3c-0.9-1.6-1.5-2.5-1.7-3.1c-0.4-0.9-1-0.4-2.2,2.1c-0.1,0.2-0.3,0.6-0.5,0.9c-0.3,0.5-0.5,0.8-1.2,2.2
		c-0.3,0.6-0.6,1.1-0.7,1.2c-0.1,0.1-0.3,0.5-0.5,0.8c-0.6,1.1-1.9,3.4-2.2,3.8c-0.1,0.1-0.2,0.3-0.2,0.4c-0.1,0.1-0.4,0.7-0.7,1.3
		c-0.3,0.6-0.6,1.1-0.6,1.1c0,0-0.4,0.7-0.8,1.5c-0.5,0.8-1,1.7-1.1,2c-0.1,0.3-0.4,0.7-0.6,1l-0.4,0.4l0-13.9
		c0-8.7-0.1-14.1-0.1-14.3l-0.1-0.4l-10.6,0c-8.1,0-10.7,0-10.8,0.2c-0.1,0.1-0.5,0.6-0.8,1.2c-1.1,1.9-1.5,2.6-1.7,3.1
		c-0.1,0.2-0.3,0.6-0.5,0.9c-0.3,0.5-0.5,0.8-1.2,2.2c-0.3,0.6-0.6,1.1-0.7,1.2c-0.1,0.1-0.3,0.5-0.5,0.8c-0.6,1.1-1.9,3.4-2.2,3.8
		c-0.1,0.1-0.2,0.3-0.2,0.4c-0.1,0.1-0.4,0.7-0.7,1.3c-0.3,0.6-0.6,1.1-0.6,1.1c0,0-0.3,0.5-0.6,1.1c-0.7,1.2-1.3,2.2-1.8,3.2
		c-0.2,0.4-0.4,0.7-0.5,0.7c-0.1,0-0.2,0.2-0.3,0.4c-0.2,0.3-0.2,0.8-0.2-12.4c0-5.3-0.1-8.7-0.1-8.9l-0.1-0.4l-5.6,0l-5.6,0
		l-0.1,13.3c-0.1,12.5-0.1,14-0.4,13.2c-0.1-0.2-0.2-0.4-0.3-0.6c-0.2-0.2-0.8-1.3-1.4-2.5c-0.2-0.3-0.4-0.7-0.6-1
		c-0.2-0.2-0.4-0.6-0.5-0.9c-0.1-0.2-0.4-0.8-0.7-1.2c-0.2-0.4-0.5-0.8-0.5-1c-0.1-0.1-0.4-0.7-0.7-1.3c-0.3-0.6-0.6-1.1-0.6-1.1
		c0,0-0.3-0.5-0.6-1.1c-0.3-0.6-0.7-1.2-0.7-1.3c-0.1-0.1-0.2-0.4-0.3-0.5c-0.1-0.2-0.4-0.8-0.8-1.3c-0.3-0.6-0.7-1.1-0.7-1.3
		c-0.1-0.1-0.3-0.6-0.5-1c-0.2-0.4-0.4-0.8-0.5-0.9c-0.1-0.1-0.4-0.6-0.7-1.1c-0.3-0.5-0.6-1.1-0.8-1.5c-0.2-0.3-0.4-0.7-0.5-0.9
		c-0.1-0.2-0.4-0.7-0.7-1.2c-0.3-0.5-0.6-1-0.7-1.2c-0.1-0.2-0.3-0.5-0.4-0.7c-0.2-0.2-0.4-0.6-0.5-0.9c-0.4-0.9-0.9-1.7-1.2-2
		c-0.3-0.3-10.3-0.5-10.5-0.2c-0.1,0.1-0.1,52.1,0,52.4c0.2,0.4,11.2,0.3,11.4-0.1c0.1-0.2,0.2-4.7,0.2-13.6c0-10.2,0-13.3,0.2-13
		c0.1,0.2,0.2,0.4,0.3,0.5c0.1,0.1,0.3,0.5,0.5,0.8c0.2,0.3,0.4,0.8,0.6,1.1c0.2,0.2,0.4,0.6,0.5,0.9c0.1,0.2,0.4,0.8,0.7,1.2
		s0.5,0.9,0.6,1c0.1,0.2,0.3,0.6,0.5,0.9c0.2,0.3,0.6,1,0.8,1.5c0.3,0.5,0.8,1.4,1.1,2c0.3,0.6,0.6,1.1,0.6,1.1
		c0,0.1,1.2,2.1,1.5,2.6c0.1,0.1,0.3,0.5,0.5,0.9c0.2,0.4,0.4,0.8,0.5,0.9c0.2,0.2,0.6,1,1.3,2.3c0.2,0.4,0.4,0.7,0.5,0.8
		c0.1,0.1,0.4,0.6,0.7,1.2c0.8,1.4,0.9,1.7,1.2,2.2c0.2,0.2,0.4,0.6,0.5,0.9c0.2,0.4,0.7,1.3,1.7,3c0.8,1.4,0.5,1.3,6,1.3
		c4.7,0,4.9,0,5-0.3c0.1-0.2,0.2-3.3,0.1-9.3c0-5,0-9.7,0-10.6l0-1.6l0.3,0.4c0.4,0.5,0.6,0.8,1,1.7c0.2,0.4,0.4,0.8,0.5,0.9
		c0.1,0.1,0.4,0.6,0.6,1.1s0.6,1,0.7,1.1c0.1,0.1,0.2,0.3,0.2,0.5s0.1,0.3,0.2,0.3s0.2,0.2,0.3,0.4c0.1,0.2,0.4,0.7,0.7,1.2
		c0.3,0.5,0.6,1,0.7,1.2c0.1,0.2,0.2,0.4,0.3,0.5c0.2,0.4,1.5,2.5,1.5,2.6c0,0,0.4,0.7,0.9,1.5c0.5,0.8,0.9,1.5,0.9,1.6
		c0,0.1,1.2,2.1,1.5,2.6c0.1,0.1,0.3,0.5,0.5,0.9c0.2,0.4,0.4,0.8,0.5,0.9c0.1,0.1,0.4,0.6,0.6,1.1c0.8,1.5,0.2,1.4,7.3,1.4
		c7.3,0,7,0.1,5.9-1.5c-0.2-0.2-0.4-0.6-0.5-0.9c-0.1-0.2-0.4-0.8-0.7-1.2c-0.2-0.4-0.5-0.9-0.6-1c-0.1-0.2-0.3-0.6-0.5-0.9
		c-0.2-0.3-0.5-1-0.8-1.4c-0.2-0.4-0.8-1.3-1.1-2s-0.7-1.2-0.7-1.2c0-0.1-1.2-2.2-1.5-2.6c-0.1-0.1-0.2-0.3-0.2-0.4
		c-0.1-0.1-0.3-0.5-0.5-0.9c-0.5-0.9-1.1-2-1.6-2.8c-0.2-0.4-0.4-0.7-0.5-0.8c-0.1-0.1-0.4-0.7-1.3-2.4c-0.2-0.3-0.4-0.8-0.6-1
		c-0.2-0.2-0.4-0.6-0.5-0.9c-0.1-0.2-0.4-0.7-0.6-1c-0.2-0.3-0.7-1.2-1.1-1.9c-0.9-1.5-0.9-1.6-0.4-2.4c0.2-0.3,0.4-0.6,0.4-0.6
		c0-0.1,1.2-2.2,1.5-2.6c0.1-0.1,0.2-0.3,0.2-0.4c0.1-0.1,0.4-0.7,0.7-1.3c0.3-0.6,0.6-1.1,0.6-1.1c0,0,0.3-0.5,0.6-1.1
		c0.3-0.6,0.9-1.5,1.1-2c0.3-0.5,0.6-1.1,0.8-1.5c0.2-0.3,0.4-0.7,0.5-0.9c0.1-0.2,0.4-0.6,0.6-1c0.2-0.4,0.5-0.9,0.7-1.2
		c0.1-0.2,0.3-0.6,0.5-0.9c0.2-0.2,0.4-0.7,0.6-1c0.6-1.1,1.3-2.3,1.4-2.5c0.1-0.1,0.3-0.5,0.5-0.9c0.2-0.5,0.4-0.7,0.5-0.5
		c0.1,0.1,0.1,8.3,0.1,18.1c0,15,0,17.9,0.2,18.1c0.2,0.2,0.4,0.6,1.4,2.4c0.2,0.3,0.4,0.8,0.6,1c0.2,0.2,0.4,0.6,0.5,0.9
		c0.2,0.4,0.7,1.2,1.7,3c0.3,0.5,0.7,1.3,1,1.7c0.8,1.4,0.7,1.4,3.4,1.4h2.4l0.4-0.4c0.2-0.2,0.4-0.5,0.4-0.5c0-0.1,0.2-0.4,0.4-0.7
		c0.2-0.3,0.5-0.9,0.7-1.2c0.6-1.1,1.9-3.4,2.1-3.7c0.1-0.1,0.2-0.3,0.2-0.4c0.1-0.1,0.4-0.7,0.7-1.3c0.3-0.6,0.6-1.1,0.6-1.1
		c0,0,0.3-0.5,0.6-1.1c0.3-0.6,0.9-1.5,1.1-2c0.3-0.5,0.6-1.1,0.8-1.5c0.2-0.3,0.4-0.7,0.5-0.9c0.1-0.2,0.3-0.5,0.5-0.8
		c0.2-0.3,0.5-0.9,0.8-1.5c0.3-0.5,0.6-1.1,0.7-1.2c0.1-0.1,0.3-0.5,0.5-0.9c0.5-1,0.7-0.9,1.6,0.9c0.2,0.4,0.4,0.8,0.5,0.9
		c0.2,0.2,0.8,1.4,1.4,2.5c0.2,0.3,0.4,0.7,0.6,1c0.2,0.2,0.4,0.6,0.5,0.9c0.1,0.2,0.4,0.8,0.7,1.2c0.2,0.4,0.5,0.9,0.6,1
		c0.1,0.2,0.3,0.6,0.5,0.9c0.2,0.3,0.6,1,0.8,1.5c0.3,0.5,0.8,1.4,1.1,2c0.3,0.6,0.6,1.1,0.6,1.1c0,0.1,1.2,2.1,1.5,2.6
		c0.1,0.1,0.3,0.6,0.5,1c0.2,0.4,0.6,1,0.8,1.3l0.4,0.6l15.5,0C204.5,166.4,205.6,166.4,205.8,166.1z"/>
	<path class="st0" d="M65.8,113.6l-0.1,0.4c-0.2,0.6-0.2,51.8,0,52.1c0.3,0.4,11,0.3,11.3-0.1c0.2-0.3,0.1-52.1-0.1-52.2
		c-0.1-0.1-2.6-0.1-5.6-0.2L65.8,113.6z"/>
	<path class="st0" d="M42.7,114l-0.1-0.4H21.4c-11.7,0-21.3,0-21.3,0.1C0,113.9,0,125,0.1,125.2c0.1,0.1,1.4,0.2,5.6,0.2l5.5,0
		l0.1,20.3c0,11.2,0.1,20.4,0.2,20.5c0.1,0.2,11.2,0.3,11.3,0.1c0,0,0.1-9.2,0.1-20.5l0.1-20.4h4.1h4.1l0.1,20.4
		c0,11.2,0.1,20.4,0.1,20.5c0.1,0.2,11.2,0,11.3-0.1c0.1-0.1,0.2-4.7,0.2-10.2l0.1-10.1h4.1h4.1l0,10c0,9,0.1,10,0.3,10.2
		c0.4,0.4,10.7,0.4,11.1,0c0.4-0.4,0.3-52.1-0.1-52.3c-0.3-0.2-10.7-0.2-11,0c-0.2,0.1-0.2,1.5-0.3,10.2l-0.1,10.1l-4.1,0l-4.1,0
		v-9.9C42.9,118.2,42.8,114.2,42.7,114z"/>
</g>
</svg>
