<?xml version="1.0" encoding="utf-8"?>
<!-- Generator: Adobe Illustrator 26.0.3, SVG Export Plug-In . SVG Version: 6.00 Build 0)  -->
<svg version="1.1" id="Layer_1" xmlns="http://www.w3.org/2000/svg" xmlns:xlink="http://www.w3.org/1999/xlink" x="0px" y="0px"
	 viewBox="0 0 280 280" style="enable-background:new 0 0 280 280;" xml:space="preserve">
<style type="text/css">
	.st0{fill:#FFFFFF;}
</style>
<g>
	<path class="st0" d="M146.2,212.5c0-0.8,0-1.4,0-2.1c0-29.6-0.1-59.3,0-88.9c0-10.6,2.1-20.8,8.2-29.7c5.6-8.2,13.4-13.7,22.5-17.5
		c10.6-4.4,21.7-6.1,33-7.3c0.5-0.1,1.2,0.2,1.6,0.6c6.9,6.7,13.7,13.5,20.6,20.3c-0.1,0.2-0.2,0.4-0.2,0.6
		c-1.7,0.1-3.4,0.2-5.1,0.3c-10.6,0.3-21.1,1.8-31.1,5.4c-17.4,6.2-28.3,18.5-32.7,36.3c-1.8,7.5-2.8,15.3-3.7,23
		c-1.6,13.5-3,27-4.4,40.4c-0.4,3.8-0.8,7.5-1.2,11.5c3-0.4,5.6-0.7,8.3-1c16.6-2,33.2-3.9,49.8-6.1c11.3-1.5,22.5-3.4,33.7-5.3
		c2.1-0.4,4.3-1.4,6.2-2.5c2.8-1.6,3.4-4,2-7c-2.1-4.5-5.6-7.8-9.3-11c-5.2-4.5-10.6-8.8-16-13.2c-0.7-0.6-1.5-1-0.9-2.3
		c3.5-8.1,6.8-16.2,10.2-24.4c0.1-0.3,0.3-0.6,0.7-1.3c2.6,2.7,5,5.2,7.4,7.7c9.2,9.7,17.9,19.6,25.1,30.9c3.8,6,7.2,12.3,8.6,19.4
		c2,9.5-1.8,16.5-10.8,20.1c-6,2.4-12.4,3.1-18.7,3.1c-33.9,0.1-67.8,0-101.8,0C147.5,212.6,146.9,212.5,146.2,212.5z"/>
	<path class="st0" d="M134,213c-4.5,0-8.6,0-12.8,0c-30,0-60,0-90,0c-6.9,0-13.7-0.6-20.2-3.2C2,206-1.5,199.3,0.6,189.6
		c1.7-8,5.7-14.9,10.2-21.5c8.7-12.9,19.3-24.3,30.2-35.4c0.2-0.2,0.4-0.3,0.8-0.7c3.7,8.9,7.4,17.7,11,26.4
		c-5.5,4.6-10.9,8.9-16.1,13.6c-3.1,2.7-6,5.7-8.6,8.9c-4.4,5.6-3.3,9.6,3.5,11.6c5.8,1.7,11.9,2.8,17.9,3.6
		c14,1.9,28.1,3.5,42.2,5.2c11.2,1.4,22.5,2.8,33.7,4.1c0.3,0,0.6,0,1.2,0c-0.5-4.6-0.9-9.1-1.4-13.6c-1.2-11.1-2.3-22.3-3.5-33.4
		c-1.1-10.9-1.9-21.9-5.6-32.4c-5.9-17.1-17.8-27.7-34.9-33c-10.1-3.1-20.6-4.1-31.1-4.3c-0.5,0-1.1,0-1.9,0c0.4-0.6,0.6-1,0.9-1.3
		c6.4-6.4,12.8-12.7,19.3-19c0.6-0.5,1.5-1,2.2-1c14.1,1.2,27.8,3.7,40.3,10.8c12.7,7.3,19.9,18.3,22.1,32.6
		c0.6,4.1,0.9,8.2,0.9,12.3c0.1,29,0,58.1,0,87.1C134,211.3,134,212,134,213z"/>
</g>
</svg>
