<?xml version="1.0" encoding="utf-8"?>
<!-- Generator: Adobe Illustrator 26.5.0, SVG Export Plug-In . SVG Version: 6.00 Build 0)  -->
<svg version="1.1" id="Layer_1" xmlns="http://www.w3.org/2000/svg" xmlns:xlink="http://www.w3.org/1999/xlink" x="0px" y="0px"
	 viewBox="0 0 280 280" style="enable-background:new 0 0 280 280;" xml:space="preserve">
<style type="text/css">
	.st0{fill:#FFFFFF;}
	.st1{clip-path:url(#SVGID_00000027579603588768384450000001465599265311187623_);}
	.st2{fill:#F06829;}
	.st3{fill:#231F20;}
</style>
<g>
	<circle class="st0" cx="140" cy="140" r="111.5"/>
	<g>
		<defs>
			<circle id="SVGID_1_" cx="140.8" cy="140.7" r="128.2"/>
		</defs>
		<clipPath id="SVGID_00000160160997543226350680000000186128321746068886_">
			<use xlink:href="#SVGID_1_"  style="overflow:visible;"/>
		</clipPath>
		<g style="clip-path:url(#SVGID_00000160160997543226350680000000186128321746068886_);">
			<path d="M33.2,239.3c0-0.1,0-0.3,0-0.4c0.3,0,0.6,0,0.9,0c1.1-0.1,2.2-0.2,3.3-0.4c0.2,0,0.4-0.3,0.5-0.5
				c0.1-0.5,0.2-0.9,0.3-1.4c0.2-0.7,0.6-1.4,1.3-1.8c1.6-1.1,3-0.8,4.5,0.3c0.5,0.4,0.6,0.2,1-0.1c1-1,2.2-1.6,3.7-1.1
				c0.4,0.1,0.5,0,0.5-0.3c0.1-0.9,0.4-1.7,0.9-2.4c0.8-1.2,2.2-1.6,3.5-1c0.4,0.2,0.6,0.1,0.7-0.3c0.1-0.5,0.2-1,0.3-1.5
				c0.4-1.5,1.8-2.2,2.9-1.5c0.7,0.4,1.2,1,1.9,1.6c0.2,0.2,0.4,0.3,0.6,0.5c0,0,0.1-0.1,0.1-0.1c0-0.8-0.1-1.7-0.1-2.5
				c-0.1-0.9,0-1.1,1-1.2c0.3,0,0.6-0.1,0.7-0.5c0.1-0.8,0.3-1.5,0.4-2.3c0.3-1.4,0.9-2.6,1.8-3.7c0.8-1,1.8-1.6,3.1-1.5
				c0.4,0,0.9,0.2,1.1,0c0.2-0.3,0.2-0.8,0.1-1.2c-0.1-0.6,0.2-1,0.8-1.2c3.4-1.7,6.8-3.5,10.2-5.2c0.2-0.1,0.5-0.2,0.7-0.4
				c0.4-0.4,0.3-0.9-0.2-1.1c-0.2-0.1-0.4-0.2-0.6-0.3c-0.2-0.1-0.5-0.2-0.4-0.5c0.1-0.3,0.4-0.3,0.6-0.2c0.1,0,0.2,0,0.3,0.1
				c0.4,0.2,0.6-0.2,0.7-0.4c0.2-0.3,0.1-0.5-0.1-0.8c-0.2-0.2-0.2-0.5-0.2-0.8c0-0.3,0.1-0.7,0.2-1c0.1-0.2,0.2-0.4,0.3-0.5
				c0.5-0.4,0.6-0.5,0.2-1.1c-0.1-0.2-0.3-0.5-0.4-0.7c-0.6-1-1.4-1.9-1.7-3.1c-0.2-0.8,0-1.2,0.6-1.7c0.2-0.1,0.4-0.3,0.6-0.4
				c0.5-0.4,1-0.9,1.6-1.1c1.3-0.4,2.6-0.8,4-0.2c0.9,0.4,1.5,0.1,2.3-0.3c1.4-0.7,2.8-1.2,4.3-1.7c0.8-0.3,0.8-0.2,0.8-1.1
				c0-1.1-0.1-2.3-0.1-3.4c0-0.4-0.2-0.6-0.6-0.6c-0.4,0-0.8,0-1.2-0.1c-1-0.2-1.4-0.8-1.3-1.8c0.1-1,0.8-1.5,1.6-1.9
				c0.4-0.2,0.5-0.4,0.2-0.7c-0.6-0.7-1.1-1.4-1.6-2.1c-0.2-0.3-0.5-0.3-0.8-0.2c-0.9,0.5-1.7,0.9-2.6,1.3c-5.5,2.7-11,5.5-16.5,8.2
				c-0.2,0.1-0.5,0.2-0.8,0.2c-0.6-0.1-1.2-0.2-1.8-0.3c-0.2,0-0.4-0.3-0.4-0.5c0-1.5,0-3.1-0.1-4.6c0-0.4,0.1-0.6,0.4-0.8
				c1.8-0.9,3.7-1.8,5.5-2.8c1.7-0.9,3.4-1.7,5.1-2.6c2.2-1.1,4.4-2.2,6.6-3.3c0.2-0.1,0.3-0.2,0.5-0.4c-1.3-0.3-2.4-0.6-3.6-0.9
				c-0.3-0.1-0.7,0-1,0.1c-3,1.5-5.9,3-8.9,4.5c-5.2,2.6-10.3,5.2-15.5,7.9c-0.8,0.4-1.5,0.7-2.4,0.3c-0.4-0.2-0.8-0.2-1.3-0.4
				c0.3-0.2,0.4-0.3,0.5-0.3c0.4-0.2,0.9-0.4,1.3-0.7c0.2-0.1,0.4-0.4,0.5-0.6c0.1-0.7,0.2-1.4,0.2-2.1c0-0.9-0.1-1-0.9-1.1
				c-0.5-0.1-1-0.3-1.5-0.4c0-0.1,0-0.1,0-0.2c0.4-0.2,0.8-0.4,1.2-0.6c3.8-2,7.6-3.9,11.3-5.9c1.9-1,3.9-2,5.9-3
				c5.2-2.7,10.5-5.3,15.7-8c2-1,4-2,5.9-3c0.3-0.1,0.5-0.3,0.4-0.7c-0.2-0.6-0.1-1.2,0.1-1.8c0.2-0.5,0.4-1,0.3-1.5
				c-0.1-0.6,0.2-1,0.7-1.2c0.5-0.2,0.6-0.5,0.6-1.1c0-3.5,0-7,0.1-10.5c0.1-13.3,0.2-26.6,0.4-40c0-0.3,0-0.5-0.1-0.8
				c-0.2-0.8-0.5-1.6-0.6-2.4c-0.1-0.5,0-1,0.1-1.5c0-0.3,0.1-0.6,0-0.9c-0.2-0.8-0.3-1.6,0.2-2.4c0.2-0.3,0.2-0.7,0.3-1.1
				c0.1-0.2,0.1-0.4,0.2-0.6c0.2-0.3,0.1-0.4-0.2-0.5c-0.1,0-0.2,0-0.4,0c-0.8-0.1-1.1-0.4-1-1.2c0.1-1.2,0.4-2.4-0.1-3.6
				c-0.1-0.2,0-0.4,0-0.5c0.1-0.6-0.2-1.1-0.7-1.3c-0.1-0.1-0.2-0.3-0.2-0.4c0.3-0.9,0.6-1.8,0.9-2.8c0.1-0.5,0.3-0.8,0.9-0.9
				c0.7-0.1,1.2-0.7,1.2-1.3c0-1.6,0-3.2,0-4.8c0-0.1-0.1-0.2-0.1-0.4c-0.2,0.2-0.3,0.4-0.4,0.6c-0.9,1.3-1.8,2.5-2.7,3.8
				c-1.5,2.1-3.1,4.2-4.7,6.3c-1.4,2-2.9,3.9-4.3,5.9c-1.3,1.8-2.7,3.5-4,5.3c-1.5,2.1-3.1,4.1-4.6,6.2c-1.3,1.8-2.7,3.5-4,5.3
				c-1.3,1.7-2.6,3.5-3.9,5.2c-1.6,2-3.2,4.1-4.7,6.1c-1.1,1.4-2.1,2.7-3.2,4.1c-1.9,2.4-3.9,4.8-5.8,7.3c-1.8,2.3-3.6,4.6-5.5,6.9
				c-2.8,3.4-5.6,6.8-8.5,10.2c-1.6,2-3.3,3.9-4.9,5.8c-0.1,0.1-0.2,0.1-0.3,0.1c0-0.2,0-0.4,0-0.6c0.1-0.1,0.2-0.1,0.3-0.2
				c1.3-1.5,2.6-2.9,3.8-4.4c1.9-2.2,3.8-4.5,5.6-6.8c0.9-1.1,1.8-2.1,2.7-3.2c1.4-1.7,2.8-3.5,4.2-5.2c1.4-1.8,2.9-3.6,4.3-5.4
				c1.6-2,3.1-4,4.7-6c1-1.3,2-2.5,3-3.8c1.4-1.8,2.8-3.6,4.2-5.5c1.7-2.2,3.4-4.4,5.1-6.7c1.6-2.1,3.2-4.3,4.8-6.5c1.5-2,3-4,4.5-6
				c2.2-2.9,4.3-5.8,6.4-8.7c1.7-2.3,3.4-4.7,5.1-7c0.8-1.1,1.7-2.3,2.5-3.4c0.3-0.4,0.5-0.8,0.5-1.3c0-1.9,0-3.8,0.1-5.7
				c0-0.3,0.1-0.7,0.3-0.8c0.7-0.4,1.3-1.2,2.2-1.1c0.8,0.1,1.5,0.4,2.3,0.5c0.4,0.1,0.6,0.3,0.6,0.7c0,0.2,0,0.4,0,0.5
				c0,0.3,0.1,0.4,0.4,0.3c0.5-0.3,1-0.5,1.5-0.7c0.4-0.2,0.5-0.4,0.6-0.8c0.1-0.3,0.4-0.6,0.7-0.9c0.1-0.1,0.3-0.2,0.4-0.3
				c0.6-0.5,0.7-0.5,1.3-0.1c0.1,0.1,0.4,0.1,0.5,0.1c0.1,0,0.2-0.3,0.2-0.4c0-0.8-0.1-1.6-0.1-2.5c0-0.5,0.2-0.7,0.7-0.6
				c0.7,0.1,1.4,0.3,2.1,0.5c0.5,0.1,0.9,0.1,1.3-0.2c0.4-0.3,0.7-0.6,1.1-0.8c0.3-0.2,0.6-0.1,0.6,0.3c0,1.9,0,3.8-0.1,5.7
				c0,0.5,0.1,0.8,0.5,1c1.4,0.9,2.8,1.9,4.2,2.8c0.7,0.5,1.4,0.8,2.4,0.9c2,0.3,3.6,1.3,4.5,3.2c0.1,0.2,0.2,0.4,0.4,0.5
				c0.5,0.4,1.1,0.7,1.6,1.1c2.5,1.6,4.9,3.2,7.4,4.7c2.7,1.8,5.5,3.5,8.2,5.3c2.4,1.5,4.9,3,7.3,4.6c1.9,1.2,3.8,2.3,5.6,3.5
				c0.3,0.2,0.5,0.2,0.8,0c0.5-0.2,1-0.3,1.4-0.5c0.5-0.1,1-0.2,1.5-0.4c0.2-0.1,0.4-0.2,0.7-0.2c0.4-0.1,0.6,0.1,0.6,0.5
				c0,0.2-0.1,0.4-0.2,0.7c0,0.1-0.1,0.4-0.1,0.4c0.4,0.4,0.8,0.8,1.2,1.3c0.1,0.1,0.2,0.3,0.3,0.4c0.6,1.1,1,2.3,2.2,3
				c0.4,0.2,0.7,0.4,1.1,0.6c1.6,1,3.3,2,4.9,3c2.3,1.4,4.7,2.7,7,4c2.3,1.3,4.5,2.6,6.8,3.9c1.5,0.9,3.1,1.7,4.7,2.6
				c2.3,1.2,62.3,33.6,64.7,34.8c0,0.1,0,0.3,0,0.4c-0.2,0-0.3-0.1-0.5-0.1c-1.2-0.6-60.1-32.5-61.3-33.1c-2.4-1.3-4.8-2.5-7.1-3.8
				c-2.6-1.5-5.3-3-7.9-4.5c-2.8-1.6-5.5-3.2-8.2-4.9c-1.7-1-3.4-2.1-5.1-3.1c-0.1-0.1-0.5,0-0.6,0.1c-0.3,0.2-0.5,0.4-0.8,0.2
				c-0.6-0.3-1.1-0.1-1.6,0.1c-0.3,0.1-0.7,0.1-1.1,0.1c-0.3,0-0.6,0-0.9,0.1c-0.4,0.2-0.8,0.5-1.2,0.8c-0.1,0.1-0.2,0.2-0.3,0.4
				c-0.1,0.6-0.4,0.9-0.8,1.2c-0.8,0.6-1.7,1.1-2.6,1.6c-0.1,0.1-0.4,0-0.5-0.1c-0.3-0.3-0.5-0.2-0.8-0.1c-0.5,0.2-0.9,0.3-1.1,0.9
				c0,0.2-0.3,0.3-0.4,0.4c-1.1,0.5-2.2,0.9-3.2,1.4c-0.6,0.2-1.1,0.5-1.5,1c-0.2,0.4-0.5,0.6-1,0.4c-0.5-0.1-0.8,0.2-0.8,0.6
				c0,0.7-0.3,1.1-1,1.2c-2,0.3-3.9-0.1-5.6-0.9c-1.5-0.8-2.8-1.7-4.2-2.6c-0.9-0.6-1.7-1.2-2.6-1.9c-0.4-0.3-0.6-0.2-0.9,0.2
				c-0.1,0.2-0.3,0.4-0.5,0.5c-0.6,0.4-0.9,1.1-1.1,1.7c-0.2,0.4-0.1,0.7,0.3,0.9c0.7,0.3,0.9,0.7,0.7,1.3c-0.1,0.3-0.3,0.6-0.6,0.8
				c-0.6,0.5-0.6,1.2,0,1.7c0.5,0.5,0.5,0.8,0.3,1.4c-0.1,0.2-0.1,0.4-0.1,0.6c0.5,0.9,0.3,1.8,0.3,2.8c0,0.5-0.2,0.8-0.8,0.9
				c-0.3,0-0.4,0.2-0.5,0.5c-0.1,2-0.3,3.9-0.5,5.9c-0.1,0.9-0.2,1.8,0.1,2.6c0.2,0.6,0.3,1.2,0.5,1.8c0.1,0.3,0.3,0.5,0.5,0.8
				c0.1,0.1,0.3-0.1,0.5-0.2c0.2,0,0.3,0,0.5,0c0,0,0,0.1,0,0.1c-1.6,0.8-2.7,2.2-4.1,3.3c0.2-1.2-0.9-1.2-1.4-1.8
				c-0.1,0.3-0.1,0.4-0.2,0.6c-0.4,1.1-0.7,2.1-1.1,3.2c-0.2,0.6-0.5,1.2-0.7,1.8c0,0.1,0,0.2,0,0.3c0.3,1.6-0.1,3.1-0.4,4.6
				c-0.2,1.3-0.6,2.5-0.9,3.8c0,0.1,0.1,0.3,0.1,0.5c0.1,0,0.3,0,0.4-0.1c0.9-0.4,1.7-0.9,2.6-1.3c1.9-1,3.9-2,5.8-3
				c3.4-1.7,6.8-3.4,10.1-5.2c1-0.5,1.8-0.5,2.8-0.2c0.1,0,0.3,0.1,0.4,0.1c0.5,0,0.6,0.3,0.6,0.7c0,1.4,0,2.7,0,4.1
				c0,0.6,0.2,1.3-0.5,1.9c1,0.3,2,0.6,2.9,0.8c0.5,0.1,0.9,0.2,1.4-0.1c2.7-1.4,5.4-2.8,8.1-4.1c0.2-0.1,0.4-0.1,0.6-0.1
				c0.6,0.1,1.2,0.3,1.8,0.4c0.1,0,0.3,0.2,0.3,0.3c0,0.1-0.1,0.3-0.3,0.3c-0.5,0.2-1,0.4-1.4,0.7c-0.2,0.1-0.4,0.4-0.4,0.6
				c0,0.6,0.1,1.2,0,1.8c0,0.5,0,0.9,0.6,1.1c0.2,0,0.3,0.3,0.4,0.4c0.3,0.2,0.6,0.3,0.8,0.5c0.1,0.1,0.4,0.2,0.4,0.2
				c0,0.1-0.1,0.4-0.2,0.4c-0.4,0.2-0.5,0.5-0.4,0.8c0.2,0.5,0.3,1,0.6,1.3c0.6,0.7,1.1,1.5,1.4,2.4c0.3,0.8,0.6,1,1.4,1
				c0.4,0,0.7,0,1.1,0c1,0.1,1.9,0.8,2.1,1.8c0.2,0.9-0.3,1.4-0.9,1.9c-0.3,0.2-0.6,0.4-1,0.6c-0.4,0.2-0.8,0.3-1.1,0.5
				c-0.2,0.1-0.3,0.2-0.1,0.5c0.7,0.9,1.4,1.9,2.2,2.9c0.1,0.2,0.4,0.3,0.6,0.3c0.5,0,1-0.1,1.5-0.2c0.9-0.1,1.7,0.4,2.1,1.2
				c0.3,0.6,0.2,1.2-0.3,1.6c-0.8,0.6-1.6,1.2-2.5,1.8c-0.6,0.4-0.7,0.6-0.1,1c0.6,0.4,0.9,0.9,1.2,1.5c0.2,0.4,0.4,0.8,0.6,1.1
				c0.2,0.5,0.6,0.7,1.1,0.5c0.4-0.1,0.8-0.1,1.2-0.2c1-0.1,1.8,0.4,2.3,1.4c0.3,0.7,0.2,1.4-0.6,2.1c-0.7,0.6-1.4,1.2-2.2,1.8
				c-0.3,0.3-0.4,0.4,0,0.7c0.6,0.4,1.1,1,1.3,1.7c0.1,0.4,0.1,0.8,0.2,1.2c0.3,1,0.6,1.9,1,2.9c0.2,0.7,0.5,1.4,0.8,2
				c0.1,0.2,0.5,0.3,0.7,0.4c0.1-0.2,0.1-0.4,0.1-0.6c0-0.1,0-0.3,0-0.4c0.3-1,0.5-2.1,0.8-3.1c0.2-0.6,0.3-1.4,0.9-1.8
				c0.2-0.2,0.4-0.5,0.5-0.7c0.2-0.5,0.3-1.1,0.4-1.6c0.2-0.6,0.6-1,1.2-1c0.8-0.1,1.6-0.1,2.3,0.3c0.2,0.1,0.5,0.2,0.6-0.1
				c0.1-0.3,0-0.4-0.3-0.5c-0.2-0.1-0.5-0.3-0.4-0.4c0.1-0.6-0.2-0.9-0.6-1.2c-0.1-0.1-0.2-0.2-0.2-0.3c0-0.1-0.1-0.3,0-0.3
				c0-0.1,0.2,0,0.3,0c0.3,0.1,0.7,0.1,1,0.2c0.5,0,1.1,0,1.7,0.1c0.5,0,0.6,0.2,0.5,0.7c-0.2,0.9-0.4,1.7-0.7,2.6
				c-0.1,0.4,0,0.6,0.4,0.8c1.8,0.9,3.5,1.7,5.3,2.6c0.8,0.4,1.6,0.8,2.3,1.2c0.3,0.1,0.6,0.3,0.4,0.7c-0.1,0.6-0.3,0.7-1,0.6
				c-0.2,0-0.4,0.1-0.5,0.2c0.1,0.1,0.3,0.3,0.4,0.4c0,0,0.1,0,0.2,0c0.1,0.1,0.3,0.2,0.4,0.2c-0.1,0.1-0.2,0.2-0.4,0.3
				c-0.1,0.1-0.2,0.1-0.4,0.1c-0.3,0-0.6,0.1-0.6,0.5c0,0.3,0.3,0.6,0.5,0.8c0.1,0.1,0.4,0.2,0.6,0.2c0.6,0.3,1,0,1.1-0.7
				c0-0.2,0.1-0.4,0.1-0.7c0.3,0.5,0.3,1.1,0,1.4c-0.3,0.2-0.5,0.7-1,0.4c-0.3-0.2-0.6-0.3-0.9-0.5c-0.1-0.1-0.4-0.1-0.4,0
				c-0.1,0.1-0.1,0.3-0.1,0.5c0.2,0.4,0.4,0.8,0.6,1.2c0.1,0.3,0.2,0.4-0.1,0.6c-0.2,0.1-0.4,0.5-0.3,0.6c0.1,0.3,0.3,0.6,0.5,0.9
				c0.3,0.4,0.6,0.3,1,0.2c0.4-0.1,0.3-0.4,0.4-0.7c0.1-0.5-0.3-0.8-0.6-1.1c-0.1-0.1-0.2-0.2-0.4-0.3c0.2,0,0.3-0.1,0.4,0
				c0.5,0.1,0.9,0.7,0.9,1.4c0,0.5-0.1,0.8-0.5,1c-0.4,0.1-0.9,0.3-1.3-0.1c-0.4-0.4-0.7-0.7-0.7-1.4c0-0.2-0.3-0.4-0.4-0.6
				c-0.1,0.2-0.2,0.3-0.3,0.5c0,0.1,0,0.1-0.1,0.2c-0.4,1.8-0.9,3.5-1.3,5.3c-0.5,2.2-1,4.3-1.6,6.5c-0.2,0.9-0.4,1.8-0.2,2.7
				c0,0.1,0,0.2,0,0.3c-0.2,0.4-0.4,0.8-0.6,1.2c-0.1,0.2-0.4,0.3-0.7,0.5c-0.2,0.1-0.4,0.2-0.6,0.4c-0.5,0.4-0.8,1-1.6,1
				c-0.1,0-0.2,0.3-0.2,0.4c0.3,1,0.7,2,1,3c0.5,1.5,1.1,3.1,1.6,4.6c0.4,1.1,0.7,2.2,1.1,3.2c0.6,1.5,1.2,3.1,1.7,4.6
				c0.2,0.5,0.5,0.6,0.9,0.6c1.9-0.2,3.7-0.5,5.6-0.7c1.6-0.2,3.3-0.4,4.9-0.7c0,0.1,0,0.3,0,0.4c-1.5,0.2-2.9,0.4-4.4,0.6
				c-2.1,0.3-4.2,0.5-6.2,0.8c-0.3,0-0.4,0.2-0.3,0.4c0.3,1,0.7,1.9,1,2.9c1,2.8,2,5.6,3,8.3c0.6,1.7,1.2,3.5,1.8,5.2
				c0.6,1.9,1.3,3.7,1.9,5.6c0.9,2.6,1.9,5.3,2.8,7.9c0,0.1,0.2,0.2,0.3,0.3c0,1.1,0,2.1,0,3.2c-0.1-0.1-0.2-0.3-0.3-0.4
				c-0.5-1.4-0.9-2.8-1.4-4.1c-0.9-2.5-1.7-4.9-2.6-7.4c-1.3-3.8-2.7-7.5-4-11.3c-0.6-1.6-1.1-3.2-1.7-4.8c-0.6-1.7-1.2-3.4-1.8-5.1
				c-0.1-0.3-0.2-0.7-0.7-0.6c-1.1,0.2-2.2,0.3-3.3,0.5c-0.5,0.1-0.6,0.2-0.5,0.7c0.3,0.9,0.6,1.9,0.9,2.9c0.4,1.3,0.8,2.5,1.2,3.8
				c0.4,1.3,0.8,2.6,1.2,3.9c0.4,1.3,0.8,2.6,1.2,3.9c0.6,2.1,1.3,4.1,1.9,6.2c0.6,2.1,1.3,4.1,2,6.2c0.8,2.5,1.6,5.1,2.4,7.6
				c0.9,2.9,1.8,5.8,2.7,8.7c0.9,2.8,1.7,5.6,2.6,8.4c0,0.1,0.2,0.2,0.3,0.4c0,0.2,0,0.5,0,0.7c-0.3,0-0.6,0-1,0
				c-0.1-0.2-0.1-0.5-0.2-0.7c-0.8-2.4-1.5-4.9-2.3-7.3c-0.5-1.8-1-3.5-1.6-5.3c-0.9-2.8-1.8-5.6-2.6-8.3c-0.9-2.9-1.8-5.8-2.7-8.7
				c-0.9-2.8-1.8-5.7-2.7-8.5c-0.6-1.8-1.1-3.6-1.7-5.4c-0.4-1.3-0.8-2.6-1.3-4c-0.5-1.5-0.9-3.1-1.4-4.6c0-0.1-0.3-0.3-0.4-0.3
				c-0.7,0-1.5,0.1-2.2,0.2c-2.5,0.3-4.9,0.7-7.4,1c-2.9,0.4-5.9,0.7-8.8,1.1c-1,0.1-1,0.1-0.6,1.1c0.7,1.8,1.5,3.7,2.2,5.5
				c1.2,2.8,2.4,5.7,3.6,8.5c1,2.3,1.9,4.6,2.9,6.8c1.2,2.7,2.3,5.5,3.5,8.2c1,2.4,2,4.9,3,7.3c0.9,2.1,1.7,4.2,2.6,6.2
				c0.7,1.6,1.4,3.2,2.1,4.8c0.3,0.8,0.6,1.5,0.8,2.3c-0.4,0-0.7,0-1.1,0c0-0.2,0-0.3-0.1-0.5c-0.8-1.8-1.5-3.6-2.3-5.4
				c-1.1-2.6-2.2-5.2-3.3-7.8c-1.1-2.6-2.1-5.2-3.2-7.7c-0.8-2-1.7-4-2.5-6c-0.9-2.1-1.7-4.1-2.6-6.2c-1.6-3.9-3.2-7.7-4.9-11.6
				c-0.7-1.7-1.4-3.4-2.2-5.1c-0.1-0.2-0.3-0.4-0.5-0.4c-0.8,0-1.6,0.1-2.3,0.2c-1.6,0.2-3.3,0.4-4.9,0.7c-0.5,0.1-0.6,0.1-0.4,0.7
				c0.2,0.5,0.4,1,0.6,1.6c0.7,1.8,1.3,3.7,2,5.5c0.8,2.1,1.5,4.2,2.3,6.4c0.4,1.1,0.8,2.2,1.2,3.3c0.7,1.9,1.4,3.7,2.1,5.6
				c0.9,2.5,1.8,5,2.6,7.4c1,2.8,2.1,5.6,3.1,8.5c1,2.8,2,5.6,3,8.4c0.3,0.8,0.5,1.5,0.7,2.3c-0.4,0-0.7,0-1.1,0c-0.3-1-0.6-2-1-3
				c-1.1-3.1-2.2-6.2-3.4-9.3c-1-2.8-2-5.6-3-8.3c-0.6-1.7-1.2-3.5-1.8-5.2c-0.9-2.6-1.9-5.1-2.8-7.7c-0.8-2.3-1.7-4.7-2.5-7
				c-0.7-2-1.4-4-2.2-6c-0.3-0.9-0.6-1.7-1-2.5c-0.1-0.2-0.4-0.3-0.5-0.3c-1,0.1-2,0.3-3,0.4c-2,0.2-4,0.5-6,0.7
				c-2.3,0.3-4.6,0.5-6.9,0.8c-2.9,0.3-5.7,0.7-8.6,1.1c-0.4,0-0.5,0.2-0.5,0.6c0,0.3,0,0.6,0,1c0.1,4.3,0.1,8.6,0.2,12.9
				c0.1,10.1,0.2,20.2,0.2,30.3c0,0.6,0,1.2,0.1,1.8c-0.2,0-0.4,0-0.6,0c0-1,0-2,0-2.9c-0.1-6.5-0.1-13-0.2-19.5
				c-0.1-6.1-0.1-12.1-0.1-18.2c0-1.7,0-3.4,0-5c0-0.6-0.1-0.7-0.7-0.6c-1.5,0.2-3,0.4-4.4,0.5c-1,0.1-0.9,0.1-0.9,1.1
				c0,0.7,0.2,1.5-0.3,2.3c-0.3,0.4-0.4,0.7-1,0.7c-0.4,0-0.6,0.2-0.7,0.6c-0.1,0.3,0,0.5,0.4,0.7c0.3,0.1,0.3,0.5,0,0.6
				c-0.5,0.2-0.5,0.5-0.5,0.9c0,0.4,0,0.7,0,1.1c0.1,7.8,0.2,15.7,0.4,23.5c0.1,3.6,0.1,7.2,0.2,10.9c0,1.2,0,2.4,0,3.6
				c-22.6,0-45.2,0-67.8,0c-0.1-1.1-0.2-1.2-1.2-1.4c-0.3-0.1-0.6,0-0.8-0.1c-0.2-0.1-0.5-0.1-0.6-0.3c-0.1-0.3,0.1-0.5,0.4-0.6
				c0.6-0.2,1.2-0.5,1.8-0.8c0.4-0.2,0.5-0.4,0.5-0.8c0-0.6,0-1.2,0-1.8c0.1-6.1,0.2-12.3,0.3-18.4c0-0.4-0.1-0.6-0.5-0.9
				c-0.3-0.3-0.7-0.8-0.7-1.2c0-0.5,0.3-0.9,0.9-1.1c0.1-0.1,0.3-0.3,0.3-0.5c-0.2-1.3-0.3-2.6-0.5-3.9c0-0.3-0.3-0.4-0.6-0.5
				c-1.3-0.2-2.6-0.5-3.8-0.8c-0.6-0.1-0.7-0.4-0.6-0.9c0.1-0.5,0.4-0.8,0.8-1c0.9-0.4,1.8-0.9,2.8-1.4c0.5-0.2,0.5-0.6,0.4-1
				c-0.1-0.5-0.5-0.3-0.7-0.2c-1.2,0.1-2.4,0.2-3.6,0.3c-0.4,0-0.5,0.2-0.4,0.5c0.1,0.6,0.3,1.3,0.3,1.9c0.2,1.6,0.3,3.3,0.4,4.9
				c0.4,3.3,0.3,6.6,0.2,9.9c-0.1,3.7-0.3,7.4-0.4,11.1c-0.1,3,0,6,0,9c-0.3,0-0.6,0-1,0c0-0.5,0-1,0-1.4c0.1-4.6,0-9.3,0.2-13.9
				c0.2-5,0.4-10,0-15c-0.2-2.1-0.5-4.2-0.8-6.3c0-0.3-0.1-0.5-0.5-0.5c-0.4,0.1-0.8,0.1-1.2,0.1C35.2,239.1,34.2,239.2,33.2,239.3z
				 M120.5,220.8c0,0,0.1,0,0.1,0c0,2.6,0,5.1,0,7.7c0,0.5,0.2,0.6,0.6,0.5c0.6-0.1,1.2-0.2,1.7-0.3c1.9-0.2,3.9-0.5,5.8-0.7
				c2-0.2,4-0.5,5.9-0.7c1.9-0.2,3.8-0.5,5.8-0.7c1.4-0.2,2.8-0.3,4.2-0.4c1.2-0.1,1.2-0.1,0.8-1.2c-0.8-2.2-1.5-4.3-2.3-6.5
				c-0.3-0.9-0.5-2-1.7-2.4c-0.3-0.1-0.5-0.2-0.8-0.3c-2.9-1.5-5.5-3.3-8.1-5.3c-1.9-1.4-3.7-2.8-5.6-4.2c-0.8-0.6-1.6-1.2-2.5-1.8
				c-0.4-0.3-0.6-0.1-0.7,0.3c-1,2.5-2.1,5.1-3.1,7.6c-0.1,0.2-0.2,0.4-0.2,0.7C120.5,215.6,120.5,218.2,120.5,220.8z M121.1,91
				c0.1,0.4,0.1,0.7,0.3,0.9c0.4,0.4,0.8,0.7,1.2,1c0.1,0.1,0.3,0.1,0.4,0.1c0.6,0,1,0.3,1.3,0.8c0.2,0.4,0.5,0.6,1,0.7
				c0.2,0,0.5,0.1,0.7,0.2c0.9,0.3,1.8,0.5,2.5,1.1c0.3,0.3,0.6,0.5,1,0.6c0.6,0.2,1.2,0.4,1.3,1.1c0,0.1,0.1,0.2,0.2,0.3
				c0.6,0.7,1.3,1.3,1.9,2c0.5,0.7,1.1,1,2,1.1c0.8,0.1,1.4,0.4,1.7,1.2c0,0.1,0.1,0.2,0.2,0.3c0.4,0.3,0.5,0.8,0.5,1.3
				c0,0.1,0.2,0.3,0.3,0.4c0.3,0.2,0.7,0.3,1.1,0.5c0.3,0.1,0.6,0.3,0.9,0.3c0.5-0.1,0.8-0.5,1.4-0.5c0.5,0,1.1-0.4,1.7-0.6
				c0.7-0.3,1.5-0.6,2.3-0.6c0.6-0.1,1.1,0,1.5-0.5c0.1-0.1,0.3-0.2,0.5-0.2c1.1-0.1,1.7-1.2,2.7-1.6c0,0,0.1-0.1,0.1-0.1
				c0.3-0.3,0.7-0.7,1.2-0.5c0.1,0,0.4-0.1,0.5-0.2c0.5-0.3,1.1-0.5,1.6-0.8c0.2-0.1,0.3-0.2,0.4-0.4c0.1-0.2,0.2-0.5,0.1-0.8
				c0-0.2-0.1-0.4-0.2-0.5c-1.8-1.1-3.6-2.3-5.4-3.4c-2.1-1.3-4.2-2.6-6.3-3.9c-2.1-1.3-4.2-2.7-6.2-4c-2.3-1.4-4.5-2.9-6.8-4.3
				c-1.6-1-3.2-2.1-4.8-3.2c-0.1-0.1-0.3-0.1-0.3,0c-0.1,0-0.1,0.2-0.1,0.3c0,0.2,0.1,0.4,0.1,0.6c0,0.4,0.2,0.7,0.6,0.9
				c0.4,0.3,0.9,0.6,1.2,0.9c0.6,0.6,0.7,1.6,0.3,2.2c-0.4,0.6-1,1-1.5,1.6c-0.2,0.2-0.3,0.4-0.5,0.6c-0.2,0.3-0.4,0.6-0.5,0.9
				c-0.1,0.2-0.3,0.4-0.4,0.7c-0.2,1-0.6,1.9-1.2,2.7C121.4,90.3,121.3,90.7,121.1,91z M152.3,208.9c-0.1,0-0.1,0-0.2,0
				c-0.1,0.5-0.3,1-0.1,1.6c0.2,0.5,0.5,1.1,0.7,1.6c0.1,0.2,0.2,0.7,0.1,0.7c-0.2,0.2-0.6,0.2-0.9,0.2c-0.5,0-0.7,0.1-0.6,0.6
				c0,0.2,0.1,0.3,0.2,0.5c1.1,2.7,2.3,5.5,3.4,8.2c0.3,0.7,0.5,1.3,0.8,2c0.2,0.3,0.4,0.6,0.8,0.5c0.5-0.1,1-0.3,1.6-0.3
				c1.4-0.1,2.7-0.2,4.1-0.4c1.4-0.2,2.8-0.3,4.1-0.5c1.3-0.2,2.6-0.4,3.9-0.5c1.4-0.2,2.8-0.3,4.1-0.4c0.4,0,0.7-0.1,1.1-0.2
				c0.3-0.1,0.5-0.3,0.3-0.6c-0.3-0.9-0.6-1.9-0.9-2.8c-0.7-2.1-1.3-4.3-2-6.4c-1-3.1-2-6.3-3-9.4c-0.2-0.6-0.2-0.6-0.8-0.3
				c-0.9,0.5-1.7,1-2.7,1.3c-1.4,0.5-2.9,0.9-4.5,0.9c-0.4,0-0.6,0.2-0.7,0.6c-0.3,1.3-0.7,2.5-0.9,3.8c-0.1,0.5,0,1,0,1.6
				c0,0.2-0.1,0.5-0.1,0.7c-0.1,0.2-0.2,0.3-0.3,0.4c-0.1,0.6-0.5,0.7-1,0.7c-0.3,0-0.5,0.1-0.6,0.4c-0.1,0.2-0.1,0.3-0.2,0.5
				c-0.4,0.6-1,0.7-1.5,0.2c-0.2-0.2-0.3-0.4-0.5-0.6c-0.1,0.1-0.1,0.1-0.2,0.2c-0.4,0.6-1,0.6-1.4,0c-0.1-0.1-0.2-0.3-0.3-0.5
				c-0.5-1.2-1-2.3-1.6-3.5C152.6,209.3,152.4,209.1,152.3,208.9z M139.2,172.5c0.4,0,0.6,0,0.8,0c0.4-0.1,0.9-0.2,1.3-0.3
				c0.9-0.2,1.7,0,2.1,1c0.1,0.2,0.3,0.3,0.5,0.4c0.1-0.2,0.3-0.3,0.4-0.5c0.2-0.5,0.5-0.9,1.1-1.1c0.5-0.1,1,0.1,1,0.6
				c0,0.4-0.1,0.7-0.1,1.1c0,0.1,0.1,0.3,0.2,0.4c0.1-0.1,0.2-0.2,0.3-0.3c0.2-0.4,0.5-0.6,0.9-0.8c0.3-0.1,0.5-0.4,0.7-0.6
				c-0.2-0.1-0.5-0.2-0.7-0.4c0,0-0.1,0-0.2,0c-0.2-0.2-0.4-0.3-0.5-0.5c0-0.3,0.2-0.5,0.6-0.4c0.9,0.1,0.9,0.1,1.3-0.8
				c0.2-0.4,1.1-0.9,1.5-0.8c0.5,0.2,0.4,0.7,0.5,1.1c0,0.1,0,0.1,0,0.2c0,0.3,0.2,0.4,0.5,0.2c0.6-0.4,1.3-0.7,2-1.1
				c0.4-0.2,0.9-0.1,1,0.4c0.1,0.2,0.1,0.5,0.1,0.8c0,0.3,0,0.6,0.4,0.8c0.3,0.2,0.3,0.3,0,0.6c-0.4,0.3-0.4,0.5,0,0.8
				c0.2,0.1,0.6,0.2,0.8,0.2c0.4,0,0.8-0.1,1.1,0.1c0.6,0.4,0.9,0.1,1.3-0.2c0.2-0.2,0.4-0.3,0.6-0.5c0.3-0.2,0.4-0.5,0.3-0.9
				c-0.2-1.2-0.8-2.4-0.5-3.7c0.1-0.4-0.1-0.4-0.5-0.3c-1.1,0.3-2.2,0.6-3.2,0.8c-0.3,0.1-0.8-0.1-0.9-0.2c-0.4-0.7-0.8-1.6-0.3-2.4
				c0.3-0.5,0.8-1,1.2-1.4c0.4-0.3,0.7-0.5,0.4-1.1c0-0.1,0-0.2,0-0.3c0-0.4,0-0.9-0.2-1.2c-0.3-0.6-0.3-1.3-0.3-1.9
				c0-0.2,0-0.3,0-0.5c0-0.4-0.2-0.5-0.6-0.4c-0.9,0.1-1.8,0.2-2.7,0.2c-0.5,0-1-0.2-1.3-0.4c-0.7-0.6-0.7-2.1-0.1-2.8
				c0.3-0.3,0.6-0.7,0.9-0.9c1.1-0.5,1.3-1.3,0.9-2.4c-0.1-0.1-0.1-0.3,0-0.5c0.1-0.7,0.2-1.4,0.2-2.1c0-0.4-0.1-0.7-0.2-1.1
				c-0.3,0.1-0.5,0.2-0.8,0.3c0,0-0.1,0-0.1,0c-2.2,1.1-4.4,2.2-6.6,3.2c-3.3,1.6-6.5,3.3-9.8,4.9c-0.3,0.2-0.5,0.4-0.3,0.8
				c0.2,0.4,0.4,0.8,0.6,1.1c0.3,0.5,0.7,1,1,1.6c0.3,0.5,0.5,1.1,0.6,1.7c0,0.4,0.2,0.5,0.5,0.5c0.6,0,1.1,0,1.7,0
				c0.6,0,1.1,0.3,1.4,0.8c0.6,1.1,0.8,1.5-0.7,2.1c-0.8,0.3-1.7,0.6-2.5,0.9c-0.4,0.1-0.4,0.3-0.2,0.6c0.1,0.1,0.2,0.3,0.3,0.4
				c0.4,0.5,0.8,1,1.2,1.5c0.3,0.4,0.5,1,0.8,1.4C139.5,171.7,139.6,172,139.2,172.5z M141.8,215.2c0-0.3,0-0.5,0-0.7
				c-0.1-0.4-0.3-0.8-0.5-1.3c-0.8-2.1-1.5-4.2-2.3-6.3c-0.6-1.6-1.1-3.2-1.7-4.7c-0.9-2.4-1.8-4.8-2.6-7.2
				c-0.5-1.3-1.6-1.8-2.9-1.2c-0.9,0.4-1.9,0.8-2.8,1.2c-0.5,0.2-0.8,0.1-0.9-0.4c-0.1-0.5-0.1-0.9-0.1-1.4c0-0.3,0-0.6-0.4-0.6
				c-0.3,0-0.5,0.1-0.6,0.4c-0.2,0.6-0.5,1.1-0.7,1.7c-0.4,0.9-0.8,1.8-1.1,2.7c-0.1,0.2,0,0.4,0.1,0.6c0.1,0.2,0.2,0.5,0.2,0.7
				c0.1,0.1,0.1,0.3,0.2,0.4c0.4,0.3,0.3,0.6,0.2,0.9c-0.3,0.8-0.7,1.6-1,2.4c-0.4,0.9-0.4,0.9,0.4,1.5c0.1,0,0.1,0.1,0.2,0.1
				c2.1,1.6,4.2,3.1,6.4,4.7c2.2,1.6,4.5,3.2,6.8,4.8C139.5,214,140.6,214.5,141.8,215.2z M111.2,181.1
				C111.2,181.1,111.2,181.1,111.2,181.1c0.1,2.2,0.1,4.4,0.1,6.6c0,1.5,0,2.9,0,4.4c0,0.4,0.1,0.5,0.5,0.4c0.5-0.2,0.9-0.4,1.1-1
				c0.3-0.8,0.7-1.6,1-2.4c1.4-3.1,2.7-6.2,4.1-9.3c0.9-2.1,1.8-4.1,2.7-6.2c0.4-1,1-1.8,1-3c0.1-1.3,0.3-2.6,0.4-3.9
				c0-0.4-0.1-0.5-0.5-0.6c-0.5-0.1-1-0.3-1.4-0.5c-0.4-0.2-0.6-0.2-1,0c-2.5,1.3-5.1,2.5-7.6,3.8c-0.4,0.2-0.5,0.4-0.5,0.8
				C111.2,173.9,111.2,177.5,111.2,181.1z M136,194.7c-0.1,0-0.1,0.1-0.2,0.1c0.2,0.6,0.4,1.2,0.6,1.8c0.8,2.5,1.7,4.9,2.5,7.4
				c0.8,2.3,1.7,4.5,2.5,6.8c0.5,1.4,1,2.9,1.6,4.3c0.1,0.2,0.4,0.5,0.6,0.6c1.1,0.4,2.2,0.6,3.4,0.4c1.5-0.2,2.6-0.9,3.2-2.4
				c0.1-0.2,0-0.4,0-0.5c-0.5-1.3-1.1-2.5-1.6-3.8c-0.8-1.8-1.5-3.7-2.3-5.5c-0.8-1.9-1.6-3.7-2.4-5.5c-0.1-0.3-0.4-0.7-0.7-0.8
				c-1.5-0.7-3-1.4-4.6-2.1C137.8,195.3,136.9,195,136,194.7z M100.2,110.5c-0.1,0-0.1,0-0.2,0c0,0.6,0,1.2,0,1.7
				c0,5.4-0.1,10.7-0.1,16.1c0,5.1-0.1,10.3-0.2,15.4c0,3-0.1,6-0.1,8.9c0,0.4,0.1,0.5,0.5,0.4c0.4-0.1,0.7-0.1,1.1-0.1
				c0.4,0.1,0.5-0.1,0.6-0.4c0.2-0.9,0.4-1.7,0.6-2.6c0.1-0.5,0-1,0-1.5c-0.1-0.6-0.2-1.2-0.3-1.8c-0.1-0.5,0.1-1,0.5-1.4
				c0.4-0.4,0.9-0.8,0.6-1.5c0-0.1,0-0.1,0-0.2c0-0.5,0-1-0.1-1.5c-0.3-1.4-0.2-2.8,0-4.2c0.1-0.8,0.4-1.7,0.4-2.5
				c0.1-1-0.1-2.1-0.1-3.1c0-1.9-0.3-3.7,0.4-5.5c0-0.1,0-0.1,0-0.2c0.3-1.2,0.5-2.5,0.9-3.6c0.4-1.2,0.8-2.4,0.7-3.7
				c0-0.3-0.2-0.7-0.4-0.9c-1.1-0.7-1.6-1.7-1.8-3c0-0.2-0.2-0.5-0.4-0.5c-0.9-0.2-1.1-0.8-1.1-1.6c0-0.2-0.2-0.6-0.4-0.7
				c-0.5-0.1-0.6-0.4-0.7-0.9C100.4,111.3,100.3,110.9,100.2,110.5z M101.7,97c0.1,0,0.1,0,0.2,0c0.5-0.9,0.9-1.8,1.5-2.6
				c0.5-0.7,1.2-1.3,1.8-1.9c0.3-0.2,0.4-0.4,0.4-0.8c0-2.6,0.1-5.2,0.1-7.8c0-3.2,0-6.4,0.1-9.6c0-0.4-0.1-0.7-0.6-0.6
				c-0.5,0.1-0.7-0.2-0.8-0.6c-0.1-0.4-0.3-0.4-0.6-0.2c-0.7,0.5-1.4,0.1-1.4-0.7c0-0.4,0.1-0.9,0.1-1.3c0-0.2,0.1-0.5,0.1-0.7
				c0,0-0.1-0.1-0.1-0.1c-0.7,0.4-1.4,0.7-2,1.1c-0.1,0.1-0.2,0.4-0.2,0.6c0,1.1,0,2.1,0,3.2c0,5.5-0.1,10.9-0.1,16.4
				c0,0.9-0.2,1.9,0.4,2.7c0,0,0,0.1,0,0.2C100.5,95.4,101.5,96,101.7,97z M125.8,166.6c0,0.5-0.1,0.9,0,1.2
				c0.1,0.6,0.4,1.1,0.6,1.7c0.1,0.2,0.2,0.3,0.2,0.5c0.2-0.1,0.3-0.2,0.5-0.3c0.1-0.1,0.3-0.1,0.5-0.2c0,0.2,0,0.4-0.1,0.5
				c-0.2,0.3-0.5,0.6-0.5,0.9c0,0.6,0.1,1.3,0.2,1.9c0,0.2,0.1,0.4,0.1,0.6c0,1.1,0.1,2.1,0,3.2c0,0.8-0.2,1.6-0.3,2.4
				c-0.1,0.6-0.3,1.3-0.4,1.9c0,0.1,0.2,0.5,0.3,0.5c0.5,0.1,0.6,0.4,0.6,0.9c0,0.3-0.1,0.5-0.1,0.8c0,0.2,0.1,0.4,0.2,0.5
				c0.1-0.1,0.3-0.3,0.4-0.4c0.1-0.4,0.3-0.8,0.7-1c0.1,0,0.1-0.2,0.3-0.3c-0.3,0-0.5,0-0.7-0.1c-0.2-0.1-0.3-0.2-0.4-0.4
				c0.1-0.1,0.2-0.3,0.4-0.3c0.1-0.1,0.2,0,0.4,0c0.5,0,0.9-0.1,1.1-0.7c0.1-0.2,0.3-0.5,0.5-0.6c0.4-0.1,0.8-0.3,1.2-0.2
				c0.4,0.1,0.3,0.5,0.3,0.9c-0.1,0.3,0.1,0.5,0.4,0.4c0.1,0,0.2-0.1,0.3-0.1c0.9-0.2,1.7-0.9,2.7-0.5c0,0,0.1,0,0.2,0
				c0.6-0.3,1.1-0.6,1.1-1.3c0-0.5,0.1-1,0.1-1.4c0-0.5-0.2-0.6-0.6-0.4c-1,0.4-2,0.8-3,1.1c-0.2,0.1-0.5,0-0.6-0.1
				c-0.6-0.5-0.7-1.5-0.2-2c0.5-0.5,1-0.9,1.6-1.3c0.2-0.2,0.5-0.4,0.7-0.5c-0.2-0.7-0.3-1.3-0.5-1.8c-0.3-0.7-0.4-1.4-0.3-2.2
				c0.1-0.3,0.1-0.6,0-1c-0.1-0.8-0.3-0.9-1.1-0.7c-1,0.2-2,0.3-3,0.4c-0.5,0.1-0.8-0.2-0.9-0.7c-0.3-1,0.1-1.8,1.1-2.4
				c0.5-0.3,1.1-0.6,1.6-0.8c-0.1-0.3-0.1-0.5-0.2-0.7c0-0.5,0-1-0.1-1.5c-0.2-0.7-0.2-1.3,0-1.9c0-0.1,0.1-0.2,0.1-0.3
				c0-0.1,0-0.4-0.1-0.4c-0.1-0.1-0.3,0-0.5,0c-0.2,0.1-0.4,0.2-0.7,0.3c-0.8,0.4-1.6,0.7-2.3,1.2c-0.3,0.1-0.5,0.4-0.6,0.7
				c-0.5,1-0.9,2.1-1.3,3.1C125.3,166.2,125.3,166.3,125.8,166.6z M174.9,190.1c0,0.2-0.1,0.3-0.1,0.4c-0.3,1-0.5,2-0.8,3
				c-0.1,0.5-0.2,1.1-0.5,1.4c-0.3,0.4-0.3,0.7-0.2,1.1c0.2,0.6,0.5,1.3,0.7,1.9c0.1,0.4,0.4,0.6,0.8,0.6c0.3,0,0.6,0.1,0.9,0.2
				c0.3,0.1,0.7,0.4,1,0.5c0.4,0.2,0.7,0.4,0.7,0.9c0,0.3,0.5,0.6,0.7,0.3c0.3-0.3,0.5-0.6,0.6-0.9c0.3-1,0.5-1.9,0.7-2.9
				c0.6-2.6,1.3-5.2,1.9-7.9c0.3-1.1,0.7-2.2,0.2-3.4c-0.1-0.3-0.2-0.6-0.4-0.8c-0.5-0.5-0.6-0.8,0-1.2c0.1-0.1,0.4-0.4,0.3-0.4
				c-0.3-0.6-0.5-1.3-1-1.7c-0.8-0.6-1.8-0.9-2.7-1.3c-0.1,0-0.3,0.1-0.4,0.1c0.2,0.5-0.2,0.9-0.3,1.3c-0.3,1.2-0.6,2.4-0.9,3.7
				c0,0.2-0.2,0.3-0.3,0.5c-0.2,0.3-0.4,0.6-0.5,1c-0.1,0.5-0.3,0.9-0.3,1.4C175.2,188.7,174.4,189.3,174.9,190.1z M119.8,203.5
				c0-0.5,0-1,0-1.5c0-0.3-0.1-0.6-0.4-0.8c-1.5-0.8-2.9-1.7-4.4-2.5c-0.2-0.1-0.6-0.1-0.9,0c-0.8,0.4-1.6,0.8-2.4,1.2
				c-0.3,0.2-0.5,0.4-0.4,0.8c0.1,1,0.1,1.9,0.2,2.9c0,0.4,0.1,0.7,0.4,0.9c0.1,0,0.2,0.3,0.2,0.3c-0.3,0.3-0.1,0.8-0.3,1.1
				c-0.4,0.8-0.2,1.5-0.3,2.3c0,0.5,0,1,0.8,0.9c0.1,0,0.2,0.1,0.3,0.1c1.3,0.8,2.7,1.5,4,2.3c0.3,0.2,0.5,0.1,0.7-0.2
				c0.6-1.4,1.2-2.9,1.8-4.3C119.6,205.9,120.1,204.8,119.8,203.5z M181.3,221.3c0-0.1,0-0.1-0.1-0.2c-0.6-1.8-1.2-3.5-1.8-5.3
				c-0.8-2.3-1.6-4.6-2.5-6.9c-0.4-1.1-0.8-2.3-1.2-3.4c-0.1-0.2-0.4-0.4-0.6-0.6c-0.2-0.2-0.5-0.4-0.7-0.6
				c-0.6-1.1-1.2-2.1-1.8-3.2c-0.1-0.2-0.4-0.2-0.7-0.3c0,0.2-0.1,0.5-0.1,0.7c0.1,0.5,0.3,1,0.5,1.5c0.3,0.8,0.1,1-0.7,0.9
				c-0.3,0-0.4,0.1-0.3,0.4c0.4,1.2,0.7,2.3,1.1,3.5c0.4,1.3,0.9,2.6,1.3,3.8c0.6,1.8,1.1,3.6,1.7,5.5c0.4,1.4,0.9,2.8,1.3,4.2
				c0.3,1,0.3,1.1,1.3,0.9c0.1,0,0.3,0,0.4,0c0.8-0.1,1.5-0.1,2.3-0.2C181,221.8,181.3,221.7,181.3,221.3z M143.8,217.1
				c0,0.2,0,0.3,0.1,0.4c0.4,1,0.7,2,1.1,3.1c0.6,1.7,1.2,3.4,1.8,5.1c0,0.1,0.3,0.2,0.4,0.2c0.4,0,0.9-0.1,1.3-0.1
				c2-0.2,4-0.5,5.9-0.7c0.4-0.1,0.6-0.3,0.4-0.7c-0.5-1.2-1.1-2.4-1.6-3.7c-0.7-1.7-1.4-3.3-2.1-5c-0.2-0.6-0.3-0.6-0.7-0.1
				c-0.8,1-1.9,1.6-3.1,1.7c-1,0.1-2-0.1-3-0.2C144.1,217.1,144,217.1,143.8,217.1z M159.6,204c0.2-0.2,0.5-0.4,0.5-0.6
				c0.3-1.1,0.6-2.2,0.8-3.3c0.3-1.1,0.5-2.3,0.8-3.4c0.4-1.1-0.2-1.9-0.8-2.6c-0.5-0.6-0.6-0.9,0.2-1.3c0.3-0.2,0.4-0.4,0.3-0.7
				c-0.3-0.8-1-1.6-1.9-1.4c-0.5,0.1-0.8-0.2-0.9-0.7c-0.1-0.3-0.4-0.5-0.6-0.7c-0.1-0.1-0.3,0-0.3,0c-0.1,0.1,0,0.2,0,0.3
				c0,0.4,0.1,0.7,0,1.1c-0.1,0.6-0.6,1.2-0.5,1.9c0,0,0,0.1-0.1,0.1c-0.6,0.8-0.7,1.8-1.1,2.7c-0.6,1.4-0.9,3-1.1,4.6
				c-0.1,0.6-0.2,1.2-0.3,1.9c0,0.2,0.1,0.5,0.2,0.5C156.4,203,157.9,203.5,159.6,204z M125.6,170.3c-0.2-0.8-0.3-1.5-0.5-2.1
				c0-0.2-0.2-0.3-0.3-0.5c-0.1,0.1-0.3,0.3-0.4,0.4c-0.6,1.2-1.1,2.5-1.7,3.7c-0.6,1.1-0.9,2.2-0.9,3.4c0,0.3,0,0.5-0.1,0.8
				c-0.3,3.5-0.6,7-0.9,10.5c0,0.3,0,0.5,0,0.8c0,0.1,0.1,0.3,0.1,0.4c0.1,0,0.3,0,0.4-0.1c0.4-0.2,0.8-0.5,1.3-0.7
				c0.6-0.3,1.2-0.6,1.9-0.9c0.3-0.2,0.7-0.3,0.7-0.8c0-0.9,0-1-1-1.4c-0.2-0.1-0.3-0.3-0.4-0.5c0.2-0.1,0.4-0.2,0.6-0.3
				c0.2-0.1,0.4-0.1,0.5-0.2c0.2-0.4,0.4-0.9,0.6-1.3c0.3-0.7,0.6-1.3,0.5-2.1c0-0.7,0.1-1.5,0.2-2.2c0.1-0.7,0.2-1.3,0.2-2
				c-0.1-1.2-0.3-2.4-0.5-3.6c-0.1-0.7-0.4-0.9-1-1c-0.2-0.1-0.5-0.1-0.8-0.2C124.6,169.7,125.1,170.2,125.6,170.3z M142.2,185.8
				c0,0.1,0,0.2,0.1,0.3c0.2,0,0.4,0,0.7,0c1.1,0,1.7,1,1.5,2c-0.2,1-0.1,2.1,0,3.1c0,0.3,0.4,0.6,0.6,0.9c0.3,0.4,0.6,0.9,1,1.3
				c0.3,0.4,0.9,0.3,1.1-0.2c0.1-0.2,0.2-0.3,0.3-0.5c0.2-0.3,0.5-0.4,0.8-0.1c0.1,0.2,0.2,0.4,0.4,0.6c0.1,0.2,0.2,0.3,0.4,0.4
				c0.3,0.1,0.7,0.2,1,0.2c0.2,0,0.4-0.2,0.5-0.3c0.2-0.7,0.3-1.3,0.4-2c0.1-0.4,0.3-0.9,0.4-1.3c0.1-0.5,0.2-1,0.3-1.5
				c0.1-0.2,0.3-0.5,0.5-0.6c0.5-0.3,0.7-0.8,0.7-1.4c0-0.7,0.1-1.6,1-1.9c0.9-0.3,1.8-0.4,2.7,0.2c0.1,0.1,0.4,0.1,0.6,0.1
				c0,0,0.1-0.3,0.1-0.3c-0.1-0.1-0.3-0.2-0.5-0.2c-1-0.2-2.1,0-3.1-0.6c-0.7-0.4-1.4-0.3-2.1,0c-1.2,0.6-2.4,1.2-3.6,1.8
				c-0.7,0.3-1.1,0.1-1.2-0.6c0-0.4,0-0.8,0-1.2c0-0.2-0.2-0.4-0.3-0.6c-0.1,0.2-0.3,0.4-0.3,0.6c0,0.5-0.2,0.8-0.6,0.9
				c-0.7,0.2-1.4,0.4-2.1,0.7C143,185.5,142.6,185.6,142.2,185.8z M142.7,146.1c-0.1-0.1-0.2-0.1-0.3-0.2c-0.8-0.2-1.7-0.5-2.5-0.6
				c-0.4-0.1-1-0.1-1.3,0c-1,0.4-1.9,1-2.9,1.5c-3.7,1.9-7.4,3.8-11.1,5.7c-1.3,0.7-2.6,1.3-4,2c-0.1,0.1-0.2,0.3-0.3,0.4
				c0.1,0.1,0.3,0.2,0.4,0.2c0.8,0.2,1.7,0.3,2.5,0.6c0.5,0.2,0.9,0,1.4-0.2c2-1,4-2.1,6-3.1c3.9-2,7.8-3.9,11.7-5.9
				C142.4,146.4,142.6,146.3,142.7,146.1z M120.1,222.8C120.1,222.8,120,222.8,120.1,222.8c-0.1-0.9-0.1-1.8-0.1-2.7
				c0-1.1,0-2.1-0.1-3.2c0-0.2-0.3-0.5-0.3-0.4c-0.3,0.1-0.7,0.3-0.9,0.5c-0.4,0.6-0.4,1.4-0.9,2c-0.2,0.3-0.2,0.7-0.3,1
				c-0.2,0.5-0.6,1-0.8,1.5c-0.7,1.8-1.5,3.6-2.1,5.4c-0.2,0.7-0.3,1.4-0.5,2.1c-0.1,0.6-0.1,0.7,0.5,0.6c1-0.1,1.9-0.3,2.9-0.4
				c0.7-0.1,1.3-0.2,2-0.2c0.3,0,0.5-0.2,0.4-0.5C120.1,226.7,120.1,224.7,120.1,222.8z M83.9,205.7c-0.4-0.1-0.7-0.2-1-0.3
				c-0.1-0.1-0.2-0.2-0.2-0.4c0-0.1,0.2-0.3,0.3-0.3c0.8,0.1,1.2-0.4,1.5-1c0-0.1,0.1-0.1,0.2-0.1c0.3-0.3,0.7-0.6,1.1-0.3
				c0.5,0.2,0.4,0.6,0.4,1.1c-0.1,0.4,0.2,0.5,0.5,0.3c0.6-0.3,1.2-0.6,1.8-0.9c0.4-0.2,0.6-0.2,1,0.1c0.1,0.1,0.5,0.1,0.5,0
				c0.2-0.5,0.7-0.9,0.4-1.6c-0.1-0.3-0.1-0.6-0.1-0.8c-0.1-1.8-1-3.2-2.3-4.4c-1-0.9-0.9-0.7-1.8,0c-1.9,1.4-3.2,3.3-4,5.6
				c-0.1,0.4-0.1,0.6,0.4,0.7c0.6,0.1,0.7,0.5,0.4,1c-0.1,0.2-0.3,0.4-0.5,0.6c-0.3,0.4-0.2,0.8,0,1.2c0.1,0.2,0.5,0.4,0.7,0.4
				C83.4,206.4,83.7,206.2,83.9,205.7z M164.5,194.3c-0.1,0.1-0.1,0.1-0.2,0.2c0.2,0.4,0.4,0.7,0.6,1.1c0.1,0.3,0.3,0.5,0.7,0.5
				c0.6,0,1.2,1,1,1.6c-0.3,0.8-1.5,1-2,0.3c-0.2-0.3-0.3-0.7-0.5-1.1c-0.1-0.2-0.3-0.3-0.4-0.4c-0.1,0.2-0.2,0.3-0.3,0.5
				c-0.1,0.2-0.1,0.4-0.1,0.6c-0.5,1.8-1,3.7-1.4,5.5c-0.3,1.1-0.2,1.1,0.9,1c2.3-0.2,4.4-1,6.3-2.4c0.1-0.1,0.2-0.4,0.1-0.6
				c-0.2-0.7-0.4-1.3-0.6-1.9c-0.2-0.7-0.3-1.4-1.1-1.7c-0.4-0.2-0.5-0.5-0.4-1c0.1-0.5,0.1-1.1,0.1-1.6c0-0.4-0.2-0.5-0.5-0.3
				c-0.6,0.4-1.1,0.2-1.7,0C164.9,194.4,164.7,194.3,164.5,194.3z M121,176.5c-0.1,0-0.1-0.1-0.2-0.1c-0.1,0.2-0.3,0.4-0.4,0.6
				c-0.2,0.4-0.3,0.8-0.4,1.2c-0.7,1.6-1.4,3.1-2.1,4.7c-0.6,1.3-1.1,2.5-1.7,3.8c-0.5,1.2-1.1,2.5-1.6,3.7c-0.1,0.1,0,0.3,0,0.5
				c0.1,0,0.3,0,0.4-0.1c1.4-0.7,2.8-1.5,4.3-2.2c0.4-0.2,0.6-0.4,0.6-0.9c0.2-2.6,0.5-5.2,0.7-7.9
				C120.8,178.7,120.9,177.6,121,176.5z M78.6,217.1c0,0-0.1-0.1-0.1-0.1c-0.2,0.1-0.3,0.1-0.5,0.2c-2.2,1.1-4.4,2.2-6.6,3.4
				c-0.1,0.1-0.2,0.3-0.2,0.4c0.5,1.1,0.7,2.3,1.6,3.1c0.6,0.6,0.6,0.6,1.3,0.2c1.2-0.6,2.3-1.1,3.5-1.7c0.3-0.2,0.5-0.4,0.5-0.8
				c0-0.2,0.1-0.5,0.3-0.7c0.2-0.3,0.2-0.4,0-0.7c-0.3-0.4-0.4-0.8,0-1.2c0.1-0.1,0.1-0.5,0-0.6c-0.5-0.5-0.4-0.9,0-1.3
				C78.5,217.3,78.5,217.2,78.6,217.1z M92.8,168.4c-0.1,0-0.1,0-0.2,0c-3.6,1.8-7.1,3.6-10.8,5.4c0.3,0.1,0.3,0.2,0.4,0.2
				c0.7,0.2,1.5,0.4,2.2,0.6c0.9,0.2,1.8,0.5,2.7-0.1c1.3-0.9,2.8-1.5,4.3-2.2c0.9-0.4,1.5-0.8,1.3-1.9
				C92.7,169.7,92.8,169.1,92.8,168.4z M67.5,219.2c0.5,0.1,0.6-0.2,0.5-0.4c-0.1-0.2-0.3-0.5-0.5-0.6c-1.1-0.6-2.5,0-3.3,1.2
				c-0.9,1.3-1.4,2.7-1.6,4.3c-0.2,1.3-0.4,1.3,1.1,1.1c0.7-0.1,0.9,0.1,1.1,0.8c0,0.2,0.2,0.4,0.3,0.4c0.7,0,1.3,0.4,2,0.1
				c0.6-0.2,0.7-0.4,0.6-1c-0.3-1.5-0.7-2.9-1-4.4C66.6,219.8,67.1,219.2,67.5,219.2z M100.1,105.6c-0.1,0-0.1,0.1-0.2,0.1
				c0,0.6,0.1,1.2,0,1.8c-0.1,0.9,0.4,1.4,1.1,1.9c0.3,0.2,0.5,0.4,0.7,0.7c0.2,0.3,0.4,0.7,0.6,1.1c0.1,0.2,0.3,0.4,0.4,0.4
				c0.8,0,1.2,0.9,2,0.8c0.1,0,0.3,0,0.4,0.1c0-0.2,0-0.3,0-0.5c0-0.4,0.1-0.7,0.1-1.1c0-0.2,0.1-0.3,0.1-0.5c0-1.1,0.1-2.3,0.1-3.4
				c0-0.6-0.7-1-1.3-0.8c-0.6,0.2-1.3,0.4-2,0.5C101.4,106.7,100.6,106.5,100.1,105.6z M157.9,209.8c0.5-0.4,1-0.7,0.9-1.4
				c0-0.2,0.1-0.3,0.1-0.5c0.2-0.8,0.4-1.7,0.6-2.5c0.1-0.3,0-0.5-0.3-0.5c-1.6-0.3-3.1-0.7-4.6-1.4c-0.3-0.1-0.5-0.1-0.6,0.2
				c-0.1,0.2-0.2,0.5-0.4,0.6c-0.8,0.4-0.8,1.1-0.9,1.7c0,0.2,0,0.5,0.1,0.5c0.2,0.1,0.4,0,0.6-0.1c0.5-0.2,0.6-0.2,0.7,0.3
				c0.1,0.4,0.3,0.6,0.6,0.6c0.3,0.1,0.6,0.1,0.8,0.2c0.9,0.4,2,0.5,2.1,1.9C157.7,209.6,157.8,209.6,157.9,209.8z M111.8,224.5
				c0.1,0,0.1,0,0.2,0c0.1-0.2,0.2-0.4,0.3-0.6c0.7-1.9,1.5-3.8,2.2-5.7c0.2-0.6,0-1.4-0.5-1.8c-0.5-0.4-0.5-0.5-0.1-1
				c0.3-0.2,0.3-0.5,0.2-0.9c-0.3-0.8-0.8-1.2-1.5-1.5c-1-0.5-1-0.6-1,0.6c0.1,3,0.1,6,0.2,9C111.8,223.2,111.8,223.9,111.8,224.5z
				 M80.9,201.9c0.2-0.3,0.3-0.5,0.4-0.7c0.4-0.8,0.8-1.6,1.3-2.4c0.7-1.2,1.7-2.1,2.8-2.9c0.1-0.1,0.2-0.2,0.2-0.3
				c0-0.1-0.2-0.2-0.3-0.2c-0.7-0.1-1.4-0.2-2.2-0.2c-1.6,0-2.8,1-4,1.9c-0.2,0.2-0.4,0.6-0.4,0.9C79,199.5,80.1,200.5,80.9,201.9z
				 M91.1,194.2c-0.2,0.1-0.3,0.1-0.4,0.1c-0.9,0.4-1.9,0.8-2.8,1.3c-0.5,0.3-0.5,0.4-0.1,0.8c1,0.8,1.8,1.7,2.2,2.9
				c0.3,0.9,0.4,1.9,0.6,2.8c0,0.2,0.2,0.3,0.3,0.5c0.1-0.1,0.3-0.3,0.4-0.4c0-0.1,0-0.2,0-0.3c0.1-0.2,0.2-0.3,0.3-0.5
				c0.1,0.2,0.2,0.3,0.3,0.5c0.1,0.2,0.3,0.4,0.4,0.5c0.1-0.2,0.2-0.4,0.2-0.6c0-1.4,0-2.9,0.1-4.3c0-0.4-0.1-0.6-0.5-0.7
				c-0.6-0.1-1-0.5-1.1-1c-0.1-0.3,0.1-0.7,0.1-1.1C91.2,194.6,91.1,194.4,91.1,194.2z M111.4,80c0.4-1.5,1-2.9,2.1-4.1
				c0.7-0.8,1.6-1.4,2.6-1.7c0.1,0,0.2-0.2,0.4-0.2c-0.1-0.1-0.2-0.2-0.3-0.3c-0.1-0.1-0.3-0.2-0.4-0.3c-1.3-0.8-2.5-1.7-3.8-2.5
				c-0.1-0.1-0.3-0.2-0.4-0.1c-0.1,0-0.1,0.3-0.1,0.4c0,2.2,0,4.5,0,6.7C111.4,78.5,111.4,79.3,111.4,80z M120.3,199
				C120.3,199,120.3,199,120.3,199c0.1,0.3,0.1,0.6,0.1,1c-0.1,0.6,0.2,0.9,0.7,1.2c0.4,0.2,0.6,0.1,0.7-0.2c0.4-1,0.8-1.9,1.2-2.8
				c0.2-0.4,0.3-0.9,0.9-1.1c0.1,0,0.1-0.2,0.2-0.2c0.3-0.6,0.5-1.2,0.8-1.8c0.1-0.2,0.1-0.6,0-0.7c-0.2-0.1-0.6-0.2-0.8-0.1
				c-1.1,0.5-2.2,1-3.3,1.6c-0.2,0.1-0.3,0.3-0.3,0.5C120.3,197.1,120.3,198,120.3,199z M55,230.7c0.1,0.3,0.3,0.5,0.4,0.8
				c0.3,0.4,0.6,0.7,0.8,1c0.2,0.3,0.4,0.3,0.7,0.2c0.9-0.4,1.8-0.9,2.7-1.4c0.1-0.1,0.2-0.5,0.1-0.6c-0.5-0.8-1.1-1.6-1.7-2.4
				c-0.3-0.3-0.7-0.6-1.2-0.8c-0.6-0.2-1.1,0-1.3,0.6C55.4,229,55.2,229.8,55,230.7z M144.4,195.3c-0.4,0-0.4,0-0.3,0.6
				c0.1,0.3,0.1,0.5,0.2,0.8c0.1,0.2,0.1,0.4,0.3,0.5c1.2,0.7,2.4,1.5,3.7,2.2c0.3,0.2,0.4,0.1,0.5-0.2c0.3-0.6,0.4-1.3,1-1.8
				c0,0,0.1-0.1,0.1-0.2c0.1-0.5,0.2-0.9,0.2-1.4c0-0.2,0-0.6-0.1-0.7c-0.2-0.1-0.5,0-0.7,0.1c-0.7,0.4-1.3,0.5-2.1,0.4
				C146.3,195.4,145.4,195.4,144.4,195.3z M158.8,183.2c-0.1,0.2-0.4,0.5-0.4,0.7c0,0.6,0,1.2,0.1,1.7c0,0.3,0.2,0.6,0.4,0.7
				c0.9,0.6,1.9,1.1,2.9,1.6c1.2,0.6,2.4,1.3,3.6,1.9c0.1,0.1,0.3,0.1,0.5,0.1c0-0.2-0.1-0.3-0.1-0.5c0-0.1-0.1-0.2-0.2-0.3
				c-0.2-0.8-0.5-1.5-0.7-2.3c-0.1-0.6-0.5-0.8-1-0.8c-1.3,0-2.6,0-3.9-0.1c-0.7,0-0.9-0.3-0.8-1c0-0.4,0.1-0.7,0.2-1.1
				C159.4,183.6,159.2,183.3,158.8,183.2z M52.4,230.7c-0.5,0.3-1,0.4-1.3,0.8c-0.9,0.8-1,1.9-1,2.9c0,0.1,0.1,0.2,0.1,0.3
				c0.6,0.9,0.8,0.9,1.8,0.5c0,0,0.1,0,0.2-0.1c0.6-0.3,1.2-0.6,1.8-0.9c0.4-0.2,0.4-2.5,0-2.8C53.5,231.1,53,231,52.4,230.7z
				 M88.7,217c-0.2-0.2-0.4-0.3-0.6-0.5c-0.4-0.3-0.8-0.4-1.2-0.2c-0.6,0.2-1.1,0.6-1.7,0.8c-0.1,0-0.2,0.1-0.2,0.2
				c-0.2,0.5-0.3,1.1-0.4,1.7c0.5,0.4,0.6,0.7,0.3,1.4c-0.2,0.4,0,0.5,0.3,0.5c0.2,0,0.4-0.1,0.6-0.1c0.4-0.1,0.9-0.3,1.3-0.3
				c0.7,0.1,1.1-0.3,1.6-0.5c-0.2-0.3-0.6-0.5-0.6-0.8c0-0.2,0.4-0.4,0.7-0.6c-0.2-0.2-0.6-0.5-0.6-0.7
				C88,217.5,88.4,217.3,88.7,217z M39.4,238.2c1.3-0.1,2.5-0.3,3.8-0.4c0.2,0,0.4-0.2,0.5-0.3c0.4-0.5,0.2-1.2-0.3-1.6
				c-0.2-0.1-0.4-0.3-0.6-0.4c-0.9-0.5-1.9-0.5-2.7,0.1c-0.6,0.5-0.9,1.2-1.1,1.9C38.7,238.1,38.8,238.2,39.4,238.2z M169.2,187.3
				c-0.1-0.4-0.3-0.8-0.5-1.2c0-0.1-0.4-0.1-0.4-0.1c-0.5,0.5-1.1,0.5-1.7,0.3c-0.2-0.1-0.5,0-0.6,0.1c-0.1,0.1-0.1,0.4,0,0.6
				c0.5,1.6,1,3.2,1.5,4.7c0,0.1,0.2,0.2,0.3,0.3c0.1-0.1,0.2-0.2,0.3-0.3c0.1-0.3,0.1-0.6,0.2-0.9c0.3-0.9,0.6-1.9,0.9-2.8
				C169.2,187.7,169.2,187.5,169.2,187.3z M122.4,156.6c0-0.1,0-0.1,0-0.2c-0.1,0-0.2-0.1-0.3-0.1c-0.9-0.2-1.9-0.4-2.9-0.7
				c-0.3-0.1-0.5-0.2-0.8-0.1c-1,0.2-1.5,0.8-1.5,1.8c0,0.2-0.1,0.6-0.2,0.6c-0.7,0.1-0.7,0.7-0.8,1.2c-0.1,0.5,0.1,0.7,0.6,0.4
				c0.4-0.2,0.8-0.5,1.2-0.6c0.6-0.2,0.9-0.6,1.3-1.1c0.5-0.7,1.3-1.3,2.3-1C121.7,156.8,122,156.6,122.4,156.6z M165.4,180.4
				c-0.6-0.1-0.9,0.2-0.9,0.7c0.1,0.7,0.1,1.4,0.3,2.1c0.3,0.9,1.3,1,1.9,0.3c0.1-0.2,0.3-0.4,0.5-0.5c0.4-0.1,0.4-0.3,0.3-0.6
				c-0.2-0.6-0.4-1.2-0.7-1.9c-0.1-0.1-0.3-0.3-0.4-0.3C166.2,180.3,165.8,180.4,165.4,180.4z M115.9,198c0.2,0.2,0.3,0.3,0.4,0.4
				c1,0.6,2,1.1,3,1.7c0.3,0.2,0.5,0.1,0.5-0.3c0-0.5,0-1,0-1.5c0-0.7-0.1-1.4-0.1-2.2C118.4,196.7,117.2,197.3,115.9,198z
				 M147.9,205.1c0.1,0,0.2,0,0.3-0.1c0-0.6,0.3-1.2,0.1-1.7c-0.3-0.7,0-1.4,0.1-2c0.1-0.6,0.1-0.8-0.5-1.1c-0.7-0.3-1.3-0.7-2-1.1
				c-0.2-0.1-0.3-0.1-0.5-0.2c0,0.2,0,0.4,0.1,0.5c0.7,1.7,1.4,3.3,2.1,5C147.6,204.7,147.7,204.9,147.9,205.1z M111.2,91.1
				c0,0-0.1,0-0.1,0c0.1,0.1,0.1,0.4,0.2,0.4c0.1,0.1,0.3,0,0.4-0.1c0.2-0.2,0.4-0.4,0.6-0.6c0.2-0.3,0.3-0.5,0.5-0.8
				c0.4-0.5,0.6-1,0.3-1.7c-0.1-0.3-0.3-0.6-0.2-0.9c0.1-0.8-0.3-1.2-1.1-1.2c-0.5-0.1-0.6-0.1-0.6,0.5
				C111.2,88.2,111.2,89.7,111.2,91.1z M49,236.1c-0.1-1.1-0.3-1.3-1.3-1.3c-0.2,0-0.4,0-0.5,0c-0.9,0.2-1.5,0.7-1.9,1.4
				c-0.1,0.2,0.3,0.7,0.5,1.1c0,0,0,0.1,0.1,0.1c0.1,0.1,0.3,0.2,0.4,0.1c0.8-0.2,1.5-0.4,2.3-0.6C48.9,236.8,49.2,236.5,49,236.1z
				 M144.1,175.7c0.1-0.6-0.5-1.1-1-1.1c-1.2,0.1-2.3,0.7-3.4,1.1c-0.3,0.1-0.3,0.2-0.2,0.5c0.2,0.3,0.4,0.7,0.5,1
				c0.1,0.3,0.3,0.4,0.6,0.2c0.5-0.3,1-0.6,1.5-0.8c0.5-0.2,1-0.3,1.5-0.5C143.8,176,144,175.8,144.1,175.7z M143.2,196.1
				c0-0.6-0.2-0.8-0.8-0.9c-0.5,0-1-0.1-1.5-0.2c-0.5,0-0.7-0.3-0.7-0.8c0-0.5,0-0.9,0-1.4c0-0.1-0.2-0.4-0.3-0.4
				c-0.2,0-0.4,0.1-0.5,0.2c-0.3,0.3-0.5,0.6-0.8,0.9c-0.2,0.2-0.4,0.4-0.7,0.6c0.3,0.1,0.5,0.3,0.8,0.4c1.3,0.6,2.6,1.1,3.9,1.7
				C143,196.6,143.2,196.5,143.2,196.1z M65.1,227.9c0,0.3-0.3,0.9,0.4,0.6c0.6-0.2,1.2-0.5,1.7-0.8c0.8-0.4,0.8-0.5,0.4-1.3
				c0-0.1,0-0.2-0.1-0.2c-0.1-0.1-0.2-0.2-0.3-0.1c-0.6,0.2-1.2,0.2-1.8,0.1c-0.4-0.1-0.6,0.1-0.5,0.6
				C65,227.1,65.1,227.5,65.1,227.9z M166.3,194.2c0.2-0.3,0.7-0.6,0.6-0.8c-0.1-0.6-0.3-1.2-0.6-1.7c0-0.1-0.3-0.2-0.5-0.2
				c-0.2,0-0.4,0-0.6,0c-0.1,0-0.2,0.2-0.3,0.2c0.1,0.1,0.2,0.2,0.3,0.2c0.1,0,0.1,0,0.2,0c0.1,0,0.3,0.1,0.4,0.2
				c-0.1,0.1-0.2,0.3-0.3,0.4c-0.2,0.1-0.5,0-0.7,0.1c-0.4,0.1-0.6,0.6-0.3,0.8C165.1,193.7,165.7,193.9,166.3,194.2z M105.4,115.6
				c-0.1-0.6-0.1-1-0.3-1.5c-0.1-0.3-0.3-0.4-0.5-0.1c-0.2,0.2-0.4,0.4-0.6,0.6c-0.1,0.1-0.2,0.3-0.2,0.4c0.1,0.6,0.2,1.2,0.4,1.8
				c0,0.1,0.3,0.3,0.4,0.3c0.1,0,0.4-0.1,0.4-0.3C105.2,116.4,105.3,116,105.4,115.6z M166.4,197.3c-0.1-0.8-0.7-0.8-1.1-1
				c-0.1-0.1-0.4,0.2-0.6,0.4c-0.4,0.5,0,0.8,0.4,1.1c0.2,0.1,0.5,0.3,0.7,0.2C166,197.8,166.2,197.5,166.4,197.3z M91.9,181.7
				c0.2-0.9,0.5-1.6,0.7-2.4c0,0-0.1-0.1-0.1-0.1c-0.5,0.3-1,0.5-1.5,0.8c-0.1,0-0.1,0.2-0.1,0.3C91.2,180.7,91.5,181.2,91.9,181.7z
				 M123.8,128.7c-0.1,0-0.1,0-0.2-0.1c-0.1,0.1-0.2,0.2-0.2,0.3c-0.3,0.5-0.6,1.1-0.9,1.6c-0.1,0.1-0.2,0.3-0.2,0.4
				c0,0.2,0.1,0.4,0.2,0.4c0.1,0.1,0.3,0,0.4-0.1c0.2-0.2,0.4-0.4,0.6-0.6c0.1-0.2,0.2-0.4,0.2-0.6c0-0.3,0-0.6,0-0.9
				C123.7,129.1,123.8,128.9,123.8,128.7z M150.6,211.6c0.1-0.2,0.2-0.5,0.2-0.6c-0.3-0.8-0.7-1.6-1.1-2.4c0,0,0,0,0,0
				c-0.1,0-0.2,0-0.3-0.1c0,0.1-0.1,0.2,0,0.3c0.3,0.9,0.7,1.7,1.1,2.6C150.4,211.5,150.4,211.5,150.6,211.6z M169.7,198.3
				c0,0.1-0.1,0.1-0.1,0.2c0.1,0.1,0.3,0.3,0.4,0.3c0.6,0,1.1,0,1.7-0.1c0.1,0,0.2-0.2,0.1-0.3c-0.1-0.3-0.3-0.3-0.6-0.2
				c-0.3,0.1-0.6,0.2-1,0.2C170.1,198.4,169.9,198.4,169.7,198.3z M45.3,249.7c-0.2-0.3-0.3-0.5-0.4-0.7c-0.2,0.2-0.4,0.4-0.4,0.7
				c0,0.2,0.3,0.5,0.4,0.7C44.9,250.2,45.1,250,45.3,249.7z M99.2,75c-0.1-0.5-0.1-0.9-0.5-0.8c-0.1,0-0.4,0.3-0.4,0.4
				c0.1,0.3,0.3,0.5,0.6,0.7C98.8,75.3,99.1,75.1,99.2,75z M92.4,223.1c-0.1,0-0.1,0-0.2,0c-0.2,0.3-0.4,0.5-0.5,0.8
				c0,0.2,0.2,0.4,0.3,0.6c0,0,0.4-0.1,0.4-0.2C92.4,223.9,92.4,223.5,92.4,223.1z M120.4,203.4c0.1,0,0.2,0,0.3,0
				c0.1-0.4,0.3-0.7,0.3-1.1c0-0.1-0.2-0.2-0.3-0.3c-0.1,0-0.3,0.1-0.3,0.1C120.4,202.6,120.4,203,120.4,203.4z M103.6,113.6
				c-0.2-0.2-0.4-0.5-0.5-0.4c-0.2,0.1-0.5,0.3-0.7,0.5c0.2,0.1,0.3,0.4,0.5,0.4C103.1,114,103.3,113.8,103.6,113.6z M150,207.9
				c0-0.1,0-0.1,0.1-0.2c-0.3-0.2-0.6-0.3-0.9-0.5c-0.1-0.1-0.3,0-0.4,0c0,0,0,0.2,0,0.3c0.1,0.1,0.2,0.3,0.3,0.3
				C149.4,207.9,149.7,207.9,150,207.9z M108.1,70.5c-0.4-0.3-0.6-0.4-0.8-0.6c0,0-0.2,0.2-0.3,0.2c0.2,0.2,0.4,0.5,0.6,0.6
				C107.6,70.8,107.9,70.6,108.1,70.5z M178,203.6c-0.3,0.2-0.5,0.3-0.7,0.5c0.2,0.1,0.4,0.4,0.5,0.4c0.2-0.1,0.4-0.3,0.5-0.5
				C178.3,203.9,178.2,203.8,178,203.6z M132,145.5c-0.2-0.2-0.3-0.3-0.4-0.4c-0.1,0.2-0.3,0.3-0.4,0.5c0,0.1,0.2,0.2,0.2,0.4
				C131.6,145.8,131.8,145.7,132,145.5z M143.9,149.1c0.1,0,0.1,0,0.2,0c0.1-0.2,0.2-0.3,0.2-0.5c0-0.1-0.2-0.2-0.3-0.4
				c-0.1,0.2-0.3,0.3-0.3,0.5C143.6,148.9,143.8,149,143.9,149.1z M84.1,169.8c-0.1-0.2-0.2-0.3-0.4-0.4c-0.1,0.2-0.2,0.4-0.3,0.6
				c0,0.1,0.2,0.3,0.2,0.4C83.8,170.2,83.9,170,84.1,169.8z M88.6,167.8c0.1,0,0.1,0,0.2,0c0.1-0.2,0.2-0.3,0.2-0.5
				c0-0.2-0.2-0.3-0.3-0.5c-0.1,0.1-0.2,0.3-0.3,0.4C88.5,167.5,88.6,167.7,88.6,167.8z M122.2,159.2c0,0-0.1,0-0.1,0
				c-0.1,0.1-0.2,0.3-0.2,0.4c0,0.2,0.1,0.3,0.2,0.5c0.1-0.1,0.3-0.3,0.3-0.4C122.4,159.5,122.2,159.4,122.2,159.2z M132.9,153.6
				c-0.1,0.3-0.3,0.4-0.3,0.5c0,0.1,0.2,0.2,0.3,0.4c0.1-0.1,0.3-0.2,0.3-0.4C133.2,154,133,153.8,132.9,153.6z M95.9,72
				c0.2-0.2,0.3-0.4,0.3-0.5c0-0.1-0.1-0.2-0.2-0.4c-0.1,0.1-0.3,0.2-0.4,0.4C95.6,71.6,95.8,71.8,95.9,72z M120.4,151.8
				c0.2-0.3,0.3-0.4,0.4-0.6c0-0.1-0.2-0.2-0.3-0.3c-0.1,0.1-0.3,0.2-0.3,0.4C120.1,151.4,120.3,151.5,120.4,151.8z M172.6,196.9
				c-0.1,0-0.1,0-0.2,0c0,0.2-0.1,0.4,0,0.5c0.1,0.1,0.3,0.2,0.5,0.3c0-0.2,0-0.3-0.1-0.5C172.8,197.1,172.7,197,172.6,196.9z
				 M45.3,238.3c-0.2-0.2-0.4-0.3-0.5-0.3c-0.1,0-0.3,0.2-0.3,0.4c0,0.1,0.2,0.3,0.3,0.3C44.9,238.7,45.1,238.5,45.3,238.3z
				 M75.9,213.5c-0.2,0.3-0.3,0.6-0.1,0.9c0,0,0.3,0,0.3,0C76.2,214.1,76.3,213.8,75.9,213.5z M73.2,215.8c0-0.1,0-0.3,0-0.4
				c-0.2-0.1-0.3-0.2-0.5-0.2c-0.1,0-0.3,0.2-0.3,0.4c0,0.1,0.1,0.3,0.2,0.4C72.9,216,73.1,215.9,73.2,215.8z M62.4,181
				c0.1-0.3,0.2-0.4,0.3-0.5c0-0.1-0.1-0.2-0.2-0.3c-0.1,0.1-0.2,0.3-0.3,0.4C62.1,180.7,62.2,180.8,62.4,181z M59.2,181.6
				c-0.2,0.2-0.3,0.4-0.3,0.5c0,0.1,0.2,0.2,0.3,0.4c0.1-0.1,0.2-0.2,0.2-0.4C59.4,182,59.3,181.9,59.2,181.6z M74.5,183.4
				c-0.1,0.3-0.2,0.4-0.2,0.6c0,0.1,0.2,0.2,0.3,0.3c0.1-0.1,0.2-0.3,0.3-0.4C74.8,183.7,74.7,183.6,74.5,183.4z M71.6,185.6
				c-0.1-0.2-0.2-0.3-0.3-0.4c-0.1,0.1-0.2,0.2-0.2,0.3c0,0.1,0.1,0.3,0.2,0.4C71.4,185.8,71.5,185.7,71.6,185.6z M122.6,190
				c-0.2-0.1-0.3-0.3-0.4-0.3c-0.1,0-0.2,0.2-0.2,0.3c0,0.1,0.1,0.3,0.2,0.3C122.3,190.3,122.4,190.1,122.6,190z M110.3,66.3
				c-0.1,0.2-0.2,0.4-0.2,0.5c0,0.1,0.2,0.2,0.3,0.3c0.1-0.1,0.2-0.2,0.2-0.3C110.5,66.6,110.4,66.5,110.3,66.3z"/>
			<path d="M118.5,218.5c0.4,0.2,0.7,1,0.5,1.4c-0.2,0.5-0.7,0.6-1,0.4c0.2-0.2,0.6-0.4,0.7-0.7
				C118.8,219.3,118.6,218.9,118.5,218.5z"/>
		</g>
	</g>
	<path class="st0" d="M140.8,43.2c53.8,0,97.5,43.7,97.5,97.5s-43.7,97.5-97.5,97.5s-97.5-43.7-97.5-97.5S87,43.2,140.8,43.2
		 M140.8,12.5C70,12.5,12.6,69.9,12.6,140.7S70,268.9,140.8,268.9S269,211.5,269,140.7S211.6,12.5,140.8,12.5L140.8,12.5z"/>
	<path d="M140,11.8c70.8,0,128.2,57.4,128.2,128.2S210.8,268.2,140,268.2S11.8,210.8,11.8,140S69.2,11.8,140,11.8 M140,0
		C62.8,0,0,62.8,0,140s62.8,140,140,140s140-62.8,140-140S217.2,0,140,0L140,0z"/>
	<g>
		<g>
			<g>
				<path class="st2" d="M70.2,64.2L67,67.4l-17.4-9.1l3-2.9l12.2,6.5l0,0l-6.3-12.3l3-2.9L70.2,64.2z"/>
				<path class="st2" d="M71.2,45.3c3.4-2.5,7.3-1.9,9.8,1.6c2.6,3.4,2.1,7.3-1.3,9.9c-3.4,2.5-7.2,1.9-9.8-1.6
					C67.3,51.7,67.8,47.8,71.2,45.3z M78,54.5c2-1.5,1.3-3.7,0-5.4c-1.3-1.7-3.2-3-5.2-1.5c-2,1.5-1.3,3.7,0,5.4
					C74.1,54.7,76,56,78,54.5z"/>
				<path class="st2" d="M77.6,35.1l3.2-1.9l9.5,16.1l-3.2,1.9L77.6,35.1z"/>
				<path class="st2" d="M91,33.8l2.4-1.2l1.1,2.2L92.1,36l2.9,6c0.6,1.1,1,1.3,2.1,0.7c0.3-0.2,0.7-0.4,1-0.6l1.3,2.6
					c-0.5,0.4-1.2,0.7-1.9,1.1c-2,1-4,1.4-5.2-1l-3.5-7.2l-2,1l-1.1-2.2l2-1l-1.8-3.7l3.3-1.6L91,33.8z"/>
				<path class="st2" d="M97.5,35.3c-1-3.4,1.6-5.4,4.4-6.4c2.5-0.9,5.7-1.4,6.8,1.7l2.3,6.7c0.4,1.2,0.9,2.3,1.4,2.7l-3.5,1.2
					c-0.3-0.4-0.5-0.7-0.7-1.2c-0.7,1.5-2.2,2.5-3.7,3.1c-2.4,0.8-4.7,0.3-5.6-2.3c-1-2.9,0.9-4.3,2.9-5.4c2-1.1,4-1.7,3.5-3.1
					c-0.5-1.5-1.6-1.4-2.9-0.9c-1.3,0.5-2,1.3-1.6,2.7L97.5,35.3z M106.4,35.1c-0.4,0.7-1.6,1.2-2.6,1.8c-1,0.6-1.8,1.3-1.4,2.6
					c0.5,1.3,1.6,1.3,2.7,0.9c2.7-1,2-3.2,1.8-3.9L106.4,35.1z"/>
				<path class="st2" d="M126.9,36.1c0.4,2.2,0.4,6-5.7,7.2c-2.6,0.5-5.9-0.2-6.6-3.2l3.6-0.7c0.6,1.3,1.8,1.6,3,1.3
					c2-0.4,2.7-2,2.3-3.9l-0.3-1.8l-0.1,0c-0.5,1.5-2,2.5-3.5,2.8c-3.9,0.8-6.2-2-6.9-5.6c-0.7-3.5,0.7-7,4.4-7.7
					c1.7-0.3,3.2,0,4.3,1.4l0.1,0l-0.3-1.8l3.4-0.7L126.9,36.1z M122.3,30.8c-0.4-2.2-1.5-4-3.9-3.5c-2,0.4-2.6,2.4-2.2,4.3
					c0.4,1.9,1.5,3.9,3.7,3.4C122,34.7,122.7,32.7,122.3,30.8z"/>
				<path class="st2" d="M132.4,30.7c0.2,2.4,1.4,3.4,3.4,3.3c1.5-0.1,2.6-1,2.8-1.9l3.2-0.1c-0.9,3.2-3,4.7-6.1,4.8
					c-4.2,0.2-6.9-2.6-7.1-6.8c-0.2-4.1,2.5-7.3,6.5-7.4c4.6-0.2,6.9,3.6,6.8,7.8L132.4,30.7z M138.3,28.1c-0.4-1.9-1.3-2.8-3-2.8
					c-2.3,0.1-2.9,2-2.9,3L138.3,28.1z"/>
				<path class="st2" d="M155.1,18.4l8.2,1.5c4.5,0.8,5.8,4.1,5.2,7.1c-0.6,3-2.8,5.6-7.4,4.7l-4.2-0.8l-1.2,6.6l-4-0.7L155.1,18.4z
					 M157.5,27.8l3.1,0.6c1.9,0.3,3.6,0.2,4-2.1c0.4-2.3-1.1-3.1-3-3.4l-3.1-0.6L157.5,27.8z"/>
				<path class="st2" d="M178.6,29.1c4,1.4,5.6,5,4.1,9.1c-1.4,4.1-5,5.8-8.9,4.4c-3.9-1.4-5.6-5-4.1-9
					C171.2,29.4,174.7,27.7,178.6,29.1z M174.8,39.9c2.4,0.8,3.8-1,4.5-3c0.7-2.1,0.8-4.4-1.6-5.2c-2.3-0.8-3.8,1-4.5,3
					C172.4,36.8,172.4,39.1,174.8,39.9z"/>
				<path class="st2" d="M195.6,52.8l-3.3-1.9l2.5-9.1l0,0l-6.5,6.8l-3.3-1.9l3.1-13.9l3.4,1.9l-2.4,9.2l0,0l6.5-6.9l3.1,1.8
					l-2.6,9.1l0,0l6.7-6.7l3.3,1.9L195.6,52.8z"/>
				<path class="st2" d="M206.1,53.2c-1.4,1.9-1.2,3.4,0.3,4.7c1.1,0.9,2.6,1,3.4,0.5l2.5,2.1c-2.8,1.8-5.4,1.5-7.7-0.5
					c-3.3-2.7-3.4-6.6-0.7-9.9c2.6-3.1,6.7-3.8,9.8-1.2c3.5,2.9,2.7,7.3-0.1,10.3L206.1,53.2z M212.2,55.2c0.9-1.7,1-2.9-0.4-4.1
					c-1.8-1.5-3.5-0.5-4.2,0.3L212.2,55.2z"/>
				<path class="st2" d="M220.8,56l2.4,2.5l-1.8,1.7l0,0c1.7-0.7,3.8-0.2,5,1.1c0.2,0.2,0.4,0.4,0.5,0.7l-2.5,2.4
					c-0.2-0.3-0.5-0.7-0.8-1c-1.9-1.9-3.9-1.3-5.7,0.4l-4.4,4.2l-2.5-2.7L220.8,56z"/>
			</g>
			<path class="st2" d="M140,139.2"/>
			<g>
				<path class="st2" d="M39.9,193.8c-2,1.1-1.9,3-0.9,4.7c0.6,1.1,1.9,2.6,3.4,1.8c1.6-0.9,0.6-3.2,0-5.7c-0.6-2.5-1-5.1,1.7-6.7
					c3-1.7,6,0.3,7.5,2.9c1.7,3,1.9,6.6-1.5,8.5l-1.7-3.1c1.7-1.1,1.5-2.6,0.6-4.1c-0.6-1-1.7-2-2.9-1.3c-1.1,0.6-0.9,1.4,0.2,5.6
					c0.3,1.2,1.5,4.8-1.9,6.7c-2.7,1.5-5.9,0.6-8.1-3.4c-1.8-3.2-1.9-7.1,1.8-9.1L39.9,193.8z"/>
				<path class="st2" d="M48.8,203.3c2.6-1.7,5-0.1,6.7,2.1c1.4,1.9,2.7,4.6,0.4,6.3l-5.1,3.8c-0.9,0.7-1.7,1.4-1.9,2l-2-2.7
					c0.2-0.3,0.5-0.6,0.8-0.9c-1.5-0.2-2.8-1.2-3.6-2.3c-1.4-1.8-1.5-4,0.5-5.5c2.2-1.7,4-0.4,5.4,1.1c1.5,1.4,2.5,3,3.6,2.2
					c1.2-0.9,0.7-1.8,0-2.7c-0.8-1-1.7-1.3-2.8-0.6L48.8,203.3z M51.4,210.9c-0.7-0.1-1.5-1.1-2.2-1.8c-0.8-0.7-1.6-1.2-2.6-0.5
					c-1,0.7-0.7,1.7,0,2.6c1.6,2.1,3.3,0.9,3.9,0.5L51.4,210.9z"/>
				<path class="st2" d="M58.9,213.7l-1.3-1.5l1.7-1.5l1.3,1.5l0.7-0.6c1.6-1.5,3.6-1.5,5.5,0.5c0.4,0.4,0.7,0.9,1.1,1.4l-1.8,1.7
					c-0.2-0.3-0.5-0.6-0.8-0.9c-0.6-0.7-1.1-0.7-1.9,0l-0.5,0.5l1.5,1.7l-1.7,1.5l-1.5-1.7l-7.4,6.7l-2.2-2.4L58.9,213.7z"/>
				<path class="st2" d="M62.8,224.5c-1.4,1.6-1.2,3,0.1,4.3c1,0.9,2.3,1,3,0.6l2.2,1.9c-2.6,1.5-4.9,1.1-6.9-0.7
					c-2.8-2.5-2.8-6.1-0.3-8.9c2.4-2.7,6.2-3.1,8.9-0.7c3.1,2.7,2.2,6.7-0.5,9.3L62.8,224.5z M68.2,226.5c0.9-1.5,1-2.6-0.2-3.7
					c-1.6-1.4-3.1-0.6-3.8,0.1L68.2,226.5z"/>
				<path class="st2" d="M75.5,226.3l2.5,1.8l-1.3,1.8l0,0c1.4-0.9,3.3-0.8,4.6,0.2c0.2,0.1,0.4,0.3,0.5,0.5l-1.8,2.5
					c-0.2-0.2-0.6-0.6-0.9-0.8c-2-1.4-3.7-0.5-4.9,1.3l-3.2,4.5l-2.7-1.9L75.5,226.3z"/>
				<path class="st2" d="M92.4,244.3c-0.9,2.1,0.3,3.5,2.1,4.3c1.2,0.5,3.1,0.9,3.8-0.6c0.7-1.7-1.4-2.9-3.4-4.5
					c-2-1.6-3.9-3.5-2.7-6.4c1.4-3.2,5-3.4,7.7-2.2c3.2,1.4,5.5,4.1,4,7.6l-3.3-1.4c0.7-1.9-0.4-3-2-3.6c-1.1-0.5-2.5-0.5-3.1,0.8
					c-0.5,1.2,0.1,1.7,3.5,4.3c1,0.8,4.1,3,2.6,6.5c-1.2,2.8-4.3,4-8.5,2.2c-3.4-1.5-5.8-4.5-4.1-8.3L92.4,244.3z"/>
				<path class="st2" d="M106.3,243.2l3,0.7l-0.4,1.6l0,0c1.1-1,2.5-1.4,4-1.1c1.5,0.4,2.7,1.2,2.9,2.8c0.9-0.9,2.4-1.5,4-1.1
					c2.5,0.6,4,2.2,3.3,5.3l-1.9,7.9l-3.2-0.8l1.6-6.7c0.4-1.6,0.6-2.9-1.3-3.4c-1.8-0.4-2.5,1-2.9,2.5l-1.6,6.6l-3.2-0.8l1.6-6.7
					c0.3-1.4,0.8-2.9-1.2-3.4c-0.6-0.2-2.3-0.1-2.8,2.2l-1.7,6.9l-3.2-0.8L106.3,243.2z"/>
				<path class="st2" d="M126.4,251.3c0.4-3.1,3.3-3.9,5.9-3.7c2.4,0.2,5.2,0.9,5,3.8l-0.5,6.3c-0.1,1.1,0,2.2,0.2,2.7l-3.3-0.2
					c-0.1-0.4-0.2-0.8-0.1-1.2c-1.1,1-2.7,1.3-4.2,1.2c-2.3-0.2-4-1.5-3.8-3.9c0.2-2.8,2.3-3.3,4.4-3.4c2-0.2,3.9,0,4-1.3
					c0.1-1.4-0.9-1.7-2-1.8c-1.3-0.1-2.1,0.4-2.3,1.7L126.4,251.3z M133.8,254.3c-0.6,0.5-1.8,0.4-2.8,0.5c-1,0.1-2,0.4-2.1,1.6
					c-0.1,1.2,0.8,1.6,1.9,1.7c2.6,0.2,2.8-1.9,2.9-2.6L133.8,254.3z"/>
				<path class="st2" d="M140.2,248.3l3.1-0.1l0.1,2.3l0,0c0.6-1.6,2.2-2.7,3.8-2.7c0.2,0,0.5,0,0.7,0.1l0.1,3.1
					c-0.3-0.1-0.8-0.1-1.2-0.1c-2.4,0.1-3.2,1.9-3.1,4l0.2,5.5l-3.3,0.1L140.2,248.3z"/>
				<path class="st2" d="M153.5,247.4l2.4-0.3l0.3,2.2l-2.4,0.3l0.7,6c0.1,1.1,0.4,1.4,1.6,1.2c0.3,0,0.7-0.1,1-0.2l0.3,2.6
					c-0.5,0.2-1.3,0.3-1.9,0.3c-2,0.2-3.8,0-4.1-2.5l-0.8-7.2l-2,0.2l-0.3-2.2l2-0.2l-0.4-3.6l3.3-0.4L153.5,247.4z"/>
				<path class="st2" d="M161.7,253.1c0.6,2.1,1.8,2.8,3.6,2.4c1.3-0.3,2.2-1.3,2.2-2.1l2.8-0.6c-0.3,3-2,4.6-4.6,5.2
					c-3.7,0.8-6.6-1.3-7.4-4.9c-0.8-3.6,1-6.8,4.6-7.6c4-0.9,6.7,2.1,7.3,5.8L161.7,253.1z M166.5,249.9c-0.7-1.6-1.6-2.3-3.1-2
					c-2,0.5-2.3,2.2-2.1,3.1L166.5,249.9z"/>
				<path class="st2" d="M170.5,243.8l3-1l0.7,2.1l0,0c0.1-1.6,1.3-3.2,2.8-3.7c0.2-0.1,0.5-0.1,0.7-0.1l1,3c-0.3,0-0.8,0.1-1.2,0.3
					c-2.3,0.8-2.5,2.7-1.8,4.8l1.8,5.2l-3.1,1.1L170.5,243.8z"/>
				<path class="st2" d="M187.1,232.1l10-6l1.6,2.7l-6.9,4.1l2,3.3l6-3.6l1.5,2.5l-6,3.6l3.6,6l-3.1,1.9L187.1,232.1z"/>
				<path class="st2" d="M203.2,232c-1.8-2.6-0.2-5,1.9-6.7c1.9-1.5,4.5-2.8,6.3-0.5l3.9,5c0.7,0.9,1.5,1.7,2,1.9l-2.6,2.1
					c-0.3-0.2-0.6-0.5-0.9-0.8c-0.1,1.5-1.1,2.8-2.3,3.7c-1.8,1.4-3.9,1.6-5.5-0.3c-1.7-2.2-0.5-4,0.9-5.5c1.4-1.5,2.9-2.6,2.1-3.7
					c-0.9-1.1-1.8-0.7-2.7,0c-1,0.8-1.3,1.7-0.6,2.8L203.2,232z M210.7,229.3c-0.1,0.7-1,1.5-1.7,2.3c-0.7,0.8-1.2,1.7-0.4,2.6
					c0.8,1,1.7,0.6,2.6,0c2-1.6,0.8-3.3,0.4-3.9L210.7,229.3z"/>
				<path class="st2" d="M219,224.6c1.1,1,2.3,0.6,3.2-0.3c0.7-0.7,1.3-1.8,0.4-2.6c-0.7-0.7-1.9,0-4,1.3c-1.7,1.1-3.5,1.9-5,0.4
					c-2.2-2.2-0.9-4.7,0.9-6.5c1.9-1.9,4.2-2.9,6.5-1l-2.2,2.2c-1-0.9-1.9-0.4-2.8,0.4c-0.5,0.5-1.2,1.4-0.5,2.1
					c0.9,0.9,2.3-0.4,3.9-1.4c1.7-1.1,3.5-1.9,5.1-0.3c2.3,2.3,1.1,5-0.9,6.9c-2,2-4.7,3.2-7,1L219,224.6z"/>
				<path class="st2" d="M222.7,208.3l1.5-1.9l1.7,1.4l-1.5,1.9l4.7,3.8c0.9,0.7,1.3,0.7,2-0.2c0.2-0.3,0.4-0.5,0.6-0.9l2,1.7
					c-0.3,0.5-0.7,1.1-1.1,1.6c-1.3,1.6-2.8,2.6-4.7,1.1l-5.6-4.6l-1.3,1.5l-1.7-1.4l1.3-1.5l-2.8-2.3l2.1-2.6L222.7,208.3z"/>
				<path class="st2" d="M232.6,206.8c1.8,1.1,3.2,0.8,4.2-0.7c0.7-1.1,0.6-2.5,0.1-3.1l1.6-2.4c1.9,2.4,1.8,4.7,0.3,7
					c-2.1,3.2-5.6,3.6-8.8,1.6c-3-2-4-5.7-1.9-8.7c2.3-3.4,6.3-3.1,9.3-0.8L232.6,206.8z M233.8,201.1c-1.6-0.7-2.7-0.6-3.6,0.7
					c-1.2,1.7-0.1,3.2,0.6,3.7L233.8,201.1z"/>
				<path class="st2" d="M232.5,193.9l1.5-2.8l2,1.1l0,0c-1.1-1.3-1.3-3.2-0.5-4.6c0.1-0.2,0.3-0.4,0.4-0.6l2.8,1.5
					c-0.2,0.2-0.5,0.6-0.7,1c-1.1,2.1,0,3.7,1.9,4.7l4.9,2.6l-1.5,2.9L232.5,193.9z"/>
			</g>
		</g>
	</g>
	<g>
		<path class="st3" d="M122.5,47.2v1.4h-3v2h2.8V52h-2.8v2.3h3.1v1.4h-4.8v-8.4H122.5z"/>
		<path class="st3" d="M124.7,53.6v0.2c0,0.6,0.3,0.9,0.8,0.9c0.5,0,0.8-0.2,0.8-0.8c0-0.4-0.3-0.6-0.6-0.7l-1.1-0.4
			c-0.9-0.3-1.3-0.9-1.3-1.8c0-1,0.7-1.9,2.3-1.9c1.5,0,2.1,0.7,2.1,1.8v0.3h-1.4c0-0.6-0.2-1-0.7-1c-0.4,0-0.8,0.2-0.8,0.7
			c0,0.3,0.2,0.6,0.7,0.7l1,0.3c1,0.3,1.4,0.9,1.4,1.8c0,1.3-1,2-2.3,2c-1.8,0-2.3-0.8-2.3-2v-0.2H124.7z"/>
		<path class="st3" d="M129.1,47.5h1.6v1.8h0.9v1.1h-0.9v3.4c0,0.5,0.1,0.7,0.6,0.7c0.1,0,0.3,0,0.4,0v1.1c-0.3,0-0.7,0.1-1,0.1
			c-1.3,0-1.5-0.4-1.5-1.7v-3.6h-0.8v-1.1h0.8V47.5z"/>
		<path class="st3" d="M134,53.8v1.8h-1.5v-1.8H134z"/>
		<path class="st3" d="M142.5,55.7h-5.1c0-1.5,0.6-2.5,1.8-3.7l0.7-0.6c0.7-0.7,0.9-1,0.9-1.9c0-0.7-0.3-1-0.8-1
			c-0.8,0-0.9,0.7-0.9,1.6h-1.6v-0.3c0-1.5,0.8-2.4,2.6-2.4c1.7,0,2.5,0.8,2.5,2.3c0,1.1-0.3,1.8-1.3,2.7l-0.9,0.9
			c-0.5,0.4-0.8,0.9-0.8,1.2h3.1V55.7z"/>
		<path class="st3" d="M145.7,47.3c2,0,2.6,1.1,2.6,4.1c0,2.3-0.1,4.5-2.6,4.5c-2,0-2.6-1.1-2.6-4.1
			C143.1,49.5,143.2,47.3,145.7,47.3z M144.8,52.1c0,2.1,0.2,2.6,0.9,2.6c0.7,0,0.9-0.7,0.9-2.8V51c0-2.1-0.2-2.6-0.9-2.6
			c-0.7,0-0.9,0.7-0.9,2.8V52.1z"/>
		<path class="st3" d="M150.7,55.7v-5.9H149v-1.1h0.2c1.1,0,1.8-0.4,1.9-1.3h1.2v8.3H150.7z"/>
		<path class="st3" d="M154.4,52.5l2.7-5.2h1.7v5.3h0.8v1.3h-0.8v1.7h-1.5v-1.7h-2.9V52.5z M157.4,49.4L157.4,49.4l-1.6,3.2h1.6
			V49.4z"/>
	</g>
</g>
</svg>
