<?xml version="1.0" encoding="utf-8"?>
<!-- Generator: Adobe Illustrator 26.5.0, SVG Export Plug-In . SVG Version: 6.00 Build 0)  -->
<svg version="1.1" id="Layer_1" xmlns="http://www.w3.org/2000/svg" xmlns:xlink="http://www.w3.org/1999/xlink" x="0px" y="0px"
	 viewBox="0 0 280 280" style="enable-background:new 0 0 280 280;" xml:space="preserve">
<style type="text/css">
	.st0{clip-path:url(#SVGID_00000018955610985317103690000014865993494260500112_);fill:#C6C6C3;}
	.st1{clip-path:url(#SVGID_00000018955610985317103690000014865993494260500112_);fill:#F06829;}
	.st2{clip-path:url(#SVGID_00000018955610985317103690000014865993494260500112_);fill:#5D6963;}
</style>
<g id="DarkBG_00000150787027856853586650000017426972494403065016_">
	<g>
		<defs>
			<rect id="SVGID_1_" x="18.8" width="242.5" height="280"/>
		</defs>
		<clipPath id="SVGID_00000029735635939990931120000007200465789163447946_">
			<use xlink:href="#SVGID_1_"  style="overflow:visible;"/>
		</clipPath>
		<polygon style="clip-path:url(#SVGID_00000029735635939990931120000007200465789163447946_);fill:#C6C6C3;" points="200.6,0 
			79.4,140 200.6,70 261.2,245 243.8,112.2 230.4,125.1 212.1,6.6 		"/>
		<polygon style="clip-path:url(#SVGID_00000029735635939990931120000007200465789163447946_);fill:#C6C6C3;" points="238.2,96.9 
			248.9,85.6 261.2,238.1 261.2,35 232.7,18.5 		"/>
		<polygon style="clip-path:url(#SVGID_00000029735635939990931120000007200465789163447946_);fill:#F06829;" points="18.8,105 
			18.8,137.9 83.9,94 68.7,90.4 194.6,3.5 		"/>
		<polygon style="clip-path:url(#SVGID_00000029735635939990931120000007200465789163447946_);fill:#F06829;" points="94.3,81.5 
			112.2,86.6 18.8,161.8 18.8,175 200.6,210 79.4,140 200.6,0 		"/>
		<polygon style="clip-path:url(#SVGID_00000029735635939990931120000007200465789163447946_);fill:#5D6963;" points="200.6,210 
			18.8,175 142.5,226.3 138,208.2 249.8,251.6 261.2,245 200.6,70 		"/>
		<polygon style="clip-path:url(#SVGID_00000029735635939990931120000007200465789163447946_);fill:#5D6963;" points="200.6,280 
			229.1,263.5 158.5,229 163,244 24.8,178.5 		"/>
	</g>
</g>
</svg>
