<?xml version="1.0" encoding="utf-8"?>
<!-- Generator: Adobe Illustrator 26.0.3, SVG Export Plug-In . SVG Version: 6.00 Build 0)  -->
<svg version="1.1" id="Layer_1" xmlns="http://www.w3.org/2000/svg" xmlns:xlink="http://www.w3.org/1999/xlink" x="0px" y="0px"
	 viewBox="0 0 280 280" style="enable-background:new 0 0 280 280;" xml:space="preserve">
<style type="text/css">
	.st0{fill-rule:evenodd;clip-rule:evenodd;fill:#7EBD41;}
	.st1{fill-rule:evenodd;clip-rule:evenodd;fill:#53555B;}
</style>
<g>
	<path class="st0" d="M197.5,230.7l22-0.3l17.7-53.3c9.8-29.3,17.6-53.5,17.4-53.7c-0.6-0.6-47.2-5.6-47.7-5.2
		c-0.2,0.2-2.6,7.6-5.2,16.3c-4.5,15-5.5,17.6-6.2,16.7c-0.2-0.2-2.7-7.7-5.5-16.6c-2.9-8.9-5.7-16.7-6.3-17.4
		c-1.2-1.3-49.3-2.3-74-1.6l-13,0.4l-1.3,2.7c-0.7,1.5-3.5,9.4-6.1,17.6c-5.5,16.9-5.6,17.1-7.8,9.3c-0.9-3.1-3.2-10.7-5.1-16.8
		l-3.5-11.2l-3.6,0.5c-2,0.3-12.5,1.5-23.5,2.8c-10.9,1.2-20.3,2.5-20.8,2.8c-0.6,0.3,6.4,22.7,16.7,53.6
		c9.7,29.1,17.6,53.1,17.7,53.2c0,0.1,10,0.1,22.2,0l22.2-0.3l4.3-12.3c2.4-6.8,5.1-14.7,6.1-17.7c1-3,6.5-18.7,12.2-34.9
		s10.8-30.8,11.3-32.3c1.3-4.3,2.8-4.1,4.2,0.6c1.2,4,9,26.6,25.1,72.9c4,11.3,7.5,21.4,7.9,22.4
		C175.4,230.8,177.2,230.9,197.5,230.7z"/>
	<path class="st1" d="M30.9,103.8c6.7-1.3,16.6-2.9,22-3.5c5.4-0.6,10.8-1.5,11.9-2l2.1-0.9l-2.2-7.7c-2-6.9-7.1-23.9-10.7-35.7
		l-1.4-4.4l-26.1-0.3C12.3,49.3,0.3,49.6,0,50.1c-0.6,0.9,16.7,54.1,17.9,55.4C18.3,105.8,24.2,105.1,30.9,103.8z"/>
	<path class="st1" d="M176.2,93.4c0-0.8-3.2-11.1-7.1-22.8L162,49.2h-21.8c-12.8,0-22,0.4-22.4,0.9c-0.9,1.5-14.3,42.3-14.3,43.6
		c0,0.9,9.1,1.2,36.3,1.2C171.2,94.9,176.2,94.7,176.2,93.4z"/>
	<path class="st1" d="M280,49.2h-26.4c-20.3,0-26.5,0.3-26.8,1.2c-4.4,14.9-12.2,40.8-13.3,44.2c-1.1,3.6-1.1,3.6,15.3,5.8
		c7.8,1,17.3,2.5,21.1,3.3c12.3,2.6,10.2,5.2,20.8-26.5L280,49.2z"/>
</g>
</svg>
